/* XPM */
static char *picture[] = {
"64 64 16 1 ",
"  c None",
"X c #FD4646",
"+ c #FA6666",
". c #E9D7D7",
"| c #E2BFBF",
"/ c #FE8282",
"6 c #F23131",
"7 c #FFA0A0",
"8 c #564B4B",
"9 c #6F6868",
"a c #610808",
"b c #888282",
"c c #A1A0A1",
"d c #2F2F2E",
"e c #AF1313",
"f c #C1494A",
"                                                                ",
"                                                                ",
"                                                                ",
"                                                                ",
"                                                                ",
"                                                                ",
"                                                                ",
"                                                                ",
"                                                                ",
"                                                                ",
"                                                                ",
"                                                                ",
"                                                                ",
"                                                                ",
"                                                                ",
"                                                                ",
"                                                                ",
"                                                                ",
"                             aaeaaaa                            ",
"                         aae6666X666eea                         ",
"                        e6X6X66X6X6XX66ea                       ",
"                      a66X6XXXXXXXX6X6X66a                      ",
"                     e6XX6XXXXXXXXXXXX6XX6ea                    ",
"                    eXX6XXXXXXXXXXXXXXX6XX6e                    ",
"                   e6X6XXXXXXX++X+X+XXXXX6X6e                   ",
"                  a6X6XXXXX+++++++++X+XXXX6X6a                  ",
"                 a6XXXXXX++++++/+/+++++XXXX6X6a                 ",
"                 eXX6XXX+X++////////+++XXXXXX6e                 ",
"                a6X6XXXX++///777777//++++XXX6X6a                ",
"                eX6XXXX++///7777|777///+XXXXXXXe                ",
"                eXXXXX+++//77||.|||77//+++XXX6Xe                ",
"                6X6XX+X+//77||.....|77//++XXXXX6                ",
"               a6XXXXX++//77.......||7//++XXXXX6a               ",
"               aXX6XXX++/77||.......|77//+XXX6XXa               ",
"               aXXXXX++//77|.......||7//+++XXXXXa               ",
"               aXXXXXX++//7|........|77/++X+XXXXa               ",
"                6XXXX+++/777|......||77/+++XXX6f                ",
"                8X6XXX++//7|||...|||77//++XXXXXf                ",
"                dfXXX+X+///77|||||||7//+++XXXX8d                ",
"                d8ffXX+++//777||||777//+++XXXfdd                ",
"                 8d8fXX+++///777777//+//+XXf888d                ",
"                 d8888fX+++/////////+bbb/+88d8d                 ",
"                 d98d8889++++//////9c||cb9888b8                 ",
"                 dcb888888999999+b9c....|988bcd                 ",
"                  9|c88888989899bbc.....|98c|9                  ",
"                   c|cb888889898bc|.....cb||b                   ",
"                    c|||b98888889bc....|c||cd                   ",
"                    dc..|||ccbbbbb9c.|cc.|c                     ",
"                      9||...|.||.||cc||.|b                      ",
"                       db||.....|.|.|.|bd                       ",
"                         dbc||.|..|||bd                         ",
"                            889b999d                            ",
"                                                                ",
"                                                                ",
"                                                                ",
"                                                                ",
"                                                                ",
"                                                                ",
"                                                                ",
"                                                                ",
"                                                                ",
"                                                                ",
"                                                                ",
"                                                                "
};