/* XPM */
static char *picture[] = {
"64 64 16 1 ",
"  c None",
"X c #FC4646",
"+ c #FA6666",
". c #E8D5D4",
"| c #DFBDBD",
"/ c #FE8282",
"6 c #524F4F",
"7 c #FF9E9E",
"8 c #EF2F2E",
"9 c #6B6363",
"a c #510607",
"b c #AA1212",
"c c #303030",
"d c #A09F9F",
"e c #828282",
"f c #884E4D",
"                                                                ",
"                                                                ",
"                                                                ",
"                                                                ",
"                                                                ",
"                                                                ",
"                                                                ",
"                                                                ",
"                                                                ",
"                                                                ",
"                                                                ",
"                                                                ",
"                                                                ",
"                                                                ",
"                                                                ",
"                                                                ",
"                              aaaa                              ",
"                          abb888888bba                          ",
"                       aa888XX8X8X8X88baa                       ",
"                      ab8XX8XXXXXXXXXXX8b                       ",
"                     b8XX8XXXXXXXXXXX8XX88b                     ",
"                   ab8XX8XXXXXXXXXXXXXX8XX8b                    ",
"                   b8XX8XXXXXXX+X+XXXXXXX8X8b                   ",
"                  a8X8XXXXX+++++++++X+XXXXXX8a                  ",
"                 a8XX8XX+X+++++++++++X+XXX8XXba                 ",
"                 b8XXXXXX+++////////+++XXXXX8Xb                 ",
"                a8X8XXX++++///7777///++++XXXXX8a                ",
"                bXXXXX+X++//7777|777//+++XXX8X8b                ",
"                8X8XXXX++//77||||||77//++XXXXXX8                ",
"               a8XXXXX++//77||....||77//++XXX8X8a               ",
"               aXX8XX+++//7||......||7//+++XXXXXa               ",
"               bXXXXXX++/77|........|77/++XXXXXXb               ",
"               bXXXXX+++/77|........|77/+++XXX8Xb               ",
"               bXXXXX++//77||.......|77//+XXXXXXb               ",
"               aX8XXXX++//7|.......||77/+++XXXXXc               ",
"               afXXXX+++/77||......||7//+++XXXXfa               ",
"                6XXXXX++//77|||..|||77//++XXXX8f                ",
"                cf8XXX+++//77||||||77//++++++f6c                ",
"                cc6fXXX+++//77777777///+X+99966c                ",
"                c6c66fX+++////7777///++++9d.|66                 ",
"                 99c66fff+++///////+/++X9|..|e6                 ",
"                 6d66c666999+e+//+e+9999d...|dc                 ",
"                 cdd66c66669999999999699|...dd                  ",
"                  6||e666666969969966699...|dc                  ",
"                   9|.de9666666696666699e|d|6                   ",
"                    e|.||de999666669eedddd|6                    ",
"                     6|.....||d||||||....|9                     ",
"                      cd|..|.|..|....|.|dc                      ",
"                        6d|.........|.d9                        ",
"                          ced||||||dec                          ",
"                              ccccc                             ",
"                                                                ",
"                                                                ",
"                                                                ",
"                                                                ",
"                                                                ",
"                                                                ",
"                                                                ",
"                                                                ",
"                                                                ",
"                                                                ",
"                                                                ",
"                                                                ",
"                                                                "
};