/* XPM */
static char *picture[] = {
"64 64 16 1 ",
"  c None",
"X c #FD4646",
"+ c #FB6565",
". c #E6D4D4",
"| c #FE8181",
"/ c #514D4C",
"6 c #FFA0A0",
"7 c #E5BEBE",
"8 c #696463",
"9 c #EB2C2C",
"a c #A4A1A2",
"b c #BA1717",
"c c #302C2C",
"d c #560505",
"e c #A94749",
"f c #888787",
"                                                                ",
"                                                                ",
"                                                                ",
"                                                                ",
"                                                                ",
"                                                                ",
"                                                                ",
"                                                                ",
"                                                                ",
"                                                                ",
"                                                                ",
"                                                                ",
"                                                                ",
"                                                                ",
"                                                                ",
"                           dbbb99bbbd                           ",
"                        db99XXXX9XXX9bbd                        ",
"                      db9X9XX9XXXX9X9XX9bd                      ",
"                     d99XXXXXXXXXXXXXX9XXbd                     ",
"                    b9XX9XXXXX+XXXXXXXXX9X9d                    ",
"                   d9X9XXXXXXXXXXX+XXXXXXXX9d                   ",
"                  d9X9XXXXXX+++++++X+XXXXX9X9d                  ",
"                 d9XXXXXXX+++++|+++++X+XXXXX99                  ",
"                 b9XX9XX++++||||||||+++XXXXXXXb                 ",
"                 9X9XXXX+++||||6|6|||++++XXX9X9d                ",
"                bXXXXX++++||6666666|||++XXXXXXXb                ",
"               d9X9XXXX++||6666777666||+++XXX9X9                ",
"               d9XXXX++++|666.....7766||++XXXXX9d               ",
"               dX9XXXX++||677......766||++XXXXX9b               ",
"               bXXXXX+++|6677.......766||++XXXXXb               ",
"               9XXXXXX+||667........766|+++XXXXX9               ",
"               bXXXXX+++|667........766||+XXXXXXb               ",
"               bX9XX+X+||667........76|||++XXXXXb               ",
"               cXXXXX+++|6677......7766|++X+XXXec               ",
"               ce9XXXX++||6677....7766||+++XXX88c               ",
"                /eXXX+++|||6677.777666||++XXXea7c               ",
"                c/eXXXX++||6666676666||+++XXea.7c               ",
"                c/c/eX++++|||666666|||+++XXe/7.ac               ",
"                 ///c/ee+++||||6|||||+++ee//87.f                ",
"                 88/////88++|+|||||++88/////f.7c                ",
"                 /a8//////8888888888888/////8a8                 ",
"                  a7f///////8888888/8//////88/                  ",
"                  ca.a8////8/8/8/88//////fa7ac                  ",
"                   c7.77f88/////////8/8aa..7c                   ",
"                    ca..7.7aaafffffaa7.7..a/                    ",
"                     ca7...7.........7...ac                     ",
"                       877...7..7.7....a8                       ",
"                         8a7..7.....7a8c                        ",
"                           c/faaaaf8c                           ",
"                                                                ",
"                                                                ",
"                                                                ",
"                                                                ",
"                                                                ",
"                                                                ",
"                                                                ",
"                                                                ",
"                                                                ",
"                                                                ",
"                                                                ",
"                                                                ",
"                                                                ",
"                                                                ",
"                                                                "
};