/* XPM */
static char *picture[] = {
"64 64 16 1 ",
"  c None",
"X c #FB4242",
"+ c #FB6464",
". c #E7D4D4",
"| c #FD5050",
"/ c #FE8282",
"6 c #E2BEBE",
"7 c #514B4B",
"8 c #F19F9F",
"9 c #696262",
"a c #858383",
"b c #EA2D2D",
"c c #2A2929",
"d c #B71414",
"e c #640506",
"f c #832B2B",
"                                                                ",
"                                                                ",
"                                                                ",
"                                                                ",
"                                                                ",
"                                                                ",
"                                                                ",
"                                                                ",
"                                                                ",
"                                                                ",
"                                                                ",
"                                                                ",
"                                                                ",
"                           eedddddde                            ",
"                         ddbbXXXXXXbbdd                         ",
"                       dbbXXXXXXXXXXXXbbd                       ",
"                      dbXXXXXXXXXXXXXXXXbde                     ",
"                    ebbXXXXXXX||X|XXXXXXXXbe                    ",
"                  eebXXXXXX||||||||||XXXXXXbe                   ",
"                  ebXXXXX||||+++++++|||XXXXXbe                  ",
"                  dXXXXX|||++++++++++|||XXXXXb                  ",
"                 dXXbXX|||++//////+++++||XXXXXd                 ",
"                 bXXX|X|+++/////8////+++||XXXXbe                ",
"                dXXXXX|+++///8888888//+++|XXXXXd                ",
"                bXXXX||++//8886866888//++||XXXXbe               ",
"               eXXXX||++//88666..66888/+++||XXXbe               ",
"               dXXXXX+++/8886......688//++||XXXXd               ",
"               d|XXX||++//866.......688//+||XXXXd               ",
"               bXXXX||+//866........688/+++|XXXXX               ",
"               bXXXX|+++/886........668//+|||XXXb               ",
"               bXXX|||+//886........688//++|XXXXac              ",
"               fXXXX|++//886.......6688/++|||XXX87              ",
"               cXXXX||++//886......688///++|XXX|67              ",
"               c7XXX||++//88866.666688/+++||XXXa6c              ",
"               cc7X|X|+++//8868666888///++|X|Xca6               ",
"                77c7|||++///88888888///+|||X7c7aa               ",
"                c77c77||+++///8/8////++++|777779c               ",
"                c99777779+++////////++997777c79c                ",
"                 aa77c777999999a9a99999777c79aa                 ",
"                 76a977777999999999997977777a67                 ",
"                  a66a77777979999997977777a6.a                  ",
"                   a.66a9777777777977779a66.a                   ",
"                   ca...66aaa9999999aa666..a                    ",
"                    ca6..6.6.66.666....6..ac                    ",
"                      766....6.6....6.6.69                      ",
"                       c966......6....69c                       ",
"                         c9a66666.66a9c                         ",
"                            cc7797cc                            ",
"                                                                ",
"                                                                ",
"                                                                ",
"                                                                ",
"                                                                ",
"                                                                ",
"                                                                ",
"                                                                ",
"                                                                ",
"                                                                ",
"                                                                ",
"                                                                ",
"                                                                ",
"                                                                ",
"                                                                ",
"                                                                "
};