/* XPM */
static char *picture[] = {
"64 64 16 1 ",
"  c None",
"X c #FC4746",
"+ c #FD6464",
". c #E7D4D4",
"| c #FF8282",
"/ c #524B4B",
"6 c #E1BEBE",
"7 c #FFA0A0",
"8 c #EC3031",
"9 c #686363",
"a c #550505",
"b c #B91414",
"c c #8D8383",
"d c #A8A7A7",
"e c #2A2929",
"f c #7F3739",
"                                                                ",
"                                                                ",
"                                                                ",
"                                                                ",
"                                                                ",
"                                                                ",
"                                                                ",
"                                                                ",
"                                                                ",
"                                                                ",
"                                                                ",
"                            abbbbbb a                           ",
"                         ab8X8X88X888ba                         ",
"                      aa88XX8XXXXXXXXX8bb                       ",
"                     ab88X8XXXXXXXXXX8XX8ba                     ",
"                    a88XXXXXXXXXXXXXXXX8X88a                    ",
"                   a8XXXXXXXXXX+XXXXXXXXXX88a                   ",
"                  a88X8XXXX+X++++++X+XXXXXXX8a                  ",
"                 abXXXXXXX++++++++++++XXXX8X88                  ",
"                 b8X8XXXX++++|||||+++++XXXXXX8b                 ",
"                a8XXXXX++++||||||||||++++XXX8X8a                ",
"                bX8XXX+X++|||777777|||+++XXXX8Xb                ",
"               a8XXXXXX++|||777676777||+++XXXXX8a               ",
"               b8X8XX+++||77666..66777|+++XXXX8Xb               ",
"               bXXXXXX++||776.....6677||+++XXXXXb               ",
"               8X8XXX++||7766.......677||+XXXX8X8               ",
"               8XXXXX+++|776........677|+++XXXXXXa              ",
"              a8XXXXX++||776........667||++XXX8X8a              ",
"               XX8XXX++||766........677||+++XXXXXa              ",
"               8XXXXX++|||766.......677|+++XXXXX8               ",
"               fXXXXX+++|7766.....6667|||++XXXXXfe              ",
"               efXXXX+++||7766.6666677||+++XXXXfe               ",
"                /fXXXX++|||7776666677|||++XXXXf/e               ",
"               e/e/XXX+++|||77776777|||++X+Xff//                ",
"                e/////XX++||||77|7||||++++f/////                ",
"                /9/e///9+++||||||||||++9////e/9/                ",
"                ec9/////9/999c9cccc99999/////9ce                ",
"                 cd9/////999999999999/9/////9dc                 ",
"                 /d6c///////999999/99//////c66e                 ",
"                  /6.dc9///////9//9/////9cd.69                  ",
"                   966.6dcc9//9//9//9ccd66..9                   ",
"                    96.6.66666ddddd666..6.69                    ",
"                     /d......6......6..6.6/                     ",
"                      e96...6..6.6.....6c                       ",
"                        ecd6..6....66dce                        ",
"                          e/9ddddddc/e                          ",
"                               e                                ",
"                                                                ",
"                                                                ",
"                                                                ",
"                                                                ",
"                                                                ",
"                                                                ",
"                                                                ",
"                                                                ",
"                                                                ",
"                                                                ",
"                                                                ",
"                                                                ",
"                                                                ",
"                                                                ",
"                                                                ",
"                                                                ",
"                                                                "
};