/* XPM */
static char *picture[] = {
"64 64 16 1 ",
"  c None",
"X c #FB4746",
"+ c #FD6464",
". c #E7D4D3",
"| c #4D4B4B",
"/ c #FC8181",
"6 c #E5C0C0",
"7 c #FFA0A0",
"8 c #F02E2F",
"9 c #6A6363",
"a c #5B0606",
"b c #2B2B2C",
"c c #8B8484",
"d c #A3A2A2",
"e c #B81314",
"f c #854A4A",
"                                                                ",
"                                                                ",
"                                                                ",
"                                                                ",
"                                                                ",
"                                                                ",
"                                                                ",
"                                                                ",
"                                                                ",
"                            aaeeeaea                            ",
"                         ae88X8X8X888ea                         ",
"                       a88XX8XXXXXXXX88ea                       ",
"                     ae88X8XXXXXXXXXXXXX8e                      ",
"                    ae8XXXXXXXXXXXXXXXXXX88a                    ",
"                   a8XXXXXXXXXXX+XXXXXXX8XX8a                   ",
"                  a88X8XXX+X+++++++X+XXXXX8X8a                  ",
"                  eXXXXXXXX+++++++++++XXXXXXXea                 ",
"                 e8X8XXX+++++/////+++++X+XX8XXe                 ",
"                a8XXXX+X+++//////////+++XXXXXX8a                ",
"                eX8XXXX+++//7/77777///+++XXXX8Xe                ",
"               a8XXXXX+++///776767777//+++XXXXX8a               ",
"               eX8XXXX++//777666.66777//++XXXX8Xe               ",
"               eXXXXX+++//776.....6677//+++XXXXX8               ",
"              a8XXXXX+++/7766.......677/+++XXXXX8a              ",
"              a8X8XXX++//776........677//++XXX8X8a              ",
"              aXXXXXX++//776........667//++XXXXXXa              ",
"              aXXXXXX++//766........677//+++XXXXXa              ",
"              aXX8XX+++//7766.......677//++XXXXX8a              ",
"               8XXXXX++//7766......6677//++XXX8XX               ",
"               f8X8XX+++//77666..66677//+++XXXXX|               ",
"               b|fXXXX++//77766666677///+++XXXf|b               ",
"               b||f8X++++//7777677777//+++XXXfb|b               ",
"                ||b|fXX+++///777777////++XXf||||                ",
"                b||||||9+++//////////+++9f|||b||                ",
"                b9||b|||99999ccc/ccc99|9|||b||c|                ",
"                bdc||||||99999999999999||||||cdb                ",
"                 96d9||||||9|99999999|||||||d6c                 ",
"                 bc.dc9|||||9|9|9|9||9|||9c66d                  ",
"                  bd..6dc99||9|9||||||9cd6..db                  ",
"                   bd.6.666ddcccccddd66.6..d|                   ",
"                    bd..6..6......6...6...db                    ",
"                      96..6..6.6....6..66c                      ",
"                       bc66.6...6..6.66db                       ",
"                         bcd6666.666dcb                         ",
"                            bb|9||bb                            ",
"                                                                ",
"                                                                ",
"                                                                ",
"                                                                ",
"                                                                ",
"                                                                ",
"                                                                ",
"                                                                ",
"                                                                ",
"                                                                ",
"                                                                ",
"                                                                ",
"                                                                ",
"                                                                ",
"                                                                ",
"                                                                ",
"                                                                ",
"                                                                ",
"                                                                "
};