/* XPM */
static char *picture[] = {
"64 64 16 1 ",
"  c None",
"X c #FC4343",
"+ c #E8D4D4",
". c #FC5050",
"| c #FD6565",
"/ c #504B4A",
"6 c #FC8282",
"7 c #E3C0C0",
"8 c #FF9F9F",
"9 c #676464",
"a c #640707",
"b c #F02F2F",
"c c #898181",
"d c #2A2B2B",
"e c #B01212",
"f c #A3A2A2",
"                                                                ",
"                                                                ",
"                                                                ",
"                                                                ",
"                                                                ",
"                                                                ",
"                                                                ",
"                            aaaeeaea                            ",
"                         aebbXbXXXbbbea                         ",
"                       aebXXXXXXXXXXXXbee                       ",
"                     aebXXXXXXXXXXXXXXXXbea                     ",
"                    abbXXXXXX.....X.XXXXXXea                    ",
"                   abXXXXX............XXXXXba                   ",
"                  abXXXX.....|.|||.....XXXXXba                  ",
"                 abXXXXX...||||||||||....XXXbba                 ",
"                 eXXXXX...|||66666|6|||..XXXXXe                 ",
"                abXXXX..|||666666666||||..XXXXbe                ",
"                eXXXX..|||666888886866|||..XXXXe                ",
"               abXXX...||66888878788866||..XXXXXa               ",
"               eXXXXX.||6688877777788866||..XXXXe               ",
"               bXXXX.|||66887+++++778866||..XXbXba              ",
"              abXXX...|66888++++++++7886|||..XXXba              ",
"              aXXXXX.||66877++++++++78866||.XXXXXa              ",
"              eXXXX..||66887++++++++78886||..XXXXe              ",
"              eXXXXX.||66877++++++++77866||.XXXX.e              ",
"              a.XXX..||66887++++++++78866||..XXXXa              ",
"              abXXXX.||668877++++++778866||..XXXXd              ",
"              d/XXX..|||668777++++7778666|...XXX/               ",
"               d/XXX..||6688877777788866|||.XXb//               ",
"               d/dXXX.||666888787888866||...X///d               ",
"               d/////..|||6668888888666|||.X//d/d               ",
"               d/d////9.||66666866666|||9////d/9d               ",
"                99/d////9999c6c6c6cc9999////d/99                ",
"                9f9//d///999999c9999999////d/9f/                ",
"                dff9///////99999999999//////cffd                ",
"                 /+7f9//////9/9/9/9///////9f779                 ",
"                  97+7fc99/////9/9//9//9cf7++c                  ",
"                   c7+7+7fffcc9999cccf77+7+7c                   ",
"                    c7+7++7++7++7+77+++7++7c                    ",
"                     9f+77+7++7++++++77+7f9                     ",
"                      dc7++++7+77+7+7++7cd                      ",
"                        dcf77++++++7+fc/                        ",
"                          d/ccffffc9/d                          ",
"                                                                ",
"                                                                ",
"                                                                ",
"                                                                ",
"                                                                ",
"                                                                ",
"                                                                ",
"                                                                ",
"                                                                ",
"                                                                ",
"                                                                ",
"                                                                ",
"                                                                ",
"                                                                ",
"                                                                ",
"                                                                ",
"                                                                ",
"                                                                ",
"                                                                ",
"                                                                ",
"                                                                "
};