/* XPM */
static char *picture[] = {
"64 64 16 1 ",
"  c None",
"X c #FC4747",
"+ c #FD6464",
". c #DCC1C0",
"| c #4B4A4A",
"/ c #ECD5D5",
"6 c #FB8282",
"7 c #FF9F9F",
"8 c #686464",
"9 c #E92C2C",
"a c #322C2C",
"b c #5A0404",
"c c #8B8383",
"d c #A71010",
"e c #9F9F9F",
"f c #844849",
"                                                                ",
"                                                                ",
"                                                                ",
"                                                                ",
"                                                                ",
"                            bbddddbb                            ",
"                         bd99X9X9X999db                         ",
"                       d99XXXXXXXXXXX999bb                      ",
"                     bdX9XXXXXXXXXXXXXXXXdb                     ",
"                    b99XXXXXXXXXXX+XXXXX9X9b                    ",
"                  bd9XXXXXXX+XXX+XXXXXXXXXX9b                   ",
"                  b9X9XXXXX+X++++++X+XXXXXXX9d                  ",
"                 b9XXXXXX+X+++++++++++X+XXXX99b                 ",
"                b9X9XXXX++++6666666++++XXXXXXX9                 ",
"                dX9XXX+X+++66667666666+++XXXXX9d                ",
"                9XXXXXX++6666777777666+++XXXX9X9b               ",
"               dX9XXXX+++6677777.777666++++XXXX9b               ",
"               9XXXXX+++66677......77766++XXXXXX9               ",
"              b9X9XXXX++6777./////...766+++XXXXX9b              ",
"              bXXXXX+++6677..///////77766++XXX9X9d              ",
"              dX9XXXX++6677.////////..766+++XXXXX9              ",
"              dXXXXX+++6777.////////.7776++XXXX9Xd              ",
"              9XXXXXX++667..////////..7666++XXXXX9              ",
"              9X9XXX+++6677.////////.7766++XXXX9X9              ",
"              bXXXXXX++6677..//////..7766+++XXXXXa              ",
"              afX9XX+++6677../////...776+++XXXXXfb              ",
"              aafXXXXX++66777......77766+++XXX9f|a              ",
"               ||aXXX+++666777..7.777666++XXXff||               ",
"               a|||fXX++++6677777777666++++X||a|a               ",
"               a||||||f+++66666767666+++8ff|||||a               ",
"               a8||a||||8888cc6c6c6cc8888||a|a|c                ",
"                cc||||||888888c8c888888|||||||cc                ",
"                |.e|||||||88|88888888|8||||||e.8                ",
"                 e/ec||||||8888|8888|8|||||ce/e                 ",
"                 ae/..c8|||||||8||||||||8ee//ea                 ",
"                  a.../..ecc888|8888ccee./..ea                  ",
"                   a../././/.........////...|                   ",
"                    ae..///.//./////./././ea                    ",
"                     a8...././/////././..8a                     ",
"                       ac.........../..ca                       ",
"                         a8e........e8a                         ",
"                             aa||aa                             ",
"                                                                ",
"                                                                ",
"                                                                ",
"                                                                ",
"                                                                ",
"                                                                ",
"                                                                ",
"                                                                ",
"                                                                ",
"                                                                ",
"                                                                ",
"                                                                ",
"                                                                ",
"                                                                ",
"                                                                ",
"                                                                ",
"                                                                ",
"                                                                ",
"                                                                ",
"                                                                ",
"                                                                ",
"                                                                "
};