/* XPM */
static char *picture[] = {
"64 64 16 1 ",
"  c None",
"X c #FC4847",
"+ c #FD6666",
". c #DEC1C1",
"| c #504B4B",
"/ c #EBD5D5",
"6 c #FB8484",
"7 c #FF9F9F",
"8 c #686665",
"9 c #EC2F30",
"a c #827C7C",
"b c #AD0F10",
"c c #322E2E",
"d c #600304",
"e c #A1A0A0",
"f c #963031",
"                                                                ",
"                                                                ",
"                                                                ",
"                           ddbbbbbbd                            ",
"                         bb99X9XX9X99bd                         ",
"                       b99XXXXXXXXXXXX99bd                      ",
"                     d9X9XXXXXXXXXXXXXXX99d                     ",
"                    b9XXXXXXXXXXXXXXXXXXX99b                    ",
"                   b9X9XXXXX+X+X+XX+XXXXXXX9bd                  ",
"                  bXXXXXXXX+X++++++X+XXXXXXX9b                  ",
"                 b9X9XXXXX++++++++++++X+XXXXX9d                 ",
"                d9X9XXXX++++6+6666+6+++XXXXX9X9d                ",
"                b9XXXXX+++6+666676666++++XXXXXXb                ",
"               d9X9XX+X+++667777777666+++XXXX9X9d               ",
"               bX9XXXX+++6677777.777766++++XXX9Xb               ",
"              d9XXXXXX++66777......77766++XXXXXX9d              ",
"              dXX9XXX+++6677./////...766++++XX9X9b              ",
"              bX9XXX+++6677..///////77766++XXXXXXb              ",
"              bXXXXXX++667..////////..766++XXXX9X9              ",
"             d9X9XXX+++6777.////////.7776+++XXXXX9d             ",
"              9XXXXXX++667..////////..766+++XX9XX9              ",
"              9X9XXX+++6677.////////..766++XXXXXX9              ",
"              f9XXXXX++6677..//////..7766+++XXXXXf              ",
"              cX9XXX+++6677...////..77766++XXXX9Xc              ",
"              c|X9XXXX++6677........7766+++XXXXXcc              ",
"              cc||XXX+++666777...7.7766++++XXXf||c              ",
"               |||c|XX++++6677777777666+++XXf||||               ",
"               c||||c|8+++666677767666++88||||c||               ",
"               c||c|||||888aa6a6a6aaa888||||c||8c               ",
"                a8|c|||||888888a8a8888|8|||c||8ac               ",
"                a.a||c|||88|88888888|88||||||8.a                ",
"                |e.e8||||||88888888|8|||||||e..c                ",
"                 8./.ea|||||||||8|||||||88e./.a                 ",
"                  8.//..ee888|8||8|88aae..//.a                  ",
"                   a../././...e..e..././/../a                   ",
"                    a..///./////////./././.a                    ",
"                     |e..././././/././../e|                     ",
"                      c8..././././/././.a                       ",
"                        cae.../......eac                        ",
"                           c|aaeeaa|c                           ",
"                                                                ",
"                                                                ",
"                                                                ",
"                                                                ",
"                                                                ",
"                                                                ",
"                                                                ",
"                                                                ",
"                                                                ",
"                                                                ",
"                                                                ",
"                                                                ",
"                                                                ",
"                                                                ",
"                                                                ",
"                                                                ",
"                                                                ",
"                                                                ",
"                                                                ",
"                                                                ",
"                                                                ",
"                                                                ",
"                                                                ",
"                                                                "
};