/* XPM */
static char *picture[] = {
"64 64 16 1 ",
"  c None",
"X c #FC4747",
"+ c #FD6565",
". c #DDC0C0",
"| c #4C4A4A",
"/ c #ECD5D5",
"6 c #FE8484",
"7 c #FF9F9F",
"8 c #656363",
"9 c #EF2F2F",
"a c #A4A3A3",
"b c #BE1414",
"c c #8F8281",
"d c #590404",
"e c #2C2B2B",
"f c #7E4A4A",
"                               d                                ",
"                           dbbb9b9bbd                           ",
"                        db99XXXXXXXX99bd                        ",
"                      db9XXXXXXXXXXXXXX9bd                      ",
"                    db9XXXXXXXXXXXXXXXXXX9b                     ",
"                   db9XXXXXXXXXXXXXXXXXXXX9b                    ",
"                  db9XXXXXXXX+X+++X+XXXXXXX9bd                  ",
"                  bXXXXXX+X++++++++++X+XXXXXXb                  ",
"                 bXXXXXXXX++++++++++++X+XXXXX9b                 ",
"                d9X9XXX+++++6666666+++++XXXXXX9d                ",
"               dbXXXXXX++++6666676666++++XXXX9X9d               ",
"               bXX9XXX+++6667777777766++++XXXXX9d               ",
"              dbX9XX+X+++667777.7.777666++XXXX9X9               ",
"              d9XXXXX+++6677..../..77766+++XXXXX9d              ",
"              bX9XXXX+++6777./////...776++++XX9XXb              ",
"              bXXXXX+++6677..///////.7766++XXXXXXb              ",
"             d9X9XXXX++667..////////.7766+++XXX9X9              ",
"             dXXXXXX++66677/////////..776++X+XXXX9d             ",
"             d9X9XXX+++677..////////..7666++XXXXX9d             ",
"             dXXXXXX+++667..////////..776+++XXX9XXd             ",
"              9X9XXXX++6677..//////..7766+++XXXX9X              ",
"              fXXXXX+++6677...////...7766++XXXXXX|              ",
"              e|9XXXX+++6677.../....7766++++XXX9|e              ",
"              ee|f9XX+++66677.7...777666++XXXXf||e              ",
"              e|||||XX+++66677777777666++++Xfe|e|e              ",
"               ||e||||8+++666677767666++8f|||||||               ",
"               ||||e|||8888cccccccccc8888||||e|8|               ",
"               |c|||||||88888c8cc8c8888||||||||c|               ",
"               eaa8e|||||8|8888888888888|||||8aae               ",
"                8..c||||||888888888|8||||||8ca.c                ",
"                 c/..c8||||||||8|8|8|||||8ca..a                 ",
"                 ea./..aac8888|8||8|88caa../.ae                 ",
"                  |a././/./..a.aa.a..././//..e                  ",
"                   |a.././/./////////.//...a|                   ",
"                    ea../.././/.///.//../.ae                    ",
"                      8a././././../..//.a8                      ",
"                       eca../../././..a8e                       ",
"                          |8aa.a.a.cce                          ",
"                              e e                               ",
"                                                                ",
"                                                                ",
"                                                                ",
"                                                                ",
"                                                                ",
"                                                                ",
"                                                                ",
"                                                                ",
"                                                                ",
"                                                                ",
"                                                                ",
"                                                                ",
"                                                                ",
"                                                                ",
"                                                                ",
"                                                                ",
"                                                                ",
"                                                                ",
"                                                                ",
"                                                                ",
"                                                                ",
"                                                                ",
"                                                                ",
"                                                                ",
"                                                                "
};