/* XPM */
static char *picture[] = {
"64 64 16 1 ",
"  c None",
"X c #FC4847",
"+ c #FD6666",
". c #DEC1C1",
"| c #4C4B4B",
"/ c #EBD5D5",
"6 c #FC8484",
"7 c #FF9F9F",
"8 c #E62F2F",
"9 c #686565",
"a c #867D7D",
"b c #AC0F10",
"c c #322D2D",
"d c #610404",
"e c #A1A0A1",
"f c #814949",
"                                                                ",
"                                                                ",
"                                                                ",
"                           ddbbbbbbd                            ",
"                         bb888XX8X888bb                         ",
"                       b88XXXXXXXXXXX888bd                      ",
"                     d88XXXXXXXXXXXXXXXX88d                     ",
"                    b8XXXXXXXXXXXX+XXXXXX88b                    ",
"                   b8X8XXXXXXX+X+XXXXXXXXXXXbd                  ",
"                  bXXXXXXXX+++++++++X+XXXXX88b                  ",
"                 b8X8XXXXX++++++++++++X+XXXXX8d                 ",
"                d8X8XXX+X+++6+66666++++XXXXXXX8d                ",
"               dbXX8XXXX++6+666676666++++XXX8XXb                ",
"               d88XXXX++++667777777666++++XXX8X8d               ",
"               bXXXX+X+++6677777.777766++X+XXXXXb               ",
"              d88X8XXX++66777......77766++XXXX8X8d              ",
"              dXXXXXX+++6777./////..7776++++XXXX8b              ",
"              bX8XXX+++6677..///////.7766++XXX8XXb              ",
"              bXXXXXX++6677.////////.7766++XXXXXX8              ",
"             d8X8XXX+++6777/////////..766+++XXX8X8d             ",
"              8XXXXXX++667..////////.7776+++XXXXX8              ",
"              8X8XXX+++6677.////////..766++XXXX8X8              ",
"              8XXXXXX++6677.////////.7766+++XXXXX8              ",
"              cX8XXX+++66777..////..77766++XXXX8fc              ",
"              c|8XXXX+++6677........7766+++XXXXX|c              ",
"              c||f8XXX++667777...7.7766+++XXX8fc|c              ",
"               c|c|fX+X+++6677777777666++++Xf||||               ",
"               ||||c||9+++666677676666++9ff|||c||               ",
"               c||c|||||999aa6a6a6aaa9999|||c|||c               ",
"               ca9||c||||99999a9aa9999|||||c||9ac               ",
"                a.9||||||9|999999999999||||||9.a                ",
"                c..e|||||||9|9999|99||||||||e..c                ",
"                 9./.ea|||||9|9||9||||||99e./.9                 ",
"                  a../..ee99||||9||999ee..//.a                  ",
"                   a./././/.....e..././/././a                   ",
"                    a././/.////////./././..a                    ",
"                     |e..././././/././../e|                     ",
"                      c9..././././/././.a                       ",
"                        cae.../......eac                        ",
"                           c|aaeeaa|c                           ",
"                                                                ",
"                                                                ",
"                                                                ",
"                                                                ",
"                                                                ",
"                                                                ",
"                                                                ",
"                                                                ",
"                                                                ",
"                                                                ",
"                                                                ",
"                                                                ",
"                                                                ",
"                                                                ",
"                                                                ",
"                                                                ",
"                                                                ",
"                                                                ",
"                                                                ",
"                                                                ",
"                                                                ",
"                                                                ",
"                                                                ",
"                                                                "
};