/* XPM */
static char *picture[] = {
"64 64 16 1 ",
"  c None",
"X c #FD4747",
"+ c #FC6565",
". c #DCC0C1",
"| c #4C4A4A",
"/ c #EDD5D5",
"6 c #FB8282",
"7 c #F19F9F",
"8 c #666464",
"9 c #EA2D2D",
"a c #322C2C",
"b c #8C8484",
"c c #A91011",
"d c #590404",
"e c #8A4747",
"f c #BD4B4B",
"                                                                ",
"                                                                ",
"                                                                ",
"                                                                ",
"                                                                ",
"                            ddccccdd                            ",
"                         dc9999X9X999cd                         ",
"                       c99XXXXXXXXXXXX99d                       ",
"                     d999XXXXXXXXXXXXXXX9cd                     ",
"                    d9XXXXXXXXXX+XXXXXXXX99d                    ",
"                   c99XXXXXXX+XXXXX+XXXXXXX9c                   ",
"                  d9XXXXXXX+X++++++X+XXXXXXX9d                  ",
"                 d9XXXXXXX+++++++++++X+XXXXX99d                 ",
"                d9XX9XXX+++++666666++++XXXXXXX9                 ",
"                cX9XXXXX+++6666766666++++XXXXX9c                ",
"                9XXXXX++++666777777666+++XXXX9X9d               ",
"               cX9XXXX+++6677777.777766++++XXXX9c               ",
"               9XXXXXX++66777......77766++XXXXXX9               ",
"              d9X9XXX+++6777./////..7766+++XXX9X9d              ",
"              cXXXXXX++6667..///////.7766++XXXXX9c              ",
"              cXX9XX+++667..////////.7766+++XXXXXc              ",
"              cXXXXXX++6777.////////..776++XXXX9Xc              ",
"              9X9XXX+++667..////////.7766+++XXXXX9              ",
"              cXXXXXX++6677.////////..766++XXXX9X9              ",
"              aX9XXX+++6677..//////..7766+++XXXXXa              ",
"              aeX9XXX++6677.././//..7776+++XXXXXfa              ",
"               |eXXXX+++66777.......7766+++XXX9e|               ",
"               ||efXXX++666777..7.777666++XXXfe||               ",
"               aa|aefX++++6677777777666+++Xfe|||a               ",
"               a||||||f8++66667676666+++f8|||a||a               ",
"               a8||a||||8888bb6b6b6bb8888||||||8a               ",
"                bb||||||8888888b8b88888||||a||bb                ",
"                8.b|||||||8|888888888|8||||||b.8                ",
"                 b/.b||||||8888|8888|8|||||b..b                 ",
"                 a7/..b8|8|||||8||||||||8b....a                 ",
"                  a......bbb888|8888bb7.../..a                  ",
"                   a..//.//./......././/.//.|                   ",
"                    a7..//././///.//.//./.ba                    ",
"                     a8..././//.///./....8a                     ",
"                       ab../.../..././.ba                       ",
"                         a8b........78a                         ",
"                             a|a|aa                             ",
"                                                                ",
"                                                                ",
"                                                                ",
"                                                                ",
"                                                                ",
"                                                                ",
"                                                                ",
"                                                                ",
"                                                                ",
"                                                                ",
"                                                                ",
"                                                                ",
"                                                                ",
"                                                                ",
"                                                                ",
"                                                                ",
"                                                                ",
"                                                                ",
"                                                                ",
"                                                                ",
"                                                                ",
"                                                                "
};