/* XPM */
static char *picture[] = {
"64 64 16 1 ",
"  c None",
"X c #FB4342",
"+ c #FC5353",
". c #EADADA",
"| c #FC6767",
"/ c #FD8484",
"6 c #E6C0C0",
"7 c #EF3636",
"8 c #FFA2A2",
"9 c #534949",
"a c #A4A3A2",
"b c #696464",
"c c #540404",
"d c #C01718",
"e c #8B8787",
"f c #302D2C",
"                                                                ",
"                                                                ",
"                                                                ",
"                                                                ",
"                                                                ",
"                                                                ",
"                                                                ",
"                                                                ",
"                                                                ",
"                                                                ",
"                                                                ",
"                                                                ",
"                                                                ",
"                                                                ",
"                                                                ",
"                                                                ",
"                                                                ",
"                                                                ",
"                                                                ",
"                                                                ",
"                            cddddddccc                          ",
"                        ccd777XX7X777dcc                        ",
"                       c77X7X7X77X7XXX7dc                       ",
"                      d7XX7X7XXXXX7X77XX7dc                     ",
"                    c77X77XXXXXXXXXXXXX7XXdc                    ",
"                   cdXX7XXXX++X+++++XXXX7XXd                    ",
"                   dXX7XXX++++|+|+++X+XXX7XXdc                  ",
"                  d7XX7XX+++|||||||+|+XXXX7X7d                  ",
"                  7X7XX+++||||/////|||++XXX7X7c                 ",
"                 d7X7XX++||//////////||++XXXX7d                 ",
"                c7XXXX++|||//888888//|||++XX7X7                 ",
"                dXX7XX++|//8888668888//|++XXXXXd                ",
"                dXXXX++||//886.6.6688//||++XXXXd                ",
"                7XXXX++|//8866.....688//||+XXXX7                ",
"               c7XXXX+||//866......668//|++XXXX7c               ",
"               c7XXX++||//866......668//||++XXX7c               ",
"               c7XXXX+||/886........688/||++XXXXc               ",
"               c7XXX++||//866......668//||+XXXX7c               ",
"                9XXXX++|//8866....6688//||++XXX9                ",
"                fXXX++||//88666.666688//|++XXXXf                ",
"                f9XXX++||//8866666688//|||X+XX9f                ",
"                 997X+++||//88868888//||+++X799                 ",
"                 f999X++||/////8/8////||++X9999                 ",
"                 fb9f99+|+||////e///|||+b9999bf                 ",
"                 feb99999bb/|eaaaae||bbb9999bef                 ",
"                  bae99999bea6....6aab99999eab                  ",
"                   a6eb999baa......aeb999be6ef                  ",
"                   fa6aeb9bba......abb9bea.af                   ",
"                    fa.66aeeb.....6eeea6.6af                    ",
"                     fe...66aea.66ea6.6..af                     ",
"                       ba6...66aa666..66b                       ",
"                        f9a6....6.6.6abf                        ",
"                           fbeaa6aab9                           ",
"                                                                ",
"                                                                ",
"                                                                ",
"                                                                ",
"                                                                ",
"                                                                ",
"                                                                ",
"                                                                ",
"                                                                ",
"                                                                ",
"                                                                "
};