/* XPM */
static char *picture[] = {
"64 64 16 1 ",
"  c None",
"X c #FB4343",
"+ c #E8D4D4",
". c #FD6565",
"| c #514C4C",
"/ c #FC5050",
"6 c #FB8282",
"7 c #E3C0C0",
"8 c #FF9F9F",
"9 c #696666",
"a c #650707",
"b c #F02E2E",
"c c #868080",
"d c #2C2B2B",
"e c #A2A1A1",
"f c #B21313",
"                                                                ",
"                                                                ",
"                                                                ",
"                                                                ",
"                                                                ",
"                                                                ",
"                                                                ",
"                            aaafafaa                            ",
"                         afbbbXXXXXbbfa                         ",
"                      aabbXXXXXXXXXXXXbff                       ",
"                     afbXXXXXXXXXXXXXXXXbfa                     ",
"                    abbXXXXXX///X/XXXXXXXXfa                    ",
"                   abXXXXXX///////////XXXXXba                   ",
"                  abXXXXX////./....////XXXXXba                  ",
"                 abXXXXX///..........///XXXXXba                 ",
"                 fXXXXX//....66666.....///XXXXf                 ",
"                abXXXX//...6666666666...//XXXXba                ",
"               afXXXX//...666888888666..///XXXXf                ",
"               abXXXX//..66888787888866.../XXXXba               ",
"               fXXXX//..6668877777788866.///XXXXf               ",
"               bXXXX/...68887+++++7788666.//XXXXb               ",
"               bXXXX//.666877+++++++7886...//XXXba              ",
"              aXXXXX/..66877++++++++78866../XXXXXf              ",
"              fXXXX//..66887++++++++78886..//XXXXf              ",
"              fXXXXX/..66877++++++++77866../XXXXXf              ",
"              a/XXX//..66887++++++++78866..//XXXXa              ",
"              abXXXX/..668877++++++778866..//XXXXd              ",
"              d|XXX//...68887+7+++778886...//XXX|               ",
"               d|XXX//..6688877777778866..//XXb||               ",
"               d||bXX/...66888787888866...//XX||d               ",
"               dd||||//..66668888886666..//X||d|d               ",
"               d9|d||||....6666868666...9|||d|||                ",
"                9||d|||||999cc6c6c6c9999||||||99                ",
"                |e9||||||999999999999|9|||d|d9e9                ",
"                de79|d||||9|9999999999||||||ceed                ",
"                 |+7e9|||||9|99|9|9|||||||9e779                 ",
"                  97+7ec9|||||||9||||||9ce7++c                  ",
"                   c7+7777eccc9999cceee+7++7c                   ",
"                    c7++++7++7++7++7++7+++7c                    ",
"                     9e77+7+++7++7+++7+7+e9                     ",
"                      dc7+++7+7+7+7+7++7cd                      ",
"                        dce77++++++7+ec|                        ",
"                          d|cceeeec9|d                          ",
"                                                                ",
"                                                                ",
"                                                                ",
"                                                                ",
"                                                                ",
"                                                                ",
"                                                                ",
"                                                                ",
"                                                                ",
"                                                                ",
"                                                                ",
"                                                                ",
"                                                                ",
"                                                                ",
"                                                                ",
"                                                                ",
"                                                                ",
"                                                                ",
"                                                                ",
"                                                                ",
"                                                                "
};