/* XPM */
static char *picture[] = {
"64 64 16 1 ",
"  c None",
"X c #FB4747",
"+ c #FD6464",
". c #E7D4D3",
"| c #FD8282",
"/ c #4D4B4B",
"6 c #E5C0C0",
"7 c #FFA0A0",
"8 c #EE2E2E",
"9 c #6A6363",
"a c #5B0606",
"b c #2C2C2C",
"c c #8D8383",
"d c #A3A2A2",
"e c #B51213",
"f c #834A4A",
"                                                                ",
"                                                                ",
"                                                                ",
"                                                                ",
"                                                                ",
"                                                                ",
"                                                                ",
"                                                                ",
"                                                                ",
"                           aaaeeeaea                            ",
"                         ae888X8XX888ea                         ",
"                       ae8XX8XXXX8XX8X8ea                       ",
"                     ae8X8XXXXXXXXXXXXXX8e                      ",
"                    ae8XXXXXXXXXX+XXXXXX888a                    ",
"                   a8XXXXXXXXXXXXXXXXXXXXXX8a                   ",
"                  a8XX8XXXXX+++++++X+XXXXX8X8a                  ",
"                  eX8XXXXX++++++++++++XXXXX8Xea                 ",
"                 eX8XXX+X++++|||||+++++X+XXXXXe                 ",
"                a8XXXXXX+++||||||||||+++XXXX8X8a                ",
"                eX8XXXX+++|||777777|||+++XXXXXXe                ",
"               a8XXXXX+++|||776767777||+++XXXXX8a               ",
"               eXX8XXX++||777666.6677|||++XXX8X8e               ",
"               8X8XXX+++||776.....6667||+++XXXXX8               ",
"              a8XXXXX+++|7766.......777|+++XXX8X8a              ",
"              aX8XXXX++||776........677||++XXXXX8a              ",
"              aXXXXXX++||776........667||++XXXXXXa              ",
"              a8X8XXX++||766........677||+++XX8XXa              ",
"              aXXXXX+++||776........677||++XXXXXXa              ",
"               fX8XXX++|||766......6677||++XXXX8X               ",
"               f8XXXXX++|777666...6677||+++XXXXff               ",
"               b/fXXX+++|||77666666777||+++XXXX/b               ",
"               b/bfXXX+++||777677777|||+++XXXfb/b               ",
"                //b/fXX+++||||77777||||++XXf////                ",
"                ///////9+++||||||||||++99f///b//                ",
"                bc/b/////99c9ccc|ccc9999///b//9b                ",
"                bdc//////9999999999999///////cdb                ",
"                 c6d////////99999999/9//////d6c                 ",
"                  d66c9///////9/9/9//////9c6.d                  ",
"                  bd..6dc999/9/9/////99cd6..db                  ",
"                   bd.6.6.dddcccccddd66.6..db                   ",
"                    bd6..6........6...6...db                    ",
"                     b966.6.6..6....6..66c                      ",
"                       bc6...6..6..6.66db                       ",
"                         b9d6666.666dcb                         ",
"                            bb/9//bb                            ",
"                                                                ",
"                                                                ",
"                                                                ",
"                                                                ",
"                                                                ",
"                                                                ",
"                                                                ",
"                                                                ",
"                                                                ",
"                                                                ",
"                                                                ",
"                                                                ",
"                                                                ",
"                                                                ",
"                                                                ",
"                                                                ",
"                                                                ",
"                                                                ",
"                                                                "
};