/* XPM */
static char *picture[] = {
"64 64 16 1 ",
"  c None",
"X c #FD4646",
"+ c #FD6464",
". c #E7D4D4",
"| c #524C4C",
"/ c #FF8282",
"6 c #E1BEBE",
"7 c #FFA0A0",
"8 c #696464",
"9 c #EC3030",
"a c #B91414",
"b c #8D8383",
"c c #A8A7A7",
"d c #292727",
"e c #BB494A",
"f c #87393B",
"                                                                ",
"                                                                ",
"                                                                ",
"                                                                ",
"                                                                ",
"                                                                ",
"                                                                ",
"                                                                ",
"                                                                ",
"                                                                ",
"                                                                ",
"                             aaaaaa                             ",
"                          a99XXX9X999aa                         ",
"                       aa9XXX9XXXXXXX99aa                       ",
"                      a9XX9XXXXXXXXXXXXX9a                      ",
"                     99X9XXXXXX+XXXXXXXXX99                     ",
"                   a9XXXXXXXXXXXXXXXXXXX9XX9a                   ",
"                  aaXX9XXX+X++++++++XXXXXX9X9                   ",
"                  aXXXXXXXX+++++++++++XXXXXX99                  ",
"                 aXX9XXX+++++/////+++++XXXXX9Xa                 ",
"                 9X9XXX+X++//////////++++XXXXX9                 ",
"                aXXXXXX++////777777///+++XXXX9Xa                ",
"                9X9XXX++++/7776767777//++X+XXXX9                ",
"               aX9XXXX++//77766..66777//++XXXXX9a               ",
"               aXXXXX+++//776......677//++XXX9XXa               ",
"               9X9XXX++//7766.......67///++XXXXX9               ",
"               9XXXXX+++/776........677/+++XXXXX9               ",
"               XXXXX+X+//776........667//++XXX9XX               ",
"               9X9XXX++//766........677//+++XXXXX               ",
"              d9XXXXX++//7766.......677//++XXXXX9               ",
"               fX9XXX+++//766......6777/+++XXXXXf               ",
"               deXXXX+++//7766.6.66677//++XXXXXfd               ",
"               d|feXXX++///7776666677///+++XXXf|d               ",
"                ||feXX+++///776777777//+++XXe|||                ",
"                |d|||eX+++/////7/7////+++ee||d||                ",
"                |8|d|||8e++/////////+++e8||d||8|                ",
"                db8||||||8888b8bbbb88888|||||8bd                ",
"                 bc8||||||8888888888|8||||||8cb                 ",
"                 |c6b|||||||88888|888||||||b66d                 ",
"                  |6.cb8|||||||8|8||||||8bc.68                  ",
"                   866.6cbb8||8||||8|bbc66..8                   ",
"                    86.6..666cccccc66.6.6.68                    ",
"                     |c...6..........6...6|                     ",
"                      d86...6..6...6..66b                       ",
"                        dbc6..6..6.666bd                        ",
"                          d|8ccccccb|d                          ",
"                               d                                ",
"                                                                ",
"                                                                ",
"                                                                ",
"                                                                ",
"                                                                ",
"                                                                ",
"                                                                ",
"                                                                ",
"                                                                ",
"                                                                ",
"                                                                ",
"                                                                ",
"                                                                ",
"                                                                ",
"                                                                ",
"                                                                ",
"                                                                "
};