/* XPM */
static char *picture[] = {
"64 64 16 1 ",
"  c None",
"X c #FB4342",
"+ c #FB6464",
". c #E8D4D4",
"| c #514B4B",
"/ c #FE8282",
"6 c #FD5050",
"7 c #E2BFBE",
"8 c #FF9F9F",
"9 c #6A6363",
"a c #E72E2F",
"b c #252323",
"c c #858484",
"d c #B71414",
"e c #9F9D9D",
"f c #610505",
"                                                                ",
"                                                                ",
"                                                                ",
"                                                                ",
"                                                                ",
"                                                                ",
"                                                                ",
"                                                                ",
"                                                                ",
"                                                                ",
"                                                                ",
"                                                                ",
"                                                                ",
"                           ffddddddf                            ",
"                         ddaaXXaXXXaadff                        ",
"                       daXXaXXXXXXXXXXaad                       ",
"                      daXaXXXXXXXXXXXXXXadf                     ",
"                    faXXXXXXXX666X6XXXXXXaaf                    ",
"                   faXaXXXX66666666X6XXXXXXaf                   ",
"                  faXXXXX666++++++++666XXXXXaf                  ",
"                  aXaXXX666++++++++++666XXXXXa                  ",
"                 daXXXX66++++/////+++++6XXXXXad                 ",
"                 aXXXXX6+++/////8////+++66XXXXaf                ",
"                dXXXX66+++///8888888//+++6XXXXXd                ",
"               faXXXX66++//8887877888//++66XXXXaf               ",
"               faXXXX6++//88777..77888//++66XXXaf               ",
"               dXXXX66++//887......788//++66XXXXd               ",
"               aXXXX66++/8877.......788/++66XXXXa               ",
"               aXXXX6++//887........788//++6XXXXa               ",
"               aXXX666+//887........788/+++6XXXXa               ",
"              bcaXXX6+++/887........788//+66XXXXa               ",
"              |e6XXX66+//8877.......788//++66XXXa               ",
"              |7+XXX6+++//877.....7788//++66XXXXb               ",
"              b79XXX66++//888777777788//++66XX6|b               ",
"               ec|aXX66++//8887777888///++6XXXb|b               ",
"               cc|||X66++///88888888//+++66X||||                ",
"               b||b|||6+++/////8/8////++66|||||b                ",
"                b|||b|||9+++////////++99||||b|9b                ",
"                 ce|||||||999999c999999||||||ecb                ",
"                 |ee9||||9|99999999|99||||||e7|                 ",
"                  c.ec9||||9|9999999||||||ce.c                  ",
"                   c.7ec9|||||||||||||99ce..c                   ",
"                   bc..7.eecc999999ccee77..cb                   ",
"                    bc7..7..777.77.7...7.7eb                    ",
"                      9e...7...7.7.7..7.79                      ",
"                       b977..7......7.79b                       ",
"                         b9c777.7777e9b                         ",
"                            bb||9|bb                            ",
"                                                                ",
"                                                                ",
"                                                                ",
"                                                                ",
"                                                                ",
"                                                                ",
"                                                                ",
"                                                                ",
"                                                                ",
"                                                                ",
"                                                                ",
"                                                                ",
"                                                                ",
"                                                                ",
"                                                                ",
"                                                                "
};