/* XPM */
static char *picture[] = {
"64 64 16 1 ",
"  c None",
"X c #FD4646",
"+ c #FC6565",
". c #E5D4D4",
"| c #FE8281",
"/ c #504C4C",
"6 c #E5BEBE",
"7 c #FFA0A0",
"8 c #6A6464",
"9 c #E92C2C",
"a c #A2A0A0",
"b c #BB1616",
"c c #342F2F",
"d c #570505",
"e c #878686",
"f c #A94949",
"                                                                ",
"                                                                ",
"                                                                ",
"                                                                ",
"                                                                ",
"                                                                ",
"                                                                ",
"                                                                ",
"                                                                ",
"                                                                ",
"                                                                ",
"                                                                ",
"                                                                ",
"                                                                ",
"                                                                ",
"                           dbb999bbbd                           ",
"                        dbbX9XX9X9X99bbd                        ",
"                      db9XX9XXXXXXXXXX99bd                      ",
"                     d99X9XXXXXXXXXXX9XXXbd                     ",
"                    b9XXXXXXXXXXXXXXXXX9XX9d                    ",
"                   d9X9XXXXXXXX+X+XXXXXXX9X9d                   ",
"                  d9X9XXXXXX++++++++X+XXXXXX9d                  ",
"                 dbXXXXXXX+++++++++++X+XXXX9X9                  ",
"                 bXX9XX+X+++|||||||++++XXXXXX9b                 ",
"                 9X9XXXX+++|||7|7||||++++XXX9X9d                ",
"                bXXXXXX+++|||7777777||+++XXXXXXb                ",
"               d9X9XXXX++||7767666777||++XXXXXX9                ",
"               dXXXXX+++|||766....6677|+++XXX9X9d               ",
"               dX9XXXX++|7766......677||+++XXXX9b               ",
"               bXXXXX+++||766.......677||+XXXXXXb               ",
"               9XXXXXX++|776........677|+++XXXXX9               ",
"               bXXXXX++||776........677||++XXXXXb               ",
"               bX9XXX+++|776........677|+++XX9XXb               ",
"               cfXXXXX+||7766......667|||+X+XXXXc               ",
"               c88XXX+++||7766....6677||+++XXXXfc               ",
"               /6a+XX+X+||777666666777||++XXXXfc                ",
"               /6.efXX+++|||767667777||++X+X9f/c                ",
"                a.6/fX+X++||7|77777|||+++XXf///c                ",
"                e.68c/ff++++|||||||||++++///c//c                ",
"                c6.e////88++|||||||++88////c/88                 ",
"                 8a8/c////88888888888/8/////86/                 ",
"                  c888/////8/888888/8//////e6e                  ",
"                  ca.ae/////8//8//8//////ea66c                  ",
"                   /a.6aa88/////8///8/eea..6c                   ",
"                    c66..66aaaaeeeaaa66...6c                    ",
"                     ca.......6.6..6....6ac                     ",
"                       8a...6....6....668                       ",
"                         8a6..6....6.a8c                        ",
"                           c/eaaaae8c                           ",
"                                                                ",
"                                                                ",
"                                                                ",
"                                                                ",
"                                                                ",
"                                                                ",
"                                                                ",
"                                                                ",
"                                                                ",
"                                                                ",
"                                                                ",
"                                                                ",
"                                                                ",
"                                                                ",
"                                                                "
};