/* XPM */
static char *picture[] = {
"64 64 16 1 ",
"  c None",
"X c #FD4746",
"+ c #FA6767",
". c #E8D4D4",
"| c #E1BDBD",
"/ c #FE8282",
"6 c #FF9E9E",
"7 c #EF2F2F",
"8 c #686262",
"9 c #514D4D",
"a c #AA1212",
"b c #A4A3A2",
"c c #59090A",
"d c #302F2F",
"e c #858383",
"f c #C14B4B",
"                                                                ",
"                                                                ",
"                                                                ",
"                                                                ",
"                                                                ",
"                                                                ",
"                                                                ",
"                                                                ",
"                                                                ",
"                                                                ",
"                                                                ",
"                                                                ",
"                                                                ",
"                                                                ",
"                                                                ",
"                                                                ",
"                              c cc                              ",
"                          caa777777aac                          ",
"                        aa7X7XX7X7XX777a                        ",
"                      ca7XX7X7XXXX7XXX77ac                      ",
"                     a77XX7XXXXXXXXXX7XX77a                     ",
"                    a7XX7XXXXXXXXXXXXXX7XX7a                    ",
"                   a7X7XXXXXXX+XX+XXXXXX7XX7c                   ",
"                  c7X7XXXXX+++++++++X+XXXX7X7c                  ",
"                 c7XXXXXXX+++++/+++++X+XXXX7X7c                 ",
"                 a7X7XXX+X++/+////+/+++XXXX7X7a                 ",
"                c7X7XXXX+++//6/6666//+++XXXXXX7c                ",
"                aXXXXX+X+///666|6666//+++XXX7XXa                ",
"                7X7XXXX++//66|||||666//+++XXXX77                ",
"               c7XXXXX+++/66||.....|66//+XXXXXX7c               ",
"               c7XXXXX++/66||......||6//+++XX7XXc               ",
"               aX7XXX+++//6|........|66/++XXXXXXa               ",
"               aXXXXXX+//66|........|66/+++XXX7Xa               ",
"               aXX7XX+++/66|........|66//++XXXXXa               ",
"               dXXXXXX++/66||......||66/++XXXXXfc               ",
"                fXXXX+++//6||......||6//+++XXXXfc               ",
"               cdXXXX+X+//66|||..|||66//++XXXXX9                ",
"                d9f++X+++//66||||||66//+++XXXfdd                ",
"                d988e8+X+///66666666///+X+XXf99d                ",
"                 98||b8++++//66666///++++ff9d99                 ",
"                 9e...|8f++/+////////++ff99d988                 ",
"                 db|...b8888+e+/+/+8888999998e8                 ",
"                  eb...b89988888888888999998bb                  ",
"                  9b|..|889988988888999999eb|9                  ",
"                   9|bbe8889999899999998eb..e                   ",
"                    8|bbbbe8889989888eb||.|8                    ",
"                     9|...|.||||b|||.|...|8                     ",
"                      db|...|.|...|.|..|bd                      ",
"                        9b.|..........b8                        ",
"                          deb||||||bed                          ",
"                              ddddd                             ",
"                                                                ",
"                                                                ",
"                                                                ",
"                                                                ",
"                                                                ",
"                                                                ",
"                                                                ",
"                                                                ",
"                                                                ",
"                                                                ",
"                                                                ",
"                                                                ",
"                                                                "
};