/* XPM */
static char *picture[] = {
"64 64 16 1 ",
"  c None",
"X c #FD4646",
"+ c #FB6666",
". c #E7D6D6",
"| c #FD8182",
"/ c #E5BEBE",
"6 c #FF9F9F",
"7 c #F13130",
"8 c #564C4C",
"9 c #6F6968",
"a c #888484",
"b c #610708",
"c c #A09F9F",
"d c #AD1212",
"e c #2F2D2D",
"f c #BF4749",
"                                                                ",
"                                                                ",
"                                                                ",
"                                                                ",
"                                                                ",
"                                                                ",
"                                                                ",
"                                                                ",
"                                                                ",
"                                                                ",
"                                                                ",
"                                                                ",
"                                                                ",
"                                                                ",
"                                                                ",
"                                                                ",
"                                                                ",
"                                                                ",
"                             bbdbbbb                            ",
"                         bdd777X7X77ddb                         ",
"                       bd77X7X77X7XXX77d                        ",
"                      b77X7XXXXXXX7X7XX77b                      ",
"                     d7XX7XXXXXXXXXXX7XX77db                    ",
"                    dXX7XXXXXXXXXXXXXXX7XX7d                    ",
"                   d7X7XXXXXX+X+X+X+XXXXX7X7d                   ",
"                  b7X7XXXXX+++++++++XXXXXXXX7b                  ",
"                 b7XXXXXXX+++++|||+++++XXX7X77b                 ",
"                 dXX7XXX++++|||||||||++X+XXXX7d                 ",
"                b7X7XXXX++|||6666|6||+++XXXX7X7b                ",
"                dXXXXX++++|6666/6/66|||++XXXXXXd                ",
"                dXXXXXX++||66//.///66||+++XXX7Xd                ",
"               b7X7XXX++||66//...../66||+XXXXXX7                ",
"               b7XXXXX++|666.......//6||+++XXXX7b               ",
"               bX7XXX+++|66//......./66|++XXXXXXb               ",
"               bXXXXXX++|66/......../66||++XX7XXb               ",
"               bfXXXX+++||6/......../6||++XXXXXXb               ",
"               b7XXXXX++|66//......//66|+++XXXXX                ",
"                8X7XX+++||66/.....//66||++XXXXX8                ",
"                efXXXX+++|666///////66|++++XXffe                ",
"                e8ffXX+++||666///6666||++XXXXf8e                ",
"                 8e8fXX+|+|||666666|||++++Xfe88                 ",
"                 88888+aaa9||||6|6|||+++Xf8888e                 ",
"                 898889a/./a++|+||+|+++9888889e                 ",
"                 eca889.....ca9a9999988888e8ace                 ",
"                  9/c99......aa999998988889c/9                  ",
"                   c/ca/.....cc9988888889ac.a                   ",
"                    c./c/....aa88888889ac/.c                    ",
"                    ea./cc//c9aaaaacc//../c                     ",
"                      9/.//cc//./../..../a                      ",
"                       ea/..../././..//ae                       ",
"                         eac./...../cae                         ",
"                            e89a998ee                           ",
"                                                                ",
"                                                                ",
"                                                                ",
"                                                                ",
"                                                                ",
"                                                                ",
"                                                                ",
"                                                                ",
"                                                                ",
"                                                                ",
"                                                                ",
"                                                                "
};