/* XPM */
static char *picture[] = {
"64 64 16 1 ",
"  c None",
"X c #FD4545",
"+ c #FC6565",
". c #E8D9D9",
"| c #FC8282",
"/ c #E5BEBE",
"6 c #FF9F9F",
"7 c #E93233",
"8 c #514949",
"9 c #9F9E9E",
"a c #696464",
"b c #BE1617",
"c c #550404",
"d c #878585",
"e c #2B2827",
"f c #BF4647",
"                                                                ",
"                                                                ",
"                                                                ",
"                                                                ",
"                                                                ",
"                                                                ",
"                                                                ",
"                                                                ",
"                                                                ",
"                                                                ",
"                                                                ",
"                                                                ",
"                                                                ",
"                                                                ",
"                                                                ",
"                                                                ",
"                                                                ",
"                                                                ",
"                                                                ",
"                                                                ",
"                            cbbbbbbccc                          ",
"                        ccb77X7XXX777bcc                        ",
"                       c77XX77X777X7XX7bc                       ",
"                      b7XX7XXXXXXXX7X7XX7bc                     ",
"                    cbXX77XXXXXXXXXXXXX7XXbc                    ",
"                   cbXX7XXXXXX+XXXXXXXXX7XXb                    ",
"                   bXX7XXXXXX+X++++X+XXXX7X7bc                  ",
"                  b7X7XXX++++++++++++XXXXXXX7b                  ",
"                 c7XXXXXXX+++||||||++++XXXX7X7c                 ",
"                 b7X7XXX++++|||6||||++++XXXX7Xb                 ",
"                c7X7XXXX++|||666666|||++XXXX7X7                 ",
"                bXXXXX+++||666///6/66||+++XXXXXb                ",
"                bX7XXXX++|666///.//666|++XXXXXXb                ",
"                7XXXX+++||66/....../66||++XXX7X7                ",
"               c7XXXXX++||6//......//6||+++XXXX7c               ",
"               c7XXXX+++|66//......./66|++XXXXX7c               ",
"               c7XXXXX++||6/.......//6||+++XXXXXc               ",
"                fXXXX+++|66//......//66|++XXXXX7                ",
"                7XXXXX++||66/......//6||+++XXXXf                ",
"                ef7XX+++||66///..///66||++XXXXfe                ",
"                e8fXXXX++||66//////66||+++XXXf8e                ",
"                 887XX+++|||6666/666||++++XXf88                 ",
"                 8888fX++++||6|6|6||||+++Xf8888                 ",
"                 e88888f+++||||d|||+|++Xf8888a8                 ",
"                  da88888aa+dd9/99d|+aaa8888ade                 ",
"                  a/a88888dd9.....99da88888d9a                  ",
"                   9/9a888dd.......9d8888a9/9e                  ",
"                   e9/9da8aa/......daa8ad//9e                   ",
"                    e9../9da9...../add9/..9e                    ",
"                     e9/././9d/./9d///../9e                     ",
"                       a//...//99/./...9d                       ",
"                        e89/./...././9ae                        ",
"                          eea999/99a8                           ",
"                                                                ",
"                                                                ",
"                                                                ",
"                                                                ",
"                                                                ",
"                                                                ",
"                                                                ",
"                                                                ",
"                                                                ",
"                                                                ",
"                                                                "
};