/* XPM */
static char *_e029e4f7d2646ead5cf4d552f8eb704WS1NFi5WgWfrgaVO[] = {
/* columns rows colors chars-per-pixel */
"64 64 235 2 ",
"   c None",
".  c #010101",
"X  c #060608",
"o  c #1C0102",
"O  c #160000",
"+  c #051418",
"@  c #141517",
"#  c #0C1011",
"$  c #280100",
"%  c #390104",
"&  c #321C11",
"*  c #312A1B",
"=  c #2C2009",
"-  c #021B22",
";  c #051721",
":  c #151D20",
">  c #0D242B",
",  c #02242B",
"<  c #182528",
"1  c #002835",
"2  c #182B34",
"3  c #1E3339",
"4  c #272728",
"5  c #25363B",
"6  c #37383A",
"7  c #3F322D",
"8  c #490402",
"9  c #4A1702",
"0  c #581001",
"q  c #730000",
"w  c #5C2903",
"e  c #4B2C17",
"r  c #6A2801",
"t  c #6D3400",
"y  c #763902",
"u  c #69391B",
"i  c #7F2B00",
"p  c #4C3830",
"a  c #703923",
"s  c #784807",
"d  c #7C4819",
"f  c #7E5B02",
"g  c #744A2B",
"h  c #7A602D",
"j  c #1B3C42",
"k  c #062C43",
"l  c #2E3E44",
"z  c #064A54",
"x  c #194650",
"c  c #24434B",
"v  c #2C474E",
"b  c #384448",
"n  c #2B4C54",
"m  c #264851",
"M  c #324D54",
"N  c #3A4B52",
"B  c #2D515A",
"V  c #2D5057",
"C  c #33555C",
"Z  c #39555C",
"A  c #37555C",
"S  c #2A5A67",
"D  c #355A63",
"F  c #3B5C64",
"G  c #385D67",
"H  c #3E6169",
"J  c #38616A",
"K  c #4C4C4C",
"L  c #434648",
"P  c #444D52",
"I  c #465458",
"U  c #565555",
"Y  c #594D47",
"T  c #675751",
"R  c #6B544A",
"E  c #435D64",
"W  c #475D64",
"Q  c #555E63",
"!  c #42636B",
"~  c #4A656D",
"^  c #4C646B",
"/  c #596569",
"(  c #4C6971",
")  c #476974",
"_  c #556D75",
"`  c #5A6E75",
"'  c #5B737B",
"]  c #567078",
"[  c #4F717D",
"{  c #696969",
"}  c #6B7172",
"|  c #62757D",
" . c #69757A",
".. c #787776",
"X. c #7C7B7B",
"o. c #767777",
"O. c #6C6D6E",
"+. c #881603",
"@. c #873300",
"#. c #8B2E07",
"$. c #A13A39",
"%. c #CF3617",
"&. c #E53C00",
"*. c #D01A00",
"=. c #9B5406",
"-. c #8C4E10",
";. c #A75A08",
":. c #AA6203",
">. c #B5690A",
",. c #A96418",
"<. c #B56C1D",
"1. c #BD761C",
"2. c #9B5A27",
"3. c #87512D",
"4. c #8C6635",
"5. c #BC7828",
"6. c #A67031",
"7. c #D64C0F",
"8. c #CC7632",
"9. c #DB5B1A",
"0. c #917252",
"q. c #A67754",
"w. c #B67D45",
"e. c #977D69",
"r. c #877D7A",
"t. c #8B7A62",
"y. c #A17862",
"u. c #EB6645",
"i. c #F47C53",
"p. c #B9813B",
"a. c #CF913A",
"s. c #C1843E",
"d. c #998A5C",
"f. c #9B8744",
"g. c #B88649",
"h. c #B48D59",
"j. c #AA8845",
"k. c #82807E",
"l. c #99847A",
"z. c #92826C",
"x. c #AC9479",
"c. c #A8947A",
"v. c #B5987A",
"b. c #AD926E",
"n. c #C78A43",
"m. c #CB964C",
"M. c #D4964A",
"N. c #C79855",
"B. c #D29B53",
"V. c #D2995A",
"C. c #D5A45C",
"Z. c #D9A65D",
"A. c #D9A75A",
"S. c #D9A54D",
"D. c #E6A65B",
"F. c #ED9263",
"G. c #C7A669",
"H. c #D4A661",
"J. c #DAAB62",
"K. c #D8AC65",
"L. c #DCB36C",
"P. c #DFB065",
"I. c #D9B975",
"U. c #D0AC7A",
"Y. c #E1A769",
"T. c #E2B66C",
"R. c #E4BB77",
"E. c #F8B67C",
"W. c #EDC97E",
"Q. c #E9C37A",
"!. c #577683",
"~. c #647A82",
"^. c #6B7D84",
"/. c #677E8D",
"(. c #6E818A",
"). c #62808C",
"_. c #74858D",
"`. c #7A868E",
"'. c #728087",
"]. c #6D8492",
"[. c #638291",
"{. c #738691",
"}. c #768891",
"|. c #798991",
" X c #768B96",
".X c #878787",
"XX c #868F94",
"oX c #949495",
"OX c #959A9C",
"+X c #8B9194",
"@X c #A99689",
"#X c #B6A884",
"$X c #AAA09C",
"%X c #A5A4A4",
"&X c #ACADAD",
"*X c #A4A7AA",
"=X c #AAAEB1",
"-X c #ACB3B4",
";X c gray70",
":X c #BBBABB",
">X c #B6BBBB",
",X c #C3BA96",
"<X c #D8B194",
"1X c #E1AB92",
"2X c #CFBAB1",
"3X c #EBA5A3",
"4X c #BFC0BF",
"5X c #ECCB83",
"6X c #EACD87",
"7X c #EED18A",
"8X c #F2D38B",
"9X c #F7D78A",
"0X c #EFD993",
"qX c #F5DD96",
"wX c #F7DF98",
"eX c #F1CD83",
"rX c #F9E299",
"tX c #FFE99E",
"yX c #F9E097",
"uX c #E9C7B8",
"iX c #FFEDA0",
"pX c #DCC9B0",
"aX c #BBC1C2",
"sX c #C3C4C4",
"dX c #CCCBCB",
"fX c #C5C8C9",
"gX c #D3D3D4",
"hX c #DCDDDD",
"jX c #D5D8D9",
"kX c #CED1D1",
"lX c #F0D9CE",
"zX c #E4E4E4",
"xX c #EAEAEA",
"cX c #E6E8E9",
"vX c #F3F0EE",
/* pixels */
"                                                                                                                                ",
"                                                                                                                                ",
"                                                                                                                                ",
"                                                                                                                                ",
"                                                                                                                                ",
"                                                                                                                                ",
"                                                                                                                                ",
"                                                                                                                                ",
"                                                                                                                                ",
"                                                                                                                                ",
"                                                                                                                                ",
"                                                                                                                                ",
"                                                                                                                                ",
"                                                                                                                                ",
"                                                                                                                                ",
"                                                                                                                                ",
"                                                                                                                                ",
"                                                                                                                                ",
"                                                                                                                                ",
"                                                                                                                                ",
"                                                                                                                                ",
"                                                                                                                                ",
"                                                                                                                                ",
"                                                                                                                                ",
"                                                                                                                                ",
"                                    xXoX. = * * * * * = O 4 oX                                                                  ",
"                              zXkXjXsXl.f 0.d.d.d.d.d.4.d u r.fXjXjXcX                                                          ",
"                              %X2 1 T h.L.6XqX0X0X0X6XK.n.5.2.U c K &X                                                          ",
"                          cX4Xz.t h j.L.7XrXtXtXiXiXrX6XT.B.5.f e $ { sXxX                                                      ",
"                          *Xp 6.K.6XqXqXwXyXyXyXrXrXrXrX7XK.S.C.p.y % 6 ;X                                                      ",
"                      cX:XO.i m.9XrXtXtXrXrXrXrXrXrXrXrX0XT.Z.Y.C.j.s & ..sXkXfXdXfXfXsXsXfXxX                                  ",
"                      &X& #.s.Q.rXrXrXrXyXyXyXyXrXqXrXrX8XL.C.Z.J.Z.g.y e b b b l l 6 6 . P sX                                  ",
"                  zX>X{ o 2.S.7XtXrXqXrXqXrXrXyXrXrXrXrX8XT.C.J.Z.S.g.u O o 8 q +.%.2.j.4.h @XsXsXfX                            ",
"                  ;X@ . e j.L.8XrXrXrXrXrXyXyXrXrXrXrXrX7XL.C.J.V.5.=.& p $.$.%.9.i.1X9X5XS.0.2 . U dX                          ",
"      zXfXzX      %X. - Y h.T.9XrXrXrXqXrXqXrXrXrXrXqX7XR.J.Z.J.N.,.i a l.2X3Xu.9.u.E.tXyX5XN.s * < +XdX                        ",
"      ;XK :X      &X. 1 ` h.T.W.rXrXrXqXrXrXrXrXrXrX8XL.C.Z.Z.Z.g.3.i 6.2XvXlXi.&.%.Y.rXtXqXQ.C.z.S . K kX                      ",
"  xXsXXX| OXaXfX:XX.. k / q.M.Q.7XyXrXrXrXrXrXrXqX7XR.K.Z.Z.A.m.w.Y h n.1XuX3Xu.7.8.R.rX7XI.Q.5Xv.S k P oXdX                    ",
"  :Xb o.=X.X@ . @ . , z U 0.8.a.I.7XrXrXyXyXrXrX8XL.C.Z.H.J.B.8.0.E z.H.F.7.*.%.8.Z.7XqXL.5.R.yXv.S !._.5 K kX                  ",
"  :X. T @Xy.r 9 O . < ^ ^.r.y.w.M.T.5XW.W.W.W.W.Q.T.M.a.N.x.b.0.R D z.H.D.Y.F.Y.I.6XI.b.G.L.Q.5X#X[ ].}.x : +XfX                ",
"  sXl y >.5.<.=.t % 5 `  X X.Xq.1.B.K.J.H.H.Z.C.A.A.B.p.q..X!.) S S t.C.Q.wXrXwXtXrXG.d G.yXW.C.c.}. X}.' Z . U gX              ",
"  :X1 r :.1.1.,.-.p I !.|. X_.r.e.b.x.x.x.x.x.x.c.v.c.z.r.`.[.!.H G } c.U.Q.qXrXtXtX6XG.I.eXG.y.r. X X_.(.' 2 > +XdX            ",
"  sXI r =.,.<.>.2.T ! ^.|.|.|.}.}.}.}.}.}.}.}.}.}. X}.}.|.`.|.|.^.! ) ].@XH.Q.qXrXyXrXyX5XH.e.J !.|.|.`.|.}.' D . U hX          ",
"  xXsXr.q @.:.;.3.Y ) ~.|. X|.}.{.].].].].].]. X].' ) [ ~._.|.|._.~.~.]..X@X#X#X,X#X#X,X#Xc.X.!.~.}.|.|.|.|._.' 2 j oX;X&XsX    ",
"      4XP a =.@.u K ! ^.|.XX|.}.}.}.|.|.|.}.|.|.(.( A H _ _.|.|.|.|.|. X}. X X{. X X X X_.}.}.|. X|.|.|.|.|.|._.' D , . . O.zX  ",
"        dXoXu 8 * b ( ^.|.|.|.|.|.|.|.`.|.|.|.^._ J H ] '._.|.|.|.|.|.|.}.{.]./.[.]./.(.].]._.|.|.|.|.|.|.|.|.|.] D A A v } OX:X",
"          ;X< . + v ~ ^.|.|._.}._._.|.|.`.`.^.( A H _ '.|.|.|.}.|.}.}.`.|.}.`.|.|. X|.`.`.}.|.|.|._._.|.|. X|._._ ^ ^.XXXX^.2 . ",
"  zX=X=X=XX.+ . - n ! _ ' ] ' '.|.|.|.|.`./ I C ! ' (.`.|.}.|.|.'.~.~.`.|._.|.}.|.|.}.}.|.`.|.}.^.] W U ^.XX|._.^.(.|.|.}.^ . . ",
"  :X7 . . . O . @ M ! ! G F ( ^.|.|.|.|.^.l X n ] _.|.|.}.|.|.}.~.F ( _.|.|.|.`.|.}.|.|.}.|.|._.~.F 1 # / |.|.|._.|.|.(.~ M L L ",
"%Xe.@.+.i t 9 $ - m H G G _ ^._.|.|.|.~.^ + < / _. X|.|.|.|._.| E 5 I _.|.}.|.|.|.|.|.|.|.`.|.|.(.| E j b / ^.|.^.' !.^ . K >XgX",
". 3.w.n.5.,.y 9 @ n ! H ( ^.|.|.|.|._._ V > L ^.|.|.|.|.|.|.'.! j # I '.|.|.`._._.|._._._.}.|.|.|.|.~.E , X } _._ D D n 4 +X    ",
"4 .X2X<XB.1.=.y u N ! ' (.`. X|.|.|._.I 5 /  .|.|.|.|.|.|.|.| b , c ( |.XX|.}.|.|.|.^.] ^.|.|.|.|.|.}.^.l #  .|.^ + . b ;XzX    ",
"6 OXkXpXZ.a.5.=.u P ! ^.`.|.|.|.|.|.| 6 5  . X|.|.}.|.|.|.|.` 4 - F ' _.|.}.|.|.|.`.| H ] _.}._.|._.|.(.P < | '.P . 4 .XcX      ",
"* { @XU.D.A.B.6.u K H ( | '.|.XX}.~.^ 2 < ^ ~.}.|.|.|.|.}.| I X < F ~ _ ^.|.|.}.|.|.' D ! ` ] ' ' ] ^ P N A _ ( . 4 &XzX        ",
"& 3.n.V.A.Y.K.6.u K J J ! ~.}.}.(._ V - + m ( '.|.|.}.}.^.! c > 5 F H H _ '.|.|.|.|.| ~ H F Z F D A 2 X M ! G V 4 .XcX          ",
"p $XlXpXJ.A.Z.p.-.U J S F _ ] ] _ ~ n . + c _ _.XX|.|.| ! 5 2 M Z H H F ! _ ^.|.|.|.|.(.] F c > > 2 j M ! H . 4 -XzX            ",
"b ;XxXlXJ.S.A.s.2.R F G ! F F G G G ^ { U Z ! ^._.'.~.! c + 5 H ! ! H H H F _ '.|._.}._.| H c # X : A ! D C 5 k.zX              ",
"$ t.<X<XJ.J.C.n.<.3.p Z H H H H S z `.kXkXX.. < b 5 > > 3 n Z ! ! ! ! ! H H ! _ _ _ ] ] ( ! C A A Z ! H . 4 &XzX                ",
"{ 3.=.5.C.K.Z.m.<.=.d Y ! H Z H D z |.hXcXOX< . < K K 4 3 H ~ ! ! F Z Z H ! H F G H G F F E ! ! F C B C l r.zX                  ",
"hX$X9 w 2.N.D.M.1.7.,.3.p 7 3 A H J ] XX&XaX-X' } -X>X| x J ( ! Z 5 < 3 v ! ! ! H H H ! ! ! ~ H 1 X . 4 &XcX                    ",
"  kX .O w 6.N.p.;.:.:.-.0 $ + x B D m 1 ` >XaX(.| 4XaX .z B Z F v # . . > V C V B M n A B B B B / O.U r.hX                      ",
"    hXoX. $ 9 9 % 8 % o X X X X . X X X 5 O.} b b } } b , 2 3 2 < # . X X . X X X X . X X . . 4 &XcXzXzX                        ",
"      gXX./ o. .^. .X.o.X.X.X.....X.O.p . . . . . . . . . . . . . # K ..X...................{ k.gX                              ",
"                                    gX.X. . . . . . . . . . . . . 4 oX                                                          ",
"                                      oX. . . . . . . . . . . . . 7 *X                                                          "
};
