/* XPM */
static char *_1aed8d8cef64ea98a967b2d07bef9664uOEk1mT99EIsrpn[] = {
/* columns rows colors chars-per-pixel */
"64 64 231 2 ",
"   c None",
".  c #000000",
"X  c #08070A",
"o  c #00141D",
"O  c #081417",
"+  c #181B1D",
"@  c #1C120E",
"#  c #280000",
"$  c #370200",
"%  c #26180E",
"&  c #000E2E",
"*  c #042328",
"=  c #17262B",
"-  c #042D35",
";  c #182E32",
":  c #00313A",
">  c #1B3439",
",  c #25272C",
"<  c #253539",
"1  c #373A3A",
"2  c #3A2B2D",
"3  c #420000",
"4  c #541E00",
"5  c #570E00",
"6  c #7A0500",
"7  c #740C00",
"8  c #572400",
"9  c #5C370D",
"0  c #6D2600",
"q  c #693803",
"w  c #793800",
"e  c #6A3B1D",
"r  c #433D3B",
"t  c #523B34",
"y  c #3D403F",
"u  c #634200",
"i  c #7B4603",
"p  c #704D18",
"a  c #77651B",
"s  c #59423C",
"d  c #684837",
"f  c #6F5934",
"g  c #7D6C28",
"h  c #003843",
"j  c #163B43",
"k  c #0F2F40",
"l  c #283D42",
"z  c #373C40",
"x  c #1B4A53",
"c  c #28464C",
"v  c #384449",
"b  c #2C4C53",
"n  c #224B53",
"m  c #334D54",
"M  c #3C4A50",
"N  c #33545C",
"B  c #3A565D",
"V  c #37545A",
"C  c #2D525B",
"Z  c #1D5968",
"A  c #365A63",
"S  c #3C5D65",
"D  c #385C66",
"F  c #2F5862",
"G  c #3E6169",
"H  c #2C616C",
"J  c #484C4C",
"K  c #554C47",
"L  c #49555B",
"P  c #57595B",
"I  c #444E54",
"U  c #795748",
"Y  c #68544F",
"T  c #7B6E49",
"R  c #7C704A",
"E  c #415D65",
"W  c #4C5D62",
"Q  c #535C62",
"!  c #545961",
"~  c #42626B",
"^  c #4B656D",
"/  c #4B6167",
"(  c #53646B",
")  c #5A6367",
"_  c #4B6971",
"`  c #476A76",
"'  c #536D75",
"]  c #596D75",
"[  c #55727B",
"{  c #5B727B",
"}  c #636262",
"|  c #646B6C",
" . c #6A6C6C",
".. c #6C6663",
"X. c #786C68",
"o. c #76716B",
"O. c #636D73",
"+. c #6C7375",
"@. c #62767D",
"#. c #68777E",
"$. c #757474",
"%. c #7B7A7A",
"&. c #757476",
"*. c #950000",
"=. c #834302",
"-. c #884904",
";. c #954D03",
":. c #995402",
">. c #90560E",
",. c #A55903",
"<. c #AC6303",
"1. c #BA6D03",
"2. c #AC6616",
"3. c #B36919",
"4. c #B0730C",
"5. c #83543B",
"6. c #90582B",
"7. c #8D652F",
"8. c #BB7525",
"9. c #B87837",
"0. c #AB6B30",
"q. c #C0591E",
"w. c #C1751E",
"e. c #CE513B",
"r. c #C37C30",
"t. c #845D47",
"y. c #9B7858",
"u. c #936E49",
"i. c #857F79",
"p. c #98786B",
"a. c #B87974",
"s. c #D16946",
"d. c #C78438",
"f. c #CB8B31",
"g. c #BC8947",
"h. c #B49258",
"j. c #90847C",
"k. c #B49673",
"l. c #B19B77",
"z. c #AB8E6F",
"x. c #BEA57D",
"c. c #C3924D",
"v. c #CB944E",
"b. c #CA9B55",
"n. c #D49B54",
"m. c #D1904A",
"M. c #E29654",
"N. c #D5A45C",
"B. c #DBAA5D",
"V. c #D9A458",
"C. c #D8A347",
"Z. c #E4A45D",
"A. c #C99D73",
"S. c #CCA76A",
"D. c #DCAC62",
"F. c #D4A665",
"G. c #DEB26C",
"H. c #CEB278",
"J. c #D9B676",
"K. c #DEAF70",
"L. c #E1B56C",
"P. c #E2BB75",
"I. c #E7BE75",
"U. c #E0AF64",
"Y. c #EBC47C",
"T. c #E9C37A",
"R. c #5A7884",
"E. c #657A82",
"W. c #6B7D85",
"Q. c #697F8E",
"!. c #667F8F",
"~. c #6D8189",
"^. c #75858D",
"/. c #7C898F",
"(. c #788289",
"). c #6C8492",
"_. c #648392",
"`. c #748791",
"'. c #768892",
"]. c #798991",
"[. c #758D98",
"{. c #9C928A",
"}. c #949494",
"|. c #979A9B",
" X c #8B8A88",
".X c #A59C98",
"XX c #AF8F84",
"oX c #BDAA81",
"OX c #AAA29D",
"+X c #BCB284",
"@X c #9DA3A7",
"#X c #A3A4A5",
"$X c #A9ACAC",
"%X c #AFB2B2",
"&X c #B7BABB",
"*X c #B9AFA8",
"=X c #919CA4",
"-X c #CCBE93",
";X c #CCAD88",
":X c #E0B999",
">X c #D1B3AE",
",X c #D1C497",
"<X c #CEC296",
"1X c #E7CC87",
"2X c #F1CD83",
"3X c #E9D28D",
"4X c #F3D388",
"5X c #F5DB93",
"6X c #F9DD93",
"7X c #F1D791",
"8X c #EFDA94",
"9X c #FAE299",
"0X c #FFE99E",
"qX c #F9E197",
"wX c #FFECA2",
"eX c #BDC6C7",
"rX c #C4C5C5",
"tX c #C7C9CA",
"yX c #D2CDCC",
"uX c #CED2D3",
"iX c #D4D4D4",
"pX c #DBDCDC",
"aX c #D7D8D8",
"sX c #D0D1CD",
"dX c #E6DBD2",
"fX c #DEDFE0",
"gX c #DFE0E1",
"hX c #E3E3E3",
"jX c #EBECEC",
"kX c #E7E8E9",
"lX c #F7ECE2",
/* pixels */
"                                                                                                                                ",
"                                                                                                                                ",
"                                                                                                                                ",
"                                                                                                                                ",
"                                                                                                                                ",
"                                                                                                                                ",
"                                                                                                                                ",
"                                                                                                                                ",
"                                                                                                                                ",
"                                                                                                                                ",
"                                                                                                                                ",
"                                                                                                                                ",
"                                                                                                                                ",
"                                                                                                                                ",
"                                                                                                                                ",
"                                                                                                                                ",
"                                                                                                                                ",
"                                                                                                                                ",
"                                                                                                                                ",
"                                                                                                                                ",
"                                                                                                                                ",
"                                                                                                                                ",
"                                                                                                                                ",
"                                                                                                                                ",
"                                                                                                                                ",
"                                                                                                                                ",
"                                                                                                                                ",
"                                      %X. . . . . . . . . . +.                                                                  ",
"                                kXkXkXOXu p T T T R T f 9 $ p.tXkXkXjX                                                          ",
"                              uXO.B  .y.b.J.3X3X1X3X1XS.g.3.7.X.] Q $X                                                          ",
"                            gX#X4 3 a h.T.5X0X0XwXwX9X2XL.n.8.i $ . ..yXkXgXgXgXfXfXfXfXpXfX                                    ",
"                          uX| 7.v.J.3X7XqXqXqXqX6X9X9X6X4XG.n.b.g.:.6...| | O.) Q ! ! Q z W tX                                  ",
"                        hX.X$ 4.I.5XwXwXwX9X9X9X9X9X6X0X6XP.D.D.B.9.-.. . . # 3 9 a 7.g q 8 OXaXpXpX                            ",
"                      aX| 0 ,.D.5XwX5X5X5X9X5X5X5X6X9X9X5XJ.V.B.n.d.:.# . 6 *.,.b.3X8X3XP.b.y.P : } iX                          ",
"        pXhX        pX|.. 7 d.Y.9XwXwX5X5XwX9X9X9X9X9X0X5XP.V.D.V.9.;.q U XXa.q.M.9XwXwXqXY.h.q . . |.pX                        ",
"      hX..}.      pX .. . 7.N.2X6X6X5X9X5X8X6X9X9X5XqX9X5XJ.B.U.b.6.w ,.XXtX>Xe.m.5XwX6XqXqXY.b.y.F * } iX                      ",
"    gX%X( W.yXpXaX#X. . - u.m.Y.wX9X9X5X9X6X9X6XwX5X9X8X1XU.V.n.g.i =.8.;X>X>Xe.Z.5XwX9X7X1XY.Y.l.H & k #XaX                    ",
"  kXj.! @X=X! 1 J 1 . : F t.3.L.5XwX9X9XqX9X9X9X5XwX5XP.B.Z.V.d.<.w 7.b.M.e.e.n.P.6XwX9XJ.8.G.6X+XA ` (.v } aX                  ",
"  hXL . .XXXq $ . . . m { &.y.A.2X6X9X9XqX9X9X4X2X2X1XV.c.k.k.y.5.s t.N.Z.M.Z.I.3X6X3XH.S.N.T.4XoX[ !.].j . |.aX                ",
"  hX+.3 0.9.8.,.w 3 . L Q.[. Xz.D.2X6XwXqX0X6XT.D.D.V.f.9.j.(.' B Z i.b.I.5X6X5X6XwXH.p h.5X2XF.l.^.`.'.R.V . } pX              ",
"  hX) . ,.1.w.3.;.e l W '.[.`.{.k.;X<X,X<X,X<XoXk.k.k.y.p. X_.R.` Z | z.H.1X6X9X0X9X1Xh.H.2XJ.h.j.].].^.W.[ & o |.iX            ",
"  hX .. ;.2.8.3.,.t.W R.`.[.`./.].]. X].]. X].]././././.].].].].W.~ ` ).{.S.I.6X0XqX0XqX2XD.h./ [ ].].].].^.] N . ..fX          ",
"    tX}.q *.,.3.:.f ~ R.`.]./.`.).).Q.!.Q.Q.).).).!.R.R.E.`.].].^.@.{ _. Xz.x.-X<X<X,X,X;Xk.j.` R.'.].].].].~.[ & > #XrX&XsX    ",
"      pX) $ ;.:.w s E { /.].].`.].].].'.]./.].[.^.' A A _ W.].].].'.'.'.'./././././././.].].].'.'.].].].].].].^.{ B < . . %.kX  ",
"        uXOXU 5 4 1 S { ].[.].].^.].].].].].].W.{ ~ S ' E.^.].].].].].].'.).)._._._.!.Q.).).'.].].].].].].'.].].[ A m l : ] $XrX",
"          aXP . . < S @.].].].].].].^.^.'.].^.[ S A _ W.].].'.'.].].].].'././.].^./.'./.^.].].^.].].].].'.'.].].' ~ W.]. X~.v . ",
"    rX&XrX#Xz . . j S ' @.{ { W.].].].].].[.].Q j n ^ ~.].].].].^.E.E.^.]./.'.'./.^.].'.].].].].~.{ ( Q W. X].^.W.E.'.[.'.( . . ",
"  kX$.. . . . . . < S ~ E S S @.].].].].].].(.I . c _ ~.].].'. X~.^ ^ ~.].]./.^.'./.'./.].^.].].E.~ - X ] ].].].].].].^.' V < @ ",
"&XOX-.6 7 0 8 $ . x S G A ^ @.~.^.].].].^.~.{ < . / W.^.].'.].[.W.m I (.[.].].].].'.].].].^.].'.~.@.L j v ( W.'.~.@.E._ X J $XyX",
". 8 0.9.8.2.=.8 # > G ~ G { /.].].'.].].'.{ N * , +.].'.].].].].E., 1 W. X].^.^.^./.'././.'./.].].].E.S - X O./.[ A G N . W.kX  ",
". K *X>XN.f.2.=.8 y S _ E.^.].].].]. X[.].( ; : V E.[.].'.].^.W./ O 1 W.[.].'.].].].~.{ W.].].]. X[.'.W.v . O.].( * . < #XpX    ",
". | eXdX:Xf.r.,.i t E { ^.].].].'.'.'.].^.L . c _ (.].].].].~.' n X v W.[.]./.'.].].@.S [ ^././.`.^.'.^.L + O.^.L . . &.kX      ",
". K z.;XF.Z.n.9.i t S ` { ~.]. X].W.[ { ] l X ( (.^./.].].].^._ b o < ( Q.'.]./.].].E.A ~ ] { { R.{ ( L M V ' ' . . #XpX        ",
". 9 0.m.N.D.D.c.-.t E D S [ '.[./.{ S S S = + ] ].'././.].].~._ C O * N ' ~.].].].].W.^ S S G A S A > . b ~ S N o $.gX          ",
". o.yXdXJ.C.D.c.6.d ~ H S ^ [ { ] _ S G S > O L E.~.[.[.^.E.' _ V O O V ^ ' E.'. X].^.~.{ G c ; = ; l b E G . o #XgX            ",
". (.hXlX:XC.D.m.3.5.W D ~ S S S A G E ~ E > . c ~ W./.].(._ A S V = < B G A ' ~.[.^.^.].@.~ c O . O b ~ G B * $.fX              ",
". t ;X:XG.B.D.v.8.6.d I S G G G S G G ~ S . . h ~ [ { { ' ^ A < < b S ~ ~ S ~ ' [ ' ] [ ' ~ A m m V ~ ~ . . #XfX                ",
") Y ;.1.v.F.D.n.r.,.=.d W S A S ~ ~ ~ S ~ ) ) L A N B N N ~ V = = V E E S E ~ S S S S S S ~ ~ ~ S A N B < o.pX                  ",
"hXrXd 3 >.g.D.V.w.1.3.6.d t < b ~ ~ ~ x ' rXpX}.. . = . . * c m V < > ; c G ~ ~ G ~ G ~ ~ ~ ^ ~ h . . . #XhX                    ",
"    |., $ -.c.c.2.<.<.:.0 $ . : C A C h / tXjX%Xy . X K P + o V B = . . = b N N N C N N N C C C Q  .J $.aX                      ",
"    jX&X2 . 4 4 3 3 3 # . . . . . . . . . } }.&X&X| 1 $X&X .. * > X . . . . . . . . . . . . . . @XhXhXfX                        ",
"      jX}.Q O.+.+.+.&.+.+.%.%.&.$.&.&.%.$.. . $XtX+.y %XeX+.. . . . . . y  .%.$.$.$.$.$.&.&.} $.sX                              ",
"                                          }.. J  .y + )  .1 . . . . . .  X                                                      ",
"                                          %X. . . . . . . . X X . . . . }.                                                      "
};
