/* XPM */
static char *_55a57f1fadf44e3c65a5e571bc61dcdOfckiXjnOHUurogP[] = {
/* columns rows colors chars-per-pixel */
"64 64 243 2 ",
"   c None",
".  c #000000",
"X  c #00010B",
"o  c #080407",
"O  c #160403",
"+  c #000216",
"@  c #091419",
"#  c #181914",
"$  c #240300",
"%  c #2E0B00",
"&  c #020227",
"*  c #001B27",
"=  c #000035",
"-  c #04242B",
";  c #182528",
":  c #002938",
">  c #193339",
",  c #06343D",
"<  c #26292A",
"1  c #283538",
"2  c #363737",
"3  c #2D2A34",
"4  c #362216",
"5  c #580000",
"6  c #450900",
"7  c #630000",
"8  c #6A1700",
"9  c #4E3112",
"0  c #652D00",
"q  c #693404",
"w  c #7A3D00",
"e  c #773701",
"r  c #623417",
"t  c #794403",
"y  c #764C0C",
"u  c #775534",
"i  c #6C4E29",
"p  c #43403F",
"a  c #002A48",
"s  c #013848",
"d  c #143D48",
"f  c #233D43",
"g  c #363B43",
"h  c #001F46",
"j  c #034759",
"k  c #184A54",
"l  c #0E4551",
"z  c #25444B",
"x  c #28434A",
"c  c #38464A",
"v  c #2C4B53",
"b  c #284C57",
"n  c #384C54",
"m  c #2C525B",
"M  c #24515B",
"N  c #33545C",
"B  c #3B555D",
"V  c #004764",
"C  c #065566",
"Z  c #1C5869",
"A  c #005A77",
"S  c #275A6A",
"D  c #3C5D65",
"F  c #365B65",
"G  c #2D5E71",
"H  c #3A616C",
"J  c #386373",
"K  c #484849",
"L  c #4A5658",
"P  c #58595A",
"I  c #454E54",
"U  c #665D5B",
"Y  c #796458",
"T  c #465C64",
"R  c #535E65",
"E  c #44636B",
"W  c #49666E",
"Q  c #4F666A",
"!  c #586569",
"~  c #4D6A72",
"^  c #466875",
"/  c #526C74",
"(  c #5A6C75",
")  c #557179",
"_  c #5B737C",
"`  c #656967",
"'  c #6C7269",
"]  c #75776A",
"[  c #686E72",
"{  c #687579",
"}  c #767877",
"|  c #706F65",
" . c #8A3C00",
".. c #864500",
"X. c #954700",
"o. c #9B5702",
"O. c #8D5618",
"+. c #A85F00",
"@. c #93681A",
"#. c #A16500",
"$. c #A7661A",
"%. c #B3710C",
"&. c #87582F",
"*. c #886435",
"=. c #996836",
"-. c #987132",
";. c #BB7626",
":. c #B77B37",
">. c #AB742C",
",. c #C47F13",
"<. c #C07829",
"1. c #8E724B",
"2. c #857A67",
"3. c #8E7C75",
"4. c #A77F45",
"5. c #778275",
"6. c #B5863B",
"7. c #BD882A",
"8. c #C5873B",
"9. c #D19739",
"0. c #CC8700",
"q. c #9D825C",
"w. c #B68746",
"e. c #AA8B5B",
"r. c #B7945D",
"t. c #AD8A53",
"y. c #988674",
"u. c #908670",
"i. c #A48A65",
"p. c #B99666",
"a. c #AE9376",
"s. c #B8A97D",
"d. c #B5A274",
"f. c #C88C44",
"g. c #CA954C",
"h. c #D29748",
"j. c #C79957",
"k. c #D29D54",
"l. c #C68E57",
"z. c #D6A45C",
"x. c #D9A65C",
"c. c #DCAA5E",
"v. c #D9A355",
"b. c #D5A251",
"n. c #E1AD5E",
"m. c #C49C64",
"M. c #C29372",
"N. c #C9A366",
"B. c #D3A561",
"V. c #DAAA62",
"C. c #D5AB67",
"Z. c #DDB26B",
"A. c #DFB167",
"S. c #C3A773",
"D. c #D8B77A",
"F. c #E4B467",
"G. c #E2B973",
"H. c #E5BC73",
"J. c #E3AF61",
"K. c #E6C27B",
"L. c #EBC67D",
"P. c #EEC97E",
"I. c #EBC276",
"U. c #F3CC7C",
"Y. c #5C7683",
"T. c #547484",
"R. c #4C7288",
"E. c #657A83",
"W. c #6A7D85",
"Q. c #677E8B",
"!. c #747D83",
"~. c #6D818A",
"^. c #66818E",
"/. c #73848C",
"(. c #7C868B",
"). c #7D8D94",
"_. c #7A8A92",
"`. c #788A93",
"'. c #708895",
"]. c #828484",
"[. c #8A8A88",
"{. c #92928C",
"}. c #889298",
"|. c #969595",
" X c #999999",
".X c #989797",
"XX c #8C8F8D",
"oX c #AA9A91",
"OX c #B9A889",
"+X c #949CA3",
"@X c #9DA0A4",
"#X c #A3A3A4",
"$X c #ACACAC",
"%X c #A6AAAE",
"&X c #AEB1B4",
"*X c #ACB3B9",
"=X c #B4B4B4",
"-X c #BBBBBB",
";X c #B8BABB",
":X c #B0ABAA",
">X c #CCBB85",
",X c #C7BA93",
"<X c #D0B788",
"1X c #CDBBAA",
"2X c #D5B8A6",
"3X c #E0BA87",
"4X c #D8C487",
"5X c #D3C199",
"6X c #ECCC85",
"7X c #E7CA87",
"8X c #EED28C",
"9X c #ECD287",
"0X c #F2D58C",
"qX c #F9D88A",
"wX c #EED691",
"eX c #F5DC95",
"rX c #F9DE94",
"tX c #F3DB95",
"yX c #F0CE85",
"uX c #F9E299",
"iX c #FFE99E",
"pX c #F9E198",
"aX c #D8C9B9",
"sX c #EAD3AD",
"dX c #FEEAA3",
"fX c #FDECB8",
"gX c #FFF4BF",
"hX c #BBBEC1",
"jX c #BFC2C5",
"kX c #C2C2C3",
"lX c #CACACA",
"zX c #C7C5C6",
"xX c #CDD0D2",
"cX c #D3D3D4",
"vX c #DDDDDD",
"bX c #D6D8D9",
"nX c #CED0D0",
"mX c #EAD9CD",
"MX c #EEE5DB",
"NX c #EAEAEA",
"BX c #E5E4E4",
"VX c #F7F8F8",
"CX c #F8F3E7",
/* pixels */
"                               X. . . . . . . < -X        $X. . . . . . . . &X        -X< . . . . . . .  X                      ",
"                               X. . ; < # . . 3 :X      BX#XX . X @ @ o . X #XNX      $X2 . @ < < ; . .  X                      ",
"                              |.. * ! ! v d : n [.$X-X-X$X5.z : z x z f : x 5.$X-X;X&X].x f R ( [ ! * . |.                      ",
"                              |.. n /.~.~ D H E v < O O < n H H H E H D E H m < O O < x D _ /.`.)./.c . |.                      ",
"                              |.. B _.`.E.) ~ D s . . . . B _ E._ _ _ _ _ _ B . . . . v _ ~._.).'.W.d . |.                      ",
"                              |.. n (.)._.~./ F m m b k D _ /./././././././._ B k l N ) ~._.)./.E.E + . .X                      ",
"                              |.. f ~.`.)./.{ ~ Q ~ ~ Q ) ~.(.)._._._._.)._.~._ ^ W / ~._._./.~.~ F . . .X                      ",
"                              |.. - / E._.)./.W.W.~.~.~.~./._._._._._._._._./.~.5.~.~./._./._ ~ ^ D + . .X                      ",
"                              |.. . B / ~.(._._.(._.`.(._._._._.(./._._._.(.`.`._.(.`.`.`.W.E F H D X . |.                      ",
"                               X. . > N / E./._.).).).)._._._.`._._._./.`.`.).).).).).).`.{ E m z 1 . .  X                      ",
"                               X. . . > N ~ W._.`.`.`._._._.`.`.(._._./.`./.`.`.`.`._.`.`.~.W m > . . .  X                      ",
"                               X. . - x E _ /.(./.Y.Y.Y.Y._ Y.~._._._._.~.E.Y.Y.Y.Y.E./.`.~.{ W n ; . . .X                      ",
"                              .X. . v W 5./.).`.Y.G C Z S Z J _ /.).}./.Y.J Z S S Z J W._.`./.~.Q N . . .X                      ",
"                              |.X @ W E.'.)./.^.5.} ] } ] ` ` { ~./.~.W.[ ` ' ] ] ' ` } ~./.)./._ H X . |.                      ",
"                              |.. , { `.`.'.R.J u.>X4X4X>XN.t.2.~ A A ^ 2.e.S.>X>Xp.e.] ^ T.).`._ D . . .X                      ",
"                              |.. v `.).`.~.J ~ OXwXiXdXrXP.V.i.` C C ' e.V.U.rXeXI.z.q.Q ^ /./._ D . . |.                      ",
"                              |.. n _.`.E.} u.OX4XiXiXiXpXqXP.D.OXd.OXs.D.6XqXiXpXqXK.N.q.] 5._ ~ F X . .X                      ",
"                              |.. n /.Q.G } 4XuXpXpXpXpXpXpXeXwXwXwXwXtXtXeXeXuXpXpXtXI.z.e.[ S J F + . |.                      ",
"                              |.. x !.T.C ' 4XdXiXiXuXuXpXuXiXiXiXiXiXuXuXiXuXuXuXiXuXqXI.p.` V S D + . .X                      ",
"                              .X. * ~ G j 5.5XdXdXiXiXdXiXiXiXuXuXuXuXuXuXiXuXdXiXiXiXiXpX>X{ V C D + . |.                      ",
"                               X. X F F F u.>X8XtXwXwXwX8XwX0XtXpXuXuXpXeXwXwXwXwXwXwXeXeX<Xu.F D D + . .X                      ",
"                               X. . F ' i.p.j.N.j.r.e.e.r.j.B.K.tXuXuXtXH.B.j.r.e.e.r.N.C.B.p.i.] F X .  X                      ",
"                              .X. + S u.N.v.f.;.o.t 0 0 w X.;.C.wXiXdXtXC.;.o.t 0 0 w o.%.f.x.N.u.F + . .X                      ",
"                          vX;X} : & l 1.B.J.V.z.r.e.t.t.t.j.B.7XpXiXiXpXK.B.j.t.t.e.e.w.8.h.n.B.2.s & : } ;XvX                  ",
"                        vX  2 v N a + &.j.F.9XwXtX9X8X9X9X8XtXuXuXiXiXuXrXtXtX9XyXtX8XD.x.v.A.j.*.+ , B N 2 {.vX                ",
"                        =Xc o k / M - i t.N.P.pXiXiXdXfXfXtX7X7X7X7X7X7X7X8XtXfXfXdXqXL.A.z.j.t.u * l H s . K =XNX              ",
"                    cX|.R f l ( ~.) N c i -.N.L.U.iXMXCXCX1Xq.>.g.g.g.f.>.t.1XCXCXsXI.F.F.g.*.i c N F H M , z ! |.cX            ",
"                    $X. . m ) /.(.{ E j + 4 6.z.I.qXfXCXNX:Xt ..>.;.<.;. .q $XNXNXwXh.k.z.t.9 & j E W E W ^ N X . $X            ",
"                cX$X!.I N ( W.).).W.E j s 1 u -.6.m.<XmXsX5XS.C.D.H.H.Z.r.:.,XaXaXM.>.#.-.u 1 s M E ) W.W.W.( : + [ :XbX        ",
"              NX|.. B /.`.`._._.`.{ H F H N f % % t =.k.H.0XuXuXpXuXuXeXH.V.V.Z.B.-.q 6 % 1 B H H E _ /._._./.) F @ . |.        ",
"            vX-X[ + T ).}.).`.W.( ( ( _ _ ~ j = & & q #.8.N.4X4X4X4X4XD.N.r.8.;.$.u 3 a j S / ) E H ~ { W._.`.~.) : . ` -XvX    ",
"          bXXXP [ E.!.`.).)./.L 1 ! ~.(._.~.H j j j p r  .O.*.*.1.*.1.*.*.O.....i K S ^ Y.~./.~./ N x 3 R /.}.`././ b x I XXbX  ",
"          zXp . / ).).`.(./._ g @ Q '.)._./.} ' ] 5.] 1.*.*.&.i w e e w t y ..t u Y [ (.{.XX).^.Y.E d X c { !.).`.~.( s . K zX  ",
"          nXK . Q ).}._.E.R c f z ~ '.'.^./.y.r.S.>X4X4XD.D.D.N.w.:.:.w.w.w.:.w.w.t.p.p.d.a.`.^.Q.T.E z f c R !.).).W.D . K nX  ",
"          lXP . ( `.}.`.[ < . z E E.(.`.'.{.M.A.6XpXuXuXuXiXpX9XF.z.V.V.V.V.Z.Z.V.V.V.n.V.S.{.).`.(.W.^ z . < [ `.).).( . P lX  ",
"      BXkX.XL v E.)./.E.T . . T { [.a.OXOX,X4XP.qXuXiXiXuXiXdXtX6XL.6XP.6X6X6X6X6XP.P.6XI.3X,XOXOXa.[.{ D . . T E.`.).W.n L |.kX",
"      -XK * N / !._.W.^ x . 1 / _.a.m.G.8XuXeXeXpXpXpXpXuXuXeXeXeXtXeXeX0XtXtXrXtXeXeXrXeXeXeX0XG.m.a.(.~ > . z W E.`././ N * K ",
"      $X. . M ) Q.W./ v , - x T.}.OXG.U.pXuXiXuXuXpXpXpXuXuXuXuXdXuXdXuXrXdXdXrXuXdXuXuXuXiXiXpXU.G.OX}.T.n - d v / W.E.) M . . ",
"      :X. . m ~ ) Q n ; - z D R.`.,X0XqXpXuXuXuXpXpXpXpXuXeXuXuXeXrXuXuXuXuXrXrXuXuXuXuXuXuXuXpXrX0X,X`.R.D v ; ; n ~ ) ~ m . . ",
"    NX=X` c N F m v > @ f D ) W.{.,XuXiXuXpXuXuXtXpXpXpXuXeXuXeXuXuXeXuXuXuXrXuXeXuXuXeXuXuXuXuXiXrX,X{.E.W F > @ > b F F N - K ",
"  |. XkXnX$XL . . . * x E _ (.y.s.7XuXdXpXeXuXuXuXuXeXuXeXuXuXuXeXuXeXuXuXeXuXuXuXuXuXeXeXuXuXuXdXdX7XS.y.` S m x - X . . x { }.",
"  . P zXVXcX` . o @ x D ) ^.{.M.V.P.eXuXpXuXuXeXeXuXuXuXeXuXeXuXuXuXuXuXuXuXuXeXuXeXtXdXuXuXeXuXeXrX7Xn.r.| Z S D c # . . K }.*X",
"   X#X-XzX&X].].#X&XXX^ ^ ^.|.m.n.P.pXuXuXeXuXuXuXuXeXuXdXuXuXuXuXuXeXuXuXeXuXuXuXuXeXuXuXuXpXrX8X6XH.n.r.| C C ~ }.$X%X[.{ !.].",
"    NX$Xp R +XkXNXNX;XQ G ^.XXd.c.P.rXiXuXuXuXeXeXuXuXuXtXeXeXuXuXtXuXuXuXeXuXeXeXuXeXuXeXuXiXtXH.V.n.n.r.| C j ~ ;XNXNXzX+XI + ",
"      zX[ [ }.*XvXvX%XT j T.[.m.V.I.8XeXuXuXuXuXuXeXuXuXeXeXeXeXeXuXuXuXuXeXuXuXuXuXpXuXuXeXtX6XD.k.n.V.p.] C s T $XBXvXhX}.{ 3.",
"        vX&XU g ' } R 1 l J 5.p.J.J.G.7XeXdXdXuXuXuXuXeXeXdXrXdXeXuXeXuXuXuXeXeXuXuXuXiXuXtXK.Z.V.x.n.n.p.] C , 1 ! } [ f R *XvX",
"          bX} X # 2 O . : j ' p.V.z.z.Z.0XeXtXtXeXuXeXeXdXeXeXeXuXtXeXeXuXtXeXtXeXtXeXeXeX6XV.k.z.z.V.z.p.' j : . O 3 # X } cX  ",
"            lX;X-X=X} . . j ! 2.i.r.z.F.H.7XK.K.8XeXdXdXeXdXrXdXdXuXdXuXuXdXdXdXeX8X7XK.7XG.V.z.c.B.m.i.2.( M . . } *X1X-XlX    ",
"                    =XO . m H S Q i.V.n.V.V.B.C.L.eXiXpXrXdXrXrXuXrXrXrXrXrXrXiXtXG.V.x.V.V.V.V.V.B.i.! S H m . O =X            ",
"                    vX$X(.E s j H i.V.c.x.z.b.z.G.6X8X9XyX6X8X6X8XyX8X6X8X6X8X8XK.Z.k.k.k.z.V.V.n.V.i.H V s T (.&XvX            ",
"                        lX! X a W i.V.n.x.z.z.z.V.Z.Z.Z.Z.Z.Z.G.Z.Z.G.Z.Z.Z.Z.Z.Z.V.z.B.V.V.V.V.J.V.i.~ a X ` zX                ",
"                        lXY O : L u.m.B.V.V.V.V.z.z.z.z.x.z.k.k.z.z.k.V.k.B.z.z.z.x.V.V.V.z.x.k.B.j.u.L : O Y zX                ",
"                    bX@X3.=...9 : L 2.p.B.J.J.V.V.z.z.z.z.B.z.z.z.B.x.k.B.z.z.k.B.V.V.C.C.v.f.8.e.2.L , 9 ..=.2.@XbX            ",
"                    $X# 7 +.;.w O a C 2.m.V.V.k.x.V.V.V.B.V.V.B.B.V.V.V.V.B.V.V.V.x.x.V.z.h.<.=.U Z s o t $.%.7 % =X            ",
"                cX$Xu.@.%.f.f.$.w < h c 1.4.w.h.k.V.J.V.J.V.V.V.V.B.V.V.V.V.V.A.V.h.g.h.h.:.O.r : a 3 w $.f.f.%.@.u.:XcX        ",
"              NX}.$ @.z.V.C.k.<.$.w X X + 9 $.<.h.V.V.A.V.V.V.V.V.V.V.B.V.V.V.J.k.8.;.<.;.$.9 . X X  .$.8.k.V.V.z.-.4 }.NX      ",
"            vXkX@Xu.t.h.v.n.n.9.7.$.*.i r 0 e  .#.:.w.4.w.f.k.x.V.c.A.V.z.b.g.6.>.o.X. .X. .e r i *.$.8.h.x.n.n.h.-.K !.hXvX    ",
"          xX} ].xXBX2X,.,.v.n.h.9.h.b.j.>.o.8 $ O 6 6 % 0 #.8.k.V.J.A.J.h.8.#.q $ $ O . O 8 o.:.g.b.h.9.h.J.v.0.%.a.+X}.R ].cX  ",
"          xX` } cXNXaXM.f.g.z.D.3XD.z.8.%.$.Y R ! R R T U &.#.;.l.b.j.g.:.+.&.P T ! R ! ! Y $.%.9.N.G.3XD.B.j.l.p.OX%X}.I ] cX  ",
"            cX;X@X@XlXmX1X*.1.aXMX1X@.7 5 &.:XxXcXlXxXcXjXy.5 5 t t y t 5 5 y.kXcXxXxXbXcX:Xu 5 5 @.2XMXaX1.*.1XmX=X` !.&XcX    ",
"              BXu.3 ;XVXxXP ` bXVX-Xc . . ' bX            $XX . X @ @ X . X $X            cX' . . c 1XVXbX` P xXVX-X2 ].BX      ",
"                lX#X=XjXhX*X&XhXjX;X&X$X%XjX              bX*X%X&X&X=X&X%X&XbX              kX%X%X&XhXjXhX&X&XhXzX=X:XlX        ",
"                    $XP #X     XP =X                                                                *XL  XNXNX XP $X            ",
"                    #X. |.    [.. &X                                                                &X. XXVXVX|.. #X            "
};
