/* XPM */
static char *_1f5ce352ac646fe8f89c03e5dceb9257VffABKiY8FQheUN[] = {
/* columns rows colors chars-per-pixel */
"64 64 240 2 ",
"   c None",
".  c #000000",
"X  c #01030C",
"o  c #170302",
"O  c #000517",
"+  c #0C171A",
"@  c #1B1A1A",
"#  c #230200",
"$  c #2F1204",
"%  c #000029",
"&  c #001928",
"*  c #000232",
"=  c #081534",
"-  c #1A2628",
";  c #002835",
":  c #02333C",
">  c #1B353A",
",  c #1B2E33",
"<  c #23292C",
"1  c #2E2D2C",
"2  c #262829",
"3  c #27383D",
"4  c #363839",
"5  c #2B2F2E",
"6  c #3F112B",
"7  c #570000",
"8  c #4F1B00",
"9  c #7A1A00",
"0  c #652A00",
"q  c #683501",
"w  c #773900",
"e  c #7A2D00",
"r  c #563726",
"t  c #7E4401",
"y  c #794604",
"u  c #7A4F10",
"i  c #554633",
"p  c #6D4D30",
"a  c #7A623E",
"s  c #002942",
"d  c #003A47",
"f  c #103B45",
"g  c #283C42",
"h  c #104752",
"j  c #2B454B",
"k  c #274249",
"l  c #284C55",
"z  c #364D54",
"x  c #2C525A",
"c  c #25515B",
"v  c #33555E",
"b  c #39555B",
"n  c #33434C",
"m  c #024C63",
"M  c #055467",
"N  c #1B586A",
"B  c #0C5B77",
"V  c #295B69",
"C  c #3C5D65",
"Z  c #375B65",
"A  c #3E616A",
"S  c #35606C",
"D  c #386475",
"F  c #296277",
"G  c #484A4B",
"H  c #524B4A",
"J  c #475559",
"K  c #4F5557",
"L  c #6C5B55",
"P  c #475C64",
"I  c #565E63",
"U  c #43636B",
"Y  c #4B656C",
"T  c #496268",
"R  c #5A666C",
"E  c #586569",
"W  c #4C6972",
"Q  c #486975",
"!  c #526D75",
"~  c #5B6C72",
"^  c #576F7A",
"/  c #5C747C",
"(  c #577078",
")  c #6A6A65",
"_  c #6C6B6B",
"`  c #646A69",
"'  c #6C7369",
"]  c #747669",
"[  c #636D72",
"{  c #61757D",
"}  c #6A767C",
"|  c #777877",
" . c #746A67",
".. c #766956",
"X. c #883D00",
"o. c #874901",
"O. c #914500",
"+. c #8B5404",
"@. c #995904",
"#. c #8B5314",
"$. c #A65C03",
"%. c #966400",
"&. c #A56501",
"*. c #B56703",
"=. c #BC711C",
"-. c #B06D0E",
";. c #855B29",
":. c #8D5A33",
">. c #886436",
",. c #956E2F",
"<. c #BC7627",
"1. c #B97D36",
"2. c #A6742C",
"3. c #C0721E",
"4. c #C27A25",
"5. c #8B6A42",
"6. c #947754",
"7. c #A47C45",
"8. c #8B796B",
"9. c #7A847C",
"0. c #B8853C",
"q. c #B8821E",
"w. c #C58539",
"e. c #D0973A",
"r. c #9B8858",
"t. c #95804F",
"y. c #B88947",
"u. c #A98C59",
"i. c #B48C58",
"p. c #B9935A",
"a. c #AD8C52",
"s. c #998464",
"d. c #988675",
"f. c #908F7B",
"g. c #A88D68",
"h. c #B99665",
"j. c #B99B78",
"k. c #AB8E71",
"l. c #B1A87E",
"z. c #CB944C",
"x. c #C79547",
"c. c #D4974C",
"v. c #C99A57",
"b. c #D39D54",
"n. c #C58C40",
"m. c #D6A45C",
"M. c #D9A65C",
"N. c #DCAA5D",
"B. c #D8A454",
"V. c #D2A258",
"C. c #C29767",
"Z. c #CAA366",
"A. c #DAAA62",
"S. c #D6A965",
"D. c #DDB26C",
"F. c #D6B16C",
"G. c #D7B97A",
"H. c #C8B07A",
"J. c #E0AE63",
"K. c #E3B165",
"L. c #E7B869",
"P. c #E3BB74",
"I. c #E6BD76",
"U. c #E7C37C",
"Y. c #EBC67C",
"T. c #F1CA7D",
"R. c #5C7683",
"E. c #477284",
"W. c #647982",
"Q. c #6B7D85",
"!. c #657C87",
"~. c #777E83",
"^. c #6E818A",
"/. c #65808D",
"(. c #74858D",
"). c #7A8387",
"_. c #7B8A92",
"`. c #758790",
"'. c #858585",
"]. c #8B8A8A",
"[. c #958C88",
"{. c #878E94",
"}. c #859299",
"|. c #9C9C9C",
" X c #959494",
".X c #92918D",
"XX c #A49E9D",
"oX c #AA9987",
"OX c #ADA291",
"+X c #979DA2",
"@X c #9AA4AC",
"#X c #A4A4A4",
"$X c #ABABAC",
"%X c #A7A8A9",
"&X c #ADB2B5",
"*X c #B3B3B3",
"=X c #BDBDBD",
"-X c #BCB8B5",
";X c #B7A7A1",
":X c #CCBC87",
">X c #D3B191",
",X c #CAB4A4",
"<X c #D8C487",
"1X c #ECCB84",
"2X c #E7CB87",
"3X c #F1CD82",
"4X c #ECD28C",
"5X c #EAD188",
"6X c #F2D58D",
"7X c #F7D588",
"8X c #ECD591",
"9X c #EED895",
"0X c #F5DC94",
"qX c #F9DE95",
"wX c #F1D690",
"eX c #EFCE94",
"rX c #F9E299",
"tX c #FFE99F",
"yX c #FAE197",
"uX c #DBC2A5",
"iX c #FEEAA3",
"pX c #FDEBB5",
"aX c #E6CEB2",
"sX c #B7BEC0",
"dX c #BDC2C5",
"fX c #C5C5C5",
"gX c #CBCBCC",
"hX c #C6C5C6",
"jX c #CED1D2",
"kX c #D4D4D4",
"lX c #DBDBDB",
"zX c #D8D7D7",
"xX c #D0CFCC",
"cX c #E3E1DC",
"vX c #FAEED2",
"bX c #E4E5E5",
"nX c #EAEBEB",
"mX c #E9E7E7",
"MX c #F8F5F0",
"NX c #E4DBD3",
/* pixels */
"                            _ . . . . . . . ) lX      mX'.. . . . . . . H gX        |.. . . . . . . 1                           ",
"                            _ . . < - + . . ` gX      zX9.. . + + + . . K =X      cX.X. . - < < O . 1                           ",
"                            _ . n E P j : : E  X-X-X-X+X` : : k k k f ; J {.*X=X=X#X' h z E [ [ I . 5                           ",
"                            _ . ~ `.} U C A b k @ o @ 3 b A A U A C U U C n @ o o , z U W.(._._.W.& 1                           ",
"                            _ . ~ _.`.R.! Q x ; . . . ; T R.{ / / ( / { ! k . . . O U / `._._.`./ O 1                           ",
"                            ) . R _._.`.W.Y Z x l l l U Q.`.(.(.`.(.(._.^.~ x h h A } (._.`.`./ b . 1                           ",
"                            _ . P (._._.(.( W W W W W / (._._._._._._._._.W.! W W / ^._._.`./ W l . 1                           ",
"                            _ . l ( (._._.^.Q.Q.^.^.Q.^.(._._._._._._._.`.^.^.Q.^.^.`.(.^.( W U c . 1                           ",
"                            _ . ; C / (._._._._._._._._._.(._.(._.`.`.`._._._._._._._._.{ U Z A x . 1                           ",
"                            _ . . g P ( Q.(._._._._._._._._._._.(._.)._._._._._._._._.(.( C l j ; . 1                           ",
"                            ' . . + g Z ( (._._._._._._._.`._.(.`._._._._._.`._._._._._./ U j - . . 1                           ",
"                            _ . . , b W { (._.Q.R./ R.R.R.W.(._._._.(.Q.R.R.R.!.R.!.(._.^.( P j X . 1                           ",
"                            _ . & b ~ Q._._.(.Q N M V N V D /._.{._.(.! F N N N V Q ^._._.(.W.U k . 1                           ",
"                            _ . d ! Q._._.^./.9.] ] 9.| ) ` } ^.(.^.Q.} ) ' ] ] ) [ Q.`._._.^.! c . 1                           ",
"                            _ . C Q._._.!.F ( l.<X<X<Xl.h.u. .D B B [ 6.p.H.:XH.p.r.' D R._.(.! c . 1                           ",
"                            _ . ~ _._._.R.S ' <XyXtXtX7XP.m.s.T M V ] v.D.3XyX7XP.v.8.C R.`.^.W l . 1                           ",
"                            ) . ~ _.Q.!.~.f.:X8XtXtXtXqX7XU.H.l.l.l.H.G.T.qXtXyX3XP.h.r.] { ^ Q l . 1                           ",
"                            ) . ~ _.E.D f.2XqXrXqXrXqXqX0X0X0XwX9X9X9X0X0XqXyXrXrX8XD.v.s.Y F A x . 1                           ",
"                            _ . P Q.D M f.8XiXtXqXrXrXrXrXrXtXtXrXrXtXtXtXrXrXrXiXyXT.P.g.T m Z b . 5                           ",
"                            _ . j ! M m f.9XtXtXtXtXtXiXiXtXrXrXrXrXrXrXtXtXtXtXtXtXtXwXl.A m V v . 1                           ",
"                            _ . : C Z T l.2X0XwX8X8X8XwXwXwX0XrXrXyX0X0X0X6X8X9X4XwXyXwXl.' C A x . 2   nX                      ",
"                            ] . : T 8.g.p.Z.m.p.u.u.u.p.v.F.2XqXtXrXwXD.v.p.i.u.u.h.Z.S.Z.h.s.~ c % o ) #XxX                    ",
"                             .. s T g.S.b.w.-.o.q 0 q X.$.w.I.rXiXrX4Xv.*.o.w 0 0 t $.<.c.B.h.' M : . . .  XmX                  ",
"                        jX#XH . % J i.N.K.M.Z.h.u.a.a.i.v.F.4XrXtXiXwXI.V.p.a.a.u.i.y.w.B.K.v...d d 3 . . E *XzX                ",
"                      fX_ . . . . 1 7.N.Y.7XwXwX4X5X5X7XwX0XqXrXtXrXrXqXeX1X4X4XwX4XD.b.J.J.p.p % h C Z x k 4 ).lX              ",
"                    lX|.. . , g X o ;.y.D.5XyXtXtXpXpXpX9X2X2X5X1X1X1X<XeXpXpXpXqX7XI.A.b.v.2.i & c A U A h . 4 *XmX            ",
"                  ,X9.J d x { [ g . $ u a.D.T.7XtXvXMXNXOX2.0.z.z.z.y.2.g.xXMXvX7XL.K.J.y.>.i z x Z A A A c h k R  XxX          ",
"                bX'.. X P W.`.(.I + . . p y.K.T.yXvXMXcX[.e @.<.4.1.$.X.5.hXMXvX>Xc.b.m.5.X = V U U U Y Y U U x . . $X          ",
"              fX+X[ l P W.^._._.Q.E c d G ;.2.i.Z.uXaXaX>XH.F.G.P.P.S.0.7.,XNXuXi.&.2.,.p d h v W ( } !.{ / W l . . *X          ",
"            kX` O ^ _.`.`.`._.`._.~.R.P l - $ 8 u y.S.U.wXrXrXrXrXrXwXP.S.J.D.z.;.9 $ @ k Z Z A W W.`._.`.Q.! c . o *X          ",
"          kXXX, . ^ }.}._._.Q.Q.Q.Q.W.Q c s % % 6 y &.x.G.U.<X<X<X<XG.C.y.0.4.,.i = * = M ^ Q A W ^._.}._.(.{ Y d g  XjXcX      ",
"        hX_ 3 k P Q._.}._.Q./ W ! W Q P Z x c M c G w o.;.>.>.>.>.5.>.;.#.o.X.p b m m M Q /.R.U U ^._._._._.`.^.! b I _ |       ",
"      bX#XO . Z ( } (.(.(.{ b c v A A S A U W ~ ' ..5.>.:.;.u w w t w u #.O.#.L ) ' ` ] f.].~.~ W / Q.~._._._.`.W.C ; . .       ",
"    XX+X{.~./ Y U ! ( / ( T g , x A c M F E.^.d.h.Z.G.G.:XH.v.y.1.y.1.y.7.7.1.y.i.h.p.g.h.j.oXQ.E.P J [ (._._._.R.Z : . .       ",
"    . < {.&X@X( c S A A A z + - z A U T ( ^..Xj.A.U.qXtXtX0XU.A.m.A.A.A.A.A.A.A.A.A.A.A.N.N.H.[.Q.n . P Q.}._.(./ P k + .       ",
"    . . $XbXdXJ . h A x g > 3 k c P ] s.k.k.j.G.T.0XrXiXtXrX6X1X1XU.1X1X1X1X1X1XY.T.1XY.T.Y.G.H.d.i . J (.}._.(.Q.W.P - .       ",
"    . g fXMXkXK . h A k X 3 b S M T r.m.M.m.S.1XqXrXrXrXrXrX0X9X0X0X0X9X0XqXqX0X0X0X0XrXqX0X4XD.z.p X C ~._._._._.(.E < .       ",
"    ].XX=XzXgX#X).E j : - k A A F ( g.A.K.L.U.7XrXrXrXrXrX0XiXrXiXrXrXiXqXrXrXrXrXrXrXrXrXtXqXT.m.,.X l !.`._._._._.~ < .       ",
"      cX%X_ %XcXzX.X. & b v A U E.^.k.S.L.3X0X0XrXrX0XrXrXrXrXrXrX0X0XqXrXrXrXrXrXrXrXrXrXrXyX0X<Xt.. s Y W.Q._.}.`.R < .       ",
"        *XG +XnXcX.X. & A A A W /..Xj.Z.U.0XrXrXrXrX0XrX0XrXrX0XrXrXiXqXqXrXqXrXrXrX0XrXyXrXtXtX4Xr.. * Z W Q._._.`.R < .       ",
"        mXfX*X%X].H . f T S V ` d.j.Z.N.P.0XtXyXrX0XrX0XrXrXrXrX0XrX0XrXrXrXrXrX0XrX0XrX0XrXrXtX8Xr.. * v ! ^._.}.`.R < .       ",
"            gX` . . + j U V N ' p.J.M.N.G.6XrXrXrX0XrXrXrX0X0XrXrXrX0XrX0XrX0XrXrXrX0XrXyXyXrXiX5Xr.. * Z ( ^._._.(.R < .       ",
"            mX*X'.G . f P V N ] p.J.B.B.P.0XrXtXrXrXrX0XrXrXrXrXqXrXrXrX0XrX0XrX0XrXrXrXyXyXtXtX8Xr.. . h A ^._.}._.R < .       ",
"                lX'.. & C V N ] h.J.N.N.P.wXtXrXrXrXrXrXrX0X0XrXrXrX0XrXrXrXrXrXrXrX0XrXyXyXtXtX5Xr.. . h A ^._.}._.~ < .       ",
"                  .X. . C S N ' h.N.N.m.D.5X0X6X6X0XrXrXrXrXrXrXrX0XrX0XrXrXrX0XrXrXrXrXrXrXyX5X:Xd.I { }.}._./.(.Q.P . .       ",
"                bX'.. . A S N ] h.J.J.m.D.I.P.P.P.1X0XiXrXrXrXrXiXrXrX0X0XrXrXrX9XrXrXrXiXiXU.p.6.'.@XgXbXjX@X^ ^ ! k . .       ",
"                nX+X4 f C c N ' p.V.N.N.A.V.b.b.M.U.wXrXrX0XwX0X0X0XrXrXrX0X0X0XrXrX0X0XrXrXG.;.p '.&XlXMXbX&X(.W Z z K H       ",
"                  bXaX.X> ; V E a &.x.N.V.&.&.w.N.P.U.U.U.2XU.U.4X0XiXrXiXrXiXrXiX0X5XU.U.U.F.y.6.] ^.@XdXjXlXgX).. | =XgX      ",
"                      *X2 . V J r w y.S.z.u X.y.A.F.S.A.A.m.m.A.I.wXiXqXqXqXqXrXrX6XI.A.A.S.A.J.v.:.% % V %XnXnX|.. #X          ",
"                  nXkX$X} z d P  XXXoXy.k.XXXXj.n.z.b.M.m.m.V.m.P.1X4X1X4X4X4X4X4X2XD.b.b.B.A.K.v.2.0 . . Q.fXkX*XXXzX          ",
"                nX%X_ {.@X(.* R hXnX*Xi [.lXmX;X#.-.b.D.A.m.m.S.S.K.P.D.K.D.D.D.D.D.A.m.M.A.A.A.N.w.-.w $ & G ].gX              ",
"                mX| . _ $X Xp 8.NXMX-Xi f.cXmXXX7 %.b.J.N.S.N.A.m.S.b.M.b.S.m.b.b.m.M.S.A.A.A.B.b.7.-.t # . . G jX              ",
"                mX'.. p k.C.y.C.>XaX>Xy.h.>X>X .. ,.N.K.A.A.A.m.A.m.m.M.b.M.A.m.M.m.A.A.A.A.m.z.4.:.q $ . . . H zX              ",
"                bX].. 9 *.n.A.S.N.B.N.J.b.3.$.0 @ 5.v.D.A.A.N.A.S.M.S.A.S.A.S.M.A.A.m.S.A.A.b.1.$.w . . # . . _ gX              ",
"                bX~.. X.e.c.J.A.B.B.N.J.B.e.3.@.o.;.5.y.m.K.A.N.A.A.M.m.m.A.A.D.J.A.b.z.c.c.1.O.e t #.w e p 8.{.|.*XlX          ",
"                bX).. %.b.J.A.A.M.A.A.S.A.S.b.n.-.t $ >.p.K.D.N.S.M.S.A.A.A.A.A.J.b.n.=.4.4.#.8 8 #.=.*.*.g.$X@XE 2 *X          ",
"                  sX].s.0.y.N.A.b.b.v.v.b.m.b.c.n.+.. . ,.y.v.v.b.A.N.J.N.B.V.x.y.1.@.O.X.X.a I [ :.2.C.>X,XXX_.Q.'.hX          ",
"                    bX#X8 %.V.A.z.1.<.4.4.1.w.b.M.2.. . . 0 &.4.c.J.K.D.N.b.w.&.q # o # . # L +X+XL r ,XMXzX_ G $XbX            ",
"                      dX~ a p.x.4.=.*.=.=.-.<.z.v.g.' P P L :.$.<.x.v.V.z.1.&.:.E P E E I I '.@X+Xg X $XmXkX'.| zX              ",
"                      nXxX$Xa o.$.3.=.=.=.=.*.O.u oXhXlXkXdX[.7 7 y y u y 7 7 8.,XkXjXgXkXxX*X~.g O . G {.$X=XzX                ",
"                          zX[ # O.=.=.=.=.=.*.7 5 &X        $X@ . . + + O . . #X            zX| X . @ . .  XmX                  ",
"                            hX|.8.+.o.#.o.o.5.[.*XlX        lX&X$X&X*X&X&X%X&XzX              fX$X*X*X$X#XgX                    ",
"                              bX X# . $ o . ) gX                                                                                ",
"                                #X. . . . . ~ lX                                                                                "
};
