/* XPM */
static char *result[] = {
/* columns rows colors chars-per-pixel */
"64 64 222 2 ",
"   c #000000",
".  c #040307",
"X  c #000818",
"o  c #01161A",
"O  c #141B1D",
"+  c #350000",
"@  c #290C0A",
"#  c #000024",
"$  c #011C29",
"%  c #1A1E20",
"&  c #02242D",
"*  c #19292D",
"=  c #162D36",
"-  c #23282B",
";  c #2A2E31",
":  c #2B3236",
">  c #2C3539",
",  c #2A383C",
"<  c #353A3C",
"1  c #333537",
"2  c #332C2F",
"3  c #4F0C00",
"4  c #5A2700",
"5  c #583600",
"6  c #753C00",
"7  c #673100",
"8  c #680D00",
"9  c #5A4400",
"0  c #684918",
"q  c #6D5107",
"w  c #6E532F",
"e  c #635739",
"r  c #023A44",
"t  c #0E3E4B",
"y  c #323E43",
"u  c #243A41",
"i  c #0C454E",
"p  c #02444D",
"a  c #044954",
"s  c #1C4A54",
"d  c #184851",
"f  c #22454C",
"g  c #2A464C",
"h  c #3A454A",
"j  c #244C54",
"k  c #2C4D54",
"l  c #234F59",
"z  c #334D53",
"x  c #2D525B",
"c  c #28515A",
"v  c #33555D",
"b  c #39555D",
"n  c #3F5255",
"m  c #005369",
"M  c #13566A",
"N  c #355A62",
"B  c #3C5E66",
"V  c #315761",
"C  c #275863",
"Z  c #3F6169",
"A  c #2B6274",
"S  c #41575C",
"D  c #4B5459",
"F  c #485055",
"G  c #5A5C5D",
"H  c #555758",
"J  c #474D4F",
"K  c #5D6059",
"L  c #74675C",
"P  c #7E715F",
"I  c #73684D",
"U  c #415C64",
"Y  c #575E62",
"T  c #42636B",
"R  c #49656D",
"E  c #4C646A",
"W  c #5D6164",
"Q  c #59656C",
"!  c #476870",
"~  c #4D6971",
"^  c #466977",
"/  c #526C74",
"(  c #5A6B75",
")  c #557079",
"_  c #5C737B",
"`  c #636566",
"'  c #696766",
"]  c #6B6C6B",
"[  c #636969",
"{  c #746E68",
"}  c #7A776C",
"|  c #636D74",
" . c #686B70",
".. c #64747B",
"X. c #6C797F",
"o. c #697279",
"O. c #727374",
"+. c #797776",
"@. c #7C7B7B",
"#. c #787979",
"$. c #814802",
"%. c #975F17",
"&. c #8D5300",
"*. c #A85B00",
"=. c #88621E",
"-. c #AE7700",
";. c #B0690D",
":. c #966535",
">. c #A87638",
",. c #C27900",
"<. c #94744A",
"1. c #A57E48",
"2. c #837D78",
"3. c #827266",
"4. c #AB7F67",
"5. c #7C8477",
"6. c #B9873C",
"7. c #C0871B",
"8. c #C1923D",
"9. c #AD854C",
"0. c #B38A48",
"q. c #A48254",
"w. c #B38B56",
"e. c #B2935B",
"r. c #918B73",
"t. c #B28E64",
"y. c #B79470",
"u. c #968449",
"i. c #CA994B",
"p. c #C69549",
"a. c #C99B56",
"s. c #D29F5A",
"d. c #C79049",
"f. c #CFA35A",
"g. c #D6A65B",
"h. c #E2AD59",
"j. c #C69B63",
"k. c #CDA364",
"l. c #CDA56D",
"z. c #DCAB64",
"x. c #D3AB6C",
"c. c #D1A865",
"v. c #DEB26B",
"b. c #D2AC72",
"n. c #D7A379",
"m. c #DABA78",
"M. c #CBAD72",
"N. c #E3B367",
"B. c #E1B470",
"V. c #DCC37E",
"C. c #EDC476",
"Z. c #EAC47C",
"A. c #F1C87A",
"S. c #5C7985",
"D. c #667A82",
"F. c #6C7B83",
"G. c #647E8C",
"H. c #717E86",
"J. c #677F90",
"K. c #6D818A",
"L. c #73848C",
"P. c #778389",
"I. c #6B8493",
"U. c #638496",
"Y. c #738791",
"T. c #768992",
"R. c #7A8A92",
"E. c #7F8F98",
"W. c #838482",
"Q. c #8A8B89",
"!. c #928D85",
"~. c #959289",
"^. c #9C9C8F",
"/. c #818F93",
"(. c #859198",
"). c #9B9B93",
"_. c #99999A",
"`. c #A4978A",
"'. c #9FA193",
"]. c #919BA2",
"[. c #9BA2A7",
"{. c #A5A5A5",
"}. c #A8A6A6",
"|. c #A3A6A9",
" X c #B6B9BE",
".X c #DAB58A",
"XX c #D0AA85",
"oX c #DEC789",
"OX c #EDCD86",
"+X c #E3CC8A",
"@X c #E3C884",
"#X c #F2CB81",
"$X c #EDD38C",
"%X c #E7D18A",
"&X c #E6CA92",
"*X c #E7D496",
"=X c #F6DC94",
"-X c #F9DD92",
";X c #F4DB94",
":X c #F2D291",
">X c #FCE195",
",X c #FAE299",
"<X c #FFE89D",
"1X c #F7E098",
"2X c #FFEBA2",
"3X c #FDE4A0",
"4X c #FCEAB4",
"5X c #E7D3A5",
"6X c #B9C0C6",
"7X c #CDCDCD",
"8X c #D3D4D3",
"9X c #D5D9DA",
"0X c #D9D9D8",
"qX c #D0CFCF",
"wX c #E0DBD9",
"eX c #EDE2DB",
"rX c #DFE0E0",
"tX c #E5E5E6",
"yX c #EBEBEC",
"uX c #E6E8E9",
"iX c #F9F0E3",
"pX c None",
/* pixels */
"pXpXpXpXpXpXpXpXpXpXpXpXpXpXpXpXpXpXpXpXpXpXpXpXpXpXpXpXpXW.    @.pXpXpXpXpXpXpXpXpXpXpXpXpXpXpXpXpXpXpXpXpXpXpXpXpXpXpXpXpXpXpX",
"pXpXpXpXpXpXpXpXpXpXpXpXpXpXpXpXpXpXpXpXpXpXpXpXpXpXpXpXqXO.    @.8XpXpXpXpXpXpXpXpXpXpXpXpXpXpXpXpXpXpXpXpXpXpXpXpXpXpXpXpXpXpX",
"pXpXpXpXpXpXpXpXpXpXpXpXpXpXpXpXpXpXpXpXpXpXpXpXpXpXpX}.` S B ..X.o.}.yXpXpXpXpXpXpXpXpXpXpXpXpXpXpXpXpXpXpXpXpXpXpXpXpXpXpXpXpX",
"pXpXpXpXpXpXpXpXpXpXpXpXpXpXpXpXpXpXpXpXpXpXpXpXpXpXuX'   p _ R...  ` tXpXpXpXpXpXpXpXpXpXpXpXpXpXpXpXpXpXpXpXpXpXpXpXpXpXpXpXpX",
"pXpXpXpXpXpXpXpXpXpXpXpXpXpXpXpXpXpXpXpXpXpXpXpXpXpXpX+.  p ) Y...  O.yXpXpXpXpXpXpXpXpXpXpXpXpXpXpXpXpXpXpXpXpXpXpXpXpXpXpXpXpX",
"pXpXpXpXpXpXpXpXpXpXpXpXpXpXpXpXpXpXpXpXpXpXpXpXpXpXqXO.  s / L.F.u O.qXpXpXpXpXpXpXpXpXpXpXpXpXpXpXpXpXpXpXpXpXpXpXpXpXpXpXpXpX",
"pXpXpXpXpXpXpXpXpXpXpXpXpXpXpXpXpXpXpXpXpXpXpXpXpX}.G b x v ! L.T.H.o.` }.pXpXpXpXpXpXpXpXpXpXpXpXpXpXpXpXpXpXpXpXpXpXpXpXpXpXpX",
"pXpXpXpXpXpXpXpXpXpXpXpXpXpXpXpXpXpXpXpXpXpXpXpX7XG   d ! ! _ K.E.(...  G qXpXtXyXpXpXpXpXpXpXpXpXpXpXpXpXpXpXpXpXpXpXpXpXpXpXpX",
"pXpXpXpXpXpXpXpXpXpXpXpXpXpXpXpXpXpXpXpXpXpXpX}.G g p c ~ D.L.Y.T./.F.N z ] O.' }.pXpXpXpXpXpXpXpXpXpXpXpXpXpXpXpXpXpXpXpXpXpXpX",
"pXpXpXpXpXpXpXpXpXpXpXpXpXpXpXpXpXpXpXpXpXpX7XG   v ) ~ _ L./.R.T.R.L._ B &     G 7XpXpXpXpXpXpXpXpXpXpXpXpXpXpXpXpXpXpXpXpXpXpX",
"pXpXpXpXpXpXpXpXpXpXpXpXpXpXpXpXpXpXpXpXpX}.G g V D.L.L.L.R.E.R.R.T.T.L.K.X.( j f H }.pXpXpXpXpXpXpXpXpXpXpXpXpXpXpXpXpXpXpXpXpX",
"pXpXpXpXpXpXpXpXpXpXpXpXpXpXpXpXpXpXpXpX7XG   p ) L.E./.T.F.X.X.H.L.E.R.R.E.Y.D.v   ` 7XpXpXpXpXpXpXpXpXpXpXpXpXpXpXpXpXpXpXpXpX",
"pXpXpXpXpXpXpXpXpXpXpXpXpXpXpXpXpXpXpX{.W z d x ~ K.E./.P.J O - D P.E.R.R.T.T.L.F.D...` |.pXpXpXpXpXpXpXpXpXpXpXpXpXpXpXpXpXpXpX",
"pXpXpXpXpXpXpXpXpXpXpXpXpXpXpXpXpXpXuX'   p ^ ! _ L.T.L.( J O   > ( P.Y.R.R.T.T.T.T./ . D 7XpXpXpXpXpXpXpXpXpXpXpXpXpXpXpXpXpXpX",
"pXpXpXpXpXpXpXpXpXpXpXpXpXpXpXpXpXpXpX+.  i / D.T./.K.J h o...T f : F F.R.R.R.T.U.A m r a G }.yXpXpXpXpXpXpXpXpXpXpXpXpXpXpXpXpX",
"pXpXpXpXpXpXpXpXpXpXpXpXpXpXpXpXpXpXqXO.  j ) L.R.L.( - y K.R...U $ , X.R.L.P.!.!.r.r.} H   ` tXpXpXpXpXpXpXpXpXpXpXpXpXpXpXpXpX",
"pXpXpXpXpXpXpXpXpXpXpXpXpXpXpXpXpX}.` S v N / L.P.D , g R K.R.R...b S K.K.) O.t.b.+XoXx.>.  | yXpXpXpXpXpXpXpXpXpXpXpXpXpXpXpXpX",
"pXpXpXpXpXpXpXpXpXpXpXpXpXpXpXpXtX'   i T B / T.X.;   x ) K.R.E.Y._ _ L.K.M { f.C.>X<X#Xg.q 2.qXpXpXpXpXpXpXpXpXpXpXpXpXpXpXpXpX",
"pXpXpXpXpXpXpXpXpXpXpXpXpXpXpXpXtXO.  s Z Z / L.H.1   k ( K.R.R.T.L.P.R.K.m 5.V.-X>X,X>XOXc.9.P [.yXpXpXpXpXpXpXpXpXpXpXpXpXpXpX",
"pXpXpXpXpXpXpXpXpXpXpXpXpXpXpXpXtX#.  j Z B / L.K.h & x ~ L.R.R.T.R.R.R.K.( r.%X<X<X>X:XOXA.a.@ Y tXpXpXpXpXpXpXpXpXpXpXpXpXpXpX",
"pXpXpXpXpXpXpXpXpXpXpXpXpXpXpXpXtX@.  j Z B ~ L.P.E j v ~ K.R.R.R.T.T.Y.Q.t.x.$X<X2X:Xs.a.#XV.9 Q tXpXpXpXpXpXpXpXpXpXpXpXpXpXpX",
"pXpXpXpXpXpXpXpXpXpXpXpXpXpXpXpXtX#.  j T Z ~ L.Y._ ! B ! X.P.R.R.P.Y.I.~.b.A.-X=X*Xm.d.f.1X%Xq | tXpXpXpXpXpXpXpXpXpXpXpXpXpXpX",
"pXpXpXpXpXpXpXpXpXpXpXpXpXpXpXpXtX@.  k T B / K.R.Y.X.R N T / L.R.R.Y.I.^.&X>X<X+Xq.<.m.-X<X%Xq | tXpXpXpXpXpXpXpXpXpXpXpXpXpXpX",
"pXpXpXpXpXpXpXpXpXpXpXpXpXpXpXpXtX@.  i B B ~ L.R.E.K._ R R ( K.R.T.K.K.).+X>X<X+X1.q.$X<X;XM.5 o.tXpXpXpXpXpXpXpXpXpXpXpXpXpXpX",
"pXpXpXpXpXpXpXpXpXpXpXpXpXpXpXpXtX@.    , v / L./.R.R.L.F.F.L.R.T.R.Y.I.~.b.A.-X=X+X%X>XOXe.0   @.uXpXpXpXpXpXpXpXpXpXpXpXpXpXpX",
"pXpXpXpXpXpXpXpXpXpXpXpXpXpXpXpXyX2.    o g T D.L.T.R.T.R.R.T.R.R.Y.Y.Y.Q.e.c.$X<X<X2X4X5Xq.3   O.tXpXpXpXpXpXpXpXpXpXpXpXpXpXpX",
"pXpXpXpXpXpXpXpXpXpXpXpXpXpXpXpXpXW.        , U _ L.R.R.R.R.R.R.R.T.R.T.L.[ r.$X<X>X4XiXiX.X-.  Q tXpXpXpXpXpXpXpXpXpXpXpXpXpXpX",
"pXpXpXpXpXpXpXpXpXpXpXpXpXpXpXpXqX .  . * * = k ~ H.R.R.R.R.L.R.R.P.R.R.G.M 5.oX>X>X4XiXeX.X0.3.|.yXpXpXpXpXpXpXpXpXpXpXpXpXpXpX",
"pXpXpXpXpXpXpXpXpXpXpXpXpXpXpX}.G @   g B b b N ~ K.R.R.R.R.R.L.R.T.T.R.Y.G.!.M.A.-X3X:XXXw 3.0XpXpXpXpXpXpXpXpXpXpXpXpXpXpXpXpX",
"pXpXpXpXpXpXpXpXpXpXpXpXpXpXtX]   . g B T R Z B ~ K.R.R.R.P.R.L.R.P.R.R.T.I.W.t.c..X@Xi.-.7 +.8XpXpXpXpXpXpXpXpXpXpXpXpXpXpXpXpX",
"pXpXpXpXpXpXpXpXpXpXpXpXpXpXpX+.  r B T T T B N E K.R.R.R.R.L.R.P.T.R.R.L._ Q ] { <.:.q %.6.w.{ [.pXpXpXpXpXpXpXpXpXpXpXpXpXpXpX",
"pXpXpXpXpXpXpXpXpXpXpXpXpXpX7XO.  x T T U B T T _ L.R.R.L.R.R.R.T.R.Y.L.D.R C m F w $.6 >.z.g.q L 7XpXpXpXpXpXpXpXpXpXpXpXpXpXpX",
"pXpXpXpXpXpXpXpXpXpXpXpXpX}.` S v Z T T B N R D.P.R.E.T.P.R.T.P.R.R.P.) T b C m ' w.i.d.f.$XOXf.1.3.{.yXpXpXpXpXpXpXpXpXpXpXpXpX",
"pXpXpXpXpXpXpXpXpXpXpXpXyX]   i ! T U B T R _ T.R.P.D.P.R.R.T.R.R.R.K.) E ~ ! A } j.N.N.Z.-X,X#Xi.. Y tXpXpXpXpXpXpXpXpXpXpXpXpX",
"pXpXpXpXpXpXpXpXpXpXpXpXpX@.  d T T B N R X.L./.L.J J D.R.R.T.R.R.R.R.K.K.K.K.U.W.j.N.OX=X1X,X>Xm.+ ( yXpXpXpXpXpXpXpXpXpXpXpXpX",
"pXpXpXpXpXpXpXpXpXpXpXpX8X#.  k T Z T T _ L.R.P.( * , X.R.R.P.R.P.L.K.R.R.R.R.P.`.x.Z.=X2X,X,X<X%Xu.W.8XpXpXpXpXpXpXpXpXpXpXpXpX",
"pXpXpXpXpXpXpXpXpXpXpXr.+.E v Z Z B R D.Y.R.K.D , f U K.R.R.R.R.L.) ) K.R.Y.Q.y.x.OX=X=X,X1X,X,X=X$XoXr.D.pXpXpXpXpXpXpXpXpXpXpX",
"pXpXpXpXpXpXpXpXpXpXpX    x R Z B B ~ L.R.E.X.;   B ..L.R.R.T.E.F.U U F.R.Y.~.x.C.-X<X,X1X,X=X1X<X2X*Xq   pXpXpXpXpXpXpXpXpXpXpX",
"pXpXpXpXpXpXpXpXpXpXpX  X v T Z B N / K.E.E.X.: - | Y.R.R.P.R.E.F.h h X.R.I.^.oX=X=X,X,X,X1X1X,X,X2X+Xw   pXpXpXpXpXpXpXpXpXpXpX",
"pXpXpXpXpXpXpXpXpXpXpX  * b T T T B / K.R.R.X.> > F.R.R.T.R.P.T._ - : D.T.U.'.*X<X<X=X,X=X,X1X1X,X<XoXI   pXpXpXpXpXpXpXpXpXpXpX",
"pXpXpXpXpXpXpXpXpXpXpX  * b T T B B ~ K.E.E.X.: > X.E.R.R.R.P._ S o 1 D.T.I.'.*X2X,X1X>X=X,X,X1X,X<X+XI   pXpXpXpXpXpXpXpXpXpXpX",
"pXpXpXpXpXpXpXpXpXpXpX  * b T Z U N Q K.R.E.X.: > D.R.R.R.R.K.~ j . < F.T.I.).&X=X1X1X1X,X,X=X3X,X>XV.w   pXpXpXpXpXpXpXpXpXpXpX",
"pXpXpXpXpXpXpXpXpXpXpX  * b Z T Z N ~ L.E.E.X.: > X.E.R.R.R.K./ k X < F.R.I.~.M.C.=X<X1X=X,X,X,X>X#Xa.5   pXpXpXpXpXpXpXpXpXpXpX",
"pXpXpXpXpXpXpXpXpXpXpX  X b T T Z B ~ D.L.R.X.> ; ..P.T.R.R.K.) x   1 X.R.I.!.j.N.OX;X1X,X,X,X;XOXf.w.2.H.pXpXpXpXpXpXpXpXpXpXpX",
"pXpXpXpXpXpXpXpXpXpXpX    k T T Z B T ! _ Y.X.< o U _ L.R.R.L.) k   ; X.R.I.~.l.g.N.Z.;X<X<X-X#Xa.q r.8XpXpXpXpXpXpXpXpXpXpXpXpX",
"pXpXpXpXpXpXpXpXpXpXpXW.O.E b B T T Z v ~ Y.K.<   j / K.E.Y.X.T z , D F.T.T.~.y.f.s.v.OX;X;XOXB.6.  o.yXpXpXpXpXpXpXpXpXpXpXpXpX",
"pXpXpXpXpXpXpXpXpXpXpXpX8X#.  x T T B b / Y.P.1   x ) T.T._ T : h | K.R.T.T.R.Q.y.l.g.N.v.v.B.N.d.  Q uXpXpXpXpXpXpXpXpXpXpXpXpX",
"pXpXpXpXpXpXpXpXpXpXpXpXpX@.  d T T Z B ~ K.X.h & f T | | T t   * F./.R.T.T.L.U./.l.g.g.g.g.g.p.0.{ |.yXpXpXpXpXpXpXpXpXpXpXpXpX",
"pXpXpXpXpXpXpXpXpXpXpXpXyX .. i ! T Z B T / ! U k $       $       o.E.R.T.R.T.I.~.l.h.g.g.N.p.7 L 7XpXpXpXpXpXpXpXpXpXpXpXpXpXpX",
"pXpXpXpXpXpXpXpXpXpXpXpXpX}.W z s B T Z B B Z Z R D G +.O.< < { W.R.R.R.T.R.Y.J.W.y.k.z.g.p.9.L [.pXpXpXpXpXpXpXpXpXpXpXpXpXpXpX",
"pXpXpXpXpXpXpXpXpXpXpXpXpXpX7XG   s T T B B B N _ (. XtX9XX.5.9XrX[.H.T./.R.Y.) Q [ t.l.i.q L 7XpXpXpXpXpXpXpXpXpXpXpXpXpXpXpXpX",
"pXpXpXpXpXpXpXpXpXpXpXpXpXpXpX}.G z s B T T B V _ (.6XuX9XK.K.9XtX[.S.H.H.H.F.R l m K 0.0.L [.pXpXpXpXpXpXpXpXpXpXpXpXpXpXpXpXpX",
"pXpXpXpXpXpXpXpXpXpXpXpXpXpXpXpX7XG   s ! T T B R _ K.(././ ~ E.(.S.R ~ / ) ^ ! V r     3.7XpXpXpXpXpXpXpXpXpXpXpXpXpXpXpXpXpXpX",
"pXpXpXpXpXpXpXpXpXpXpXpXpXpXpXpXpX}.G z i d c B T N l a a Z Z a a V B B N c l V f   . H |.pXpXpXpXpXpXpXpXpXpXpXpXpXpXpXpXpXpXpX",
"pXpXpXpXpXpXpXpXpXpXpXpXpXpXpXpXpXpX7XW .     v ! T B N B Z T B N Z T T V & X $     ' 0XpXpXpXpXpXpXpXpXpXpXpXpXpXpXpXpXpXpXpXpX",
"pXpXpXpXpXpXpXpXpXpXpXpXpXpXpXpXpXpXpX{.' +.O.S i s k v v v x V V x c C b e 7 4 3 2 Q.0XpXpXpXpXpXpXpXpXpXpXpXpXpXpXpXpXpXpXpXpX",
"pXpXpXpXpXpXpXpXpXpXpXpXpXpXpXpXpXpXpXyXuXpXqX`   . . $ = & & & $ # # # e w.d.*.:._.]. ._.yXpXpXpXpXpXpXpXpXpXpXpXpXpXpXpXpXpXpX",
"pXpXpXpXpXpXpXpXpXpXpXpXpXpXpXpXpXpXpXpXpXpXpX}.' +.' O . 3 4 4 5 0 0 5 =.d.z.n.XX}.(.Q _.yXpXpXpXpXpXpXpXpXpXpXpXpXpXpXpXpXpXpX",
"pXpXpXpXpXpXpXpXpXpXpXpXpXpXpXpXpXpXpXpXpXpXpXyXtXpXqXD . &.;.;.>.a.a.8.7.,.XXeX0X .Y 7XpXpXpXpXpXpXpXpXpXpXpXpXpXpXpXpXpXpXpXpX",
"pXpXpXpXpXpXpXpXpXpXpXpXpXpXpXpXpXpXpXpXpXpXpXpXpXpXpX|.L %.*.*.;.s.B.&X.X*.4.0X9XQ._.pXpXpXpXpXpXpXpXpXpXpXpXpXpXpXpXpXpXpXpXpX",
"pXpXpXpXpXpXpXpXpXpXpXpXpXpXpXpXpXpXpXpXpXpXpXpXpXpXpXpXqXL .   8 *.XXiXeX3.  2 ~.8XpXpXpXpXpXpXpXpXpXpXpXpXpXpXpXpXpXpXpXpXpXpX",
"pXpXpXpXpXpXpXpXpXpXpXpXpXpXpXpXpXpXpXpXpXpXpXpXpXpXpXpXpX|. .F.3.*.t.wX0X[.[ H _.pXpXpXpXpXpXpXpXpXpXpXpXpXpXpXpXpXpXpXpXpXpXpX",
"pXpXpXpXpXpXpXpXpXpXpXpXpXpXpXpXpXpXpXpXpXpXpXpXpXpXpXpXpXpXyXpX8X3.+ G _.0XyXtXyXpXpXpXpXpXpXpXpXpXpXpXpXpXpXpXpXpXpXpXpXpXpXpX",
"pXpXpXpXpXpXpXpXpXpXpXpXpXpXpXpXpXpXpXpXpXpXpXpXpXpXpXpXpXpXpXpXpXH.    ] pXpXpXpXpXpXpXpXpXpXpXpXpXpXpXpXpXpXpXpXpXpXpXpXpXpXpX"
};
