/* XPM */
static char *d15e935496664f388388cfbd1a28514dtNEthQ1eRZRS2zJZ[] = {
/* columns rows colors chars-per-pixel */
"64 64 233 2 ",
"   c None",
".  c #000000",
"X  c #050408",
"o  c #180400",
"O  c #010418",
"+  c #02151A",
"@  c #1B1D1F",
"#  c #370500",
"$  c #331801",
"%  c #2A160A",
"&  c #000825",
"*  c #021C21",
"=  c #00182A",
"-  c #091B30",
";  c #00232D",
":  c #062429",
">  c #18262A",
",  c #032B33",
"<  c #002838",
"1  c #1A2F33",
"2  c #00313C",
"3  c #193339",
"4  c #272929",
"5  c #27363A",
"6  c #343739",
"7  c #2D2E31",
"8  c #352713",
"9  c #550000",
"0  c #411E00",
"q  c #680800",
"w  c #6A1900",
"e  c #523109",
"r  c #642F00",
"t  c #7C2800",
"y  c #763C02",
"u  c #5A4C12",
"i  c #7B4603",
"p  c #724F0A",
"a  c #5B4C35",
"s  c #6E502E",
"d  c #013342",
"f  c #003B47",
"g  c #143A42",
"h  c #243D43",
"j  c #2A3F44",
"k  c #333E41",
"l  c #00434E",
"z  c #1A434B",
"x  c #004957",
"c  c #1B4C55",
"v  c #1E515B",
"b  c #24464C",
"n  c #2C444A",
"m  c #2E4046",
"M  c #394549",
"N  c #2B4C53",
"B  c #264B53",
"V  c #384E54",
"C  c #29545C",
"Z  c #34545C",
"A  c #3B545B",
"S  c #37535A",
"D  c #004E60",
"F  c #00536B",
"G  c #18586A",
"H  c #295966",
"J  c #355A62",
"K  c #3C5D65",
"L  c #3D5F68",
"P  c #345C6A",
"I  c #3E6169",
"U  c #37626D",
"Y  c #366679",
"T  c #48555A",
"R  c #585B5D",
"E  c #464D50",
"W  c #706959",
"Q  c #445D64",
"!  c #495C64",
"~  c #545B62",
"^  c #42626B",
"/  c #4A656D",
"(  c #4C646A",
")  c #57666B",
"_  c #4D6971",
"`  c #486874",
"'  c #536C74",
"]  c #5D6C73",
"[  c #567079",
"{  c #5A727A",
"}  c #567077",
"|  c #666869",
" . c #767567",
".. c #62757D",
"X. c #677579",
"o. c #767879",
"O. c #666D6D",
"+. c #69584F",
"@. c #882D00",
"#. c #874500",
"$. c #8D5400",
"%. c #985602",
"&. c #94550F",
"*. c #B86D03",
"=. c #B66D19",
"-. c #A76C13",
";. c #916334",
":. c #AA7934",
">. c #B57B2D",
",. c #9D600D",
"<. c #C67926",
"1. c #C0730B",
"2. c #845C40",
"3. c #95734E",
"4. c #857A68",
"5. c #917E6E",
"6. c #AA7A5A",
"7. c #AD8231",
"8. c #B7811A",
"9. c #D59235",
"0. c #B4894A",
"q. c #A58559",
"w. c #B59050",
"e. c #898775",
"r. c #958B75",
"t. c #A68967",
"y. c #B09471",
"u. c #BCA569",
"i. c #B6A678",
"p. c #C28746",
"a. c #C79957",
"s. c #CD974F",
"d. c #D5A45C",
"f. c #DCAA5C",
"g. c #D8A65A",
"h. c #CCA458",
"j. c #E2AD5C",
"k. c #C59D64",
"l. c #CAA46B",
"z. c #C7A167",
"x. c #DCAC63",
"c. c #D2A769",
"v. c #C4A472",
"b. c #CEB575",
"n. c #D7B97B",
"m. c #DCB36C",
"M. c #E1AF65",
"N. c #E4B66A",
"B. c #E4BC74",
"V. c #E7BE75",
"C. c #E3C277",
"Z. c #5A7686",
"A. c #647982",
"S. c #6A7D85",
"D. c #667E8A",
"F. c #707E85",
"G. c #6D8189",
"H. c #67808E",
"J. c #74858D",
"K. c #798389",
"L. c #6D8492",
"P. c #628496",
"I. c #728691",
"U. c #768992",
"Y. c #798991",
"T. c #7F9098",
"R. c #848483",
"E. c #8C8C8C",
"W. c #888989",
"Q. c #938D85",
"!. c #999388",
"~. c #848C93",
"^. c #889296",
"/. c #939394",
"(. c #92969A",
"). c #9C9D9D",
"_. c #989899",
"`. c #A5A399",
"'. c #B2A595",
"]. c #959CA2",
"[. c #9A9FA2",
"{. c #9EA2A5",
"}. c #A3A3A3",
"|. c #A9A7A6",
" X c #AAABAB",
".X c #A4A8AB",
"XX c #A8AEB3",
"oX c #ADB3B5",
"OX c #B4B3B3",
"+X c #BBBBBB",
"@X c #B5B8BB",
"#X c #B0B0AF",
"$X c #A79F8B",
"%X c #D7BC82",
"&X c #D6BC9D",
"*X c #C9B6A9",
"=X c #DBC483",
"-X c #ECCB84",
";X c #E4C987",
":X c #EDD28C",
">X c #E9D086",
",X c #F3D58C",
"<X c #F7D78C",
"1X c #E8D394",
"2X c #F5DC94",
"3X c #F7DA92",
"4X c #F0CC83",
"5X c #FCE294",
"6X c #FAE39A",
"7X c #FFE89E",
"8X c #F7E29A",
"9X c #C3C1BF",
"0X c #FFEBA1",
"qX c #FBE5A5",
"wX c #BABFC2",
"eX c #BCC1C3",
"rX c #C4C3C3",
"tX c #CBCBCA",
"yX c #C5C8C9",
"uX c #D1CBC8",
"iX c #D2D2D3",
"pX c #DCDCDC",
"aX c #D7D8D8",
"sX c #CED2D3",
"dX c #EBD5C6",
"fX c #EBDCD4",
"gX c #F7EACE",
"hX c #DDDFE0",
"jX c #DEE1E2",
"kX c #E4E4E4",
"lX c #EAEBEB",
"zX c #F5F6F5",
"xX c #FBF5E2",
/* pixels */
"                                                          }.. T J.S.^ ; . /.                                                    ",
"                                                          }.. A U.S.^ ; . /.                                                    ",
"                                                          }.. V Y.S.^ = . _.                                                    ",
"                                                        lX).+ T U.S.^ < . E.kX                                                  ",
"                                                      tX(.o.X.S.Y.A.L c b ) E.9X                                                ",
"                                                    kXW.. ! Y.T.Y.../ ^ ^ f . o.jX                                              ",
"                                              rX XOX).R & ' Y.T.J.J.A.[ ^ l . V /.rX                                            ",
"                                            pX| . . * N / S.Y.Y.Y.Y.Y.S./ L ^ b . | aX                                          ",
"                                          tX(.j . ; A ' ..J.Y.Y.Y.Y.^.I.A.{ S./ & j _.tX                                        ",
"                                        iXR . B ' S.Y.Y.Y.Y.Y.Y.Y.Y.Y.U.U.I.U.G._ N . R iX                                      ",
"                                      iX).E d ' S.U.Y.Y.Y.Y.Y.S.] ) ) X.Y.^.Y.J.[ B . , _.iX                                    ",
"                                    tXR M F.J.J.J.Y.Y.U.Y.T.Y.) @ . . ~ U.^.Y.S._ J J A ; R tX                                  ",
"                                  aX(.. & [ I.I.Y.Y.Y.Y.Y.S.O.V * > M R ] S.Y.U.A._ _ J . . 9X                                  ",
"                                +X| g x D G ` H.U.Y.Y.T.J.T 4 3 Z [ F.) 7 E J.~.Y.G.[ Z . 4 rX                                  ",
"                                 X. .  .e.e.r.!.Q.K.G.U.J.T + N } G.T...1 k ] F.Y.J.[ Z & M  XhX                                ",
"                                oX. r a.n.;X;Xc.t.o.` H.J.) N ' G.Y.Y.S.Q b 5 T G.Y.{ K Z A T o.rX                              ",
"                              kX|.s :.M.C.7X5XV.z.W G H.J.{ ' G.Y.T.Y.G._ b . 7 X.Y.[ K ^ L . . #X                              ",
"                            eXR.3.0.m.3X7X7X5X5X=X .F Z.Y.Y.G.J.Y.Y.Y.A._ b . 6 S.Y.[ K ^ L . . #X                              ",
"                            (.. ,.N.C.3X8X5X5X7X1Xr.) S.Y.U.Y.Y.J.Y.Y.S.` B * M S.J.[ I I L . . OX                              ",
"                            (.. w.>XC.d.n.5X7X7X:Xl.t.e.U.U.Y.Y.Y.Y.Y.G./ C b ! G.Y.] L I K . . OX                              ",
"                            [.o u.6XV.<.h.:X8X8X3XV.x.!.I.I.Y.Y.Y.J.J.X.^ K ^ } K.J.' L I K . . OX                              ",
"                            ).o u.0X2Xn.z.w.v.:X5X<X;X$XH.I.J.Y.Y.G.{ / K ^ ..G.Y.J.' K I ^ . . OX                              ",
"                            ].o u.2X0X6X%Xp q.>X7X7X1X'.H.G.Y.Y.Y.../ J I { Y.Y.Y.J.' I I K . . OX                              ",
"                            {.. p u.;X5X>Xv.b.1X5X<X=X$XL.I.J.Y.Y.G...{ { A.Y.~.Y.J.{ K C m . . +X                              ",
"                            .X. X r u.8X7X5X5X5X,XN.l.!.I.I.Y.Y.Y.Y.Y.Y.J.Y.Y.Y.Y.J.[ J 3 . . . wX                              ",
"                            _.. 9 :.&XgXgX7X7X7X:Xu.5.e.I.Y.Y.I.Y.Y.Y.Y.Y.Y.Y.J.G.] Q 5 + . . . R.*XkX                          ",
"                            ).. $.x.dXzXxXqX5X5X1Xe.J A.Y.Y.Y.Y.J.Y.J.Y.Y.Y.Y.G.' K 5 . . . . . . 4 #X                          ",
"                            sX|.t.w.&XfXgX7X5X<X%Xe.Y D.Y.Y.Y.Y.Y.Y.Y.Y.J.Y.Y.G./ C b 1 5 5 n 5 . . ).                          ",
"                                XX8 ;.n.:X6X2XB.l.Q.H.I.Y.Y.Y.Y.Y.Y.Y.Y.Y.Y.Y.G._ K A K K L L L . . }.                          ",
"                              pX`.s $.=.h.n.n.z.t.K.H.H.G.S.G.J.J.Y.J.Y.Y.Y.Y.G._ K I ^ ^ ^ ^ I f ; E.iX                        ",
"                            @X~ 3.s.:.i p ;.W W | ) _ _ / ^ / X.Y.Y.Y.J.Y.Y.Y.K.' K I ^ ^ ^ ^ Q K J V R #X                      ",
"                          aX!.p w.B.h.;.@.#.s C F H I Z J ^ _ S.Y.~.Y.J.Y.J.Y.G.' J Z S L Q ^ Q ^ ` O . E.                      ",
"                        XXO.i.=X,X3Xn.a.7.s.6.( F H I Z ^ { J.U.Y.Y.Y.Y.J.Y.Y.G._ C 1 1 V ^ ^ ^ ^ ^ * . _.                      ",
"                      pXe.p b.7X0X6X4XN.N.N.z.4.( I I ^ ' A.J.Y.J.J.Y.Y.Y.Y.Y.K.{ ^ 5 + n A I ^ ^ ^ f . E.pX                    ",
"                    ^.$X'.C.:X7X7X8X2X,X3X<X-Xk.q.R P { S...[ _ { S.Y.Y.Y.Y.Y.Y.G...! b 3 1 N ^ ^ ^ Z N O.W._.                  ",
"                    . u n.7X7X8X5X8X6X6X6X7X<XV.z.4.Y G.Y.{ J C Z { G.Y.Y.J.Y.Y.Y.Y.{ ^ 5 + m A ^ I ^ ` B . .                   ",
"                    . u =X0X8X8X2X5X8X6X6X8X5X<XC.r.Z.L.U.{ Z g 1 A } G.Y.Y.Y.Y.Y.J.J...( z 3 5 V I ` / B . .                   ",
"                    . +.n.6X6X8X8X8X6X2X6X8X6X6X1X).L.U.U.{ L 5 X 3 Z } G.Y.Y.Y.Y.Y.Y.Y.{ I 5 X 5 K ^ ^ Z > .                   ",
"                    . a k.-X2X8X8X6X2X8X6X6X2X4Xn._.L.I.J.F...Q b : , S { G.J.Y.Y.Y.Y.Y.J...( n , , b I V > .                   ",
"                    . u 0.M.,X2X6X8X2X6X6X5X,Xm.z.!.L.L.Y.Y.Y.A.^ z X 1 Z } J.Y.Y.Y.Y.U.Y.Y.{ ^ b X 5 I S > .                   ",
"                    . # 7.N.V.-X3X8XqX6X3X-XV.f.k.Q.I.I.U.Y.Y.F...] ) M 3 N ] G.U.Y.Y.Y.T.Y...^ ..Y.F./ B > .                   ",
"                    . e w.M.x.x.-X8X0X2X:Xx.g.f.l.E.L.I.Y.U.Y.I.J.Y.J.] > + Z [ J.Y.Y.Y.Y.Y.} I ~.XX].' z * .                   ",
"                     X|.y.0.p.f.V.-X:X:XB.g.g.j.l.!.L.I.Y.Y.J.Y.Y.~.~.G.( M 3 Z { G.G.A.G...^ D ..^.K.' z . .                   ",
"                      lX/.0 7.f.x.x.x.x.x.g.f.f.l.!.L.I.Y.Y.Y.Y.Y.Y.J.Y.Y.] 4 + Z _ / / / ^ J v h 7 V ^ N . .                   ",
"                        ^.. -.M.x.d.d.d.d.f.c.l.y.E.I.U.Y.Y.Y.Y.Y.Y.Y.T.T.o.R M n N n b f C ^.XXR.: . z O./.}.                  ",
"                        Y.. -.M.M.x.d.f.f.f.v.Q.Y.Y.Y.U.Y.J.Y.J.J.Y.Y.Y.Y.U.J.X.M . . + . J eXzXyX/ . . /.kX                    ",
"                        +Xe.q.w.s.x.x.f.f.f.v.~.P.L.Y.Y.J.Y.Y.Y.Y.Y.Y.Y.Y.T.T.G.V . . k S.{.sXjXwX[ . . _.                      ",
"                          pX(.p 7.x.M.x.j.j.l.E.L.J.Y.Y.J.Y.Y.Y.Y.Y.Y.Y.Y.Y.T.G.( B 2 X.tXlXsX^.A.` X . E.                      ",
"                            {.. $.a.z.h.k.h.y.R.H.I.U.Y.Y.Y.Y.J.J.G.J.G.G.J.G.S._ J x A.sXlXoXl < Z T | OX                      ",
"                            .X. X s W 4.4.4. .' { J.Y.Y.Y.Y.Y.S.' _ ' ' ' ' ' _ ^ I J ' ^.].J.Z = = E.aX                        ",
"                          kX}.5 . . < D G G H J / S.Y.Y.J.J.J.{ K J J K K K K K ^ ^ ^ I C x H K . .  X                          ",
"                        +XR.(.(.~ . . - x H U I ^ ' { } [ [ [ / I J K I K K L L ^ ^ ^ I P v l < . . |.                          ",
"                        (.> W.XX~.E # # 6 J I K L K L L L L L L I ^ L ^ I ^ I Q I K K K L K k $ . . }.                          ",
"                        pX+XR.) XXuX*X@.q 3 d 2 l Z ^ ^ L L I I ^ ^ ^ ^ ^ ^ ^ K m , 2 2 d f s ,.9 . ].                          ",
"                            [.7 wXzXdXp.#.0 . . 7 A ^ ^ L ^ Q Q ^ ^ K L L Q I A 7 . o o . $ &.=.#.% .X                          ",
"                            pXOX X#XuXdX*X;.t @.p k f f f g n n m m n 2 O . . < Q | 2.$.%.$.@.t 5.*XhX                          ",
"                                 X.  XzXfXw.*.*.-.e . . . . . X . . . . . . . m D.W.6.*.1.=.q X oX                              ",
"                                aX}.XXwX*Xk.9.s.p.&.i @.i e . . . . . | |.+XOX}.X.E y @.@.#.5.XXjX                              ",
"                                    wXk #.d.M.x.d.>.=.=.-.p . . . . . ).      jXo.. . . . 8 @X                                  ",
"                                    pX[.5.7.>.7.:.<.<.<.=.w . O.}.}.).iX        +X/.).[.(..XhX                                  ",
"                                        rXa . X r -.<.<.*.9 . OX                                                                ",
"                                        kX[.Y.^./.3.%.%.;.4.}.hX                                                                ",
"                                                aX5.o . +.9X                                                                    ",
"                                                  R.. . T aX                                                                    "
};
