/* XPM */
static char *result[] = {
/* columns rows colors chars-per-pixel */
"64 64 211 2 ",
"   c #000000",
".  c #01050B",
"X  c #030A0C",
"o  c #0A0707",
"O  c #100300",
"+  c #1D0400",
"@  c #020C12",
"#  c #040815",
"$  c #0B1416",
"%  c #01141C",
"&  c #04191E",
"*  c #0C1B1E",
"=  c #0B171C",
"-  c #1B1918",
";  c #300E04",
":  c #2A2218",
">  c #000B26",
",  c #081424",
"<  c #041C21",
"1  c #0B1D22",
"2  c #041829",
"3  c #101F23",
"4  c #211E20",
"5  c #0D2125",
"6  c #03232B",
"7  c #082228",
"8  c #132225",
"9  c #12242A",
"0  c #1A292E",
"q  c #15272B",
"w  c #002C34",
"e  c #062835",
"r  c #142D33",
"t  c #1A2E32",
"y  c #1E3137",
"u  c #12343C",
"i  c #183338",
"p  c #00343F",
"a  c #242929",
"s  c #2E2E2D",
"d  c #2B2725",
"f  c #272D34",
"g  c #22343A",
"h  c #24393E",
"j  c #2D383B",
"k  c #273438",
"l  c #343535",
"z  c #383635",
"x  c #3A3A3B",
"c  c #33393D",
"v  c #580F05",
"b  c #4D2C12",
"n  c #63320D",
"m  c #6E3F18",
"M  c #413F3C",
"N  c #7E5600",
"B  c #744F07",
"V  c #5A4524",
"C  c #704727",
"Z  c #043C49",
"A  c #123941",
"S  c #1C3C43",
"D  c #243E43",
"F  c #2A3E44",
"G  c #2C3F48",
"H  c #343F44",
"J  c #07444F",
"K  c #1D454E",
"L  c #124049",
"P  c #0C4755",
"I  c #184954",
"U  c #16505D",
"Y  c #24444B",
"T  c #2C454B",
"R  c #294349",
"E  c #3A4144",
"W  c #32454D",
"Q  c #3C474B",
"!  c #364447",
"~  c #224B53",
"^  c #2B4C53",
"/  c #2B4F58",
"(  c #334C52",
")  c #3C4D53",
"_  c #344750",
"`  c #2D535C",
"'  c #2F5056",
"]  c #345057",
"[  c #34545B",
"{  c #39555C",
"}  c #38585F",
"|  c #355A62",
" . c #3C5D65",
".. c #3C5F68",
"X. c #315761",
"o. c #275862",
"O. c #3E6169",
"+. c #4C4A4A",
"@. c #444747",
"#. c #4A4E53",
"$. c #42585E",
"%. c #495358",
"&. c #525556",
"*. c #585B5F",
"=. c #675A53",
"-. c #425E66",
";. c #4E5C63",
":. c #5B5E60",
">. c #545A60",
",. c #42636B",
"<. c #4A666E",
"1. c #4A656C",
"2. c #5A656A",
"3. c #5D696C",
"4. c #596165",
"5. c #476871",
"6. c #4D6971",
"7. c #536D75",
"8. c #5A6E75",
"9. c #567179",
"0. c #5B727A",
"q. c #5C7077",
"w. c #676868",
"e. c #656D73",
"r. c #6B7173",
"t. c #62767D",
"y. c #6E747A",
"u. c #647377",
"i. c #757676",
"p. c #747A7E",
"a. c #7B7C7B",
"s. c #70777C",
"d. c #853702",
"f. c #874A00",
"g. c #964B00",
"h. c #97560C",
"j. c #8E5900",
"k. c #9D6A04",
"l. c #B87202",
"z. c #AA7312",
"x. c #AF792A",
"c. c #94724D",
"v. c #8A7048",
"b. c #A07C45",
"n. c #AB7048",
"m. c #B48B4E",
"M. c #9C8D7B",
"N. c #C48955",
"B. c #CB9B54",
"V. c #CD9753",
"C. c #D19346",
"Z. c #D8A359",
"A. c #E2B065",
"S. c #657981",
"D. c #6A7D85",
"F. c #737B82",
"G. c #7A7F85",
"H. c #6E8189",
"J. c #7D8183",
"K. c #73858D",
"L. c #78878F",
"P. c #77888F",
"I. c #778891",
"U. c #798991",
"Y. c #788790",
"T. c #7F9098",
"R. c #848585",
"E. c #898786",
"W. c #8B8B8A",
"Q. c #898887",
"!. c #91908F",
"~. c #898E92",
"^. c #818A91",
"/. c #81919A",
"(. c #8E9196",
"). c #969595",
"_. c #989797",
"`. c #969A9E",
"'. c #999999",
"]. c #929598",
"[. c #908E8E",
"{. c #A79A96",
"}. c #B59E92",
"|. c #A1A09F",
" X c #939AA2",
".X c #9DA5AB",
"XX c #A3A4A5",
"oX c #ACABAB",
"OX c #A9A8A7",
"+X c #A1A9B0",
"@X c #A0A7B0",
"#X c #ADB1B2",
"$X c #ABB2BB",
"%X c #B3B3B3",
"&X c #BABBBB",
"*X c #B8B8B8",
"=X c #C1BFBE",
"-X c #BDBEC0",
";X c #CDCECD",
":X c #CBD0D5",
">X c #D3D3D3",
",X c #DCDCDC",
"<X c #D5D6D8",
"1X c #E0E0DF",
"2X c #DEDFE0",
"3X c #E4E4E4",
"4X c #EAEAEA",
"5X c #EFEFF1",
"6X c #F0EFF0",
"7X c #FEFEFE",
"8X c None",
/* pixels */
"8X8X8X8X8X8X8X8X8X8X8X8X'.              z OX8X8X8X8X<Xw.              w.8X8X8X8X8XXXz               '.8X8X8X8X8X8X8X8X8X8X8X8X8X",
"8X8X8X8X8X8X8X8X8X8X8X8X_.              l |.8X7X7X8X;Xw.              w.;X8X7X7X8X|.z               '.8X8X8X8X8X8X8X8X8X8X8X8X8X",
"8X8X8X8X8X8X8X8X8X8X8X8X'.  $ H Q h 9   l W.;X8X8X8X#X*.  1 r t r 1   4.#X8X8X8X;X^.l # Q Q H 3     _.8X8X8X8X8X8X8X8X8X8X8X8X8X",
"8X8X8X8X8X8X8X8X8X8X8X8X).  f u.u.,.^ I [ 2.G.E.Q.R.i.$.~ ~ ( ` ] ~ ~ $.r.R.W.Q.p.4.] 1.t.u.1.~ %   _.8X8X8X8X8X8X8X8X8X8X8X8X8X",
"8X8X8X8X8X8X8X8X8X8X8X8X).  W L.I.S.,.5.,.Y         i -.6.6.6.6.6.6.6.,.r         ~ 6.D.I.K.9.| <   _.8X8X8X8X8X8X8X8X8X8X8X8X8X",
"8X8X8X8X8X8X8X8X8X8X8X8X).  _ L.T.K.S.6.O.~ w @ X 6 ] 0.H.D.D.S.S.S.H.0.] 6 X . A <.D.Y.T.I.0.| <   _.8X8X8X8X8X8X8X8X8X8X8X8X8X",
"8X8X8X8X8X8X8X8X8X8X8X8X).  G K.T.U.L.0.,. . .O.| ,.0.K.I.U.U.U.U.U.U.L.0.,.} | 6.S.U.U.U.H.9.[ <   _.8X8X8X8X8X8X8X8X8X8X8X8X8X",
"8X8X8X8X8X8X8X8X8X8X8X8X).  f 0.Y.U.U.D.0.9.0.0.0.0.D.L.U.T.U.U.U.U.U.U.D.0.9.9.S.K.T.K.H.S.6.| 1   _.8X8X8X8X8X8X8X8X8X8X8X8X8X",
"8X8X8X8X8X8X8X8X8X8X8X8X).  8 ,.t.L.U.I.K.K.K.K.K.K.L.U.U.U.U.U.U.U.U.U.L.K.K.L.K.U.U.D.7.,.<.| 5   ).8X8X8X8X8X8X8X8X8X8X8X8X8X",
"8X8X8X8X8X8X8X8X8X8X8X8X'.  % K 1.S.L.U.U.U./.U.U.U.U.U.U.L.U.I.U.U.U.U.U.U.U.U.U.P.K.0.,.|  .^ *   '.8X8X8X8X8X8X8X8X8X8X8X8X8X",
"8X8X8X8X8X8X8X8X8X8X8X8X_.    = T -.0.H.L.U.U.U.U.U.U.U.U.I.P.U.U.U.U.U.U.U./.U.K.t.7.<. .[ R 7     _.8X8X8X8X8X8X8X8X8X8X8X8X8X",
"8X8X8X8X8X8X8X8X8X8X8X8X'.    . i ' <.S.L.U.U.U.U.U.P.U.U.L.U.U.U.U.U.U.L.U.U.U.K.0. .O.,.{ g .     '.8X8X8X8X8X8X8X8X8X8X8X8X8X",
"8X8X8X8X8X8X8X8X8X8X8X8X_.    5 ( 1.t.H.L.U.U.L.I.Y.I.L.L.U.U.P.I.U.U.L.U.I.U.U.K.S.9.<.O.[ T r .   _.8X8X8X8X8X8X8X8X8X8X8X8X8X",
"8X8X8X8X8X8X8X8X8X8X8X8X).  & ~ 6.D.L.I.U.U.I.I.U.U.I.U.I.U.P.U.U.I.L.I.U.L.L.I.L.P.K.t.,. . .` *   _.8X8X8X8X8X8X8X8X8X8X8X8X8X",
"8X8X8X8X8X8X8X8X8X8X8X8X).  9 <.S.I.U.U.U.U.L.U.U.L.L.U.U.P.L.I.U.I.U.U.I.U.P.U.U.U.U.H.7.<.5.| 5   ).8X8X8X8X8X8X8X8X8X8X8X8X8X",
"8X8X8X8X8X8X8X8X8X8X8X8X).  g S.U.U.U.U.U.L.U.L.I.I.U.L.P.U.U.U.I.U.U.P.L.U.U.P.U.U.U.U.K.t.7.| 1   _.8X8X8X8X8X8X8X8X8X8X8X8X8X",
"8X8X8X8X8X8X8X8X8X8X8X8X).  G G.T.U.Y.I.U.I.U.Y.U.I.L.L.U.I.I.L.U.L.I.U.U.P.P.U.U.U.U.U.U.H.0.` <   _.8X8X8X8X8X8X8X8X8X8X8X8X8X",
"8X8X8X8X8X8X8X8X8X8X8X8X).  W K./.U.U.I.U.Y.U.I.L.U.U.I.U.L.U.L.I.U.L.L.I.U.U.P.U.U.U.U.T.K.9.| &   _.8X8X8X8X8X8X8X8X8X8X8X8X8X",
"8X8X8X8X8X8X8X8X8X8X8X8X).  G K.T.U.U.U.U.P.Y.I.I.L.U.L.L.L.U.U.L.U.U.I.L.U.U.U.U.U.L.U.U.H.9.` <   _.8X8X8X8X8X8X8X8X8X8X8X8X8X",
"8X8X8X8X8X8X8X8X8X8X8X8X).  g t.K.Y.I.U.L.U.U.L.U.L.I.U.U.I.I.L.L.I.L.U.L.I.L.I.U.U.L.T.U.H.9.` &   _.8X8X8X8X8X8X8X8X8X8X8X8X8X",
"8X8X8X8X8X8X8X8X8X8X8X8X).  8 ,.0.K.U.U.I.U.U.L.U.I.L.L.Y.U.U.L.U.I.L.U.I.U.L.U.L.U.L.U.U.K.9.` 5   ).8X8X8X8X8X8X8X8X8X8X8X8X8X",
"8X8X8X8X8X8X8X8X8X8X8X8X_.  & ` 9.K.U./.U.L.U.I.L.U.U.I.I.P.U.I.L.U.L.I.U.U.U.P.U.U.U.U.I.S.9.X.<   _.8X8X8X8X8X8X8X8X8X8X8X8X8X",
"8X8X8X8X8X8X8X8X8X8X8X8X'.  < ` 9.K.U.U.U.I.L.U.I.L.U.L.L.U.U.L.I.U.U.U.U.U.U.U.U.U.U.K.0.9.6.| 5   '.8X8X8X8X8X8X8X8X8X8X8X8X8X",
"8X8X8X8X8X8X8X8X8X8X8X8X_.  & ` 7.H.U.U.I.Y.U.P.U.L.I.I.U.L.I.L.L.P.U.P.U.U.U.U.U.U.I.t.<.O.O.[ *   _.4X8X8X8X8X8X8X8X8X8X8X8X8X",
"8X8X8X8X8X8X8X8X8X8X,X*XF.w < R -.q.D.K.U.U.U.U.U.U.U.L.P.U.P.U.U.U.U.U.U.U.U.U.L.H.S.9.,.| ] R 6 u p.*X,X8X8X8X8X8X8X8X8X8X8X8X",
"8X8X8X8X8X8X8X8X8X,XW.&.) [ A 1 k { 7.D.U.U.U.U.U.L.I.U.U.U.U.Y.U.P.U.U.U.U.U./.L.0.<.,.,.[ y 8 S [ #.&.W.,X8X8X8X8X8X8X8X8X8X8X",
"8X8X8X8X8X8X8X8X4X#XE   S 7.$.0 r ^ ,.0.H.L.U.U.U.U.L.U.U.I.U.U.P.U.U.U.K.K.L.K.D.7.| } } ( 0 0 ] ,.Z   @.%X3X8X8X8X8X8X8X8X8X8X",
"8X8X8X8X8X8X8X>X).w.u T 7.D.8.{ ^ [ ,.<.9.D.L.U./.U.U.L.I.U.U.U.U.U.U.U.S.0.7.8.7.<. .( g g R ] -.,.` S R w.'.>X8X8X8X8X8X8X8X8X",
"8X8X8X8X8X8X4X|.    ` 9.K.Y.S.<.| O.,. . .7.H.L.L.P.L.L.P.P.U.U.L.L.L.K.0.,.|  .O.,. .T = 0 ] ,.,. .,.,.`   O |.4X8X8X8X8X8X8X8X",
"8X8X8X8X8X<X#Xp.H ) 7.D.U.U.D.5. .O. . . .<.q.t.0.t.D.L.U.U.U.U.U.K.S.0.,.| | |  .,. .] R W | ,.<.,.<.5.X.p % r.oX<X8X8X8X8X8X8X",
"8X8X8X8X1XW.+.;.D.L.K.Y.T.U.S.<.| O.O.O.O.,.,.,.,.1.0.K.U.U.U.U.U.H.7.O. .|  .,.,.O.-. .} -.-.,.,.,.O.,.-.X.` j +.[.1X8X8X8X8X8X",
"8X8X8X3X*X*.% ;.U./.T.Y.F.t.8.,.O. . . . .,.1.6.<.6.t.P.U.U.U.U.U.H.q.1.7.7.<.,. . . .,.,.,.,.-.| ] }  .,.5.,.w   &.*X3X8X8X8X8X",
"8X8X;X~.r.8.0.D.U.T.T.K.4.E ( -.O. . .|  .6.S.K.D.D.K.P.U.U.U.U.U.K.K.D.H.K.0.,.| |  . .,.,.,. .T 0 F } 5.,.,.` R ( w.!.;X8X8X8X",
"8X8X*X- % t.T.T.U.P.L.t.Q   i  .<.<.,.,.,.0.K.U.U.U.P.U.P.U.P.U.U.L.U.U.U.U.D.7.,.,.,.,.-.,.,. .R $ f {  .,.,.,.,.K   - *X8X8X8X",
"8X8X%X  o u.T./.U.D.3.%.W R ~ | <.0.t.S.S.D.I.U.U.U.U.U.U.U.I.L.U.U.U.U.U.U.K.S.t.S.t.7. . .O.O.] T D D T { O.5.5.P X   *X8X8X8X",
"8X8X*Xd , t.T.T.U.e.l 0 T  .| O.6.H.U.L.L.L.U.U.U.U.L.I.U.P.U.L.P.U.L.U.U.U.L.L.L.I.L.t.1.|  .O.,.,.( 8 8 T ,.,.,.~   d &X8X8X8X",
"1X;X'.W T D.U.I.D.;.O X Y ,.6.7.t.K.U.U.U.U.U.U.U.U.U.U.L.U.I.I.P.U.P.U.U.U.U.U.U./.U.K.u.6.,.O.,.,.] $   T ,.<.,.[ w Q |.;X1X8X",
"a.i.3.{ 7.K.U.H.6.(   X K ,.0.H.P.I.U.U.U.U.U.U.U.U.U.U.U.L.L.U.U.Y.U.U.U.U.U.U.U.U.U.U.L.S.6.O.,.,.( $   T ,.,.O...[ | 3.i.a.8X",
"    9 O.0.K.H.8.[ i 9 k { 6.D.U./.U.U.U.L.U.I.U.L.U.U.U.U.I.L.U.L.I.U.L.L.U.U.U.U.U.U.U.U.K.7. .O.,.] g 0 T }  .O.,.5.,.i     8X",
"    > O.9.0.q.{ i u R } q.D.K.U.U.U.U.U.I.U.L.L.I.U.U.U.L.I.U.L.L.U.L.U.U.U.U.U.U.U.U.U.U.H.7.| | O. .] ( h g ( O.5.5.,.w     8X",
"z x (  .,.,.} h X i [ 6.H.I.U.U.U.U.U.P.U.U.I.L.L.U.I.U.P.U.U.I.U.U.P.U.L.U.P.L.I.I.L.U.U.H.7. . . .,.,.} h X g | ,.,. .T a 4 8X",
"*XOXR.W r r r 6 h T  .9.H.U.T.U.U.U.L.I.U.P.U.U.I.U.L.U.U.P.P.U.I.L.U.Y.I.U.U.U.U.L.U.U.U.K.S.0.6.,.,.,.,.] h e r y i D 2.s.G.8X",
"7X3X#Xa       A | O. .7.H.U.U.U.U.L.U.U.I.L.P.U.U.L.L.I.I.U.P.U.I.U.P.U.U.L.P.U.Y.U.U.U.U.U.L.K.q.,. .,.,.,.| A       @ F.@X$X8X",
"4X,XoX4.*.a.J.u.O.O. .6.D.U.U.U.L.U.I.L.U.U.U.P.L.I.U.U.L.U.U.P.L.L.I.Y.I.L.U.U.U.P.U.U.U.U.U.I.t.,.|  .,. .O.u.a.a.w.:.G. X.X8X",
"R.W.~. X&X,X>X.X,.U X.6.K.U.U.U.L.I.P.U.L.U.U.P.L.U.I.L.L.I.I.U.U.L.I.L.U.L.I.L.L.I.P.U.U.U.U.I.t.,. .O...U O..X>X<X-X Xy.%.@.8X",
"O @.F..X:X5X4X#X| J X.6.D.U.U.U.U.Y.U.U.I.L.Y.U.I.U.L.U.U.U.L.L.I.U.U.L.I.U.U.P.P.U.U.L.U.U.U.L.t.,. .O.| J ..$X4X5X:X.XF.#.: 8X",
"%XoX(.F.~.#X#XR.T A | <.7.S.H.I.U.U.I.L.L.U.I.L.I.L.L.I.L.U.L.U.L.L.U.I.L.L.U.U.U.Y.I.I.U.U.U.L.t.,. .O.| S R J.%X%X~.F.].%X&X8X",
"8X8X%Xf . s l a * F | ,.,.<.t.L.U.U.L.U.I.U.P.U.U.L.U.U.L.I.I.U.U.I.L.U.U.I.U.P.L.U.L.U.Y.U./.L.0.,. .O. .F * a l s . f %X8X8X8X",
"8X8X<X[.a.c.D.#.  r | ,.|  .0.U.U.U.U.L.U.U.U.U.U.U.U.L.U.I.L.L.U.U.U.L.L.U.U.L.U.L.U.U.L.P.H.D.q.,.O.,. .r   +.i.R.a.[.>X8X8X8X",
"8X8X8X3X3X4X:X].  < X.5...,.t.U.T.U.U.U.U.L.U.U.U.L.L.U.L.U.U.I.P.L.I.I.U.L.U.U.U.U.U.U.U.K.t.6.,.,.,.5.| <   [.;X4X3X3X8X8X8X8X",
"8X8X8X8X8X8X8XOX  @ I .. .,.0.K.U.U.U.U.U.U.U.U.U.L.U.I.I.L.U.I.U.P.L.U.U.P.U.U.U.U.P.U.L.H.6. . .O.O.O.I @   oX8X8X8X8X8X8X8X8X",
"8X8X8X8X8X8X8XoX    < I | ,.7.0.S.P.T.U.U.U.U.U.L.I.U.L.U.P.U.U.I.U.U.L.I.U.U.U.U.T.L.K.t.7.,. .O.,.| I <     oX8X8X8X8X8X8X8X8X",
"8X8X8X8X8X8X8XXX      u ] O.O.O.9.H.U.U.L.L.U.U.U.I.U.U.U.L.U.U.L.U.U.U.U.U.U.L.U.U.P.S.<.O.O.O.,.,.] r       OX8X8X8X8X8X8X8X8X",
"8X8X8X8X8X,X;X'.y.=.m n x P U | 6.S.H.D.D.K.U.U.U.U.U.U.U.U.U.U.U.U.U.U.U.U.L.H.H.D.S.q.O. .O.O.o.I M n m =.i. X-X,X8X8X8X8X8X8X",
"8X8X8X8X,XQ.#.U.+X{.n.g.v > Z O.6.6.6.<.6.t.K.U.U.U.U.U.U.U.U.U.U.U.U.U.U.U.H.7.1.6.6.5.,.<.,.,.P 2 b g.n.{.+XU.#.Q.,X8X8X8X8X8X",
"8X8X8X8X,XR.#.L.XX}.N.l.j.V @.| | ` } `  .7.D.K.I.K.L.K.P.K.K.K.K.K.K.P.K.K.t.1.| |  . .} }  .} c b f.l.N.}.XXK.#.W.,X8X8X8X8X8X",
"8X8X8X8X8X,X&XU.>.c.B.Z.V.m.v.V e e D ] ..6.9.0.0.0.0.9.0.8.8.0.0.0.9.q.0.8.6.<.O.,.O.[ R u p x C h.x.V.B.c.>.^.&X,X8X8X8X8X8X8X",
"8X8X8X8X8X8X8XXX- N B.A.A.Z.c.z     1 T ..,.,. .O. . .O. .,..... .O.,.O. .,.O.O.,.,. .T *   X ; g.z.C.Z.B.N - XX8X8X8X8X8X8X8X8X",
"8X8X8X8X8X8X8X<XOXM.b.k.z.x.N         @ , 2 # e ~ O.O.O..... ...O. ...O.O.O.~ e , 2 , X         v d.h.k.m.M.OX<X8X8X8X8X8X8X8X8X",
"8X8X8X8X8X8X8X8X8X=X=.  + +                   # K O.<.,.,.,.,.,.,.,.O.,.5.O.K #                   O O   =.&X8X8X8X8X8X8X8X8X8X8X",
"8X8X8X8X8X8X8X8X8X2X`.e.y.K.J.R.E.E.R.E.R.E.E.a.3.[ / ] ] } { { } [ { { ` [ 3.a.E.R.R.E.Q.R.Q.R.R.J.F.e.`.,X8X8X8X8X8X8X8X8X8X8X",
"8X8X8X8X8X8X8X8X8X8X2X,X,X,X,X1X,X1X2X,X,X3X3X;X].j   9 g g y y g t k 9   j ).;X3X3X1X,X,X2X,X2X,X,X,X<X3X8X8X8X8X8X8X8X8X8X8X8X",
"8X8X8X8X8X8X8X8X8X8X8X8X8X8X8X8X8X8X8X8X8X8X8X8XOXs                       s XX8X8X8X8X8X8X8X8X8X8X8X8X8X8X8X8X8X8X8X8X8X8X8X8X8X",
"8X8X8X8X8X8X8X8X8X8X8X8X8X8X8X8X8X8X8X8X8X8X8X8XoXd                       d oX8X8X8X8X8X8X8X8X8X8X8X8X8X8X8X8X8X8X8X8X8X8X8X8X8X"
};
