/* XPM */
static char *result[] = {
/* columns rows colors chars-per-pixel */
"64 64 225 2 ",
"   c #000000",
".  c #080409",
"X  c #00001C",
"o  c #010815",
"O  c #07171B",
"+  c #151C1E",
"@  c #1B0000",
"#  c #2D0500",
"$  c #360000",
"%  c #000824",
"&  c #001724",
"*  c #001C23",
"=  c #001C29",
"-  c #161F22",
";  c #001D33",
":  c #03232B",
">  c #172629",
",  c #002432",
"<  c #012B35",
"1  c #022D3A",
"2  c #1A2E33",
"3  c #08333B",
"4  c #18353B",
"5  c #24373C",
"6  c #2C2F2F",
"7  c #450200",
"8  c #5D0000",
"9  c #461800",
"0  c #5F1400",
"q  c #680100",
"w  c #4C3D00",
"e  c #563000",
"r  c #682300",
"t  c #693700",
"y  c #7C3900",
"u  c #593E2B",
"i  c #57430D",
"p  c #794403",
"a  c #6E471B",
"s  c #7A4716",
"d  c #705508",
"f  c #776300",
"g  c #4D4236",
"h  c #6F562D",
"j  c #6E623F",
"k  c #003A43",
"l  c #023B46",
"z  c #193B43",
"x  c #253D44",
"c  c #353F43",
"v  c #1E444C",
"b  c #014654",
"n  c #014A55",
"m  c #1C4A54",
"M  c #164B55",
"N  c #0F414B",
"B  c #27444B",
"V  c #33454B",
"C  c #284D55",
"Z  c #344E54",
"A  c #394C54",
"S  c #34535B",
"D  c #3B565D",
"F  c #38555C",
"G  c #2A5159",
"H  c #005468",
"J  c #0E5265",
"K  c #275A67",
"L  c #345A62",
"P  c #3C5D65",
"I  c #3F5F68",
"U  c #3E6069",
"Y  c #2C6377",
"T  c #454D53",
"R  c #47555A",
"E  c #545B5E",
"W  c #494948",
"Q  c #695B50",
"!  c #796E5D",
"~  c #465C64",
"^  c #535D62",
"/  c #5A5F65",
"(  c #43636B",
")  c #4A666D",
"_  c #596569",
"`  c #4D6971",
"'  c #476874",
"]  c #536C74",
"[  c #5C6D75",
"{  c #5B7077",
"}  c #567079",
"|  c #5C727A",
" . c #646768",
".. c #63767E",
"X. c #6B757B",
"o. c #6E7476",
"O. c #7C7C7C",
"+. c #71767A",
"@. c #6E706E",
"#. c #813F00",
"$. c #974800",
"%. c #995700",
"&. c #A55B03",
"*. c #A95300",
"=. c #9B671E",
"-. c #A46C00",
";. c #AB6617",
":. c #B86E14",
">. c #9A6A2D",
",. c #B97934",
"<. c #AF782C",
"1. c #8A5F2B",
"2. c #C57825",
"3. c #917151",
"4. c #A37A58",
"5. c #857C6E",
"6. c #B78A3C",
"7. c #CC8D36",
"8. c #AB844C",
"9. c #BC8C44",
"0. c #B78A46",
"q. c #A78453",
"w. c #B4905A",
"e. c #9A866B",
"r. c #968679",
"t. c #848178",
"y. c #A88D66",
"u. c #A9957D",
"i. c #A6987C",
"p. c #AF9373",
"a. c #B7A67A",
"s. c #CD9D59",
"d. c #C69149",
"f. c #D5A35C",
"g. c #DCAA5D",
"h. c #DAA75A",
"j. c #C8A357",
"k. c #C19F72",
"l. c #C5A467",
"z. c #D3A665",
"x. c #DBAB62",
"c. c #D8AE69",
"v. c #DCB16A",
"b. c #D8B878",
"n. c #C8AE78",
"m. c #E1AE63",
"M. c #E4B56B",
"N. c #E4BC74",
"B. c #E4BF7A",
"V. c #E3AE5A",
"C. c #DAC27D",
"Z. c #E8C37C",
"A. c #F2CB7E",
"S. c #597684",
"D. c #4B6F80",
"F. c #657A82",
"G. c #6A7D85",
"H. c #757D85",
"J. c #6D818A",
"K. c #66808F",
"L. c #7C8184",
"P. c #75858D",
"I. c #7E8489",
"U. c #77888C",
"Y. c #6D8492",
"T. c #728691",
"R. c #758891",
"E. c #798991",
"W. c #838383",
"Q. c #8A8B8A",
"!. c #86878A",
"~. c #918F8E",
"^. c #908880",
"/. c #92908E",
"(. c #9B9589",
"). c #858C92",
"_. c #889297",
"`. c #949393",
"'. c #9B9A9A",
"]. c #959697",
"[. c #A59581",
"{. c #AD9F87",
"}. c #A39F9D",
"|. c #B6A987",
" X c #BBB393",
".X c #A3A4A4",
"XX c #ACACAC",
"oX c #A5A7A9",
"OX c #B1AFAC",
"+X c #A4ABB1",
"@X c #B7B7B8",
"#X c #AAB2B4",
"$X c #969FA7",
"%X c #D3AE97",
"&X c #C0BEBD",
"*X c #D2B1A0",
"=X c #DDC683",
"-X c #E9CC85",
";X c #EFD28C",
":X c #F1D38B",
">X c #F7D78A",
",X c #F5DB94",
"<X c #F8DE97",
"1X c #EDCE8D",
"2X c #FCE395",
"3X c #FAE29A",
"4X c #FFE99D",
"5X c #E1CAB2",
"6X c #FFECA1",
"7X c #FFECAF",
"8X c #FAE9BD",
"9X c #BCC1C3",
"0X c #CBCBCB",
"qX c #C3C7C9",
"wX c #D3D2D2",
"eX c #D7D8D9",
"rX c #D0D0D1",
"tX c #F9EBCB",
"yX c #DDE0E0",
"uX c #E2E3E3",
"iX c #EBEBEB",
"pX c #F6F5F3",
"aX c #F6F0EB",
"sX c #E4D4C9",
"dX c None",
/* pixels */
"dXdXdXdXdXdXdXdXdXdXdXdXdXdXdXdXdXdXdXdXdXdXdXdXdXdXdXdXdX@X      &XdXdXdXdXdXdXdXdXdXdXdXdXdXdXdXdXdXdXdXdXdXdXdXdXdXdXdXdXdXdX",
"dXdXdXdXdXdXdXdXdXdXdXdXdXdXdXdXdXdXdXdXdXdXdXdXdXdXdXdXiX.X*   5 XXiXdXdXdXdXdXdXdXdXdXdXdXdXdXdXdXdXdXdXdXdXdXdXdXdXdXdXdXdXdX",
"dXdXdXdXdXdXdXdXdXdXdXdXdXdXdXdXdXdXdXdXdXdXdXdXdXdXdX0X!._ S ) +.H.Q.0XdXdXdXdXdXdXdXdXdXdXdXdXdXdXdXdXdXdXdXdXdXdXdXdXdXdXdXdX",
"dXdXdXdXdXdXdXdXdXdXdXdXdXdXdXdXdXdXdXdXdXdXdXdXdXdXdXoX    ( J.).z   XXdXdXdXdXdXdXdXdXdXdXdXdXdXdXdXdXdXdXdXdXdXdXdXdXdXdXdXdX",
"dXdXdXdXdXdXdXdXdXdXdXdXdXdXdXdXdXdXdXdXdXdXdXdXdXdXdXOX    ( J.R.x   OXdXdXdXdXdXdXdXdXdXdXdXdXdXdXdXdXdXdXdXdXdXdXdXdXdXdXdXdX",
"dXdXdXdXdXdXdXdXdXdXdXdXdXdXdXdXdXdXdXdXdXdXdXdXdXdXiX.X. = U G.R.~ 6 oXdXdXdXdXdXdXdXdXdXdXdXdXdXdXdXdXdXdXdXdXdXdXdXdXdXdXdXdX",
"dXdXdXdXdXdXdXdXdXdXdXdXdXdXdXdXdXdXdXdXdXdXdXdXdXwX~._ Z m I | U.G...+.`.wXdXdXdXdXdXdXdXdXdXdXdXdXdXdXdXdXdXdXdXdXdXdXdXdXdXdX",
"dXdXdXdXdXdXdXdXdXdXdXdXdXdXdXdXdXdXdXdXdXdXdXdXdX'.  X U ( ) F.E.).E.Z   }.dXdXdXdXdXdXdXdXdXdXdXdXdXdXdXdXdXdXdXdXdXdXdXdXdXdX",
"dXdXdXdXdXdXdXdXdXdXdXdXdXdXdXdXdXdXdXdXdXdXdXwX].E , l U } G.J.E.E.E.] , _ '.'.'.rXdXdXdXdXdXdXdXdXdXdXdXdXdXdXdXdXdXdXdXdXdXdX",
"dXdXdXdXdXdXdXdXdXdXdXdXdXdXdXdXdXdXdXdXdXdXdX'.  , ' ( ) F.E.E.R.E.E.G.' B       '.dXdXdXdXdXdXdXdXdXdXdXdXdXdXdXdXdXdXdXdXdXdX",
"dXdXdXdXdXdXdXdXdXdXdXdXdXdXdXdXdXdXdXdXdXwX'.^ , ~ G.G.G.P.E._.E.E.R.P.G.{ ~ k % E '.wXdXdXdXdXdXdXdXdXdXdXdXdXdXdXdXdXdXdXdXdX",
"dXdXdXdXdXdXdXdXdXdXdXdXdXdXdXdXdXdXdXdXdX].  = ) G.E.E.E.R.P.P.E.P.R.E.E.).E.J.) ,   `.dXdXdXdXdXdXdXdXdXdXdXdXdXdXdXdXdXdXdXdX",
"dXdXdXdXdXdXdXdXdXdXdXdXdXdXdXdXdXdXdXwX.X_ X l U G.E.E.E.X.R T E X.E.E.E.E.E.R.G.] ~ X.}.wXdXdXdXdXdXdXdXdXdXdXdXdXdXdXdXdXdXdX",
"dXdXdXdXdXdXdXdXdXdXdXdXdXdXdXdXdXdXdX`.  1 ( U ) F.E.E.P.^     . ^ R.R.E.E.E.E.E.E.E.~ . ~.dXdXdXdXdXdXdXdXdXdXdXdXdXdXdXdXdXdX",
"dXdXdXdXdXdXdXdXdXdXdXdXdXdXdXdXdXdXdX/.  % ' } F.R.E.G.^ ^ _ A 3 V ^ X.E.E.E.E.T.K.D.n X R oXwXdXdXdXdXdXdXdXdXdXdXdXdXdXdXdXdX",
"dXdXdXdXdXdXdXdXdXdXdXdXdXdXdXdXdXdXdX].  1 ' G.E.).E.R   _ P.K.~ 4   ^ R.E.E.E.E.G.) U ( k   `.dXdXdXdXdXdXdXdXdXdXdXdXdXdXdXdX",
"dXdXdXdXdXdXdXdXdXdXdXdXdXdXdXdXdXeXXXo.l m ) G.E.G./ V x [ E.R...D 3 _ U.J.S.t.i.a.a.a.y.a   U.dXdXdXdXdXdXdXdXdXdXdXdXdXdXdXdX",
"dXdXdXdXdXdXdXdXdXdXdXdXdXdXdXdXdX`.  k ( P ) G.P.E   z ( F.E.).E.{ U ..U.K.U 3.s.Z.3X:Xv.<.@ ).dXdXdXdXdXdXdXdXdXdXdXdXdXdXdXdX",
"dXdXdXdXdXdXdXdXdXdXdXdXdXdXdXdXdXW.  < ( U ) G.P.T   3 ( F.E.E.E.J.S.J.R.D.H e.Z.>X4X2X>Xc.>.r.@XeXdXdXdXdXdXdXdXdXdXdXdXdXdXdX",
"dXdXdXdXdXdXdXdXdXdXdXdXdXdXdXdXdX/.  k ( P ) J.P.E   z ( F.P.E.E.E.R.R.R.} K i.,X2X3X3X3X:Xv.<.9 ).iXdXdXdXdXdXdXdXdXdXdXdXdXdX",
"dXdXdXdXdXdXdXdXdXdXdXdXdXdXdXdXdX~.  k ( P ) J.P._ 4 v ( F.E.E.U.E.E.E.T.O.5.n.3X6X3X,XZ.B.A.j.  X.iXdXdXdXdXdXdXdXdXdXdXdXdXdX",
"dXdXdXdXdXdXdXdXdXdXdXdXdXdXdXdXdX`.  l U U ) G.R.| P L ( F.E.E.E.U.R.T.P.u.s.N.,X4X3XZ.,.f.,Xb.w H.iXdXdXdXdXdXdXdXdXdXdXdXdXdX",
"dXdXdXdXdXdXdXdXdXdXdXdXdXdXdXdXdX/.  l U U ( G.E.G.| ( P ] F.P.E.E.E.Y.P.|.Z.>X3X1Xb.l.s.b.3X=Xi H.iXdXdXdXdXdXdXdXdXdXdXdXdXdX",
"dXdXdXdXdXdXdXdXdXdXdXdXdXdXdXdXdX`.  l ( P ) F.E.E.P.{ P L ~ F.P.E.E.K.Y. X,X4X3Xb.h q.;X4X6XC.w H.iXdXdXdXdXdXdXdXdXdXdXdXdXdX",
"dXdXdXdXdXdXdXdXdXdXdXdXdXdXdXdXdX`.  & F L ) G.E._.E.G.[ ` ] F.E.E.U.Y.P. X:X<X3XC.q.a.2X2XZ.w.# I.iXdXdXdXdXdXdXdXdXdXdXdXdXdX",
"dXdXdXdXdXdXdXdXdXdXdXdXdXdXdXdXdX].    > Z ' G.E.E.E.P.P.P.P.P.E.E.E.Y.T.u.x.A.,X3X;X,X2XC.3.7   Q.iXdXdXdXdXdXdXdXdXdXdXdXdXdX",
"dXdXdXdXdXdXdXdXdXdXdXdXdXdXdXiX0XO.      4 D { J.P.R.E.E.E.E.E.P.P.E.T.P.r.w.b.2X3X2X7X8X5Xq.8   L.iXdXdXdXdXdXdXdXdXdXdXdXdXdX",
"dXdXdXdXdXdXdXdXdXdXdXdXdXdXdX.Xg .         > S ] G.E.E.E.E.E.P.E.E.E.E.E.[ _ a.2X4X2XtXpXtXb.-.  +.iXdXdXdXdXdXdXdXdXdXdXdXdXdX",
"dXdXdXdXdXdXdXdXdXdXdXdXdXdXdXO.    5 5 2 > 2 B U F.E.E.E.U.E.E.U.E.E.).E.S.Y i.-X2X2X8XaXsXk.8.^.@XdXdXdXdXdXdXdXdXdXdXdXdXdXdX",
"dXdXdXdXdXdXdXdXdXdXdXdXdXdXdXQ.  < P P P D L L ( F.E.E.U.E.P.E.E.E.E.E.E.Y.K.i.v.:X2X3X1Xp.t Q.uXdXdXdXdXdXdXdXdXdXdXdXdXdXdXdX",
"dXdXdXdXdXdXdXdXdXdXdXdXdXdXwXO.. m ( ( ( ( ( P ( F.E.E.E.U.E.E.U.P.J.G.J.K.J.r.w.c.-XC.7.-.e ^.eXdXdXdXdXdXdXdXdXdXdXdXdXdXdXdX",
"dXdXdXdXdXdXdXdXdXdXdXdXdXXX_ R S P U ( ~ ( ( U ) F.E.E.E.R.E.E.U.F.` ) ` ` ` [ ! ! 3.h $.=.d.q. .+XdXdXdXdXdXdXdXdXdXdXdXdXdXdX",
"dXdXdXdXdXdXdXdXdXdXdXdXiXO.  k ( ( ( ( U D F S ( F.E.E.U.U.E.E.E.F.) P P P P K H T y y y 8.M.j.d t.wXdXdXdXdXdXdXdXdXdXdXdXdXdX",
"dXdXdXdXdXdXdXdXdXdXdXdXdX!.  k ( ( ( ( U x > B ~ F.E.E.E.E.E.E.E.E.P.| L L U H H ! w.d.9.c.:X:X-Xa.@.+XdXdXdXdXdXdXdXdXdXdXdXdX",
"dXdXdXdXdXdXdXdXdXdXdXdXeXW.  m ( ( U P F 2 > Z ` J.E.E.U.E.E.U.P.P.P.F.' U U ~  .y.v.M.M.Z.<X6X6XC.f t.eXdXdXdXdXdXdXdXdXdXdXdX",
"dXdXdXdXdXdXdXdXdXdXdX~.W._ G P U ) U B > 4 F { J.R.E.E.E.E.U.J.] ` ] F.J.} L ! w.b.:X,X:X,X<X3X4X3XZ.n.(.).dXdXdXdXdXdXdXdXdXdX",
"dXdXdXdXdXdXdXdXdXdXdX    G ) ( ( ~ Z 2 - Z ] J.E.E.E.E.E.U.J.{ S G L ..E.S.' e.c.A.3X3X3X3X<X3X3X3X6X=Xa   dXdXdXdXdXdXdXdXdXdX",
"dXdXdXdXdXdXdXdXdXdXdX    Z ( ' U B 2 4 S | J.R.E.E.E.E.E.J.} S > z L | U.Y.F.|.;X2X3X3X3X<X3X<X3X3X6X=Xj   dXdXdXdXdXdXdXdXdXdX",
"dXdXdXdXdXdXdXdXdXdXdX  > F ( ~ Z 2 > Z ] J.E.E.E.E.E.E.P.{ S 4 o B ) F.R.Y.T. X,X3X3X<X<X<X<X3X3X3X3XC.j   dXdXdXdXdXdXdXdXdXdX",
"dXdXdXdXdXdXdXdXdXdXdX  2 D P 3 O 4 F { J.E.E.E.E.E.E.G.} Z : : B ) F.P.E.Y.T.{.C.-X3X3X3X<X<X3X4X2XZ.l.h   dXdXdXdXdXdXdXdXdXdX",
"dXdXdXdXdXdXdXdXdXdXdX  > P P c 5 S ' J.E.E.R.E.E.E.P.} S 4 + V ) F.E.E.P.T.R.u.s.N.>X3X<X3X3X3X3XA.M.9.a   dXdXdXdXdXdXdXdXdXdX",
"dXdXdXdXdXdXdXdXdXdXdX  > C } _._...) G.E.).E.E.E.J.} Z : T ..F.J.P.E.E.E.T.T.u.z.x.B.-X3X3X3X,XZ.Z.M.d.9   dXdXdXdXdXdXdXdXdXdX",
"dXdXdXdXdXdXdXdXdXdXdX  O v S.$X+XG.P F.E.U.E.E.U.{ D < > _ E.E.E.E.E.E.E.Y.R.[.h.h.f.N.,X3X3X-Xc.h.g.w.Q 1 dXdXdXdXdXdXdXdXdXdX",
"dXdXdXdXdXdXdXdXdXdXdX    m ] O.o.F n ) | ..S.F.{ F : A  .J._.E.E.R.U.U.E.Y.R.u.h.h.f.c.Z.Z.Z.N.g.d.>.r.@XrXdXdXdXdXdXdXdXdXdXdX",
"dXdXdXdXdXdXdXdXdXdXdX6 5 P D : O D ] ) U P P ( D 4 + [ E.E.E.E.E.R.E.E.U.T.R.[.z.g.x.f.z.h.g.x.x.6.# I.iXdXdXdXdXdXdXdXdXdXdXdX",
"dXdXdXdXdXdXdXdXdXdXdX0X@Xo.*   _ 9XqXR.1 , 4 2 5 T _ L.E.E.U.E.E.E.P.E.R.T.E.Q.u.k.z.h.f.f.f.g.M.6.  ..iXdXdXdXdXdXdXdXdXdXdXdX",
"dXdXdXdXdXdXdXdXdXdXdXdXaXQ.  X U.yXpX+Xm *     > [ E.E.E.E.E.E.U.E.E.E.E.R.E.Y.Y.[.z.g.g.g.z.g.x.0.9 I.iXdXdXdXdXdXdXdXdXdXdXdX",
"dXdXdXdXdXdXdXdXdXdXdXdXdX5.  = J.#X0XrX9XL.1 = Z J.E._.E.E.E.E.E.E.U.R.U.E.U.Y.Y.[.c.V.x.m.m.s.<.e.OXwXdXdXdXdXdXdXdXdXdXdXdXdX",
"dXdXdXdXdXdXdXdXdXdXdXdXiX!.  N U n J.yXpX#XM n ' J.U.E.E.U.E.E.U.P.E.E.E.E.E.T.T.u.z.x.x.x.m.6.$ I.iXdXdXdXdXdXdXdXdXdXdXdXdXdX",
"dXdXdXdXdXdXdXdXdXdXdXdXdXwX.X .1 ; ) @XqX_.F K ( } ..........| F.P.E.E.E.E.E.J.S.O.y.y.y.q.8.d . E.dXdXdXdXdXdXdXdXdXdXdXdXdXdX",
"dXdXdXdXdXdXdXdXdXdXdXdXdXdXiX!.  N ) ) ` U U U U U U ( ( ( U U ~ S.E.E.E.E.E.F.( ~ ~ ( ) R 6     Q.dXdXdXdXdXdXdXdXdXdXdXdXdXdX",
"dXdXdXdXdXdXdXdXdXdXdXdXdXdXdX/.  X b n n U ( ( U U U U L P U F P ] F.F.F.F.F.} U L Y H l %   . o.].#XwXdXdXdXdXdXdXdXdXdXdXdXdX",
"dXdXdXdXdXdXdXdXdXdXdXdXdXdXiXQ.    = S ( ( ~ ( ( U U U ( U ( U ~ ( ( ( ( ( ( U U ( ( G = .   / +X_.6 W.iXdXdXdXdXdXdXdXdXdXdXdX",
"dXdXdXdXdXdXdXdXdXdXdXdXdXdXiXL.  q s W b b M v B F ( ( ( ( ( ( U U U P P U ~ L M n N 6 q 3..XoX_.I.~.@XdXdXdXdXdXdXdXdXdXdXdXdX",
"dXdXdXdXdXdXdXdXdXdXdXdXdXdXiXL.  $.;.a X X X . o Z U ( ( U U U ( ( ( U ( ( ~ C & . o 0 *.%XaXeXT o.uXdXdXdXdXdXdXdXdXdXdXdXdXdX",
"dXdXdXdXdXdXdXdXdXdXdXdXdXdXdXqX~.3.$.y p p y Q R B 3 < 3 v Z Z Z Z Z C m n M W t r r 4.*X5XwX&X'.@XdXdXdXdXdXdXdXdXdXdXdXdXdXdX",
"dXdXdXdXdXdXdXdXdXdXdXdXdXdXdXdXuXW.  $.<.:.,.5.J.Z         - - + + - O o X % a ;.*.*.%XaXeXE W.uXdXdXdXdXdXdXdXdXdXdXdXdXdXdXdX",
"dXdXdXdXdXdXdXdXdXdXdXdXdXdXdXdXdX9X!.1.$.*.%.Q { !.'.}.].E           9 t t t =.7.7.7.%XwX9XQ.@XdXdXdXdXdXdXdXdXdXdXdXdXdXdXdXdX",
"dXdXdXdXdXdXdXdXdXdXdXdXdXdXdXdXdXdXuX~.        6 9XdXdXdX.X          s ;.:.;.d.h.m.g.6.g _.uXdXdXdXdXdXdXdXdXdXdXdXdXdXdXdXdXdX",
"dXdXdXdXdXdXdXdXdXdXdXdXdXdXdXdXdXdXdX9XW.I.Q.H.'.yXdXdXdXwX~.Q.`.^   y 2.2.:.,.0.9.6.4.! @XdXdXdXdXdXdXdXdXdXdXdXdXdXdXdXdXdXdX",
"dXdXdXdXdXdXdXdXdXdXdXdXdXdXdXdXdXdXdXdXiXiXdXiXdXdXdXdXdXdXdXdXdXoX  q :.2.2.%.9     (.uXdXdXdXdXdXdXdXdXdXdXdXdXdXdXdXdXdXdXdX",
"dXdXdXdXdXdXdXdXdXdXdXdXdXdXdXdXdXdXdXdXdXdXdXdXdXdXdXdXdXdXdXdXdXeX~.3.>.*.;.3.!.H.H.9XdXdXdXdXdXdXdXdXdXdXdXdXdXdXdXdXdXdXdXdX",
"dXdXdXdXdXdXdXdXdXdXdXdXdXdXdXdXdXdXdXdXdXdXdXdXdXdXdXdXdXdXdXdXdXdXdX@Xu   7 }.uXdXiXdXdXdXdXdXdXdXdXdXdXdXdXdXdXdXdXdXdXdXdXdX",
"dXdXdXdXdXdXdXdXdXdXdXdXdXdXdXdXdXdXdXdXdXdXdXdXdXdXdXdXdXdXdXdXdXdXdX0X:     +XdXdXdXdXdXdXdXdXdXdXdXdXdXdXdXdXdXdXdXdXdXdXdXdX"
};
