/* XPM */
static char *_454e7515a674326cf5756eddf92b63flOkh9V8X8kY06hTu[] = {
/* columns rows colors chars-per-pixel */
"64 64 212 2 ",
"   c None",
".  c #000000",
"X  c #00020A",
"o  c #040A0C",
"O  c #150300",
"+  c #1A0A06",
"@  c #000B13",
"#  c #00021C",
"$  c #00061A",
"%  c #01111A",
"&  c #0A1518",
"*  c #0D191D",
"=  c #031317",
"-  c #1E1D1C",
";  c #161717",
":  c #280300",
">  c #320000",
",  c #2C1700",
"<  c #351B00",
"1  c #3B1B02",
"2  c #231C17",
"3  c #392004",
"4  c #000825",
"5  c #001426",
"6  c #001D2B",
"7  c #001728",
"8  c #000335",
"9  c #091A2B",
"0  c #00232E",
"q  c #0A2227",
"w  c #142225",
"e  c #1A2326",
"r  c #19292D",
"t  c #19272A",
"y  c #002330",
"u  c #002A35",
"i  c #002C3A",
"p  c #0D2D32",
"a  c #1C2D31",
"s  c #00323C",
"d  c #0E353D",
"f  c #1B3136",
"g  c #1B353B",
"h  c #19363C",
"j  c #23292C",
"k  c #2C2A27",
"l  c #312B29",
"z  c #233135",
"x  c #22363B",
"c  c #24393E",
"v  c #2D3032",
"b  c #363736",
"n  c #470000",
"m  c #540000",
"M  c #4D320B",
"N  c #7C3500",
"B  c #433D3B",
"V  c #6E501E",
"C  c #784605",
"Z  c #574F3E",
"A  c #715733",
"S  c #003542",
"D  c #003945",
"F  c #053B47",
"G  c #1B3C44",
"H  c #103640",
"J  c #002C45",
"K  c #233C43",
"L  c #293F44",
"P  c #3C3F41",
"I  c #0C414A",
"U  c #1D424A",
"Y  c #16424A",
"T  c #074B58",
"R  c #1B4B54",
"E  c #164A56",
"W  c #1B505D",
"Q  c #2A4146",
"!  c #25434A",
"~  c #2B444B",
"^  c #2E484E",
"/  c #32494E",
"(  c #37454A",
")  c #2D4D55",
"_  c #224C54",
"`  c #344C53",
"'  c #394D53",
"]  c #3E4F58",
"[  c #23515B",
"{  c #2D535B",
"}  c #33545C",
"|  c #3A565D",
" . c #3B585F",
".. c #375057",
"X. c #2B5763",
"o. c #355A62",
"O. c #3C5D65",
"+. c #365A63",
"@. c #3E6069",
"#. c #454749",
"$. c #4F4F50",
"%. c #47565A",
"&. c #545454",
"*. c #5C5B5A",
"=. c #51575D",
"-. c #695D52",
";. c #435D65",
":. c #4C5C62",
">. c #525A61",
",. c #42626A",
"<. c #4A666E",
"1. c #526066",
"2. c #5A656C",
"3. c #5B6468",
"4. c #4C6971",
"5. c #476770",
"6. c #536D75",
"7. c #596D75",
"8. c #557078",
"9. c #5C737B",
"0. c #5B7077",
"q. c #646362",
"w. c #6C6D6D",
"e. c #666768",
"r. c #716F6E",
"t. c #62777E",
"y. c #67777B",
"u. c #767675",
"i. c #787777",
"p. c #7A7979",
"a. c #73797A",
"s. c #626C72",
"d. c #884601",
"f. c #8B5315",
"g. c #89541E",
"h. c #934D00",
"j. c #A85F00",
"k. c #B36400",
"l. c #B66C17",
"z. c #BB711F",
"x. c #A56800",
"c. c #856738",
"v. c #99763D",
"b. c #9E682E",
"n. c #B76F20",
"m. c #BC7425",
"M. c #A57C37",
"N. c #C17D31",
"B. c #957542",
"V. c #A17F4C",
"C. c #917667",
"Z. c #B58739",
"A. c #C7853B",
"S. c #A98246",
"D. c #B58A4B",
"F. c #BE904D",
"G. c #CB934B",
"H. c #CF9045",
"J. c #D29248",
"K. c #C89956",
"L. c #D49C53",
"P. c #DCA65B",
"I. c #DAA85F",
"U. c #CFA25C",
"Y. c #DDAD64",
"T. c #647981",
"R. c #6A7D85",
"E. c #7F7F80",
"W. c #6E8189",
"Q. c #6D8087",
"!. c #74858D",
"~. c #7B878F",
"^. c #7C878A",
"/. c #778890",
"(. c #7D8D95",
"). c #798890",
"_. c #768790",
"`. c #838585",
"'. c #858A8B",
"]. c #888888",
"[. c #908E8E",
"{. c #878F94",
"}. c #8B9196",
"|. c #939292",
" X c #969595",
".X c #949393",
"XX c #9C9C9C",
"oX c #979B9D",
"OX c #A6A09D",
"+X c #999DA0",
"@X c #9CA5AA",
"#X c #A3A3A3",
"$X c #ACACAC",
"%X c #AFB3B4",
"&X c #B4B4B3",
"*X c #BCBCBB",
"=X c #B8B8B8",
"-X c #A1AAB2",
";X c #C4C0BF",
":X c #C4C4C4",
">X c #CBCCCC",
",X c #C7CBCD",
"<X c #D0CFCF",
"1X c #D3D3D3",
"2X c #DBDBDB",
"3X c #D7D8D8",
"4X c #CDD0D1",
"5X c #E0DFDF",
"6X c #DFE0E0",
"7X c #E5E5E5",
"8X c #EBECEC",
"9X c #FFFFFE",
/* pixels */
"                              p.. . . . . . . &.>X        XX. . . . . . . + =X        &X+ . . . . . . . oX                      ",
"                              p.. . * e j . . $.;X      6X[.. . = * * . . j $X8X    8X$Xj . . w t j . . .X                      ",
"                              i.. . ~ ;.2.:.G %.[.&X*X=X#Xa.H s ! Q ! U u ~ ^.$X*X*X$X^.' u G ` :.3.5 . .X                      ",
"                              u.. 0 ,.T.!.!.6.+.Q - O + z ..@.,.O.,.O.O.,.O./ j O O j ` ,.@.+.4.W.!.' . .X                      ",
"                              u.. u ,.R.(.(.Q.6.Y . . . 5 ;.9.T.9.9.9.9.t.0.} . . . . F @.4.8.T.(.(.] . |.                      ",
"                              i.. y ,.T./.(.).Q.6.{ Y R O.T.!._.!.!./.!./.!.0.| R [ { { O.8.Q._.(._.' . |.                      ",
"                              u.. u ,.0.R./.(.).T.6.5.4.9.!.).(.(.).(.).(.(.R.8.5.4.6.4.4.t.~.(.(.W.K . .X                      ",
"                              u.. s ,.5.6.t.!.(.!.R.R.R.R.~.).).).).).)._._.!.W.R.Q.R.R.R.!.(.).R.4.y . .X                      ",
"                              i.. u ;.O.O.4.R./.(.).~.).).)././.).).).).).).).).(.).).).).).).W.7.} . .  X                      ",
"                              i.. . Q ) +.,.6.t.!.).(.).).).)./._.).)./.!.).).).(.).~.(.).!.T.6...h . .  X                      ",
"                              p.. . o Q O.,.O.<.t./.(.).).).).~.).).)./.).).!.)./.~.).(.).R.4...f . . .  X                      ",
"                              i.. . f ^ +.,.4.7.R.).)./.).).).).!./.).).).).).)./.).).).).W.9.,.~ q . .  X                      ",
"                              i.. 6 | +.+.<.t.!.!./.).~.).).!.).).).!.).).)././.)././.).).!.!.T.<.) . .  X                      ",
"                              u.. s ,.,.<.0.!.(.(.)././.).).).).).).).).).)./.~.).)././.~.(.(.!.T.,.$ . .X                      ",
"                              u.. u ,.8.t.!.!.).)./.)./.).)././.).).).).).).).).!.).).~.!.).).).!.T.H . .X                      ",
"                              i.. 0 ,.t.!.).).).)./.~.).!.).)./.).!.).).!.).).).).).).).).).).).(._./ . .X                      ",
"                              i.. y ,.9.).(.).).).).).).~./.).~./././.)./.~.).).)././.)./.)././.(.).' . |.                      ",
"                              i.. y ,.T.!.(.).).!.).).)./././.)./.~.).)./.).).).).).).).).)./.(.(.).` . .X                      ",
"                              p.. y ,.9.!.(.).).).).!.).).).).).).).).)./.).!.)./.^.)./.).)././.!.R.G . .X                      ",
"                              p.. 6 ;.T.).(.).).).).).).).!.).).).!.).).!.).).)././.)./.).).~.!.t.4.4 . .X                      ",
"                              r.. i ,.9.!._.).~.).).~./.~.).)./.).).).!.).!.).)./.).)././.~.(.Q.8.} . . .X                      ",
"                        7X&X`.B . U ,.4.7.T.!.).(.)././././.).).).).).).)./.).).)./.).)./.(.(.!.9.+.. . XX                      ",
"                        *XB . . w ` ,.@.O.7.W.).).)./.~./././.)././.).)././.).).!.)./.).).~.).!.8.O.. .  X8X                    ",
"                    7X:X'.X . 0 Q ~ ^ } +.5.9.R.!.).).)./.).).)./.~.).).~.).).).).).).).).!.Q.t.;.~ . . r.&X2X                  ",
"                    $X$.g ) { O.| x & L O.@.,.4.R.).(.).).).).).).)./.).).).).)./.~./.(.~.Q.6. .c X . . . l ].2X                ",
"                  >Xu.. 4 6.8.5.O.L w c ..| o.@.9.W.!.).).)._.).).!././.!.).).).~.)././.!.9.,.{ g w t r . . ( &X7X              ",
"              7X$Xu./ F ,.R.R.4.O.| ` L a c } ,.,.6.T.).(.).).).).).).~.).).).).~.(.).R.6.4.@. .| ` ..) I s ! 3..X1X            ",
"              :X&.. s 4.R._.W.4.O.@.,./ & r ..,.O.O.7.!.).).)._.).)./.).).).).!././.!.0.@.+.@.@.,.,.,.<.5.4.| . . $X            ",
"          7X*X].c 5 ;.R._.(.!.6.@.@.,.| ~ / +.;.+.o.,.7.T.W.).).).!././.).).R.t.0.9.9.4.O. .O.,.@.5.8.T.W.R.8.S # a.$X;X        ",
"          =Xb . ) 4.R.).(._.R.6.O.@.O.,.;.O.,.@.@.@.+.O.4.Q.).(.).).).~.(.!.t.<.O.@.,.,.@.@.,.@.@.,.t.).(.).W.8.O.^ b l         ",
"      2X>X|.. . W 8.!.(.).W.0. .) | @.,.,.,.O.@.4.7.7.6.0.W.).).).).).).).).R.0.5.@.} @.@.@.,.O.` / 6.R._.(.(.W.0.U . .         ",
"      u.w.1.{ _ } 4.W.).W.8.| a w ) @.,.,.O.o.,.9.!.!.W.!.!.).).).).).).).).!.!.t.5.o.}  .@.,. .g w / 4.T.!.(.).!.:.@ .         ",
"      . . i ,.5.5.0.R.W.0. .U q r ` @.,.;.;.,.6.R.).(.).).).).)./.).).!.).).).(.!.0.<.<.<.<.,.| x * h ) <.R.!.(.(.2.& .         ",
"      . . 7 @.9.R.R.T.6.| x g ~ ..+.,.O.+.,.t.R.!.).(.).).).).!./.~.).).).).(.).!.Q.R.R.R.9.,.+...) G f / 6.T.(.(.1.. .         ",
"      l b / @.9.!.!.8.O.g . a | ,.,.@.O.@.7.Q.(.(.~.).).).).).)./.).!.).).).~./.).).).(.).R.<.O.,.O.L . q ) 5.W.!.s.( 2         ",
"      :X%X'.T X.9.T.8.O.h . t  .,.@.@.,.0.R.!.(.).!.).).).)./././.).).).).!.)./.).).(.).(.!.t.0.5.O.K . . p ~ ' 2.}.&X*X        ",
"      9X8X%XX.F O.,.5.,.L . r | ,.O.@.0.!./.)./.).).).)./.)././.).).).).).~././.).).).).).).).W.8.+.c . . . . . v &X            ",
"      7X3X:X@X~.<.R { ` L x ~ | ,.5.7.R.~.(.).).).).).)././.).~.).!.).).).).)./.!.).).).).).(.!.T.6.| c r a @ . . =X            ",
"      &.`.:X8X,XR.i % w L ..+.O.<.t.W._.).).).!././.)./.).~.).).).).).).)././.)./.).).).).).).).!.R.7. .} } _ . ; =X            ",
"      . e.:X8X1X(.{ 0 & ~ @.,.O.<.R.).(.).).).).)./.~.).).).).!.!.).).!.)././.~.).)././.).).).).(.).t.<.@.,.| . 2 &X            ",
"      ,X:X$XOX+X+X{.7.! { ;.O.O.<.R.(.(.~.).~._.).~./.).).!.).).).).).).).).).).).).).!.).).).).(.).T.,.@.,.} . - &X            ",
"          %X; >.-X-X!.+.X.@.O.O.5.T.).).!.).).).).)././.).).).).).)./.~.).).).!.).).).)._.).).).).!.t.,.@.@.} . - &X            ",
"          2X#X[.|.~.0.@.O.,.O.O.<.R.~.).).)./.).).).).).).).!.).).)././.!.).).)././.).).).).).).(.).T.,.O.@.} . - &X            ",
"              :Xw.% _ ,.,.@.O.O.4.R.~.).)._._.~.).!.).).).).).).).!.).).).).).)./.~.).)._.).).).(.).T.,.@.@.} . k &X            ",
"              1X*.. s ,.,.@.O.+.<.R.~.(./.).~././.).).)././.).).).).).).).).).!.).).!.).).).).).!.R.0.,.@.,.} . - &X            ",
"              1Xq.. F 5.,.,.O.O.<.R.).(.).)././././.!.)./.~.).).!.).).).).!.)./.).!.).).~.(.(.!.t.6.,.,.,.,.{ . - &X            ",
"              <Xq.. S @.,.,.@.O.<.T.!.(.).).).).).~.).).).).).).).).).!.).).)./.).).).)./.)./.R.6.o.O.;.,.,.} . ; &X            ",
"              1Xe.. . F { @.,.;.,.6.9.Q.).(.).!./.).).).).!.!.).).).).).).).~./.).).!.(.).!.T.7.,.O.O.@.,.5.{ . . $X            ",
"              1Xq.. . % ~ ;.,.;.@.O.,.t.!.(.).!.).).).).)./.).).)._._.).).).).).).).).).(.R.4.O.O.,.,.O.,.,.} . . &X            ",
"              >X&.. m C Z ' X.O.,.+.O.4.T.W.~.).).).~.).).).)./._.~.).)._.)._.).).).).!.T.8.,.O.@.,.,.,.[ i ~ a.#X1X            ",
"              ,X#.X h.l.g.k F o.,.@.;.O.,.9.!.(.(.)././.).).!.~.).~.).).).).).).).).!.T.4.,.;.;.,.,.5.,.S . #.*X                ",
"              2X}.-.b.j.N . 4 } ,.,.,.O.+.4.t.!.!.).).).).).).).).).).).).).).).).(.!.9.O.X.X.} { { } +.%.*.oX7X                ",
"                7X;XC.n . . . { 5.5.,.@.O.,.<.9.Q.(.(.).(.).(.(.).).(.).).(.).).(.{._.T.,.R u 4 8 6 . 0 ].>X8X                  ",
"                  8X@X% . b (  .O.O.O.,.,.O.+.,.t.!.).~.!.~.).)._._.!.)._._._._.!.).!.9.,.( l , < , . . .X7X                    ",
"                    1X%X=X*XOX%.. . # I O.,.@.,.7.t.t.T.t.t.t.t.t.t.t.t.T.T.T.T.T.T.9.X.S $.v.V.S.B.M . 2.$X1X                  ",
"                            1Xw.. . . d O.4.,.,.,.,.,.,.,.,.,.,.<.,.,.,.,.,.;.;.5.5.O.J o A K.Y.Y.U.M.O . . p.1X                ",
"                            8X&X].|..Xu.^ i s I [ @.@.@.@.@.O.O.O.O.@.O.O.@.@.@.X.T U Z A Z.L.P.P.L.D.B.1 . #.,X                ",
"                                7X  7X%Xz . . . F @.5.,.@.@.@.@.,.,.,.@.@.@.,.@.W 8 w B.K.K.A.N.N.Z.G.K.M.: >.>X                ",
"                                      1Xp.#.*.q.=.} { { { } } } } } { } } } o.+.` b V D.I.L.m.k.k.n.J.P.Z.n >.>X                ",
"                                        1X<X1X:X'.. . . . . . . . . . . . . # s -.S.F.G.H.A.m.l.k.N.A.H.x.. L ,X                ",
"                                                &Xl . . - - - - - - - - - - . . A K.P.G.l.l.z.m.n.n.N.l.h.> e.4X                ",
"                                                2X=X$X&X&X&X&X&X&X&X&X&X=X&X].j M v.S.b.d.d.f.f.f.f.d.d.C.OX:X8X                ",
"                                                                            *X$.. : M M 3 < 1 3 3 1 . O .X5X                    ",
"                                                                            4X*.. X X . . . . . . . . . XX                      "
};
