/* XPM */
static char *result[] = {
/* columns rows colors chars-per-pixel */
"64 64 218 2 ",
"   c #000000",
".  c #030208",
"X  c #170000",
"o  c #000014",
"O  c #00001C",
"+  c #090D15",
"@  c #11191B",
"#  c #3A0000",
"$  c #2B0500",
"%  c #000C23",
"&  c #001825",
"*  c #00183E",
"=  c #3B0020",
"-  c #00232D",
";  c #17272B",
":  c #002432",
">  c #022C37",
",  c #0A333A",
"<  c #19353B",
"1  c #33393C",
"2  c #282F33",
"3  c #470000",
"4  c #531200",
"5  c #651D00",
"6  c #563800",
"7  c #513103",
"8  c #6A3A01",
"9  c #733A00",
"0  c #48392F",
"q  c #7A4400",
"w  c #6D471A",
"e  c #78481A",
"r  c #6C510F",
"t  c #584323",
"y  c #785628",
"u  c #5F521F",
"i  c #023742",
"p  c #003B44",
"a  c #00394A",
"s  c #1B3B42",
"d  c #002F4B",
"f  c #263C46",
"g  c #18434C",
"h  c #064754",
"j  c #1C4A53",
"k  c #134957",
"l  c #26454C",
"z  c #35454B",
"x  c #2D4D55",
"c  c #264A59",
"v  c #354C54",
"b  c #2D5159",
"n  c #35535A",
"m  c #3C545C",
"M  c #3A555C",
"N  c #0B5265",
"B  c #275966",
"V  c #355A63",
"C  c #3C5D65",
"Z  c #385B66",
"A  c #3D6069",
"S  c #3F6067",
"D  c #454749",
"F  c #434D56",
"G  c #4C555A",
"H  c #545A5C",
"J  c #55534D",
"K  c #6A5648",
"L  c #726549",
"P  c #485C64",
"I  c #525D63",
"U  c #43626B",
"Y  c #49666E",
"T  c #5A656B",
"R  c #576367",
"E  c #4D6971",
"W  c #496873",
"Q  c #546C74",
"!  c #5B6C75",
"~  c #5C737B",
"^  c #5B7078",
"/  c #676B6B",
"(  c #62757D",
")  c #68747B",
"_  c #6D7375",
"`  c #7C7C7C",
"'  c #737678",
"]  c #6D6F6C",
"[  c #5D614D",
"{  c #8C3D00",
"}  c #944300",
"|  c #984D00",
" . c #995301",
".. c #87530F",
"X. c #A35800",
"o. c #B76800",
"O. c #AC681C",
"+. c #B4700E",
"@. c #865D3A",
"#. c #915928",
"$. c #9D753A",
"%. c #8D6834",
"&. c #BC7322",
"*. c #AB7A37",
"=. c #B2762C",
"-. c #C27725",
";. c #C77900",
":. c #825F49",
">. c #95754E",
",. c #A67D51",
"<. c #8B7B6A",
"1. c #B68838",
"2. c #B68211",
"3. c #C3823F",
"4. c #98895A",
"5. c #AB864C",
"6. c #BA8B49",
"7. c #A58353",
"8. c #B5945A",
"9. c #99866B",
"0. c #978578",
"q. c #8A8675",
"w. c #A7967C",
"e. c #AD936D",
"r. c #B5A57B",
"t. c #C6974A",
"y. c #D1994A",
"u. c #C89A57",
"i. c #C99552",
"p. c #D4A35C",
"a. c #D9A65E",
"s. c #DAA75B",
"d. c #D2A451",
"f. c #C7A566",
"g. c #D8AB66",
"h. c #DCB168",
"j. c #D8B679",
"k. c #CEAD76",
"l. c #E3B467",
"z. c #E6BD78",
"x. c #D2A35A",
"c. c #DAC27D",
"v. c #E9C47A",
"b. c #F0C97C",
"n. c #4C6F80",
"m. c #597582",
"M. c #657A82",
"N. c #6B7D85",
"B. c #787D85",
"V. c #6D8189",
"C. c #66808F",
"Z. c #75858D",
"A. c #7D848A",
"S. c #7C8285",
"D. c #6C8391",
"F. c #738691",
"G. c #768892",
"H. c #7A8A92",
"J. c #848484",
"K. c #8B8B8A",
"L. c #878888",
"P. c #928E8C",
"I. c #918982",
"U. c #91908F",
"Y. c #878D92",
"T. c #86939A",
"R. c #949393",
"E. c #9B9B9B",
"W. c #999798",
"Q. c #AE9585",
"!. c #B8AA87",
"~. c #BAAC98",
"^. c #959EA6",
"/. c #9CA2A7",
"(. c #97A5B0",
"). c #A3A3A4",
"_. c #ACACAB",
"`. c #A7A8A9",
"'. c #A5ACB3",
"]. c #BCBBBB",
"[. c #B4B5B5",
"{. c #B3B0AD",
"}. c #D7B190",
"|. c #E4BE88",
" X c #C2BDB4",
".X c #DAC483",
"XX c #DDCA8A",
"oX c #EBCB85",
"OX c #F1D38B",
"+X c #F6D488",
"@X c #ECD590",
"#X c #F5DB93",
"$X c #F9DE96",
"%X c #F6DF98",
"&X c #ECCE88",
"*X c #FBE196",
"=X c #FAE39A",
"-X c #FFE99D",
";X c #FFEBA1",
":X c #FAE7B3",
">X c #DECCB1",
",X c #BEC2C4",
"<X c #CECDCD",
"1X c #C4C5C5",
"2X c #D3D2D2",
"3X c #D9D9D9",
"4X c #C9CFD2",
"5X c #ECDBCB",
"6X c #F3E6DA",
"7X c #FDEFC4",
"8X c #DCDFE1",
"9X c #E3E3E3",
"0X c #EAEBEB",
"qX c #EDEFF1",
"wX c white",
"eX c #F5F5F3",
"rX c #F5EEE8",
"tX c None",
/* pixels */
"tXtXtXtXtXtXtXtXtXtXtXtXtXtXtXtXtXtXtXtXtXtXtXtXtXtXtXtXtX].      ,XtXtXtXtXtXtXtXtXtXtXtXtXtXtXtXtXtXtXtXtXtXtXtXtXtXtXtXtXtXtX",
"tXtXtXtXtXtXtXtXtXtXtXtXtXtXtXtXtXtXtXtXtXtXtXtXtXtXtXtX9X`.&   1 _.0XtXtXtXtXtXtXtXtXtXtXtXtXtXtXtXtXtXtXtXtXtXtXtXtXtXtXtXtXtX",
"tXtXtXtXtXtXtXtXtXtXtXtXtXtXtXtXtXtXtXtXtXtXtXtXtXtXtX<XL.R n Y ) ' Y.<XtXtXtXtXtXtXtXtXtXtXtXtXtXtXtXtXtXtXtXtXtXtXtXtXtXtXtXtX",
"tXtXtXtXtXtXtXtXtXtXtXtXtXtXtXtXtXtXtXtXtXtXtXtXtXtXtX`.    U V.H.f   _.tXtXtXtXtXtXtXtXtXtXtXtXtXtXtXtXtXtXtXtXtXtXtXtXtXtXtXtX",
"tXtXtXtXtXtXtXtXtXtXtXtXtXtXtXtXtXtXtXtXtXtXtXtXtXtXtX{.    U V.H.f   {.tXtXtXtXtXtXtXtXtXtXtXtXtXtXtXtXtXtXtXtXtXtXtXtXtXtXtXtX",
"tXtXtXtXtXtXtXtXtXtXtXtXtXtXtXtXtXtXtXtXtXtXtXtXtXtX0X).. & A M.H.P ; _.tXtXtXtXtXtXtXtXtXtXtXtXtXtXtXtXtXtXtXtXtXtXtXtXtXtXtXtX",
"tXtXtXtXtXtXtXtXtXtXtXtXtXtXtXtXtXtXtXtXtXtXtXtXtX2XK./ x j C M.Z.N.( ' U.2XtXtXtXtXtXtXtXtXtXtXtXtXtXtXtXtXtXtXtXtXtXtXtXtXtXtX",
"tXtXtXtXtXtXtXtXtXtXtXtXtXtXtXtXtXtXtXtXtXtXtXtXtXW.  % U U Y M.H.T.H.v   ).tXtXtXtXtXtXtXtXtXtXtXtXtXtXtXtXtXtXtXtXtXtXtXtXtXtX",
"tXtXtXtXtXtXtXtXtXtXtXtXtXtXtXtXtXtXtXtXtXtXtX2XW.H & h U Q M.Z.Z.H.H.Q : / E.W.E.<XtXtXtXtXtXtXtXtXtXtXtXtXtXtXtXtXtXtXtXtXtXtX",
"tXtXtXtXtXtXtXtXtXtXtXtXtXtXtXtXtXtXtXtXtXtXtXW.  : Y U Y M.H.H.H.H.G.N.Y l       E.tXtXtXtXtXtXtXtXtXtXtXtXtXtXtXtXtXtXtXtXtXtX",
"tXtXtXtXtXtXtXtXtXtXtXtXtXtXtXtXtXtXtXtXtX2XW.I : U N.M.M.Z.H.T.H.H.Z.Z.N.^ P i % H W.2XtXtXtXtXtXtXtXtXtXtXtXtXtXtXtXtXtXtXtXtX",
"tXtXtXtXtXtXtXtXtXtXtXtXtXtXtXtXtXtXtXtXtXW.  & Y N.H.H.H.H.Z.Z.Z.Z.H.H.H.H.H.V.Y :   W.tXtXtXtXtXtXtXtXtXtXtXtXtXtXtXtXtXtXtXtX",
"tXtXtXtXtXtXtXtXtXtXtXtXtXtXtXtXtXtXtX2X).R o h U M.H.T.H.) G F I ) H.H.H.H.H.G.N.E Z _ ).2XtXtXtXtXtXtXtXtXtXtXtXtXtXtXtXtXtXtX",
"tXtXtXtXtXtXtXtXtXtXtXtXtXtXtXtXtXtXtXR.  > U A Y M.H.H.Z.I       I Z.H.H.H.H.H.H.H.G.P   P.tXtXtXtXtXtXtXtXtXtXtXtXtXtXtXtXtXtX",
"tXtXtXtXtXtXtXtXtXtXtXtXtXtXtXtXtXtXtXU.  % W Q N.G.H.) I I R v s z I ( H.H.H.H.G.N.n.N o P ).2XtXtXtXtXtXtXtXtXtXtXtXtXtXtXtXtX",
"tXtXtXtXtXtXtXtXtXtXtXtXtXtXtXtXtXtXtXW.  > Y V.G.H.Z.G   R H.V.C <   I Z.H.H.H.H.N.W C Y i . K.tXtXtXtXtXtXtXtXtXtXtXtXtXtXtXtX",
"tXtXtXtXtXtXtXtXtXtXtXtXtXtXtXtXtX3X_._ i j Y V.G.) R z s ^ H.H.( m , R G.C.~ ` w.r.r.r.e.w   B.tXtXtXtXtXtXtXtXtXtXtXtXtXtXtXtX",
"tXtXtXtXtXtXtXtXtXtXtXtXtXtXtXtXtXR.  p U C U V.H.H   s U M.H.H.H.~ U ~ G.m.A 4.x.b.=XOXh.=.X Y.tXtXtXtXtXtXtXtXtXtXtXtXtXtXtXtX",
"tXtXtXtXtXtXtXtXtXtXtXtXtXtXtXtXtXJ.  > Y A U Z.H.F   , Y M.H.H.H.V.m.V.G.W N 9.v.+X=X*XOXh.$.9.[.3XtXtXtXtXtXtXtXtXtXtXtXtXtXtX",
"tXtXtXtXtXtXtXtXtXtXtXtXtXtXtXtXtXU.  i U C U N.Z.H   s U M.H.H.G.H.H.H.H.n.B w.#X*X=X=X=X&Xg.1.4 Y.0XtXtXtXtXtXtXtXtXtXtXtXtXtX",
"tXtXtXtXtXtXtXtXtXtXtXtXtXtXtXtXtXU.  i U A U V.Z.R < j U M.H.H.H.H.H.H.H.` <.k.=X;X=X#XoXz.oXu.. ) 0XtXtXtXtXtXtXtXtXtXtXtXtXtX",
"tXtXtXtXtXtXtXtXtXtXtXtXtXtXtXtXtXR.  p A A U N.H.~ V n U M.H.H.H.Z.G.G.V.w.u.v.#X-X;Xv.=.x.#Xj.7 S.qXtXtXtXtXtXtXtXtXtXtXtXtXtX",
"tXtXtXtXtXtXtXtXtXtXtXtXtXtXtXtXtXU.  p U A Y N.H.V.~ U A Q M.Z.G.H.G.V.G.!.v.OX=X@Xk.f.u.c.=X.X6 V.0XtXtXtXtXtXtXtXtXtXtXtXtXtX",
"tXtXtXtXtXtXtXtXtXtXtXtXtXtXtXtXtXU.  p U A U N.H.H.Z.Q A M U ( H.H.G.D.G.~.#X=X=Xk.#.4.&X-X;Xc.6 V.0XtXtXtXtXtXtXtXtXtXtXtXtXtX",
"tXtXtXtXtXtXtXtXtXtXtXtXtXtXtXtXtXR.  & n C U ~ N.H.H.N.Q E Q M.H.H.H.V.F.~.OX*X=X.X7.f.*X*Xv.8.$ A.qXtXtXtXtXtXtXtXtXtXtXtXtXtX",
"tXtXtXtXtXtXtXtXtXtXtXtXtXtXtXtXtXR.    ; n U U E N.H.H.Z.Z.Z.H.H.Z.G.D.F.w.l.b.%X%X@X#X*Xc.>.3 . K.0XtXtXtXtXtXtXtXtXtXtXtXtXtX",
"tXtXtXtXtXtXtXtXtXtXtXtXtXtXtXtXtXR.      f n n C ^ V.H.H.Y.H.H.H.H.Z.Z.H.0.8.j.*X-X;X:X7X>X,.3   S.0XtXtXtXtXtXtXtXtXtXtXtXtXtX",
"tXtXtXtXtXtXtXtXtXtXtXtXtXtXtXtXtXW.        ; x U U E N.H.H.H.Z.Z.H.H.H.H.( R r.%X-X*X7XeX6Xz.o.. ' 0XtXtXtXtXtXtXtXtXtXtXtXtXtX",
"tXtXtXtXtXtXtXtXtXtXtXtXtXtXtXtX<X`     < ; 2 n U V V ^ V.Z.H.H.G.H.H.Y.H.Q N q.|.oXOX:XrX5Xf.5.q.].tXtXtXtXtXtXtXtXtXtXtXtXtXtX",
"tXtXtXtXtXtXtXtXtXtXtXtXtXtXtX_.J X   l C m V A U C Z P Y M.H.H.H.H.H.H.H.m.A H %.6.h.v.|.e.6 K.9XtXtXtXtXtXtXtXtXtXtXtXtXtXtXtX",
"tXtXtXtXtXtXtXtXtXtXtXtXtXtX<X/     1 M Y A U A C Y Q Y E M.H.H.H.Z.V.V.Z.~ U l = @.6.y.y.2.8 L.8XtXtXtXtXtXtXtXtXtXtXtXtXtXtXtX",
"tXtXtXtXtXtXtXtXtXtXtXtXtX_./ v j b V C U P A Z C ( V.V.V.Z.H.H.H.( Y Y E Y U B k D e =.y.d.t.7.] '.tXtXtXtXtXtXtXtXtXtXtXtXtXtX",
"tXtXtXtXtXtXtXtXtXtXtXtX0X`   i W Y U A C C C Y Q V.T.H.H.H.H.H.H.( E A A A A Y _ L e ,.g.z.z.t.5 ' 2XtXtXtXtXtXtXtXtXtXtXtXtXtX",
"tXtXtXtXtXtXtXtXtXtXtXtXtXJ.  p A U U C C V A ^ Z.H.H.H.H.H.Z.H.G.Z.V.~ A B b <.8.i.i.g.oX#X#Xv.6.$.] '.tXtXtXtXtXtXtXtXtXtXtXtX",
"tXtXtXtXtXtXtXtXtXtXtXtX3XJ.  j U A A Y E Y Q V.H.Z.V.S.H.H.Z.H.H.H.H.( V B A 9.g.l.h.oX*X=X-X#Xv.t.5 ' 3XtXtXtXtXtXtXtXtXtXtXtX",
"tXtXtXtXtXtXtXtXtXtXtXU.J.R b Z A A Y ( V.N.V.H.Z.R z ) H.H.H.H.H.H.H.T ; n C.Q.p.l.OX=X*X=X=X=X+Xz.t.5.I.Y.tXtXtXtXtXtXtXtXtXtX",
"tXtXtXtXtXtXtXtXtXtXtX    b Y U A C Y N.H.H.H.H.Z.v   R G.G.H.H.H.H.H.R @ x N.Q.h.b.=X=X=X%X%X=X=X#Xv.t.7   tXtXtXtXtXtXtXtXtXtX",
"tXtXtXtXtXtXtXtXtXtXtX    n U U U V Y N.H.H.H.T.Z.D   l ~ V.H.H.G.H.H.^ b i l e.OX=X=X=X=X*X%X=X=X*X#Xj.w   tXtXtXtXtXtXtXtXtXtX",
"tXtXtXtXtXtXtXtXtXtXtX  ; n U U A V Y N.H.H.H.H.Z.I 2 < M ~ Z.H.H.H.H.N.E d   4.XX=X#X#X%X=X%X%X=X=X;XXXL   tXtXtXtXtXtXtXtXtXtX",
"tXtXtXtXtXtXtXtXtXtXtX  ; n U U U C Y N.H.H.H.H.Z.Z./ z - n ^ Z.H.H.G.Z.V.E g [ 4.f.s.b.%X=X=X=X*X=X;XXXL   tXtXtXtXtXtXtXtXtXtX",
"tXtXtXtXtXtXtXtXtXtXtX  ; m U A C C U N.H.H.H.H.H.H.H.I @ < M ( Z.H.Z.H.H.V.E a   @.k.v.OX=X$X=X*X=X*Xc.L   tXtXtXtXtXtXtXtXtXtX",
"tXtXtXtXtXtXtXtXtXtXtX  ; n U U C C Y V.H.H.H.H.H.H.H.N.! z - m ~ Z.H.H.H.H.V.c   P.5X5X|.v.#X=X=X$X+Xf.7   tXtXtXtXtXtXtXtXtXtX",
"tXtXtXtXtXtXtXtXtXtXtX  ; n U A C M Y N.H.H.H.Z.Z.H.H.H.H.R @ < C ~ H.H.G.H.H.G   ^.qX6Xj.l.#X=X=XOXh.6.K > tXtXtXtXtXtXtXtXtXtX",
"tXtXtXtXtXtXtXtXtXtXtX    x Y U U C U Q ( V.H.H.H.H.H.H.H.N.R z > m ~ M.~ M.M.l   F ^. X&X+X=X$XoXg.$.9.].<XtXtXtXtXtXtXtXtXtXtX",
"tXtXtXtXtXtXtXtXtXtXtX2 1 M A A U A A Z U N.H.H.Z.H.H.H.H.H.H.R + < M U S A C n 1     4.@X-X=XOXl.*.$ A.0XwXtXtXtXtXtXtXtXtXtXtX",
"tXtXtXtXtXtXtXtXtXtXtX<X[.' > b U U A n U N.Y.H.H.H.Z.H.H.H.H.N.R F , > < o o Y. X X*.1.v.oXv.z.l.1.X A.qXwXtXtXtXtXtXtXtXtXtXtX",
"tXtXtXtXtXtXtXtXtXtXtXtXqXK.  g U A C C Y V.G.H.H.H.Z.H.H.H.H.H.H.T @         _.eX6X|.y.p.p.a.g.s.6.# A.0XwXtXtXtXtXtXtXtXtXtXtX",
"tXtXtXtXtXtXtXtXtXtXtXtXtX`   i Y U U C U Q ( ~ ( Z.H.H.H.Z.H.H.H.' R z < H S.'.4X>Xh.s.s.s.s.x.5.q   J.qXwXtXtXtXtXtXtXtXtXtXtX",
"tXtXtXtXtXtXtXtXtXtXtXtX0XJ.  g U U A A U A U C U ) H.H.H.H.H.H.H.H.G.^ C H.'.(.G.w.g.a.a.s.g.i.t     K.0XwXtXtXtXtXtXtXtXtXtXtX",
"tXtXtXtXtXtXtXtXtXtXtXtXtX2X/.G o j Y U A C V M A Q M.Z.H.H.H.H.H.H.H.Z.N.T.(.T.W ] 9.f.h.p.5.y . : ( W.{.].tXtXtXtXtXtXtXtXtXtX",
"tXtXtXtXtXtXtXtXtXtXtXtXtXtX0XJ.  p U U U U A C A S U M.H.H.H.H.H.H.H.Z.G.H.H.N.Y B Z 9.g.t.0     I '.^.G   tXtXtXtXtXtXtXtXtXtX",
"tXtXtXtXtXtXtXtXtXtXtXtXtXtXtX<XW./ g V U U U U A V A Q M.M.M.) M.M.M.M.N.M.m.Q A h d [ >.$.e 9 } :.B.Y.E.`.tXtXtXtXtXtXtXtXtXtX",
"tXtXtXtXtXtXtXtXtXtXtXtXtXtXtXtX0XK.  a U U A P U S U U U U U U U U U U U U U Y U x &   . w O.&.&. .  J.9XtXtXtXtXtXtXtXtXtXtXtX",
"tXtXtXtXtXtXtXtXtXtXtXtXtXtXtXtXtXW.  o k k k V U U A A S C C A C A C U A l : & > 0 q q 9 ..&.o.} @.P.1XtXtXtXtXtXtXtXtXtXtXtXtX",
"tXtXtXtXtXtXtXtXtXtXtXtXtXtXtXtXtXR.    o   & v U A U A A A U U U U U Y U g       8 O.&.&.&.-. .X S.9XtXtXtXtXtXtXtXtXtXtXtXtXtX",
"tXtXtXtXtXtXtXtXtXtXtXtXtXtXtXtXtXL.  3 q q w D k h h h h g j j l x x i > _ E.`.).0. .} | } { @.K.,XtXtXtXtXtXtXtXtXtXtXtXtXtXtX",
"tXtXtXtXtXtXtXtXtXtXtXtXtXtXtXtXtXA.  } &.&.O.8 o o o . o O % .     @     ).tXtXtX1X0         J.9XtXtXtXtXtXtXtXtXtXtXtXtXtXtXtX",
"tXtXtXtXtXtXtXtXtXtXtXtXtXtXtXtXtX,XI.:.X.o.-. .8 y @.%...9 5 K / f   D R.2XtXtXtX9X).Y.R.Y.Y.,XtXtXtXtXtXtXtXtXtXtXtXtXtXtXtXtX",
"tXtXtXtXtXtXtXtXtXtXtXtXtXtXtXtXtXtX9XJ.X } -.O.O.i.x.x.u.+.X.Q.'.!   E.tXtXtXtXtXtXtXtXtXtXtXtXtXtXtXtXtXtXtXtXtXtXtXtXtXtXtXtX",
"tXtXtXtXtXtXtXtXtXtXtXtXtXtXtXtXtXtXtX,X` @. .o.-.y.s.j.}.|.}.~.W.H.U.2XtXtXtXtXtXtXtXtXtXtXtXtXtXtXtXtXtXtXtXtXtXtXtXtXtXtXtXtX",
"tXtXtXtXtXtXtXtXtXtXtXtXtXtXtXtXtXtXtXtX9XY.X } &.;.3.!.[.9XeX_.& ).0XtXtXtXtXtXtXtXtXtXtXtXtXtXtXtXtXtXtXtXtXtXtXtXtXtXtXtXtXtX",
"tXtXtXtXtXtXtXtXtXtXtXtXtXtXtXtXtXtXtXtXtX,X<.:.X. .#.<.^.4X3X[.J.<XtXtXtXtXtXtXtXtXtXtXtXtXtXtXtXtXtXtXtXtXtXtXtXtXtXtXtXtXtXtX",
"tXtXtXtXtXtXtXtXtXtXtXtXtXtXtXtXtXtXtXtXtXtX9XW.3 # 7 D F G ' ,X0XtXtXtXtXtXtXtXtXtXtXtXtXtXtXtXtXtXtXtXtXtXtXtXtXtXtXtXtXtXtXtX",
"tXtXtXtXtXtXtXtXtXtXtXtXtXtXtXtXtXtXtXtXtXtXtX_.      .        XtXtXtXtXtXtXtXtXtXtXtXtXtXtXtXtXtXtXtXtXtXtXtXtXtXtXtXtXtXtXtXtX"
};
