/* XPM */
static char *ce64f27420b84d01e9ff4e43150b077c5QL27MamR8SJ2Ryi[] = {
/* columns rows colors chars-per-pixel */
"64 64 226 2 ",
"   c None",
".  c #010101",
"X  c #00000A",
"o  c #0B0000",
"O  c #140502",
"+  c #171208",
"@  c #010515",
"#  c #04161B",
"$  c #1A1919",
"%  c #19051A",
"&  c #340000",
"*  c #3B1303",
"=  c #26180F",
"-  c #2E2108",
";  c #011B25",
":  c #0E1E22",
">  c #001524",
",  c #161D20",
"<  c #001535",
"1  c #000E32",
"2  c #072228",
"3  c #1A292E",
"4  c #172225",
"5  c #002A3A",
"6  c #022735",
"7  c #182D34",
"8  c #14333A",
"9  c #1A353A",
"0  c #252527",
"q  c #38372F",
"w  c #21353B",
"e  c #29373A",
"r  c #393838",
"t  c #332F2A",
"y  c #3E122B",
"u  c #470300",
"i  c #560400",
"p  c #451D02",
"a  c #501D00",
"s  c #4E2F0F",
"d  c #763E00",
"f  c #673709",
"g  c #423F3B",
"h  c #533A33",
"j  c #6B2517",
"k  c #794605",
"l  c #7A4718",
"z  c #4F4537",
"x  c #6C4F2C",
"c  c #7D6430",
"v  c #173847",
"b  c #0F3245",
"n  c #233C42",
"m  c #2D3F46",
"M  c #353E44",
"N  c #1D4C55",
"B  c #11434E",
"V  c #2C454B",
"C  c #2A474F",
"Z  c #39454A",
"A  c #2C4D55",
"S  c #254C5B",
"D  c #354A51",
"F  c #2C525A",
"G  c #33545C",
"H  c #385159",
"J  c #0C5163",
"K  c #285866",
"L  c #325761",
"P  c #355A62",
"I  c #3C5D65",
"U  c #3D5F69",
"Y  c #3E6169",
"T  c #3E6067",
"R  c #3C697C",
"E  c #4A4949",
"W  c #434E52",
"Q  c #4A545A",
"!  c #595B5C",
"~  c #555349",
"^  c #64554F",
"/  c #425E66",
"(  c #525D63",
")  c #595F62",
"_  c #42626A",
"`  c #4A666D",
"'  c #59656B",
"]  c #596469",
"[  c #4A6974",
"{  c #536C74",
"}  c #5C6D74",
"|  c #566E78",
" . c #5B727A",
".. c #547078",
"X. c #646464",
"o. c #676C6C",
"O. c #636D73",
"+. c #63767E",
"@. c #68767C",
"#. c #727373",
"$. c #787A7B",
"%. c #6B726B",
"&. c #796B47",
"*. c #8F3501",
"=. c #995B16",
"-. c #894F0D",
";. c #A96605",
":. c #B56805",
">. c #A76419",
",. c #B86E19",
"<. c #885C28",
"1. c #875B35",
"2. c #946C33",
"3. c #BB7223",
"4. c #AD7834",
"5. c #8D6012",
"6. c #C17517",
"7. c #8E6C4B",
"8. c #8A7C6C",
"9. c #B48435",
"0. c #D08F32",
"q. c #9D845F",
"w. c #B58A4A",
"e. c #BD924F",
"r. c #A68B5A",
"t. c #A99759",
"y. c #BC9251",
"u. c #AE9252",
"i. c #9B8567",
"p. c #938875",
"a. c #A99468",
"s. c #AA9577",
"d. c #AA8F73",
"f. c #B7A269",
"g. c #B7A77B",
"h. c #C49348",
"j. c #C59856",
"k. c #CF964E",
"l. c #CFA155",
"z. c #D4A45D",
"x. c #D9A65D",
"c. c #D9A757",
"v. c #DAA44B",
"b. c #C69F65",
"n. c #C38B63",
"m. c #D9AA64",
"M. c #DDB36D",
"N. c #DFB96E",
"B. c #CDB277",
"V. c #CAAE71",
"C. c #E1AE62",
"Z. c #E3B46A",
"A. c #E2BA73",
"S. c #E4BC78",
"D. c #DDC17E",
"F. c #EBC57B",
"G. c #EAC67B",
"H. c #537281",
"J. c #647981",
"K. c #6A7C84",
"L. c #667781",
"P. c #717E84",
"I. c #677F90",
"U. c #6D8189",
"Y. c #74858D",
"T. c #7A868C",
"R. c #6B8492",
"E. c #768790",
"W. c #768891",
"Q. c #7A8A92",
"!. c #7F8F98",
"~. c #868789",
"^. c #899399",
"/. c #989998",
"(. c #908F8F",
"). c #A29994",
"_. c #AC9A93",
"`. c #8E9AA4",
"'. c #9DA3AA",
"]. c #AAA9A9",
"[. c #A2ADB6",
"{. c #ADB1B3",
"}. c #B4B4B4",
"|. c #B8B7B7",
" X c #BBBBBB",
".X c #B7B8BB",
"XX c #B1A8A4",
"oX c #C5B588",
"OX c #CDB289",
"+X c #C9BCB0",
"@X c #E9CC86",
"#X c #F1CE82",
"$X c #EED088",
"%X c #F3D48C",
"&X c #FADA8E",
"*X c #E9C89B",
"=X c #F5DB93",
"-X c #F9DF96",
";X c #F2D790",
":X c #EED691",
">X c #FAE296",
",X c #FAE39A",
"<X c #FFE99E",
"1X c #F7E199",
"2X c #EDD6BD",
"3X c #E1CEB8",
"4X c #FEEAA0",
"5X c #FFF1BD",
"6X c #D8C59C",
"7X c #BDBEC0",
"8X c #BEC1C4",
"9X c #C2C3C4",
"0X c #CACACA",
"qX c #CCCFD1",
"wX c #CED0D1",
"eX c #D3D4D4",
"rX c #DBDBDC",
"tX c #D7D7D8",
"yX c #E7D9D1",
"uX c #F6E8CE",
"iX c #D9DEE1",
"pX c #E5E5E5",
"aX c #EAEBEB",
"sX c #FEFFFF",
"dX c #F9F6F1",
"fX c #F7F0E9",
/* pixels */
"                                                          0XE . g 9X                                                            ",
"                                                           XE . r |.                                                            ",
"                                                      pX}.~.{ C A P.}.iX                                                        ",
"                                                       Xt Z Y.U./ ; = }.                                                        ",
"                                                       X= H Y.U.Y ; O |.                                                        ",
"                                                       XE W Y.K.Y 2 q |.                                                        ",
"                                                  pX|.~.' @.Y.J.U B D P.{.pX                                                    ",
"                                                   Xt m Y.!.E.+._ Y U ; + |.                                                    ",
"                                          aX.X}.}.T.> Q W.!.Q.U.J.{ U 8 @ #.|.pX                                                ",
"                                           Xq . . n _ J.W.Q.Q.W.W.J._ Y / > + |.                                                ",
"                                      aX X$.; 4 m ` +.U.Q.Q.Q.^.!.Y.J.J.H.D @ #..XaX                                            ",
"                                      9Xt X U J.E.Q.Q.Y.Q.Q.W.Y.Y.Y.W.!.W.J._ X +  X                                            ",
"                                  aX7X~.D H J.R.Q.~.Q.!.Q.@.] ! ( K.Q.^.Q.K.Y 8 X P. XpX                                        ",
"                                   Xq m Y.Q.W.W.E.Q.Q.Q.E.] 4 . $ ] Y.!.Q.H._ T / > 0  X                                        ",
"                              aX9X~.X b H.I.W.Q.Q.Q.Q.K.] D 7 V Q ( ' K.Q.Y. ..._ 3 . |.                                        ",
"                              9Xr > I U _ +.W.Q.Q.Q.Y.' 4 8 I J.Y.' 4 ( E.^.Y.J._ ; . |.                                        ",
"                               X. t 8.f.g.s.s.~.L.U.W.' 8 H  .W.!.} e D ] U.Q.K._ v V (.9XaX                                    ",
"                              7X% -.z.#X=X@Xm.r.` H.Y.J._ | Y.^.W.J.Y 9 4 ] W.J._ T H 5 r  X                                    ",
"                          aX0X).2.y.#X-X<X&XG.a.P R Y.U.J.U.Q.Q.W.J._ 7 . ! Y.J._ _ Y : . }.                                    ",
"                          8X~ <.m.G.=X,X>X,X:XoX` [ W.Q.Y.Y.Q.Q.W.J._ 8 . ] T.J._ T _ : . |.                                    ",
"                          .X. 2.#X#XS.$X,X4X,XOXi.$.T.Q.Q.Q.Q.Q.Q.+._ B w } W.K._ T T 2 . |.                                    ",
"                           X. u.=XS.4.M.-X4X>XG.b.d.T.W.Q.Q.Y.Q.Q.+.` G I +.W.+._ T _ : .  X                                    ",
"                           X$ t.,X%Xz.j.V.@X>X&X@XoXT.R.Y.Q.Q.Y.+.{ I `  .Y.T.+._ T _ : . |.                                    ",
"                           X$ t.-X4X;Xf.1.f.>X<X,XoX~.I.W.Q.W.+.` P T  .W.Q.Q.+._ _ _ 2 .  X                                    ",
"                          7X$ 1.B.:X-XS.r.B.>X>X%XOX~.R.Y.Q.Q.K.{ {  .U.Q.Q.@..._ I A # . |.                                    ",
"                           X# O 1.V.=X1X:X=X,X#XM.s.Q.R.Q.T.Q.Y.Y.Y.Y.Q.Q.+.` _ T D 4 . .  X                                    ",
"                           X. & 2.6XuX5X4X<X,XG.a.p.Q.W.Q.E.E.Q.Q.Q.Q.W.K.{ I G A 7 . . . 7X                                    ",
"                          .XO k l.yXdXuX<X>X,XOXo.{ W.Q.E.E.E.W.Q.Q.Q.K.` Y I D $ . . . o 7X                                    ",
"                          rX].d.e.+XuXuX#XS.OXd.K [ W.Q.Q.Q.Q.Q.Y.Y.+.{ P P Y A 7 w w @ . (.eX                                  ",
"                              |.z 7.OX@XZ.h.1.^ U H.W.!.Q.Q.Q.Q.Q.+.` I T T T _ I I H n . t ) 0X                                ",
"                            iX].c ;.0.k.w.1.y v U  .K.K.K.K.W.Q.W.K.{ {  .` I T _ ` _ H e @ . (.eX                              ",
"                          qXO.7.h.v.c.9.-.g S K U ` ` _ ` J.W.Q.Q.Y.Y.Y.Y. .I I _ _ _ / I A S E X.0X                            ",
"                        tX/.f 4.S.#XS.y.<.7.8.%.T K T _ { +.W.Q.Y.Q.Q.!.Q.U.} _ I I I _ _ [ ` . . |.                            ",
"                      0X] 1.h.A.=X,X=XS.k.j.z.i._ J T  .U.T.W.W.Y.Q.W.!.!.Q.Y. .I P I I _ _ _ @ . 7X                            ",
"                    rXXXf 9.S.&X,X<X,X%XF.Z.c.a.} K F } Q.Q.Q.T.Q.Q.Q.P.@.U.Q.K.{ { ..` T Y _ 8 7 ].rXpX                        ",
"                    #.q.9.M.=X,X,X-X,X-X%XF.c.s.T.Y 3 ] T.!.Q.Q.Q.Q.Q.' Z ' Y.Q.Y.Y.Y. ._ I T P G ] #.#.                        ",
"                    . 2.S.&X,X,X-X,X-X4X,X&XG.g.@.S 7 ( W.Q.Q.Q.Q.W.U.W . Q E.^.Q.^.Q.J.Y I Y ` _ 5 . .                         ",
"                    + t.=X<X-X,X-X-X-X-X,X<X=Xg.z 5 F  .W.Q.Q.Q.Q.K.{ w . Q Y.Q.Q.Q.W.+._ I Y _ T n . .                         ",
"                    + f.,X4X1X1X-X,X4X:X@X@X@Xt.t b { I.W.Q.Q.T.U.{ A n Z O.Y.!.Y.Q.Y.+._ I Y _ _ V . .                         ",
"                    + g.,X4X1X1X-X,X,X@Xc.u.&.W F { U.W.W.Q.Q.U.{ V # Q K.Y.Y.W.Q.Q.Q.+.T I Y _ _ V . .                         ",
"                    + u.%X>X1X1X,X=X:X*X*Xi.X 5 { R.Q.^.Q.W.U.{ A 9 Z O.Q.Q.Q.Y.Q.Q.Q.+./ I U _ T V . .                         ",
"                    . 2.A.%X1X<X=XG.M.2XfX X0 M U.Q.Q.Q.W.U.{ A # W K.Y.Q.Q.Q.Q.Q.Q.Q.+._ I Y _ _ D X .                         ",
"                    ~.i.e.M.$X1X,X#XA.3XiX].. M U.W.U.Y.U.{ A 9 M O.Q.!.Q.E.Q.Q.Q.Y.U. ._ I Y _ _ 9 . .                         ",
"                    aX}.x 4.M.$X,X,X:XoX$.M . 6 { ......{ D # W @.T.Q.E.Q.E.Q.Q.Q.+.{ ` _ Y Y ` _ 5 . .                         ",
"                    sX9X. -.x.G.%X>X&Xf.f ^ ~.%.D C A F A e M O.Q.!.Q.Q.Y.Q.Q.Q.Q.+.I I I _ Y L G %.p.T.                        ",
"                    sX8X@ 5.m.Z.N.A.A.l.y.+XpX{.e . # # 2 Q @.Y.Q.Q.Q.Q.Y.Q.Q.Q.Q.+.I I I _ _ 7 2 {.pX                          ",
"                    sX9X. k j.x.c.x.c.v.C.yXaX8X! # # $ M O.Q.!.Q.Q.E.T.Q.Y.Y.U.U. ._ I / ` Y # . 7X                            ",
"                    sX9X. = x w.C.m.c.c.C.OX[.[.'.U.G Q @.Y.Q.Q.E.E.E.Q.Q.K.{ { { ` _ I I ` _ X . |.                            ",
"                    pX X! @ + 1.b.z.m.m.b.i.K.`.[.`...H.Q.!.Q.Q.Q.Q.Q.Q.P. .U P I I Y Y Y F N W #.0X                            ",
"                    #.^.'.L.X - x y.m.b.p.' ` U.^.!.Y.W.Q.Q.Q.Q.Q.Q.Q.K.| _ U U I T I ` _ ; . /.rX                              ",
"                    ! ~.'.~.s & * 2.j.q.N J P  .U.Y.Y.Y.Y.U.Y.U.Y.Y.Y.| U U U / _ _ _ P I Z %.0X                                ",
"                    rX].M x >.>.=.<.x q 6 B Y [ { ....{ { { { { { { { ` U U / U _ ` ` 9 7 '.rX                                  ",
"                      wXX.d ;.6.3.=.* & s g S N N G T T T T T T I I I Y _ U _ I L P L ; .  X                                    ",
"                        rX).i *.6.3.>.>.>.k . . . 8 Y [ Y Y Y _ _ _ Y _ _ [ _ S 5 6 6 X o  X                                    ",
"                          qX) f ;.;.;.:.>.1.X.X.X.! F F P G P G P L L L L P L M s p p O . |.                                    ",
"                            iX_.u * i u h _.tXpXtX/.2 X 3 7 # ; 5 6 < 1 1 < 6 x =.>.;.a . }.                                    ",
"                              qX) n ! Z ( 9X      wXX.. X , r h * p s f s - - =.3.6.:.-.~ 7X                                    ",
"                                eXeXeXwXeXaX        tX~.. ( ^.8.-.;.4.e.y.4.=.,.6.*.i ).eX                                      ",
"                                                      0XX.K.]._.n.k.m.m.x.k.3.:.:.d Q 9X                                        ",
"                                                        eX/.) XXyXyX+XOXh.0.6.*.i (.wX                                          ",
"                                                          9X) }.aXiX{.(.3.:.,.k W 9X                                            ",
"                                                            eX|.'.~.O.^ j i x _.eX                                              ",
"                                                              7XE . . o . . 0 7X                                                ",
"                                                                                                                                "
};
