/* XPM */
static char *_cd0751260ed4e7198d7596b40f627a2VOPapoa13paSXRi6[] = {
/* columns rows colors chars-per-pixel */
"64 64 240 2 ",
"   c None",
".  c #000000",
"X  c #01030C",
"o  c #170302",
"O  c #000517",
"+  c #0C171A",
"@  c #1B1A1A",
"#  c #230200",
"$  c #2F1204",
"%  c #000029",
"&  c #001928",
"*  c #000232",
"=  c #081534",
"-  c #1A2628",
";  c #002835",
":  c #02333C",
">  c #1B353A",
",  c #1B2E33",
"<  c #23292C",
"1  c #2E2D2C",
"2  c #262829",
"3  c #27383D",
"4  c #363839",
"5  c #2B2F2E",
"6  c #3F112B",
"7  c #570000",
"8  c #4F1B00",
"9  c #7A1A00",
"0  c #652A00",
"q  c #683501",
"w  c #773900",
"e  c #7A2D00",
"r  c #563726",
"t  c #7E4401",
"y  c #794604",
"u  c #7A4F10",
"i  c #554633",
"p  c #6D4D30",
"a  c #7A623E",
"s  c #002942",
"d  c #003A47",
"f  c #103B45",
"g  c #283C42",
"h  c #1E4C55",
"j  c #0A4550",
"k  c #2B454B",
"l  c #274249",
"z  c #284B55",
"x  c #364D54",
"c  c #2C525A",
"v  c #25515B",
"b  c #33555E",
"n  c #39555B",
"m  c #33434C",
"M  c #024C63",
"N  c #055467",
"B  c #1B586A",
"V  c #0C5B77",
"C  c #295B69",
"Z  c #3C5D65",
"A  c #375B65",
"S  c #3E616A",
"D  c #35606C",
"F  c #386475",
"G  c #296277",
"H  c #484A4B",
"J  c #524B4A",
"K  c #475559",
"L  c #4F5557",
"P  c #6C5B55",
"I  c #475C64",
"U  c #565E63",
"Y  c #43636B",
"T  c #4B656C",
"R  c #496268",
"E  c #5A666C",
"W  c #586569",
"Q  c #4C6972",
"!  c #486975",
"~  c #526D75",
"^  c #5B6C72",
"/  c #576F7A",
"(  c #5C747C",
")  c #577078",
"_  c #6A6A65",
"`  c #6C6B6B",
"'  c #646A69",
"]  c #6C7369",
"[  c #747669",
"{  c #636D72",
"}  c #61757D",
"|  c #6A767C",
" . c #777877",
".. c #746A67",
"X. c #766956",
"o. c #883D00",
"O. c #874901",
"+. c #914500",
"@. c #8B5404",
"#. c #995904",
"$. c #8B5314",
"%. c #A65C03",
"&. c #966400",
"*. c #A56501",
"=. c #B56703",
"-. c #BC711C",
";. c #B06D0E",
":. c #855B29",
">. c #8D5A33",
",. c #886436",
"<. c #956E2F",
"1. c #BC7627",
"2. c #B97D36",
"3. c #A6742C",
"4. c #C0721E",
"5. c #C27A25",
"6. c #8B6A42",
"7. c #947754",
"8. c #A47C45",
"9. c #8B796B",
"0. c #7A847C",
"q. c #B8853C",
"w. c #B8821E",
"e. c #C58539",
"r. c #D0973A",
"t. c #9B8858",
"y. c #95804F",
"u. c #B88947",
"i. c #A98C59",
"p. c #B48C58",
"a. c #B9935A",
"s. c #AD8C52",
"d. c #998464",
"f. c #988675",
"g. c #908F7B",
"h. c #A88D68",
"j. c #B99665",
"k. c #B99B78",
"l. c #AB8E71",
"z. c #B1A87E",
"x. c #CB944C",
"c. c #C79547",
"v. c #D4974C",
"b. c #C99A57",
"n. c #D39D54",
"m. c #C58C40",
"M. c #D6A45C",
"N. c #D9A65C",
"B. c #DBAA5E",
"V. c #D8A454",
"C. c #D2A258",
"Z. c #C29767",
"A. c #CAA366",
"S. c #DAAA62",
"D. c #D6A965",
"F. c #DDB26C",
"G. c #D6B16C",
"H. c #D7B97A",
"J. c #C8B07A",
"K. c #E0AE63",
"L. c #E3B165",
"P. c #E7B869",
"I. c #E3BB74",
"U. c #E6BD76",
"Y. c #E7C37C",
"T. c #EBC67C",
"R. c #F1CA7D",
"E. c #5C7683",
"W. c #477284",
"Q. c #647982",
"!. c #6B7D85",
"~. c #657C87",
"^. c #777E83",
"/. c #6E818A",
"(. c #65808D",
"). c #74858D",
"_. c #7A8387",
"`. c #7B8A92",
"'. c #758790",
"]. c #858585",
"[. c #8B8A8A",
"{. c #958C88",
"}. c #878E94",
"|. c #859299",
" X c #9C9C9C",
".X c #959494",
"XX c #92918D",
"oX c #A49E9D",
"OX c #AA9987",
"+X c #ADA291",
"@X c #979DA2",
"#X c #9AA4AC",
"$X c #A4A4A4",
"%X c #ABABAC",
"&X c #A7A8A9",
"*X c #ADB2B5",
"=X c #B4B4B4",
"-X c #BDBCBC",
";X c #BAB8B5",
":X c #B7A7A1",
">X c #CCBC87",
",X c #D3B191",
"<X c #CAB4A4",
"1X c #D8C487",
"2X c #ECCB84",
"3X c #E7CB87",
"4X c #F1CD82",
"5X c #ECD28C",
"6X c #EAD188",
"7X c #F2D58D",
"8X c #F7D588",
"9X c #ECD591",
"0X c #EED895",
"qX c #F5DC94",
"wX c #F9DE95",
"eX c #F1D690",
"rX c #EFCE94",
"tX c #F9E299",
"yX c #FFE99F",
"uX c #FAE197",
"iX c #DBC2A5",
"pX c #FEEAA3",
"aX c #FDEBB5",
"sX c #E6CEB2",
"dX c #B7BEC0",
"fX c #BDC2C5",
"gX c #C5C5C5",
"hX c #CBCBCC",
"jX c #C6C5C6",
"kX c #CED1D2",
"lX c #D3D3D3",
"zX c #DBDBDB",
"xX c #D8D7D7",
"cX c #D0CFCC",
"vX c #E3E1DC",
"bX c #FAEED2",
"nX c #E4E5E5",
"mX c #EAE9E9",
"MX c #F8F5F0",
"NX c #E4DBD3",
/* pixels */
"                          =X1 . . . . . . .  X        hXJ . . . . . . . ].mX      zX_ . . . . . . . ] lX                        ",
"                          =X1 . X < < < . . XXvX      -XL . . + + + . . _.xX      hX' . . + - < . . ` lX                        ",
"                          ;X1 . R { { E x f | $X;X-X=XXXK ; > l l l : : ' @X;X-X=X.XU : : k K W m . ` lX                        ",
"                          =X1 & | `.`.'.} Y x , o o @ k A S S Y S S S S n 5 @ o @ g Z S S Y (.'.E . ` lX                        ",
"                          =X1 O ( ).`.`.).} Z O . . . l ) E.( ( ( ( ( } T ; . . . ; b ! ) E.`.`.^ . _ kX                        ",
"                          =X1 . b ) ).`.`.`.} S v j c ~ /.'.).).).).'.).!.I z h z c b Q Q.'.`.`.E . _ kX                        ",
"                          ;X1 . h ! } /.`.`.).) Q T ~ Q.`.`.`.`.`.`.`.`.).( Q ! ~ Q Q ) ).`.`.).I . ` lX                        ",
"                          =X1 . c T Q ~ /.`.'.)./.!././.'.`.`.`.`.`.`.`.`././.!.Q./././.`.`./.) z . ` lX                        ",
"                          =X1 . z S A Y ( ).`.`.`.`.`.`.`.).).`.`.).`.).`.`.`.`.`.`.`.`.`.).( S ; . ` lX                        ",
"                          =X1 . ; k z A ( ).`.`.`.`.`.`.`.`.`.'.'.`.`.`.`.`.`.`.`.`.`.).!.) K l . . ` lX                        ",
"                          ;X1 X . - k Y } ).`.`.`._.`.`.`.`.`.`.`.'.`.`.`.`.'.'.).`.`.).) S g + . . ` xX                        ",
"                          ;X1 . . l I ) /.`.'./.Q.E.E.E.E.~.'.`.`.`./.Q.E.E.E.) ( /.`.).Q.T x , . . ` lX                        ",
"                          =X1 . l Y ( ).`.`./.! C B C B G ~ /.`.}.`.~.! B C B M C / ).`.'./.~ b & . ` xX                        ",
"                          =X1 . v ~ /.`.`.).Q.' _ ] 0.] _ { !./././.} ' _ ] 0.0.0.| /.'.`.`./.) d . ..lX                        ",
"                          =X1 . v ~ ).`.~.F ] t.a.J.>XJ.j.7.^ B V F ..i.j.J.1X1X1Xz.~ G ~.`.`./.K . ` lX                        ",
"                          ;X1 . v Q /.'.E.S 9.b.I.7XtX4XL.b.[ D N Y d.C.Y.8XtXpXuX>X[ C E.`.`.`.T . _ lX                        ",
"                          =X1 . c ! E.Q.[ 9.a.I.4XuXyXwXR.H.z.z.z.z.J.Y.4XwXyXyXyX9Xz.z.0.E.).`.^ . _ lX                        ",
"                          =X1 . c S C Q d.b.I.7XtXtXtXwXwXwXqXqX0X0XqXqXtXwXtXtXuXtXtX1Xg.D E.`.^ . _ kX                        ",
"                          ;X1 . b A M I h.I.4XuXyXtXtXtXtXyXtXyXtXyXtXyXtXtXtXtXtXyXyX0Xg.N F (.I . _ lX                        ",
"                          -X1 . c C M A z.eXtXyXyXyXyXyXyXtXtXtXtXtXtXyXyXyXyXyXyXyXyX0Xg.M N Q k . ` lX                        ",
"                          &X2 . c Y A ` J.9XwXeX0X9X9X9X7XqXwXtXtXtXqXeX9X5X9X0X9XuXqX3Xl.R D S d . ` lX                        ",
"                      cXoX_ o % B ^ d.j.A.G.A.a.i.i.a.a.b.H.eXtXtXtX2XD.b.a.i.i.s.a.C.A.Z.h.9.R s . ` zX                        ",
"                    nXXX. . . : M [ j.S.v.2.*.O.0 0 w +.=.b.2XtXpXwXY.e.%.o.q 0 w O.;.q.V.M.h.T s . ` lX                        ",
"                  zX*X' . . 3 d d X.b.L.n.5.2.h.i.s.s.a.M.I.rXpXpXtX5XF.b.s.s.s.i.a.A.N.L.K.i.K % . J $XcX                      ",
"                zX].4 k b A A j % p u.L.B.V.F.5X9X5X5X7X0XtXtXpXyXtXwXqX0X5X3X5X5XqXqX8XY.N.8.1 . . . . ' jX                    ",
"              mX=X4 . d Y Y Y h & i 8.b.M.S.U.8XtXaXaXpXrX3X3X3X2X3X3X3X0XaXaXaXyXtXtX6XF.u.:.# X g , . . @XnX                  ",
"            kX.X' k d v S S D A c x i a s.S.P.P.rXbXMXcXl.3.u.x.x.x.2.<.+XvXMXbXpXwX4XG.s.u # . g ` ( c d K ^.<X                ",
"            *X. . c ! T R Y R T T c = . <.n.V.r.,XbXMXgX6.9 *.1.5.2.#.e l.vXMXbXqXT.D.u.p . . + U ^.`.E.I X . ].vX              ",
"            =X. . v Q ( Q.Q.} ( Q A j : p 6.3.%.p.iXNX,Xp.q.D.U.U.I.G.A.>XsXNXiXA.s.3.,.H d c E !.`.`.^.Q.I k {  XgX            ",
"            =Xo . v Q !.`.`.'.!.T D S D k @ $ 0 >.x.D.S.N.P.7XtXtXtXtXtXqXY.D.2.u 8 $ < k I Q.'.`.`.`.`.'.`.'.^ O _ lX          ",
"        zXkX.Xg : T } ).`.|.`./.T S Q ~ B = * = i <.1.q.c.Z.H.1X1X1X1X1XG.c.*.O.6 % % s v Y E.!.!.~.~.'.`.|.|.) . ,  XlX        ",
"         .` W n Q /.'.`.`.`.`./.Y S E.(.! N M M H p O.O.u >.,.6.6.,.,.,.:.O.w J v M v A A Y T Q ~ Q E.!.`.|.`.!.Y l 3 ` jX      ",
"        . . ; Y Q.'.|.`.'.^.!.( ! ^ _.XXg.] ] { X.P $.+.u y w w w w u >.,.,.,.X._ { Q T D D S S b c Y ( ).'.).0.! b . O &XnX    ",
"        . . : A E.'.`.`.'.{ L I W.^.OXZ.j.j.p.p.p.u.8.8.8.u.u.2.2.u.b.J.H.>X>XA.a.f./.W.G N v D z , 3 R ) ( ) ~ S ! ( ).}. XoX  ",
"        . + l Y ( ).`.`.!.U . x ~.XXA.K.S.D.S.S.K.S.S.S.K.K.S.S.M.D.T.wXyXyXuXR.S.k.XX(.) R R R z - + k Z S D b v ) #X*X}.< .   ",
"        . - K ( ~.'.`.|.!.I . i h.OX>XT.R.T.2X2XT.4X2X2X2X2X2X3X2XT.7XtXyXpXtX8X2XH.k.l.h.d.[ R h l 3 3 g c S j . I fXvX%X. .   ",
"        . < E ).`.'.`.`.).A X u x.F.5XwXqXwXwXqXwXqXqXqXqXqXqXqXqX0XqXtXtXtXwXtXtX2XG.M.N.A.d.R N S n , X m S j . L lXMXgX4 .   ",
"        . < ^ `.}.`.'.).Q.z X ,.D.R.wXwXtXpXpXqXwXpXtXtXqXpXpXtXtXtXpXqXwXuXuXtXtX7XY.L.L.B.h.) G F Z l , > c W ].$XjXlX-X X[.  ",
"        . < E `.`.`.).E.Y s . y.3XwXwXwXpXqXwXpXqXpXtXwXtXtXqXpXtXtXtXtXtXtXtXtXtXtXqX4XP.B.l./.W.Y S b b & . [.xXnX$X_ %XzX    ",
"        . < E `.`.`.).~ A * . t.3XpXpXtXqXtXqXwXqXtXwXtXtXqXtXqXuXuXtXtXqXqXtXuXtXtXtXeXY.N.k.XX/.Q S S S & . XXnXnX$XH =X      ",
"        . < E '.`.`.'.W.b * . t.5XpXpXwXwXtXqXtXtXtXqXqXtXtXtXtXtXtXtXtXtXtXqXtXqXpXtX9XI.M.A.k.f.' C F R f . J [.$X=XjXmX      ",
"        . < W `.|.`.!.E.A * . t.6XtXtXuXtXwXtXtXqXtXpXqXtXqXqXtXtXqXtXqXqXtXtXtXtXtXtXqXY.M.B.B.a.[ B C Z k + . . ' hX          ",
"        . < E `.`.`.~.Y d . . t.9XpXtXwXtXtXqXtXtXtXqXtXtXtXtXtXtXqXtXqXtXtXuXuXuXpXtXqXP.M.V.B.j.[ B C I f . H ].=XmX          ",
"        . < E `.|.`.!.Y j X . t.9XpXyXwXqXqXtXtXqXtXtXtXtXqXqXtXtXtXtXtXqXtXwXtXtXtXtXqXY.B.B.B.a.[ B D Z & . ].lX              ",
"        . . I /.!.!.`.@X|.!.U 9.>X5XqXtXpXtXqXtXtXqXtXtXqXwXtXwXtXtXtXtXtXtXwXqX9XeX8X6XI.N.B.B.j.[ B D I . . XX                ",
"        . . l ^ E.E.@XkXnXhX&X[.7.s.3XtXpXuXtXtXtXtXtXqXqXpXqXtXtXtXtXtXtXpXtX3XI.I.I.Y.S.B.K.F.j.[ B D Y . . ].mX              ",
"        J H x b W.^.*XnXMXzX*X`.p :.H.qXwXqXqXtXtXqXtXqXpXwXtXwX0XqXqXwXqXuXqXU.M.n.n.M.N.S.B.C.p.] B B Z f 4  XmX              ",
"        kX-X .. !.hXzXkXdX#X^...8.u.G.Y.3X3X6XqXtXtXpXtXqXpXtXwX5X3XU.Y.3XY.Y.I.B.m.&.*.n.S.c.*.,.U C ; > XXjXnX                ",
"            $X.  XmXmX&XC * O ,.b.D.S.S.N.S.I.qXtXtXtXtXwXtXpXqXY.S.M.S.S.B.S.G.D.u.t $.x.S.q.w r I v . 2 =X                    ",
"            lX$X=XlXfX^.. . 0 3.M.L.S.N.n.C.F.T.5X5X2X2X2X6X6X2XF.M.C.M.M.M.C.c.u.k.:XoXl.u.OX$X}.I d c Q.%XxX                  ",
"                jX].H & $ w *.m.M.D.S.S.M.M.D.F.F.F.F.L.F.F.F.F.D.N.N.M.B.S.M.;.$.:XmXzX].r *XmXhXW * '.#X}.` %X                ",
"                lXH . . o w ;.e.v.M.S.S.S.S.S.M.M.M.M.M.M.V.M.M.N.S.S.N.B.F.M.&.7 oXnXvX{.i <XMXxX9.p .X%X` .  .nX              ",
"                xXJ . . X $ q <.2.v.n.D.S.D.S.M.M.M.M.M.M.N.M.M.D.M.S.D.S.L.S.<.. ..:X,Xj.p.,XsXiXb.u.j.l.p . ].nX              ",
"                hX` . X # . . q %.2.v.S.S.M.S.S.M.S.B.S.S.S.S.B.N.S.S.N.S.S.b.6.$ 0 %.4.v.K.B.V.B.S.N.e.=.9 . }.nX              ",
"            zX=X X}.9.p e o.$.t e @.2.x.v.x.n.S.S.S.S.S.D.M.S.M.S.S.S.F.N.u.8.:.O.&.4.r.N.K.B.n.V.S.S.V.e.o.. ^.nX              ",
"            =X2 W #X=X7.=.=.-.$.8 8 $.5.5.-.m.N.F.S.S.S.M.S.S.D.S.B.L.S.a.a $ w ;.e.V.V.S.S.K.N.B.S.S.L.V.#.. ].nX              ",
"            jX].!.}.oX<X,XZ.3.>.' W p o.o.+.%.3.u.c.n.S.B.S.S.S.N.n.x.u.<.. . @.e.v.n.n.n.n.Z.n.C.B.M.c.u.t.[.-X                ",
"              nX*XH | lXmX<Xr P @X@XP o o # # # q *.e.n.S.F.L.S.x.e.*.0 . . . 3.N.V.m.2.5.2.5.5.x.B.C.@.8 oXnX                  ",
"                lX .^.xXmX&XO H @X#X_.U U U W I P >.*.w.b.n.C.c.1.*.>.U I T ..i.C.c.5.;.-.;.;.;.e.c.a.a ^ fX                    ",
"                  xX<X*X}.K . X g _.=XkXlXkXkXkXfX9.7 7 y y y y 7 7 f.fXxXxXhXOXy +.=.4.-.-.4.4.*.t 6.&XkX                      ",
"                    mX.X. . @ . .  .xX            $X. . X + + X . @ %X        *X5 7 *.-.-.-.1.-.+.# { lX                        ",
"                      jX$X%X;X%X%XgX              xX*X%X*X*X*X*X*X*XzX        nX=X{.6.O.O.$.O.O.9.oXgX                          ",
"                                                                                  jX... o $ . # .XnX                            ",
"                                                                                  zX' . . . . . @X                              "
};
