/* XPM */
static char *e70eafcad8a7453c8c86ad9dd22e5e5cYc2YNfoheP1aHuJh[] = {
/* columns rows colors chars-per-pixel */
"64 64 208 2 ",
"   c None",
".  c #000000",
"X  c #0B0403",
"o  c #00000C",
"O  c #090A0A",
"+  c #170200",
"@  c #1A0400",
"#  c #000014",
"$  c #020D11",
"%  c #00051D",
"&  c #041319",
"*  c #0D1A1D",
"=  c #081416",
"-  c #171616",
";  c #1D1C1B",
":  c #111C1F",
">  c #2F0000",
",  c #390000",
"<  c #2A1801",
"1  c #341B00",
"2  c #3A1D02",
"3  c #231C17",
"4  c #392004",
"5  c #00022F",
"6  c #001726",
"7  c #121F22",
"8  c #000430",
"9  c #001539",
"0  c #06232A",
"q  c #142124",
"w  c #14292E",
"e  c #19262A",
"r  c #002C35",
"t  c #002E3A",
"y  c #062A35",
"u  c #1D2E32",
"i  c #00323C",
"p  c #1C3136",
"a  c #1C353B",
"s  c #19343A",
"d  c #252C2D",
"f  c #252727",
"g  c #22353A",
"h  c #25393F",
"j  c #253539",
"k  c #363A3B",
"l  c #2B2D30",
"z  c #4B0D00",
"x  c #720000",
"c  c #601100",
"v  c #452000",
"b  c #493219",
"n  c #774000",
"m  c #65460D",
"M  c #514D3F",
"N  c #694D2C",
"B  c #795C2F",
"V  c #002C40",
"C  c #003542",
"Z  c #003A44",
"A  c #00354B",
"S  c #1E3C44",
"D  c #133B42",
"F  c #243C42",
"G  c #2A3F45",
"H  c #393D40",
"J  c #13444D",
"K  c #004A58",
"L  c #1D4B55",
"P  c #184A53",
"I  c #00434D",
"U  c #234046",
"Y  c #254349",
"T  c #2C444A",
"R  c #28484F",
"E  c #3D4143",
"W  c #31484E",
"Q  c #35474B",
"!  c #234D55",
"~  c #2C4D54",
"^  c #214F58",
"/  c #324D53",
"(  c #3B4E56",
")  c #24515B",
"_  c #2D535C",
"`  c #33545C",
"'  c #3A555C",
"]  c #36555C",
"[  c #355A62",
"{  c #3B5D65",
"}  c #3E5F68",
"|  c #325965",
" . c #285561",
".. c #3E6169",
"X. c #484A4A",
"o. c #42545B",
"O. c #4B5559",
"+. c #595857",
"@. c #5C5546",
"#. c #425F66",
"$. c #485E65",
"%. c #525E64",
"&. c #5B5F60",
"*. c #43636B",
"=. c #4A666E",
"-. c #54636A",
";. c #5A666C",
":. c #5D6365",
">. c #4D6971",
",. c #486770",
"<. c #536D75",
"1. c #596F77",
"2. c #597077",
"3. c #567078",
"4. c #5B737B",
"5. c #6D6C6C",
"6. c gray39",
"7. c #656E72",
"8. c #61767E",
"9. c #667A7F",
"0. c #737575",
"q. c #767B7D",
"w. c #706966",
"e. c #884703",
"r. c #8B5315",
"t. c #965100",
"y. c #AA6800",
"u. c #B56605",
"i. c #B66C17",
"p. c #BB711E",
"a. c #9A5F20",
"s. c #905E33",
"d. c #8E6D39",
"f. c #B76F20",
"g. c #A37839",
"h. c #B87224",
"j. c #C0792A",
"k. c #C17D31",
"l. c #8D7042",
"z. c #997844",
"x. c #92705E",
"c. c #A57F43",
"v. c #B98A3E",
"b. c #C7853B",
"n. c #AC8447",
"m. c #BA8D4E",
"M. c #BA9254",
"N. c #CB944C",
"B. c #CF9147",
"V. c #C79955",
"C. c #D69E54",
"Z. c #D29146",
"A. c #DCA65B",
"S. c #D6A65E",
"D. c #DEAD63",
"F. c #647A81",
"G. c #6B7E86",
"H. c #6E8188",
"J. c #7D8183",
"K. c #74858D",
"L. c #78888F",
"P. c #778890",
"I. c #788890",
"U. c #7A8991",
"Y. c #7B8A92",
"T. c #798A92",
"R. c #7D8C94",
"E. c #7D8E96",
"W. c #798991",
"Q. c #7F8F98",
"!. c #838484",
"~. c #8E8D8D",
"^. c #8D8C8C",
"/. c #86898A",
"(. c #908E8E",
"). c #91908F",
"_. c #8A8E92",
"`. c #908F90",
"'. c #8C959A",
"]. c #929292",
"[. c #999898",
"{. c #9A9999",
"}. c #9C9C9C",
"|. c #959899",
" X c #A49994",
".X c #9E9FA0",
"XX c #8D9AA2",
"oX c #98A0A6",
"OX c #A4A4A4",
"+X c #ABABAC",
"@X c #A0A9AD",
"#X c #B3B3B3",
"$X c #BCBCBC",
"%X c #B8B8B7",
"&X c #A9B1B6",
"*X c #C0BFBE",
"=X c #C5C4C4",
"-X c #CACBCC",
";X c #C6C8C9",
":X c #D0CFCE",
">X c #D0D0CF",
",X c #CED0D1",
"<X c #D3D3D4",
"1X c #DBDBDB",
"2X c #E0DFDF",
"3X c #E5E5E5",
"4X c #EAEAEB",
"5X c gray96",
/* pixels */
"                    ].. . f e 7 . . k #X        }.. . $ * * o . * OX        +Xd . & d q & . . {.                                ",
"                    ~.. 0 -.%./ D i ( ^.#X$X$X+Xq.S t U U Y S r U J.        J.T Y -.-.o.U . . {.                                ",
"                    ~.. ( K.G.>.| ..#.W e + @ d / ......*.} } #.../ d + + f T ..4.P.K.4.[ . . [.                                ",
"                    ~.. o.E.T.F.3.>.{ C . . . o { 4.F.4.4.4.4.F.4.' . . . . ~ 4.H.R.T.4.{ . . {.                                ",
"                    ~.. o.T._.T.G.<.[ _ _ ! L { 8.K.L.K.K.K.K.K.K.4.] P P ` 4.K.Y.E.K.4.{ . . [.                                ",
"                    ~.. T G.T.E.K.8.>.>.<.>.>.4.G.T.R.Y.U.I.Y.R.T.G.2.>.,.<.H.T.T.K.G.<.{ . . [.                                ",
"                    `.. r 3.G.T.R.K.G.G.G.G.G.G.L.U.Y.U.I.U.U.Y.T.K.H.G.G.H.L.Y.K.4.>.,.{ # . [.                                ",
"                    `.. . | 3.G.I.Y.U.I.I.I.Y.I.L.L.L.I.I.I.I.I.L.L.T.L.T.T.T.L.8.=.{ *.[ . . [.                                ",
"                    (.. . s ' <.G.K.T.R.I.R.I.U.I.I.I.I.I.I.I.I.T.T.T.Y.R.U.G.8.<.*.` ~ h . . [.                                ",
"                    ].. . . a ] <.G.I.R.I.I.I.I.I.I.I.I.I.I.I.I.K.T.L.L.Y.K.8.#.{ #.' g . . . [.                                ",
"                    ].. . 0 W *.4.G.I.U.I.I.I.I.I.I.I.I.I.I.I.I.I.L.T.L.U.K.F.<.,.#.[ T w . . {.                                ",
"                    ).. . ~ -.G.K.I.I.I.I.I.I.I.I.I.I.I.K.I.I.I.I.L.T.L.L.L.K.K.4.*.] [ ' . . [.                                ",
"                    (.. 6 ,.F.K.R.Y.I.I.I.I.I.I.I.I.I.I.I.I.I.I.I.I.I.I.I.I.Y.Y.G.1.*.=.} # . [.                                ",
"                    ~.. U G.K.T.U.I.I.I.I.I.I.I.I.I.I.I.I.I.I.I.I.I.I.I.I.I.Y.T.P.G.8.<.{ o . [.                                ",
"                    ^.. ( K.R.T.I.I.I.I.I.I.I.I.I.I.I.I.I.I.I.I.I.I.L.I.I.L.I.I.T.R.K.3.[ . . [.                                ",
"                    ^.. o.T.Q.T.K.I.I.I.I.I.I.I.I.I.I.I.I.I.I.I.I.I.I.I.I.I.I.I.R.R.K.3.[ . . [.                                ",
"                    ~.. ( L.R.T.L.T.L.T.K.L.I.I.I.I.I.I.I.I.I.I.I.I.I.I.I.I.I.I.T.T.K.2.{ . . [.                                ",
"                    ~.. Y G.K.L.T.L.L.T.T.L.I.I.I.L.I.I.I.I.I.I.I.I.I.I.I.I.I.I.Y.L.K.2.[ . . {.                                ",
"                    (.. 6 =.9.K.T.L.T.L.I.I.I.I.I.I.I.I.I.I.I.I.I.I.I.I.I.I.I.I.Y.Y.K.4.[ . . .X                                ",
"                    ).. o { 2.K.T.T.L.L.I.I.L.I.I.I.I.I.I.K.I.I.I.L.I.I.L.I.I.L.L.L.G.1.{ o . (.2X                              ",
"                    [.. o { 4.K.Y.Y.I.L.I.P.I.I.I.I.I.I.L.I.I.I.I.I.I.I.L.I.Y.Y.K.8.1.,.#.r . +.].=X                            ",
"                    (.. o { 4.K.Y.T.I.T.I.I.I.I.L.I.I.I.I.I.I.I.I.I.I.I.L.L.Y.T.G.=.{ *.{ T $ . . 5.<X                          ",
"                1X#X5.. . T *.7.G.L.T.Y.I.I.I.I.I.I.I.I.I.I.I.I.I.I.I.I.T.T.K.G.4.*.[ / Q W T o . Q }.>X                        ",
"              1X!.f . . . $ G ' 1.K.Y.T.I.I.L.I.I.I.I.I.I.I.I.I.I.I.I.U.E.K.8.=.*.*.[ a = G ' | _ ~ j 6.=X                      ",
"            3X#Xk . . u e q S _ =.8.K.K.L.Y.T.U.L.L.L.I.I.L.I.I.I.I.I.I.K.G.<.{ [ ' / u w T *.>.3.{ . . [.1X                    ",
"          <X].:.Y i J ~ / / ' { } =.1.G.L.R.Y.Y.Y.L.I.I.I.I.I.I.I.Y.R.K.F.<.=.{ ~ p u T ' [ } 3.G.F.` Z O.!.*X                  ",
"          +X. . [ >.,.=.*.*.*.*...[ { 4.K.L.K.K.L.I.I.I.I.I.I.I.I.Y.I.G.>.{ { #./ 7 q ' *...} 4.K.P.F.... . /.1X                ",
"      $X+Xq.# C 4.F.H.F.3.*.....{ { { >.4.8.4.8.G.L.Y.I.I.I.I.U.I.G.8.<.{ | { } ' T W [ *.} ..4.I.T.K.F.! # O.[.=X              ",
"      l k W { 4.H.T.T.K.8.*.{ *.*.*.*...*.{ { =.G.I.Y.I.L.I.I.Y.T.F.,.[ { { { *.} { #.#.#.[ } 1.K.R.T.K.F.*.Z . 5.:X            ",
"      . . U 3.H.T.E.L.G.-./ / { *.{ { [ ] { =.4.G.I.Y.I.I.I.L.Y.L.G.2.-.4.1.=.{ { *.*.*.} ' ~ $.8.H.R.R.F.>.Z . j OX1X          ",
"      . $ %.K.R.R.K.F.=.W q g [ *.{ { | [ >.G.K.I.I.I.I.I.I.I.I.T.K.K.K.K.G.1.{ [ *.*.*.{ T 7 F #.4.K.T.F.*.) ^ / X.0.=X        ",
"      . & ;.T.E.K.G.=.~ s * h ] *.=.>.=.,.8.K.Y.Y.I.I.I.I.I.I.I.L.T.Y.Y.E.L.F.>.*.#.} *.{ T 7 w R #.8.K.F.<.>.,._ . . +X        ",
"      . . -.E.Y.F.-./ s F ~ ` ` *.8.G.G.G.G.I.I.I.I.I.I.I.I.I.I.L.T.T.T.Y.I.K.G.1.#.| } #.[ / Y s G $.4.F.G.G.3.L . . +X        ",
"      3 E 7.K.G.,.~ 0 . T *...{ >.G.I.U.U.I.I.L.I.I.I.I.I.I.I.I.L.L.I.I.L.L.Y.U.G.>.{ #.#.*.*./ * $ Y *.F.I.H.<._ . k #X        ",
"      $X#X_.;.( Y y . . F { >.3.G.K.R.R.Y.U.I.I.I.I.I.I.I.I.I.I.I.I.I.I.L.I.Y.Y.K.F.1.#.[ ..*./ . . Y ..3.F.<.K #.|.$X*X%X%X    ",
"          #Xl . . . . . F [ 1.K.I.I.I.I.I.I.I.I.I.I.I.I.I.I.I.I.I.I.I.L.I.I.I.I.R.I.G.<.{ } *./ * = / *.=.*.) A F.<X5X;X+..     ",
"          %X. . & p w h o.<.G.K.R.U.I.I.I.I.I.P.I.I.I.I.I.I.I.I.I.I.I.I.I.I.I.I.R.R.K.F.<.,.#.' F g W / ! ) 1.'.&X,X1X$X~.5.    ",
"          #XO . R ' ` o.1.G.K.L.I.I.I.I.I.I.I.I.I.I.I.I.I.I.K.I.I.I.I.I.I.I.I.I.I.I.I.K.G.1.*.[ { / j q 6 I XX1X3X+X5.+X1X4X    ",
"          #X- . [ ....,.8.T.Y.Y.I.I.I.I.I.I.P.I.I.I.I.I.I.I.I.P.I.L.I.I.I.L.I.I.I.I.I.Y.I.F.*.} *.{ p = r #.@X3X3X}.X.#X        ",
"          #X- . [ ....=.G.Y.Y.L.I.I.I.I.I.L.I.I.I.I.I.I.I.I.I.I.I.I.I.I.I.I.I.I.I.I.I.R.I.F.*.{ *.{ R / F.XX.X.X.X#X=X4X        ",
"          #X- . ` *.{ *.8.T.Y.T.I.I.I.I.I.I.I.I.I.I.L.I.I.I.I.I.I.I.I.I.I.I.I.I.I.I.I.U.K.8.#.} ..{ _ *.'.&X'.l +.-X            ",
"          #X- . | ..{ *.9.T.Y.T.I.I.I.I.I.I.I.I.I.I.I.I.I.I.L.I.I.I.I.I.I.I.I.I.I.I.I.U.K.8.*.[ } ..{ ,.F._.'.].#X3X            ",
"          #X- . ` *.{ *.9.T.Y.T.I.I.I.I.I.I.I.I.I.P.I.I.P.I.I.I.I.I.I.I.I.I.I.I.I.I.I.R.K.8.*.[ } ....} C e (.1X                ",
"          #X- . ` *.{ *.4.G.K.I.I.I.I.I.I.I.I.I.I.I.I.I.I.I.I.I.I.L.I.I.I.I.I.I.I.I.I.R.L.F.*.} } *.=.} . . (.                  ",
"          #X- . ` *...*.=.<.F.I.R.R.I.I.I.I.I.I.I.I.L.I.I.I.I.I.I.I.I.I.I.I.I.I.I.I.Y.R.I.F.*.[ } #.=...# o (.4X                ",
"          #XX . ] *.*...[ { <.G.I.I.I.I.I.I.I.I.I.I.I.I.I.I.I.I.I.I.I.L.I.I.I.I.I.I.I.I.G.8.*.{ } *...[ # . (.3X                ",
"          +X. . _ ,.=.} [ { =.<.F.K.R.U.I.I.I.I.I.I.I.I.I.L.I.I.I.I.I.I.I.K.I.I.I.R.I.G.8.>.#.*.*.{ L Z . . ].3X                ",
"          #X. . | *...#.#.#.#.{ >.G.I.U.I.I.I.I.I.I.I.I.I.I.I.L.I.I.P.I.I.I.I.I.R.Y.G.1.#.[ #.*.*.[ S . . . ].3X                ",
"          <XOX0.Y t ) =.*.*...[ *.4.G.K.K.T.L.L.L.I.I.I.T.L.L.L.I.I.I.T.L.L.T.T.K.H.4.=.[ { *.{ ` X.N n > . /.3X                ",
"              $XE . Z =.=...*...*.*.>.F.L.T.T.L.L.I.I.I.L.L.T.L.I.L.I.K.T.L.Y.T.H.2.*...{ ..*.! t b a.i.x . J.3X                ",
"              2X[.+.o.] _ _ _ _ _ | *.8.L.Y.Y.T.U.U.T.T.L.Y.T.T.T.I.T.T.L.L.K.K.8.*.| { *.*.*.P . , e.u.s.w.+X4X                ",
"                4X-X!.6 . 9 8 8 V L *.F.L.E.Y.Y.Y.Y.Y.Y.Y.Y.T.T.Y.Y.T.T._.T.G.1.=.#.....*.>.=.J . . . c  X,X4X                  ",
"                  3X~.. . < 1 < l Q *.4.K.T.P.K.L.K.L.K.T.K.L.L.L.K.L.L.T.K.4.*.[ *...{ { #.{ ' E f . X.$X                      ",
"                <X+X%.. m g.n.n.z.M A | F.F.F.F.8.8.8.8.8.8.8.8.8.8.8.8.9.8.>.{ ..*.{ i o . . 7.+X$X#X$X3X                      ",
"              <X0.. o < g.S.D.S.V.B o A } =.*.*.*.*.=.*.*.=.*.*.*.=.*.*.*.*.*.*.*.=.] 0 . . . ].3X                              ",
"              ;XH . 2 d.m.C.A.A.V.g.B X.J K | { { { { { { { { { { { { } ..[ ! Z i r ' J.].^.~.=X                                ",
"              -XO.> g.V.N.b.b.h.B.N.M.l.6 9  .=.*.*.*...*...*.*...*.*.*.*.{ i . . . +.=X4X4X4X                                  ",
"              -XO.z m.A.B.i.u.u.k.C.S.n.m k ( [ | _ ` ` ` ` _ ` _ ` ` _ _ ] %.6.+.X.[.3X                                        ",
"              ;XF . y.Z.b.p.u.i.h.b.B.N.V.z.@.r o . . . . . . . . . . . . r }.-X<X-X1X                                          ",
"              -X:., t.p.p.f.f.p.i.i.i.B.D.m.N o o ; ; ; ; ; ; ; ; ; ; . . +.=X                                                  ",
"              4X=X Xx.e.e.r.r.r.r.e.r.g.n.d.2 k ).#X$X#X#X#X%X#X#X#X#X#X+X$X3X                                                  ",
"                  1X(.X . 4 4 4 2 2 2 b b @ . 6.=X                                                                              ",
"                    |.. . . . . . . . . . . . 5.1X                                                                              ",
"                                                                                                                                "
};
