/* XPM */
static char *_488c68fcda64cadbd59e897540a2c9ez4gBFAp9gvIOPFig[] = {
/* columns rows colors chars-per-pixel */
"64 64 222 2 ",
"   c None",
".  c #000000",
"X  c #040307",
"o  c #000818",
"O  c #01161A",
"+  c #141B1D",
"@  c #350000",
"#  c #290C0A",
"$  c #000024",
"%  c #011C29",
"&  c #1A1E20",
"*  c #02242D",
"=  c #19292D",
"-  c #162D36",
";  c #23282B",
":  c #2A2E31",
">  c #2B3236",
",  c #2C3539",
"<  c #2A383C",
"1  c #353A3C",
"2  c #333537",
"3  c #332C2F",
"4  c #4F0C00",
"5  c #5A2700",
"6  c #583600",
"7  c #753C00",
"8  c #673100",
"9  c #680D00",
"0  c #5A4400",
"q  c #684918",
"w  c #6D5107",
"e  c #6E532F",
"r  c #635739",
"t  c #023A44",
"y  c #0E3E4B",
"u  c #323E43",
"i  c #243A41",
"p  c #0C454E",
"a  c #02444D",
"s  c #044954",
"d  c #1C4A54",
"f  c #184851",
"g  c #22454C",
"h  c #2A464C",
"j  c #3A454A",
"k  c #244C54",
"l  c #2C4D54",
"z  c #234F59",
"x  c #334D53",
"c  c #2D525B",
"v  c #28515A",
"b  c #33555D",
"n  c #39555D",
"m  c #3F5255",
"M  c #005369",
"N  c #13566A",
"B  c #355A62",
"V  c #3C5E66",
"C  c #315761",
"Z  c #275863",
"A  c #3F6169",
"S  c #2B6274",
"D  c #41575C",
"F  c #4B5459",
"G  c #485055",
"H  c #5A5C5D",
"J  c #555758",
"K  c #474D4F",
"L  c #5D6059",
"P  c #74675C",
"I  c #7E715F",
"U  c #73684D",
"Y  c #415C64",
"T  c #575E62",
"R  c #42636B",
"E  c #49656D",
"W  c #4C646A",
"Q  c #5D6164",
"!  c #59656C",
"~  c #476870",
"^  c #4D6971",
"/  c #466977",
"(  c #526C74",
")  c #5A6B75",
"_  c #557079",
"`  c #5C737B",
"'  c #636566",
"]  c #696766",
"[  c #6B6C6B",
"{  c #636969",
"}  c #746E68",
"|  c #7A776C",
" . c #636D74",
".. c #686B70",
"X. c #64747B",
"o. c #6C797F",
"O. c #697279",
"+. c #727374",
"@. c #797776",
"#. c #7C7B7B",
"$. c #787979",
"%. c #814802",
"&. c #975F17",
"*. c #8D5300",
"=. c #A85B00",
"-. c #88621E",
";. c #AE7700",
":. c #B0690D",
">. c #966535",
",. c #A87638",
"<. c #C27900",
"1. c #94744A",
"2. c #A57E48",
"3. c #837D78",
"4. c #827266",
"5. c #AB7F67",
"6. c #7C8477",
"7. c #B9873C",
"8. c #C0871B",
"9. c #C1923D",
"0. c #AD854C",
"q. c #B38A48",
"w. c #A48254",
"e. c #B38B56",
"r. c #B2935B",
"t. c #918B73",
"y. c #B28E64",
"u. c #B79470",
"i. c #968449",
"p. c #CA994B",
"a. c #C69549",
"s. c #C99B56",
"d. c #D29F5A",
"f. c #C79049",
"g. c #CFA35A",
"h. c #D6A65B",
"j. c #E2AD59",
"k. c #C69B63",
"l. c #CDA364",
"z. c #CDA56D",
"x. c #DCAB64",
"c. c #D3AB6C",
"v. c #D1A865",
"b. c #DEB26B",
"n. c #D2AC72",
"m. c #D7A379",
"M. c #DABA78",
"N. c #CBAD72",
"B. c #E3B367",
"V. c #E1B470",
"C. c #DCC37E",
"Z. c #EDC476",
"A. c #EAC47C",
"S. c #F1C87A",
"D. c #5C7985",
"F. c #667A82",
"G. c #6C7B83",
"H. c #647E8C",
"J. c #717E86",
"K. c #677F90",
"L. c #6D818A",
"P. c #73848C",
"I. c #778389",
"U. c #6B8493",
"Y. c #638496",
"T. c #738791",
"R. c #768992",
"E. c #7A8A92",
"W. c #7F8F98",
"Q. c #838482",
"!. c #8A8B89",
"~. c #928D85",
"^. c #959289",
"/. c #9C9C8F",
"(. c #818F93",
"). c #859198",
"_. c #9B9B93",
"`. c #99999A",
"'. c #A4978A",
"]. c #9FA193",
"[. c #919BA2",
"{. c #9BA2A7",
"}. c #A5A5A5",
"|. c #A8A6A6",
" X c #A3A6A9",
".X c #B6B9BE",
"XX c #DAB58A",
"oX c #D0AA85",
"OX c #DEC789",
"+X c #EDCD86",
"@X c #E3CC8A",
"#X c #E3C884",
"$X c #F2CB81",
"%X c #EDD38C",
"&X c #E7D18A",
"*X c #E6CA92",
"=X c #E7D496",
"-X c #F6DC94",
";X c #F9DD92",
":X c #F4DB94",
">X c #F2D291",
",X c #FCE195",
"<X c #FAE299",
"1X c #FFE89D",
"2X c #F7E098",
"3X c #FFEBA2",
"4X c #FDE4A0",
"5X c #FCEAB4",
"6X c #E7D3A5",
"7X c #B9C0C6",
"8X c #CDCDCD",
"9X c #D3D4D3",
"0X c #D5D9DA",
"qX c #D9D9D8",
"wX c #D0CFCF",
"eX c #E0DBD9",
"rX c #EDE2DB",
"tX c #DFE0E0",
"yX c #E5E5E6",
"uX c #EBEBEB",
"iX c #E6E8E9",
"pX c #F9F0E3",
/* pixels */
"                                                            #.. . Q.                                                            ",
"                                                          9X#.. . +.9X                                                          ",
"                                                        }.[ o.` V n { |.                                                        ",
"                                                      yX' . X.W.` t . ] iX                                                      ",
"                                                        +.. X.R._ a . @.                                                        ",
"                                                      wX@.i G.P.( d . +.8X                                                      ",
"                                                    |.{ O.G.R.P.^ c c D H |.                                                    ",
"                                              iX  8XJ . X.).W.L.` ~ ~ f . H 8X                                                  ",
"                                            }.] +.[ x b L.W.R.R.I.F.~ c a h H |.                                                ",
"                                          8XH . . * R X.P.E.R.W.W.P.` ^ _ b . H 8X                                              ",
"                                        }.J g k ) o.L.P.P.E.R.R.W.E.P.L.P.X.B h H |.                                            ",
"                                      8X' . b D.P.W.E.E.E.P.6.o.o.G.E.W.W.P._ a . H 8X                                          ",
"                                    |.'  .F.L.P.R.R.E.E.W.I.F ; + G L.W.W.L.^ c f x Q }.uX                                      ",
"                                  8XJ . ( R.R.R.R.E.E.E.L. .< . + K  .P.R.P.` ~ ~ a . { iX                                      ",
"                                |.T s s M A L.R.R.E.E.J.G > g R X. .j K I.E.E.G.( p . @.                                        ",
"                              yX' . K | t.Q.~.!.I.P.R.o.< % Y ` W.G.j = ) I.E.P._ d . +.wX                                      ",
"                                 .. ,.N.@X@Xn.y.| / T.L.Y n o.T.E.L.E h < F P.P.( B b D ' }.uX                                  ",
"                              8X@.*.g.S.<X,XS.l.P N L.T.` _ P.E.E.L._ c . : G.R.( V E p . ] yX                                  ",
"                            {.} 0.g.%X,X<X<X,XOX6.M H.E.P.P.P.E.E.P.( l . 2 G.I.( V R d . +.yX                                  ",
"                          yXT @ s.Z.+X:X;X1X1X&Xt.' I.R.E.E.E.E.E.P.( b * j G.P.^ V R k . #.yX                                  ",
"                          yX) 0 C.+Xs.s.:X3X4X:Xv.y.!.R.R.E.R.E.E.P.( b k W P.P.^ V A k . #.yX                                  ",
"                          yXX.w &X;Xd.f.M.&X-X-XZ.n.^.U.I.R.R.I.P.G.E A ~ X.P.P.( V R k . #.yX                                  ",
"                          yX .w @X3X;XM.1.w.@X<X,X=X_.K.T.R.E.J._ A B E H.P.R.P.^ V R z . #.iX                                  ",
"                          yXO.6 N.:X1X&X0.w.@X1X,X*X/.K.T.E.E.P.( E E _ I.(.E.L.( V n f . #.yX                                  ",
"                          iX$.. q y.&X,X&X&X2X;XS.n.^.U.T.R.R.I.P.L.L.P.E.E.(.P._ b < . . #.iX                                  ",
"                          yX+.. 9 2.6X5X3X,X<X%Xv.y.!.R.I.E.E.E.E.E.E.E.E.P.P.F.E h O . . 6.uX                                  ",
"                          yXQ . ;.XXpXpX5X,X<X=Xt.{ L.E.E.E.R.I.E.E.E.E.E.P.` Y i X . . . Q.                                    ",
"                            |.4.q.XXrXpX5X;X;XOXt.N H.E.E.R.R.I.I.E.P.E.E.L.^ c - + = X . [ wX                                  ",
"                              qX@.e m.=X4X<XS.n.!.Y.T.E.E.I.E.E.E.E.P.E.E.I.^ b B b V h X # H }.                                ",
"                              9X@.8 ;.h.#X#Xl.y.t.L.T.R.R.T.E.R.E.I.E.E.E.L.^ V A ~ R A h . . ] yX                              ",
"                            {.} e.7.&.w >.1.} [ ~ ` T.W.E.E.I.R.I.P.E.E.E.L.E b A A A A V - . @.                                ",
"                          8XP w h.b.,.7 7 e G M Z R F.L.E.E.E.I.R.R.E.E.E.P.` ~ A A A A A v . +.9X                              ",
"                        }.I 7.g.%X+Xl.f.p.e.] M Z n R _ L.E.E.E.E.E.E.E.E.E.I.F.E B V R R V b D ' |.                            ",
"                      iXQ X r.S.;X<XA.B.B.l.| S ~ ^ E ) P.E.E.E.E.E.E.P.G.J.W.P.` E R V V R ~ p . [ uX                          ",
"                        ! @ C.2X<X<X-X+Xb.s.Q.D.L.L.L.L.I.E.E.E.I.E.R.G.K K P.W.R.F.E B V R R f . #.                            ",
"                      0XQ.i.&X1X<X<X<X-XA.N.'.!.E.E.E.E.P.P.P.E.E.E.E.G.< = ) I.R.P.` E R R R l . $.9X                          ",
"                    O.~.XX&X2X<X<X<X<X-X-X+Xn.u.!.E.E.L._ ` L.E.E.E.R.L.Y g < G G.E.I.F.E V V V b W +.Q.                        ",
"                    X w @X3X<X2X<X;X<X<X<X-XZ.c.^.U.R.L.D D L.E.E.R.E.P.` Y . : o.W.).P.^ V Y R ~ l . .                         ",
"                    . U @X1X<X<X2X<X<X2X<X,X;XOX/.U.R.G.j h L.W.E.E.E.I.T.O.; > o.W.(.L.^ V V R E b o .                         ",
"                    . U OX1X<X,X<X-X<X2X<X<X1X=X].Y.E.G.: ;  .P.I.E.E.R.W.F.> > G.E.E.L.^ V V R R n = .                         ",
"                    . U &X1X<X<X-X<X2X2X<X<X4X=X].U.T.F.2 O D ` P.E.E.E.W.o.> , o.E.E.L.^ V V R E b = .                         ",
"                    . e C.<X<X<X2X<X2X2X<X;X2X*X_.U.E.G.u X k ^ L.E.E.E.W.o.> > o.W.E.P.^ V V R R n = .                         ",
"                    . 5 g.+X-X<X<X2X<X4X<X-XZ.N.^.U.E.G.1 o l ^ P.E.E.E.E.G., > o.W.W.P.^ V V V R b = .                         ",
"                    J.t.e.g.#X-X2X<X<X-X-XS.b.k.~.U.W.o.2 . c ( P.E.E.P.T.X.: 1 o.W.P.F.^ V Y R E b o .                         ",
"                      9Xt.w g.A.-X<X1X-XA.x.h.l.^.U.W.F.: . c _ P.(.E.P.` D O 1 G.P.` E R A R R ~ l . .                         ",
"                      uXO.. 7.B.+X:X:X%Xb.d.v.u.!.T.R.G.F < l W H.I.E.P.^ k . 1 L.P.^ b V R R V b W O.t.                        ",
"                      iX! . a.B.V.V.V.b.h.l.'.!.E.R.R.T.J. .u - Y o.E.E._ l . 1 L.P.( V V R R l . $.9X                          ",
"                      uX|.} 0.p.h.h.h.h.j.z.~.Y.P.E.E.E.).G.: . y D ` ` R g * j o.L.^ V V R R f . #.                            ",
"                          8XP 8 a.B.x.h.j.z.^.U.R.R.E.E.W.F.. . . % . . . % l A ^ ^ R V A R ~ p . +.iX                          ",
"                            {.P 0.a.h.x.g.u.Q.K.T.R.E.E.E.E.Q.+.1 1 [ @.L F R A V V Y R R V d x Q |.                            ",
"                              8XP 7 p.v.t.{ ^ _ I.E.E.E.G.{.tX0Xo.o.0XyX.X).) B V V V R E d . H 8X                              ",
"                                {.I q.q.L s Z E F.P.I.F.D.{.yX0XI.I.0XiX7X[._ C V A R V d l H |.                                ",
"                                  8X4.X . t C / ^ _ ^ ^ / F.).W.( ^ E.).P.` E V R R ~ d . H 8X                                  ",
"                                    |.F X . k C z v B V V C s s A A s s z B A A v d p x H |.                                    ",
"                                      9X] . . % o * B R Y V B B A A A B A R E b . . . Q 8X                                      ",
"                                      qX!.3 4 9 0 r G Z v C C C b b n b k d p D +.@.] }.                                        ",
"                                  uX`. .[.`.>.=.f.e.r $ $ $ % % * * = % . . . ' 8X  uXuX                                        ",
"                                  uX^.T ).|.oXm.x.f.-.6 q q 8 8 6 4 . + [ @.] }.                                                ",
"                                      8X' ..eXrXm.;.8.9.k.s.,.:.:.*.X F 8X  yXuX                                                ",
"                                        `.!.0XqX5.:.XX*XV.f.:.=.:.&.P }.                                                        ",
"                                          9X^.2 . 4.rXpXoX=.9 X . P wX                                                          ",
"                                            `.J ' {.qX9Xu.*.4.J. .|.                                                            ",
"                                            uXiXuXqX`.J @ 4.9X  uX                                                              ",
"                                                    [ . . I.                                                                    "
};
