/* XPM */
static char *result[] = {
/* columns rows colors chars-per-pixel */
"20 20 32 1 ",
"  c #0E1A06",
". c #161616",
"X c #171616",
"o c #161716",
"O c #171716",
"+ c #161617",
"@ c #171617",
"# c #161717",
"$ c gray9",
"% c #22B04C",
"& c #23B04C",
"* c #22B14C",
"= c #23B14C",
"- c #22B04D",
"; c #23B04D",
": c #22B14D",
"> c #23B14D",
", c #6A6890",
"< c #6A6990",
"1 c #6A6891",
"2 c #6B6891",
"3 c #6B6991",
"4 c #8B87BE",
"5 c #8A86BF",
"6 c #8B87BF",
"7 c #B0B1CA",
"8 c #B1B1CA",
"9 c #B6BEDE",
"0 c #B6BFDE",
"q c #98ABE8",
"w c #98AAE9",
"e c #99ABE9",
/* pixels */
"**%&&*:**-**&=%=%>;;",
"*>=-&:=%=**:*=>%%>>=",
"&*-%:&=**%>=*=:%=%>*",
"**&-=%==>>::=*=;:%:*",
"*->:::%:*=:>&=*:%&>%",
"*-*-*-%>%=:%*=>>*;==",
":&&=*=*=*X.&&&=-;*&*",
"**;*%X$$%+2O*%&=&:;%",
"*&%&*$,1#o+2.+:&:;:;",
":*&&;%X<qewq90o*=&%>",
"-%:*-:X,466587@>=-*:",
":**;*.22o$@,o#:**-**",
"*-:%> +O*O3+-=-%***=",
"%*&==:%=&#@>&&==:**%",
"::&=-%***&%&=*::-**=",
"*&%**-*&%**=&;;:***:",
"==&*%%:=>**%=:*%%;>%",
"*:;:=-*:->:=:&:*&%*%",
">**;%-%-&*%*>>%**:*%",
"%&%*=&*>*%=&%=:%>%**"
};
