/* XPM */
static char *result[] = {
/* columns rows colors chars-per-pixel */
"20 20 77 1 ",
"  c #161616",
". c #171616",
"X c #171716",
"o c #161617",
"O c #171617",
"+ c #161717",
"@ c gray9",
"# c gray21",
"$ c #373736",
"% c #363637",
"& c #363737",
"* c #7E7E7E",
"= c #7F7E7E",
"- c #7E7F7E",
"; c #7F7F7E",
": c #7E7E7F",
"> c #7F7E7F",
", c #7E7F7F",
"< c gray50",
"1 c #92664C",
"2 c #93664C",
"3 c #92674C",
"4 c #93674C",
"5 c #92664D",
"6 c #93664D",
"7 c #92674D",
"8 c #22B04C",
"9 c #23B04C",
"0 c #22B14C",
"q c #23B14C",
"w c #22B04D",
"e c #23B04D",
"r c #22B14D",
"t c #23B14D",
"y c #D2A060",
"u c #D2A160",
"i c #D3A160",
"p c #D3A061",
"a c #D2A161",
"s c #D3A161",
"d c #44A6B0",
"f c #45A6B0",
"g c #44A7B0",
"h c #45A7B0",
"j c #44A6B1",
"k c #45A6B1",
"l c #44A7B1",
"z c #45A7B1",
"x c #4EBCB8",
"c c #4FBCB8",
"v c #4EBDB8",
"b c #4FBDB8",
"n c #4EBCB9",
"m c #4FBCB9",
"M c #4EBDB9",
"N c #4FBDB9",
"B c #60CCCA",
"V c #61CCCA",
"C c #60CDCA",
"Z c #61CDCA",
"A c #60CCCB",
"S c #61CCCB",
"D c #60CDCB",
"F c #61CDCB",
"G c #AEB0B4",
"H c #AFB1B4",
"J c #AFB0B5",
"K c #AEB1B5",
"L c #BABEC2",
"P c #BBBEC2",
"I c #BABFC2",
"U c #BBBFC2",
"Y c #BBBEC3",
"T c #BABFC3",
"R c #BBBFC3",
"E c #CFD0D5",
"W c #CED1D5",
/* pixels */
"ww80988808e9er8899tq",
"e98te9000qrrer0wqt9w",
"t9009t0 X. +@rr88trq",
"rt0r9 .bnmbxc@.teeew",
"qq8+@cmdldzffNx Xqtw",
"q0.bnYTTbNbMmzgcM@te",
"w9okjI#LkljzlmxljX80",
"8e NcUURxNbmxjhMn+e9",
"8t@hk-,*zzkzzbvdk.00",
"e8@NM;=nbmMbvdlnv qe",
"8r.kfMmFZDVFFxmgd.9t",
"9romvASjlfjhfCDbno8e",
"qr FDjz=->:-=zfABOt8",
"tqojj;<JKPYJH==dd e8",
"0r O>$a#TI4621Y- Orr",
"t8e+WypyHG3sa5WEOee8",
"8q9 L&u%YU3ii7YUOq9q",
"wq9XRLPPRI2ys3PI q0e",
"wqw9ertq9re00q99ter8",
"wee008wr98tqw8tt880r"
};
