/* XPM */
static char *result[] = {
/* columns rows colors chars-per-pixel */
"21 21 8 1 ",
"  c #22B04C",
". c #23B04C",
"X c #22B14C",
"o c #23B14C",
"O c #22B04D",
"+ c #23B04D",
"@ c #22B14D",
"# c #23B14D",
/* pixels */
"XXXXXXXoXoXXXXoXoXXoo",
"Xo..o@@oX+@#XooooX.# ",
"X#Oo@o#+#. Oooo+##XO.",
"oO+o.@@@Ooo.@@#+o##+#",
"X@@@@XX#@o@@#O@ X  + ",
"X ...+o.XoO. OX.X @ O",
"oXO.@#.ooo oO.O  O +O",
"oX###X@+@#XoXOo# X@.o",
"oX.O#+@@@OoX.O OXO+X#",
"oX#.OoX.o#+@@X.+Xo.O ",
"oo#X+o . X@OOo   @@XO",
"XX@o@+.o XXo..XOO #oo",
"XX # @X@oXXo@O @X..+ ",
"oo.X O#  @.XX OX#o #@",
"X .#.@Oo@.#OoOXoXo@O+",
"oXX+###XX OO#@ ooO@oX",
"ooOoo@. +X##@X.o #..+",
"XXoO.. OX # @##OX@. .",
"XO+.   OX# #++ O#X #.",
"o OXXo++.O#X.Oo   .#@",
"Xo.X@@@ X+oX+o.X@ #  "
};
