/* XPM */
static char *result[] = {
/* columns rows colors chars-per-pixel */
"20 20 21 1 ",
"  c #171617",
". c gray9",
"X c #A02E77",
"o c #A02F77",
"O c #22B04C",
"+ c #22B14C",
"@ c #4C3684",
"# c #4C3784",
"$ c #7D58A4",
"% c #7D59A4",
"& c #B44C90",
"* c #B44D90",
"= c #C176E2",
"- c #C177E2",
"; c #F184F0",
": c #F185F0",
"> c #FBA6FE",
", c #FBA7FE",
"< c #EEC8EE",
"1 c #EEC9EE",
"2 c #F4F4F4",
/* pixels */
"++O+++OO+O++++O+OOO+",
"O+O++++O++O+O++O+++O",
"OOO+O+O+++OOOOO++O++",
"O++++++O.  .OO++O+++",
"O+OOO.+ =,>- + +++O+",
"O++O.2 -:>>:-.2.+O+O",
"O+OO 21-:;;;-12 +++O",
"+O+ =.1$----%<.= OOO",
"+O+ == #.## #.=-.OO+",
"O+O.;=-%2$%2$--: +++",
"+++O :;@==--@:: OOO+",
"OO+OO. %@###$..+OOOO",
"+OO+O+.%==-=$ O+++++",
"++OOO+.$==-=% OO+O+O",
"OOO+++.oo&&XX.OO+++O",
"++++OO.=%**$- O+O+O+",
"++OOOO.-$  $- +O++O+",
"O++++O+  O+. OOO++O+",
"++++++OO++O+O+O+++O+",
"++++++O+++++OOOO++O+"
};
