/* XPM */
static char *result[] = {
/* columns rows colors chars-per-pixel */
"20 20 20 1 ",
"  c #171617",
". c gray9",
"X c #A02F77",
"o c #22B04C",
"O c #22B14C",
"+ c #4C3684",
"@ c #4C3784",
"# c #7D58A4",
"$ c #7D59A4",
"% c #B44C90",
"& c #B44D90",
"* c #C176E2",
"= c #C177E2",
"- c #F184F0",
"; c #F185F0",
": c #FBA6FE",
"> c #FBA7FE",
", c #EEC8EE",
"< c #F4F4F4",
"1 c #F4F5F4",
/* pixels */
"OOOOOoOOOOOoOoOooOoO",
"ooOoOOOooOooOOoOOOoO",
"oOoOOooOoooOoOOOoOOo",
"oooooOOo.  ..OOoOooO",
"oOooOoO.=::>=.OOoooO",
"ooOooO.=-->>;= OOooO",
"OOoOoO.#$<;-;*.oOOOO",
"OOOOoO $@<,#*$.OOooo",
"ooOoOo.++@,@ @.OOooO",
"OooOoOO.-;@*1$ OOOOo",
"OoooOo.-=*+=*= oOOOo",
"oOOoOo.*= $++@ OoOOO",
"OOooOo.=# $#$.OoOoOO",
"oOOoOo...@$** oOoOoO",
"OOOOOoO.&XX%& OOoOOO",
"OoOOoOo.%$=&% OOooOo",
"ooOOOoOO.#= .OoOOOoO",
"oOOOOOoOO. oOOoOoOOo",
"oOOooOOOoOOooOooOoOO",
"oOoooooOOooOoOoooOOo"
};
