/* XPM */
static char *result[] = {
/* columns rows colors chars-per-pixel */
"20 20 21 1 ",
"  c #171617",
". c gray9",
"X c #A02E77",
"o c #A02F77",
"O c #22B04C",
"+ c #22B14C",
"@ c #4C3684",
"# c #4C3784",
"$ c #7D58A4",
"% c #7D59A4",
"& c #B44C90",
"* c #B44D90",
"= c #C176E2",
"- c #C177E2",
"; c #F184F0",
": c #F185F0",
"> c #FBA6FE",
", c #FBA7FE",
"< c #EEC9EE",
"1 c #F4F4F4",
"2 c #F4F5F4",
/* pixels */
"+O++OO++++O++O+++OO+",
"+O+O+++OOO+++OO++++O",
"OO++++++++O++O+O+OOO",
"O+O+++O . . +++OO+++",
"O++++O -,>>-.++++OO+",
"+O+OO.-;,,:;=.O+++++",
"O++OO.-;;:1%%.OO+++O",
"+++++.%-$<1@$ +O+O+O",
"+O+OO.#.#<@@#.O++++O",
"O+O++.%2=#;; +OO++O+",
"++OOO --=#--;.+OOO++",
"+O+O+.##@$ =- O+++O+",
"+O+O++ $%$.$=.+++OO+",
"++++OO.=-%# ..O+O+++",
"+++++O *&oX*.+++++O+",
"O+++++.*&=%& ++OO+O+",
"O++OO+O. =% +O+OO++O",
"O+++O++++ .O++++++OO",
"+OOOOOO+++O+O+++OO+O",
"O+++O+++++OOO+O++O++"
};
