/* XPM */
static char *result[] = {
/* columns rows colors chars-per-pixel */
"20 20 22 1 ",
"  c #171617",
". c gray9",
"X c #A02E77",
"o c #A02F77",
"O c #22B04C",
"+ c #22B14C",
"@ c #4C3684",
"# c #4C3784",
"$ c #7D58A4",
"% c #7D59A4",
"& c #B44C90",
"* c #B44D90",
"= c #C176E2",
"- c #C177E2",
"; c #F184F0",
": c #F185F0",
"> c #FBA6FE",
", c #FBA7FE",
"< c #EEC8EE",
"1 c #EEC9EE",
"2 c #F4F4F4",
"3 c #F4F5F4",
/* pixels */
"++OOOO++O++++OO++O++",
"O+O++OO+++++++O+++++",
"O+++O++O++OOOO++++OO",
"++OOO+OO .  O+++O++O",
"+++++.+.->,- +.++O++",
"+OO+ 2 -;,>:- 2.+++O",
"+O++ 3<=:;::=<3 ++O+",
"+++.= <$----$1 - +OO",
"+++ =  #$$$$@  -.+OO",
"+O+.;- ==---- =: O+O",
"+OOO ;===-=---;.++O+",
"+++++..$===-$. ++++O",
"O+++OO.$%$$%$ O+OO+O",
"++O++O #$$$%# O++++O",
"+++O+O oX&*Xo.+++O+O",
"+++O+O.-$&*$- +O++++",
"+++++O.-%..$-.+OO+O+",
"OO+OOO+ .++. +++O+O+",
"+OOO+++O++O+O+++O+O+",
"O+++OOO+++OOOO+++O+O"
};
