/* XPM */
static char *result[] = {
/* columns rows colors chars-per-pixel */
"20 20 47 1 ",
"  c #161616",
". c #171616",
"X c #161716",
"o c #171716",
"O c #161617",
"+ c #171617",
"@ c #161717",
"# c gray9",
"$ c #22B04C",
"% c #23B04C",
"& c #22B14C",
"* c #23B14C",
"= c #22B04D",
"- c #23B04D",
"; c #22B14D",
": c #23B14D",
"> c #76CA6C",
", c #77CA6C",
"< c #76CB6C",
"1 c #77CB6C",
"2 c #76CA6D",
"3 c #77CA6D",
"4 c #76CB6D",
"5 c #77CB6D",
"6 c #BC8A4C",
"7 c #BC8B4C",
"8 c #BD8A4D",
"9 c #D2A060",
"0 c #D3A060",
"q c #D2A160",
"w c #D3A061",
"e c #96E06C",
"r c #97E06C",
"t c #96E16C",
"y c #97E16C",
"u c #96E06D",
"i c #97E06D",
"p c #96E16D",
"a c #97E16D",
"s c #CAE26E",
"d c #CBE26E",
"f c #CAE36E",
"g c #CBE36E",
"h c #CAE26F",
"j c #CBE26F",
"k c #CAE36F",
"l c #CBE36F",
/* pixels */
"$&$=**%%*%%*$&;%$*&-",
"=$=&=&::=&;-*==*$$*$",
"&:&=&*==$&%&=%$-:&;;",
"&$*;&&OXo;#++O&-:$&=",
":&&=:#hhu+udsyo&&=;&",
"&$=;@isgkuhlggi $*&;",
"&=$$@aauirsdhjiO=%-:",
";$*&@3fdetrrea2r+$&*",
"$*=#ytlhlpgkhtrao;*=",
":;$ attprehggriuO&:*",
"==& 45eet2ppau4<o-&$",
"*%;-#552<5<>331.;**;",
"&-;:#5,55,1<342 *%&;",
"*&-&%o12<3>52<@:*=%$",
";***;$@ 7876+.;*%::&",
"*&$&&*$.9q09X;&-=*&$",
"&;$-%:;.wqq9 *%$-$;;",
"$&&=;%$&*&*;%;*:-$&*",
"=;&-;$*;*&::*;&;:-;%",
"&&:&*&&$&=&-;-%=*&=&"
};
