/* XPM */
static char *result[] = {
/* columns rows colors chars-per-pixel */
"64 64 234 2 ",
"   c #020100",
".  c #090201",
"X  c #0B0A08",
"o  c #140907",
"O  c #16120D",
"+  c #1B120E",
"@  c #070917",
"#  c #1B1415",
"$  c #241513",
"%  c #281B18",
"&  c #3A1C15",
"*  c #36150A",
"=  c #2C221B",
"-  c #36211D",
";  c #38271C",
":  c #19172B",
">  c #0F1733",
",  c #221C31",
"<  c #292329",
"1  c #3B2421",
"2  c #342B24",
"3  c #3D2B25",
"4  c #372A25",
"5  c #3C322B",
"6  c #3C3125",
"7  c #382A39",
"8  c #322E36",
"9  c #41150B",
"0  c #541D12",
"q  c #462D1C",
"w  c #46311F",
"e  c #682618",
"r  c #73311D",
"t  c #442D26",
"y  c #442A24",
"u  c #443226",
"i  c #43342C",
"p  c #4B342C",
"a  c #45392C",
"s  c #4C3A2D",
"d  c #463425",
"f  c #563A2C",
"g  c #463730",
"h  c #443A31",
"j  c #4B3D34",
"k  c #473D3F",
"l  c #553C31",
"z  c #51222A",
"x  c #753625",
"c  c #633429",
"v  c #4B1E26",
"b  c #55412F",
"n  c #594425",
"m  c #4D4235",
"M  c #4E443A",
"N  c #454239",
"B  c #534333",
"V  c #5B4B36",
"C  c #51463C",
"Z  c #5C4C3B",
"A  c #594737",
"S  c #4D412F",
"D  c #654A2B",
"F  c #624232",
"G  c #644D3B",
"H  c #6A4C37",
"J  c #764738",
"K  c #64533D",
"L  c #69593F",
"P  c #75543A",
"I  c #774327",
"U  c #241F41",
"Y  c #182D51",
"T  c #26294A",
"R  c #352D40",
"E  c #362C54",
"W  c #3A3857",
"Q  c #31344E",
"!  c #263B73",
"~  c #363B72",
"^  c #253667",
"/  c #513A43",
"(  c #45364D",
")  c #7E3845",
"_  c #334376",
"`  c #434449",
"'  c #5D5040",
"]  c #484659",
"[  c #5A575C",
"{  c #564E59",
"}  c #645542",
"|  c #6D5D45",
" . c #69574C",
".. c #705F46",
"X. c #785642",
"o. c #715C52",
"O. c #6F4B48",
"+. c #716047",
"@. c #736249",
"#. c #68605C",
"$. c #70624E",
"%. c #5D5D67",
"&. c #5B5C7A",
"*. c #464E75",
"=. c #605C60",
"-. c #666776",
";. c #6D6969",
":. c #5E6068",
">. c #92391D",
",. c #8A3C27",
"<. c #9A3E25",
"1. c #A03D2A",
"2. c #8B4935",
"3. c #864835",
"4. c #98512C",
"5. c #AB452B",
"6. c #BD4D2A",
"7. c #B74A28",
"8. c #AD4732",
"9. c #B34E2E",
"0. c #BA6A38",
"q. c #C14D28",
"w. c #C4532B",
"e. c #C55936",
"r. c #D56D37",
"t. c #DF7B3E",
"y. c #CF6634",
"u. c #E07C3E",
"i. c #843B48",
"p. c #835D46",
"a. c #AF5A51",
"s. c #876349",
"d. c #836656",
"f. c #946D56",
"g. c #997255",
"h. c #8D6D55",
"j. c #BF695B",
"k. c #A5785A",
"l. c #BD734C",
"z. c #8F7769",
"x. c #947A68",
"c. c #87736F",
"v. c #DD7D47",
"b. c #CC6E54",
"n. c #E07D41",
"m. c #C27264",
"M. c #B2825E",
"N. c #9D8273",
"B. c #B78766",
"V. c #A68B7A",
"C. c #B6927D",
"Z. c #AC856C",
"A. c #DE8356",
"S. c #C38E69",
"D. c #C08C67",
"F. c #C9936D",
"G. c #C98277",
"H. c #CC9771",
"J. c #D09873",
"K. c #D5A27F",
"L. c #2C498E",
"P. c #2D4688",
"I. c #33498D",
"U. c #2C5286",
"Y. c #364E97",
"T. c #385595",
"R. c #36518C",
"E. c #314FAE",
"W. c #3B67A6",
"Q. c #3E73B8",
"!. c #3E6199",
"~. c #465995",
"^. c #515D88",
"/. c #576595",
"(. c #787A8A",
"). c #616C96",
"_. c #686F9A",
"`. c #6C7392",
"'. c #4A71B1",
"]. c #6472AD",
"[. c #465CB6",
"{. c #3955C9",
"}. c #395AD6",
"|. c #556AD1",
" X c #566ED9",
".X c #7A85AB",
"XX c #89878A",
"oX c #878993",
"OX c #8E919A",
"+X c #94959B",
"@X c #978B8E",
"#X c #B89987",
"$X c #AD9B92",
"%X c #858BA6",
"&X c #9295A2",
"*X c #989BA4",
"=X c #8B91AD",
"-X c #B7A7AC",
";X c #A3ABB8",
":X c #B7B6BB",
">X c #A7A5A8",
",X c #D4988B",
"<X c #C59F8E",
"1X c #DBAA8D",
"2X c #DBA68F",
"3X c #C6A697",
"4X c #D1AF9A",
"5X c #D8B39E",
"6X c #E2B294",
"7X c #DEBAA5",
"8X c #CDABAB",
"9X c #E5BBA4",
"0X c #EAC3AC",
"qX c #E7C1AC",
"wX c #F4CCB3",
"eX c #F8D0B8",
"rX c #E8C8B3",
"tX c #DDC6B5",
"yX c #9AA4CB",
"uX c #B6BCCB",
"iX c #A7ACC7",
"pX c #B6C2CF",
"aX c #C8CAD7",
"sX c #D8D7D9",
"dX c #D5CECA",
"fX c #F3D6C5",
"gX c #EAD2C8",
"hX c #F8E2D7",
"jX c #EBE8E9",
"kX c #FCFAFC",
"lX c #F7F4F6",
"zX c #F4EFED",
"xX c #DDDEE7",
"cX c None",
/* pixels */
"cXcXcXcXcXcXcXcXcXcXcXcXcXcXcXcXcXcXcXcXcXcXcXcXcX1 1 cXcXcXcXcXcXcXcXcX1 1 1 1 1 1 1 1 1 cXcXcXcXcXcXcXcXcXcXcXcXcXcXcXcXcXcXcX",
"cXcXcXcXcXcXcXcXcXcXcXcXcXcXcXcXcXcXcXcXcXcXcXcXcXt t cXcXcXcXcXcXcXcXcXt t t t d i 3 - - cXcXcXcXcXcXcXcXcXcXcXcXcXcXcXcXcXcXcX",
"cXcXcXcXcXcXcXcXcXcXcXcXcXcXcXcXcXcXcXcXcXcXcX1 j K K s 1 cXcXcX1 1 1 p K } } } K K b = $ cXcXcXcXcXcXcXcXcXcXcXcXcXcXcXcXcXcXcX",
"cXcXcXcXcXcXcXcXcXcXcXcXcXcXcXcXcXcXcXcXcXcXcX1 s | | s y cXcXy 1 3 y s ..@.@.@.+.+.V +   cXcXcXcXcXcXcXcXcXcXcXcXcXcXcXcXcXcXcX",
"cXcXcXcXcXcXcXcXcXcXcXcXcXcXcXcXcXcXcXcXcXcXcX1 p G G Z Z j ; t a b Z K ..@.| K V S a cXcXcXcXcXcXcXcXcXcXcXcXcXcXcXcXcXcXcXcXcX",
"cXcXcXcXcXcXcXcXcXcXcXcXcXcXcXcXcXcXcXcXcXcXcX1 t j A | ..B y s V K @.@.@.+.K B 3 + o cXcXcXcXcXcXcXcXcXcXcXcXcXcXcXcXcXcXcXcXcX",
"cXcXcXcXcXcXcXcXcXcXcXcXcXcXcXcXcXcXcXcXcXcXt i i s m } } j y j K L @...K Z S d ; $ % cXcXcXcXcXcXcXcXcXcXcXcXcXcXcXcXcXcXcXcXcX",
"cXcXcXcXcXcXcXcXcXcXcXcXcXcXcXcXcXcX1 1 1 1 i N h 6 u C Z p 1 V | +.@.| s 3 % O % 1 1 1 1 cXcXcXcXcXcXcXcXcXcXcXcXcXcXcXcXcXcXcX",
"cXcXcXcXcXcXcXcXcXcXcXcXcXcXcXcXcXcXt u t u j Z Z S m A C s u V L | | L B S a 6 d u d d u cXcXcXcXcXcXcXcXcXcXcXcXcXcXcXcXcXcXcX",
"cXcXcXcXcXcXcXcXcXcXcXcXcXcX1 1 1 y s b b b G ....| | V B B B A n V V V | +.+.| Z b b b s y 1 1 1 cXcXcXcXcXcXcXcXcXcXcXcXcXcXcX",
"cXcXcXcXcXcXcXcXcXcXcXcXcXcX1 1 3 t f b G G K @.@.@.+.K V V V V V V V K +.@.@.@.L V V b f u 3 1 1 cXcXcXcXcXcXcXcXcXcXcXcXcXcXcX",
"cXcXcXcXcXcXcXcXcX        $ 1 t j m A V K ....@.@.@.+.+.| | | +.| | | +.@.@.@.@.....L F b j j t 1 $ . cXcXcXcXcXcXcXcXcXcXcXcXcX",
"cXcXcXcXcXcXcXcXcX    X O % 3 i M M B B } ..| @.@.@.@.@.@.@.@.@.@.@.@.@.@.@.$.$.....K B B B m u 1 % O O cXcXcXcXcXcXcXcXcXcXcXcX",
"cXcXcXcXcXcXcXcXcX  X 2 h h j j M m 5 ; a B A ' } @.@.@.@.@.@.@.@.@.@.@.@.@.' ' A B a ; 6 B B j j s a ; X cXcXcXcXcXcXcXcXcXcXcX",
"cXcXcXcXcXcXcXcXcX  X 5 C ` M M M m = O % y g M ' @.@.@.@.@.o...@.@.@.@.@...Z C g 4 = O = j C m m C M 6 o   cXcXcXcXcXcXcXcXcXcX",
"cXcXcXcXcXcXcXcXcXcXcXcXcX5 5 5 h g 5 5 g g N M ' ' } } } } } ' L ' } ' K ' Z C j g i 5 5 a i 6 6 s f i cXcXcXcXcXcXcXcXcXcXcXcX",
"cXcXcXcXcXcXcXcXcXcXcXcXcXcXX + 1 3 j M ` M C C C C C C C C ' ' C Z A ` C C ` M ` M M M j 3 1 # O y z f cXcXcXcXcXcXcXcXcXcXcXcX",
"cXcXcXcXcXcXcXcXcXcXcXcXcX= 2 4 i g N M A C j j m b F 3.2.2.2.2.2.2.2.3.F A j j B C C C M g 5 2 2 q v q cXcXcXcXcXcXcXcXcXcXcXcX",
"cXcXcXcXcXcXcXcXcXcXcXcX  2 j M M M C ' C C j 3 w n x 5.6.w.6.9.q.6.6.8.J l i 3 j C C C ` A M M N 2 o . cXcXcXcXcXcXcXcXcXcXcXcX",
"cXcXcXcXcXcXcXcXcXcXcX+ + 6 M C C C C M j j l x r I 3.7.e.G.,X,X,XG.e.7.2.J x r c j j C C C M ' M 3 + $ cXcXcXcXcXcXcXcXcXcXcXcX",
"cXcXcXcXcXcXcXcXcXcXcX- 1 i M M C C C C g y ,.5.7.7.7.6.b.rXzXzXzXgXb.q.7.7.7.7.,.y g ` A C M M M i 1 1 1 1 cXcXcXcXcXcXcXcXcXcX",
"cXcXcXcXcXcXcXcXcXcXcX3 3 g M C C C k j l r <.6.q.q.e.m.m.gXzXzXzXdXm.j.e.q.q.6.4.e f j k C C C M a t 1 - & cXcXcXcXcXcXcXcXcXcX",
"cXcXcXcXcXcXcXcXcX  X 5 j M C C C C p p ,.5.7.6.q.q.m.-XuX>X$X@XXX+XuX-Xb.6.q.q.7.5.<.p g M C C C j j 6 # o cXcXcXcXcXcXcXcXcXcX",
"cXcXcXcXcXcXcXcXcXO # 5 M M C C C j y q 1.6.q.q.q.q.m.:XpX+X;.#.{ XXuX:Xm.q.q.q.q.6.<.z 5 M M C C C ` i # + cXcXcXcXcXcXcXcXcXcX",
"cXcXcXcXcXcXcX  O 5 5 N C ` A C C j 4 & <.6.q.q.w.y.v.J.2X-X;X;X>X-X2XJ.v.y.w.q.q.6.>.9 6 m C M C C C N 5 5 O   cXcXcXcXcXcXcXcX",
"cXcXcXcXcXcXcX  O N C C M M C C ' C 1 * >.6.q.w.y.t.t.v.F.8XpXpXpX8XA.u.v.t.e.w.6.6.>.* ; C Z C M C C M M h + . cXcXcXcXcXcXcXcX",
"cXcXcXcXcXcXcXcXcXcXC N g g g G g.g.G y r >.7.r.r.t.u.u.A.J.8X4X8X,XA.u.u.t.r.r.7.>.r d K g.g.K a a a N C cXcXcXcXcXcXcXcXcXcXcX",
"cXcXcXcXcXcXcXcXcXcXcX; 1 1 y P D.S.s.f w & 4.A.A.t.t.t.t.u.A.n.A.A.u.u.t.t.t.v.4.& w f s.D.D.P ; ; 3 3 cXcXcXcXcXcXcXcXcXcXcXcX",
"cXcXcXcXcXcXcXcXcXcXcXcX1 1 1 X.D.F.p.f P s.C.6X1Xb.0.0.y.0.0.0.0.y.0.0.0.l.2X9XC.p.P l p.S.S.P ; 3 ; cXcXcXcXcXcXcXcXcXcXcXcXcX",
"cXcXcXcXcXcXcXcXcXcXcXcXcXcX1 X.S.D.P f k.H.rXzXdX$.q D D D D n K L D D q o.dXzXtXF.k.f p.S.S.X.y cXcXcXcXcXcXcXcXcXcXcXcXcXcXcX",
"cXcXcXcXcXcXcXcXcXcXcXcXcXcX1 P M.M.H s Z.1XrXkXsX#.5 ;.N.N.N.N.N.N.N.@.a =.sXlXgX1XZ.l O.M.B.P 3 cXcXcXcXcXcXcXcXcXcXcXcXcXcXcX",
"cXcXcXcXcXcXcXcXcXcXcXcXcXcXcXcXP P q d <XwXhXkXsX#. .4X0X0X7X9XqXqX0X4X .=.sXlXhXwX<Xs w P P cXcXcXcXcXcXcXcXcXcXcXcXcXcXcXcXcX",
"cXcXcXcXcXcXcXcXcXcXcXcXcXcXcXcXn n ; h #XqXhXlXsXc.x.0XeXeXeXeXwXeXeX9Xz.N.sXlXhXqX#Xi ; n D cXcXcXcXcXcXcXcXcXcXcXcXcXcXcXcXcX",
"cXcXcXcXcXcXcXcXcXcXcXcXcXcXcXcXS S 3 3 $.z.3XfXfX7X9XwXeXeXeXeXeXeXeXwX7X7XeXfX3Xz.o.5 5 m M cXcXcXcXcXcXcXcXcXcXcXcXcXcXcXcXcX",
"cXcXcXcXcXcXcXcXcXcXcXcXcXcXcXcXN N i 1 4 i V.rXwXwXeXeXeXwXwXwXwXwXeXeXwXwXrXrXV.g 3 ; 5 N N cXcXcXcXcXcXcXcXcXcXcXcXcXcXcXcXcX",
"cXcXcXcXcXcXcXcXcXcXcXcXcXcXcXcX5 5 5 cX% %  .N.C.1X6XwXeX6X6X6X6X9XwXwX7X1XC.N.o.< $ $ = 5 i cXcXcXcXcXcXcXcXcXcXcXcXcXcXcXcXcX",
"cXcXcXcXcXcXcXcXcXcXcXcXcXcXcXcX6 3 cXcX. X # < ..S.,X0XwX1XJ.F.H.1XwX0XK.B.@.< # O O $ & y u cXcXcXcXcXcXcXcXcXcXcXcXcXcXcXcXcX",
"cXcXcXcXcXcXcXcXcXcXcXcXcXcXcXcXcXcXcXcX  @ ^ U.-.f.g.C.#XZ.k.k.k.Z.#XV.g.g.&.R._ 8 O.h.g.g.g.H cXcXcXcXcXcXcXcXcXcXcXcXcXcXcXcX",
"cXcXcXcXcXcXcXcXcXcXcXcXcXcXcXcXcXcXcXcX. @ _ Q.W.Q = 6 5 f F H F l 5 2 = 8 W.Q.R.] f.F.F.F.S.H . cXcXcXcXcXcXcXcXcXcXcXcXcXcXcX",
"cXcXcXcXcXcXcXcXcXcXcXcXcXcXcXcXcXcXcXcX6 5 U.Q.W.T ` -.(.=./ ( / ( ^ Y @ Y T.Q.R.W f.F.J.J.S.H   cXcXcXcXcXcXcXcXcXcXcXcXcXcXcX",
"cXcXcXcXcXcXcXcXcXcXcXcXcXcXcXcXcXcXc F b l /.'.W.W %.;X:X.XW E E _ R.P.> > L.Y.^ , s.H.J.J.S.H   cXcXcXcXcXcXcXcXcXcXcXcXcXcXcX",
"cXcXcXcXcXcXcXcXcXcXcXcXcXcXcXcXcXcXz.x.x.x.(.'.!.W &.yXiXoX`.(.oX`.~.I.Y , P.Y.^ $ p.B.B.B.M.D   cXcXcXcXcXcXcXcXcXcXcXcXcXcXcX",
"cXcXcXcXcXcXcXcXcXcXcXcXcXcXcXcXF d.4X0X9X9X$X&.*.W *.|. XyXpXaXjXaX_.I.W 7 cXcXcXcXf f f b f cXcXcXcXcXcXcXcXcXcXcXcXcXcXcXcXcX",
"cXcXcXcXcXcXcXcXcXcXcXcXcXcXcXcXb d.6XeXfXwX3X{ ( ( *.{. XyXpXjXlXxX=X_.( 7 cXcXcXcXcX        cXcXcXcXcXcXcXcXcXcXcXcXcXcXcXcXcX",
"cXcXcXcXcXcXcXcXcXcXcXcXcXcXcXcXn d.7XeXeXwX<X/ , R ~ {.}.]..XaXkXlXxXaX-.z cXcXcXcXcXcXcXcXcXcXcXcXcXcXcXcXcXcXcXcXcXcXcXcXcXcX",
"cXcXcXcXcXcXcXcXcXcXcXcXcXcXcXcXl d.5XwXwXwX#X7 : R ~ {.}.E.~.uXlXlXkXjXoX{ cXcXcXcXcXcXcXcXcXcXcXcXcXcXcXcXcXcXcXcXcXcXcXcXcXcX",
"cXcXcXcXcXcXcXcXcXcXcXcXcXcXcXcXcXcXN.V.V.V.c._ ! ~ I.}.}.E.Y.%XiXaXkXlXsXaXXXR cXcXcXcXcXcXcXcXcXcXcXcXcXcXcXcXcXcXcXcXcXcXcXcX",
"cXcXcXcXcXcXcXcXcXcXcXcXcXcXcXcXcXcX# $ + : ^ L.P.I.E.}.}.E.L.I.Y.iXlXkXkXzX+Xg cXcXcXcXcXcXcXcXcXcXcXcXcXcXcXcXcXcXcXcXcXcXcXcX",
"cXcXcXcXcXcXcXcXcXcXcXcXcXcXcXcXcXcXcX    @ ! P.~._._.[.E.E.L.L.Y..XuXsXlXzX+X< cXcXcXcXcXcXcXcXcXcXcXcXcXcXcXcXcXcXcXcXcXcXcXcX",
"cXcXcXcXcXcXcXcXcXcXcXcXcXcXcXcXcXcXcXcXcXcXcXL./.OX%X/.L.L.L.L.L.Y.~.=XjXzX+XO cXcXcXcXcXcXcXcXcXcXcXcXcXcXcXcXcXcXcXcXcXcXcXcX",
"cXcXcXcXcXcXcXcXcXcXcXcXcXcXcXcXcXcXcXcXcXcXcX! [ .X.X`.).).).).).).).=XxXsXXXX cXcXcXcXcXcXcXcXcXcXcXcXcXcXcXcXcXcXcXcXcXcXcXcX",
"cXcXcXcXcXcXcXcXcXcXcXcXcXcXcXcXcXcXcXcXcXcXcX> > 2 C .X&X&X&X+X&X&X&X&X;X*X%.X cXcXcXcXcXcXcXcXcXcXcXcXcXcXcXcXcXcXcXcXcXcXcXcX",
"cXcXcXcXcXcXcXcXcXcXcXcXcXcXcXcXcXcXcXcXcXcXcX  * 9 O.XX@X@XOXoXoX+X*X*X*XOX:.X cXcXcXcXcXcXcXcXcXcXcXcXcXcXcXcXcXcXcXcXcXcXcXcX",
"cXcXcXcXcXcXcXcXcXcXcXcXcXcXcXcXcXcXcXcXcXcXcX. 0 5.8.a.a.O.` ( ` -.&X*X*X*XcXcXcXcXcXcXcXcXcXcXcXcXcXcXcXcXcXcXcXcXcXcXcXcXcXcX",
"cXcXcXcXcXcXcXcXcXcXcXcXcXcXcXcXcXcXcXcXcXcXcX. e 5.5.5.8.e o @ : :.+X*X+XOXcXcXcXcXcXcXcXcXcXcXcXcXcXcXcXcXcXcXcXcXcXcXcXcXcXcX",
"cXcXcXcXcXcXcXcXcXcXcXcXcXcXcXcXcXcXcXcXcXcXcXcXcXe e e e 0 cXU T -.+XOX-.[ cXcXcXcXcXcXcXcXcXcXcXcXcXcXcXcXcXcXcXcXcXcXcXcXcXcX",
"cXcXcXcXcXcXcXcXcXcXcXcXcXcXcXcXcXcXcXcXcXcXcXcXcX. . . . cXcXE E &.&XoX( @ cXcXcXcXcXcXcXcXcXcXcXcXcXcXcXcXcXcXcXcXcXcXcXcXcXcX",
"cXcXcXcXcXcXcXcXcXcXcXcXcXcXcXcXcXcXcXcXcXcXcXcXcXcXcXcXcXcXcXcX, ] -.&.W , : . cXcXcXcXcXcXcXcXcXcXcXcXcXcXcXcXcXcXcXcXcXcXcXcX",
"cXcXcXcXcXcXcXcXcXcXcXcXcXcXcXcXcXcXcXcXcXcXcXcXcXcXcXcXcXcXcXcX  , W W E E :   cXcXcXcXcXcXcXcXcXcXcXcXcXcXcXcXcXcXcXcXcXcXcXcX",
"cXcXcXcXcXcXcXcXcXcXcXcXcXcXcXcXcXcXcXcXcXcXcXcXcXcXcXcXcXcXcXcX. z ) i.i.) v . cXcXcXcXcXcXcXcXcXcXcXcXcXcXcXcXcXcXcXcXcXcXcXcX",
"cXcXcXcXcXcXcXcXcXcXcXcXcXcXcXcXcXcXcXcXcXcXcXcXcXcXcXcXcXcXcXcXo r 8.9.8.8.e . cXcXcXcXcXcXcXcXcXcXcXcXcXcXcXcXcXcXcXcXcXcXcXcX",
"cXcXcXcXcXcXcXcXcXcXcXcXcXcXcXcXcXcXcXcXcXcXcXcXcXcXcXcXcXcXcXcX. e 1.1.1.<.e . cXcXcXcXcXcXcXcXcXcXcXcXcXcXcXcXcXcXcXcXcXcXcXcX",
"cXcXcXcXcXcXcXcXcXcXcXcXcXcXcXcXcXcXcXcXcXcXcXcXcXcXcXcXcXcXcXcXcXcX* 9 9 9 cXcXcXcXcXcXcXcXcXcXcXcXcXcXcXcXcXcXcXcXcXcXcXcXcXcX",
"cXcXcXcXcXcXcXcXcXcXcXcXcXcXcXcXcXcXcXcXcXcXcXcXcXcXcXcXcXcXcXcXcXcX      . cXcXcXcXcXcXcXcXcXcXcXcXcXcXcXcXcXcXcXcXcXcXcXcXcXcX"
};
