/* XPM */
static char *result[] = {
/* columns rows colors chars-per-pixel */
"64 64 232 2 ",
"   c #010101",
".  c #0B0202",
"X  c #0B0709",
"o  c #110302",
"O  c #160C06",
"+  c #1C120C",
"@  c #090C19",
"#  c #1A1018",
"$  c #280B05",
"%  c #310D06",
"&  c #24150D",
"*  c #381209",
"=  c #2A1D13",
"-  c #261A18",
";  c #361C18",
":  c #352519",
">  c #3B241D",
",  c #3C2B1D",
"<  c #332619",
"1  c #2D2115",
"2  c #121630",
"3  c #311A25",
"4  c #1D2029",
"5  c #3C2421",
"6  c #3C2C24",
"7  c #392628",
"8  c #3C3225",
"9  c #392735",
"0  c #2B2A37",
"q  c #46160C",
"w  c #441915",
"e  c #571E12",
"r  c #45271C",
"t  c #5B2318",
"y  c #5A311F",
"u  c #682617",
"i  c #7B2D1E",
"p  c #752C1A",
"a  c #7C331C",
"s  c #421F24",
"d  c #422425",
"f  c #432C23",
"g  c #47292A",
"h  c #522B28",
"j  c #443225",
"k  c #4A3425",
"l  c #4B3A26",
"z  c #4C352A",
"x  c #4E3B2B",
"c  c #453629",
"v  c #523D2C",
"b  c #57352A",
"n  c #453736",
"m  c #543D33",
"M  c #772D24",
"N  c #683528",
"B  c #793928",
"V  c #633129",
"C  c #56422E",
"Z  c #59432F",
"A  c #56492F",
"S  c #544332",
"D  c #5A4530",
"F  c #5C4A32",
"G  c #544734",
"H  c #504532",
"J  c #614D35",
"K  c #634F39",
"L  c #674834",
"P  c #784A31",
"I  c #645239",
"U  c #6A563C",
"Y  c #6D5A3E",
"T  c #625136",
"R  c #745B3F",
"E  c #71422E",
"W  c #1A264C",
"Q  c #262A48",
"!  c #232E55",
"~  c #283255",
"^  c #2D365B",
"/  c #31335B",
"(  c #353552",
")  c #393149",
"_  c #172766",
"`  c #1B2E6D",
"'  c #2C3868",
"]  c #2A3C7C",
"[  c #343F74",
"{  c #343661",
"}  c #131C44",
"|  c #533E42",
" . c #3D456A",
".. c #474242",
"X. c #58585C",
"o. c #5C4E42",
"O. c #6C5743",
"+. c #715E40",
"@. c #795A48",
"#. c #6E5049",
"$. c #756343",
"%. c #796646",
"&. c #776348",
"*. c #756054",
"=. c #434966",
"-. c #4B536B",
";. c #4C5166",
":. c #595A67",
">. c #4D4F74",
",. c #6C6869",
"<. c #66687A",
"1. c #737072",
"2. c #8C351D",
"3. c #8B3423",
"4. c #863825",
"5. c #943925",
"6. c #973934",
"7. c #A53D2B",
"8. c #9A4429",
"9. c #874A37",
"0. c #9C4B32",
"q. c #914831",
"w. c #AB4C2D",
"e. c #A64429",
"r. c #B24E2D",
"t. c #BE4F2D",
"y. c #AF502F",
"u. c #B4502F",
"i. c #BB512F",
"p. c #AE5334",
"a. c #B65535",
"s. c #BD4839",
"d. c #C75B37",
"f. c #D35C38",
"g. c #D7643B",
"h. c #CE633F",
"j. c #E3683C",
"k. c #F36D3C",
"l. c #A33F40",
"z. c #885A47",
"x. c #90524B",
"c. c #B95746",
"v. c #926C52",
"b. c #A5795A",
"n. c #A76E5C",
"m. c #91786A",
"M. c #967D72",
"N. c #84706C",
"B. c #B47568",
"V. c #874177",
"C. c #D46A48",
"Z. c #E76D43",
"A. c #ED7245",
"S. c #F27446",
"D. c #F2754A",
"F. c #EE744C",
"G. c #C67C6B",
"H. c #9D8273",
"J. c #B98867",
"K. c #A78878",
"L. c #B79179",
"P. c #C9936D",
"I. c #C99776",
"U. c #D19C76",
"Y. c #D28274",
"T. c #DF9579",
"R. c #1E3281",
"E. c #213684",
"W. c #253D98",
"Q. c #323D94",
"!. c #2B4486",
"~. c #334894",
"^. c #2D47AA",
"/. c #3851B5",
"(. c #51598F",
"). c #58608B",
"_. c #757A84",
"`. c #465AA5",
"'. c #4458B1",
"]. c #6974AB",
"[. c #6A5CAB",
"{. c #3654CB",
"}. c #3351C3",
"|. c #3857D3",
" X c #435DD4",
".X c #4A63C2",
"XX c #576BC4",
"oX c #526CDB",
"OX c #6D7BCB",
"+X c #885E98",
"@X c #7F8693",
"#X c #7C87B2",
"$X c #8B8B95",
"%X c #94939C",
"&X c #868489",
"*X c #B89687",
"=X c #AF8784",
"-X c #9596A7",
";X c #9299B0",
":X c #9EA8B9",
">X c #9FA2AB",
",X c #B2AFB7",
"<X c #C8A28A",
"1X c #D8AA8C",
"2X c #D5AD93",
"3X c #E3B597",
"4X c #F1AF9F",
"5X c #CFB0AC",
"6X c #E6BEA6",
"7X c #EABBB1",
"8X c #EBC3AC",
"9X c #EDC7B0",
"0X c #E7C8BC",
"qX c #F3CBB3",
"wX c #F6C0B3",
"eX c #F8D0B8",
"rX c #F1C7AD",
"tX c #99A8D1",
"yX c #AAB7C7",
"uX c #B0BADC",
"iX c #C4BFC0",
"pX c #BCC9D8",
"aX c #C8C5C9",
"sX c #D6C7C5",
"dX c #DDDBD9",
"fX c #C7CAD2",
"gX c #E8DAD5",
"hX c #F2D6CB",
"jX c #E2E7ED",
"kX c #FAF7F7",
"lX c #C1C7E3",
"zX c None",
/* pixels */
"zXzXzXzXzXzXzXzXzXzXzXzXzXzXzXzXzXzXzXzXzXzXzXzXzX5 5 5 5 5 5 zXzXzXzXzXzXzXzXzXzXzXzXzXzXzXzXzXzXzXzXzXzXzXzXzXzXzXzXzXzXzXzXzX",
"zXzXzXzXzXzXzXzXzXzXzXzXzXzXzXzXzXzXzXzXzXzXzXzXj j j j f j j zXzXzXzXzXzXzXzXzXzXzXzXzXzXzXzXzXzXzXzXzXzXzXzXzXzXzXzXzXzXzXzXzX",
"zXzXzXzXzXzXzXzXzXzXzXzXzXzXzXzXzXzXzXzXzXzXzX+ D U O.U Y Y I z 5 zXzXzXzXzX5 5 5 5 zXzXzXzXzXzXzXzXzXzXzXzXzXzXzXzXzXzXzXzXzXzX",
"zXzXzXzXzXzXzXzXzXzXzXzXzXzXzXzXzXzXzXzXzXzXo & F $.%.&.%.%.$.x f zXzXzXzXzXf 5 5 5 zXzXzXzXzXzXzXzXzXzXzXzXzXzXzXzXzXzXzXzXzXzX",
"zXzXzXzXzXzXzXzXzXzXzXzXzXzXzXzXzXzXzXzXzX5 = ; c A F I O.%.&.I K v 5 5 5 S K F f 5 zXzXzXzXzXzXzXzXzXzXzXzXzXzXzXzXzXzXzXzXzXzX",
"zXzXzXzXzXzXzXzXzXzXzXzXzXzXzXzXzXzXzXzX5 5 5 > - + 6 S F %.%.%.$.m 5 5 f F &.O.j 5 zXzXzXzXzXzXzXzXzXzXzXzXzXzXzXzXzXzXzXzXzXzX",
"zXzXzXzXzXzXzXzXzXzXzXzXzXzXzXzXzXzXzX7 k k z z 8 6 8 c H K O.%.$.m d m F T U F j 5 zXzXzXzXzXzXzXzXzXzXzXzXzXzXzXzXzXzXzXzXzXzX",
"zXzXzXzXzXzXzXzXzXzXzXzXzXzXzXzXo & > f m D A A C D 8 + - 7 m +.$.m g I $.U A C f r zXzX  . zXzXzXzXzXzXzXzXzXzXzXzXzXzXzXzXzXzX",
"zXzXzXzXzXzXzXzXzXzXzXzXzXzXzX= < : f z C F F I T T C : 5 j m Y R D b K +.T C l k k zXzX: 1 = zXzXzXzXzXzXzXzXzXzXzXzXzXzXzXzXzX",
"zXzXzXzXzXzXzXzXzXzXzXzXzX. o , v C D C C A Y $.%.%.U Z C C Z D D D D D D C : j C C Z A C C , . . zXzXzXzXzXzXzXzXzXzXzXzXzXzXzX",
"zXzXzXzXzXzXzXzXzXzXzXzXzX= = j C D A A F T +.%.%.%.Y K D D D D D D D F F A l x Z C C C v v 5 X zXzXzXzXzXzXzXzXzXzXzXzXzXzXzXzX",
"zXzXzXzXzXzXzXzXzXzXzX5 5 k x C D A A T +.$.%.%.%.%.$.$.Y J D Z D D D U $.+.Y U D C k , < = - zXzXzXzXzXzXzXzXzXzXzXzXzXzXzXzXzX",
"zXzXzXzXzXzXzXzXzXzXzX5 5 x C C Z C A F $.$.%.%.%.%.%.%.$.J D J F J L Y %.%.%.O.D C y r q * zXzXzXzXzXzXzXzXzXzXzXzXzXzXzXzXzXzX",
"zXzXzXzXzXzXzXzXzXzXzXzXzXj k k c x A F T U $.%.%.%.%.%.%.$.+.+.+.+.+.$.%.+.K F z N q.e.8.e.4.g zXzXzXzXzXzXzXzXzXzXzXzXzXzXzXzX",
"zXzXzXzXzXzXzXzXzXzXzXzXzX> 5 7 6 j Z Z A F +.%.%.%.%.%.%.%.%.%.$.%.%.%.%.U S z h N e.a.a.c.9.h g zXzXzXzXzXzXzXzXzXzXzXzXzXzXzX",
"zXzXzXzXzXzXzXzXzXzXzXzXO f x x x C Z A A F I U U U $.&.%.%.%.%.$.+.U U I T D L 8.q.0.b.5X0X*X0.4.h zXzXzXzXzXzXzXzXzXzXzXzXzXzX",
"zXzXzXzXzXzXzXzXzXzXzX. O l Z D D D Z Z Z Z D D D D U @.&.%.%.%.$.I D D D D Z 9.u.a.z.H.gXkX7Xd.5.h h zXzXzXzXzXzXzXzXzXzXzXzXzX",
"zXzXzXzXzXzXzXzXzXzXzX: , x A D D C x C Z A D D D D K O.O.Y Y Y R J D D D C v B y.u.R 1.dXkX7XC.d.p.0.zXzXzXzXzXzXzXzXzXzXzXzXzX",
"zXzXzXzXzXzXzXzXzX  + l C Z Z Z D v , r C D D D D D D D F D D J D D D D D v g B u.w.N *.dXkXwXD.S.Z.h.B g zXzXzXzXzXzXzXzXzXzXzX",
"zXzXzXzXzXzXzXzXzX+ = x A Z D Z v v j k C D D D D v S D Z D D D D D D D D v g B y.c.N.&XsXgX4XD.S.S.C.V s zXzXzXzXzXzXzXzXzXzXzX",
"zXzXzXzXzXzXzXzXzX: , v L Z C x 8 j C C Z D D Z z g z D D D D D D D D D D v f M y.B.,X,X*XG.G.S.S.S.f.u # zXzXzXzXzXzXzXzXzXzXzX",
"zXzXzXzXzXzXzXzXzX6 j x C C v x 8 c C D Z D Z C z f x D D D D Z D D D D C m V 4.u.B.5X5XY.d.j.S.S.Z.f.e . zXzXzXzXzXzXzXzXzXzXzX",
"zXzXzXzXzXzXzXzXzXm S k f f f k C C D D F Z l r x C Z D Z D D D D D D x g B w.y.a.d.Y.T.F.Z.k.k.j.d.7.q . zXzXzXzXzXzXzXzXzXzXzX",
"zXzXzXzXzXzXzXzXzXG S j , > d z Z Z D D C C j , x F D C D D D D D D D k d 4.u.i.t.f.Z.S.S.S.k.k.j.d.7.q   zXzXzXzXzXzXzXzXzXzXzX",
"zXzXzXzXzXzXzXzXzXzXzXzXzX5 d z Z Z Z Z z k b v C D v z x D D D D D Z k 6 q.r.d.C.j.S.S.S.S.j.g.r.2.p zXzXzXzXzXzXzXzXzXzXzXzXzX",
"zXzXzXzXzXzXzXzXzXzXzXzXzXd d z Z Z Z C f r v L D C x 7 j Z D D D D C k r 4.r.d.Z.A.S.A.A.A.g.i.5.* O zXzXzXzXzXzXzXzXzXzXzXzXzX",
"zXzXzXzXzXzXzXzXzXzXzXzXzXzXzXg z m Z C f f k x v D S x x A Z A D z f V M 5.e.w.a.c.a.a.a.u.8.2.p % zXzXzXzXzXzXzXzXzXzXzXzXzXzX",
"zXzXzXzXzXzXzXzXzXzXzXzXzXzXzXzX7 g C C k r 5 > x D D S Z D Z Z v : $ M 6.5.5.2.b h n h > % $ $ $ zXzXzXzXzXzXzXzXzXzXzXzXzXzXzX",
"zXzXzXzXzXzXzXzXzXzXzXzXzXzXzXzXs g v N 0.0.q.a N k C C Z A A l k h V =X5X=XB z.H.K.K.H.#.- #   zXzXzXzXzXzXzXzXzXzXzXzXzXzXzXzX",
"zXzXzXzXzXzXzXzXzXzXzXzXzXzXzXzXzXzX5 B C.A.d.u.a & , A Z Z C 1 * M x.iXjX5X..m.8X9X9X8XM.9 zXzXzXzXzXzXzXzXzXzXzXzXzXzXzXzXzXzX",
"zXzXzXzXzXzXzXzXzXzXzXzXzXzXzXzXzXzX7 B d.g.d.u.8.u y C C Z C = ; 9.n.sXkXiX..m.9XeXeX9XM.9 zXzXzXzXzXzXzXzXzXzXzXzXzXzXzXzXzXzX",
"zXzXzXzXzXzXzXzXzXzXzXzXzXzXzXzXzXzXr r N E w.u.r.w.4.* : Z x & l b.I.gXkXpX| M.9XeXeX0XH.H zXzXzXzXzXzXzXzXzXzXzXzXzXzXzXzXzXzX",
"zXzXzXzXzXzXzXzXzXzXzXzXzXzXzXzXzXzXr > : k 8.y.p.p.4.$ = x v m P J.U.gXkXsX,.K.9XeXeX9XK.O.zXzXzXzXzXzXzXzXzXzXzXzXzXzXzXzXzXzX",
"zXzXzXzXzXzXzXzXzXzXzXzXzXzXzXzXzXzXzXzX5 r L P P P y + O = L b.J.P.U.8XhXqX3X8XqXeXeXqX1XJ.zXzXzXzXzXzXzXzXzXzXzXzXzXzXzXzXzXzX",
"zXzXzXzXzXzXzXzXzXzXzXzXzXzXzXzXzXzXzXzX5 6 H G A A 8 + O X D J.P.P.I.6XqXqXeXeXqXqXqX9X1XU.zXzXzXzXzXzXzXzXzXzXzXzXzXzXzXzXzXzX",
"zXzXzXzXzXzXzXzXzXzXzXzXzXzXzXzXzXzXzXzXzXzXzXzXA A H c j 3 h z.z.v.v.I.1X8XqX9X3X1X*X=XL.zXzXzXzXzXzXzXzXzXzXzXzXzXzXzXzXzXzXzX",
"zXzXzXzXzXzXzXzXzXzXzXzXzXzXzXzXzXzXzXzXzXzXzXzXA A A H x d 7 s n G G J.U.2XqX8XU.J.z.o.zXzXzXzXzXzXzXzXzXzXzXzXzXzXzXzXzXzXzXzX",
"zXzXzXzXzXzXzXzXzXzXzXzXzXzXzXzXzXzXzXzXzXzXzXO < 8 8 8 7 7 9 9 9 0 8 z.b.J.*XL.b.v.O.zXzXzXzXzXzXzXzXzXzXzXzXzXzXzXzXzXzXzXzXzX",
"zXzXzXzXzXzXzXzXzXzXzXzXzXzXzXzXzXzXzXzXzXzX    X X X X - 9 9 0 9 4 + z L v 6 < = = zXzXzXzXzXzXzXzXzXzXzXzXzXzXzXzXzXzXzXzXzXzX",
"zXzXzXzXzXzXzXzXzXzXzXzXzXzXzXzXzXzXzXzXzXzX: 6 Q ! Q 4 Q / { { / 2 X 6 N k X       zXzXzXzXzXzXzXzXzXzXzXzXzXzXzXzXzXzXzXzXzXzX",
"zXzXzXzXzXzXzXzXzXzXzXzXzXzXzXzXzXzXzXzX  + k m >.~.[ 9 / !.!.!.!.W   zXzXzXzXzXzXzXzXzXzXzXzXzXzXzXzXzXzXzXzXzXzXzXzXzXzXzXzXzX",
"zXzXzXzXzXzXzXzXzXzXzXzXzXzXzXzXzXzXzXzX  + n | >.!.[ ) ~ ] !.^.~.E.` _ zXzXzXzXzXzXzXzXzXzXzXzXzXzXzXzXzXzXzXzXzXzXzXzXzXzXzXzX",
"zXzXzXzXzXzXzXzXzXzXzXzXzXzXzXzXzXzXzXzX  @ ) ( ' ' ' ~ Q } ` }.|.|.{.W.@ zXzXzXzXzXzXzXzXzXzXzXzXzXzXzXzXzXzXzXzXzXzXzXzXzXzXzX",
"zXzXzXzXzXzXzXzXzXzXzXzXzXzXzXzXzXzXzXzX  @ Q ~ :.<.<.:.=.4 _ /.|.|.|.W.} 2 zXzXzXzXzXzXzXzXzXzXzXzXzXzXzXzXzXzXzXzXzXzXzXzXzXzX",
"zXzXzXzXzXzXzXzXzXzXzXzXzXzXzXzXzXzXzXzXzXzX~ =.,XdXfX:X-X .! ` R.{.|.^. .` @       zXzXzXzXzXzXzXzXzXzXzXzXzXzXzXzXzXzXzXzXzXzX",
"zXzXzXzXzXzXzXzXzXzXzXzXzXzXzXzXzXzXzXzXzXzX~ ;.fXkXjXpX:X-.! } _ ^.{./.(. .6 8 n n zXzXzXzXzXzXzXzXzXzXzXzXzXzXzXzXzXzXzXzXzXzX",
"zXzXzXzXzXzXzXzXzXzXzXzXzXzXzXzXzXzXzXzXzXzX~ -.fXkXjXpX:X-.] ^.^.W.Q.+X=XK.b.J.<X*X*.  zXzXzXzXzXzXzXzXzXzXzXzXzXzXzXzXzXzXzXzX",
"zXzXzXzXzXzXzXzXzXzXzXzXzXzXzXzXzXzXzXzXzXzX~ ;.pXkXjXpX:X-. .{.|.R.0 n.L.I.U.1X9X6X*.  zXzXzXzXzXzXzXzXzXzXzXzXzXzXzXzXzXzXzXzX",
"zXzXzXzXzXzXzXzXzXzXzXzXzXzXzXzXzXzXzXzXzXzX~  .:XlXuXtX;X .E.{.|.R.- @.b.I.3X3X3X<XO.  zXzXzXzXzXzXzXzXzXzXzXzXzXzXzXzXzXzXzXzX",
"zXzXzXzXzXzXzXzXzXzXzXzXzXzXzXzXzXzXzXzXzXzX~ ' `.XXXX.X`.' E.{.|.R.# 9 ..=XqX8X1XP.L   zXzXzXzXzXzXzXzXzXzXzXzXzXzXzXzXzXzXzXzX",
"zXzXzXzXzXzXzXzXzXzXzXzXzXzXzXzXzXzXzXzXzXzXQ ~ (.].XX'./.' ] {. X]._.-.| m.2X*XB.b.Z   zXzXzXzXzXzXzXzXzXzXzXzXzXzXzXzXzXzXzXzX",
"zXzXzXzXzXzXzXzXzXzXzXzXzXzXzXzXzXzXzXzXzXzX@ 4 _.%X#X.X`.' E.{.oXtXyX_.) | H m k r zXzXzXzXzXzXzXzXzXzXzXzXzXzXzXzXzXzXzXzXzXzX",
"zXzXzXzXzXzXzXzXzXzXzXzXzXzXzXzXzXzXzXzXzXzX  3 1.$X].'.`.>.(.XXOXtXyX@X) 3 q * o   zXzXzXzXzXzXzXzXzXzXzXzXzXzXzXzXzXzXzXzXzXzX",
"zXzXzXzXzXzXzXzXzXzXzXzXzXzXzXzXzXzXzXzXzXzX  @ ( ;. . .).%X%X-X;X>X>X<.- t 3.i zXzXzXzXzXzXzXzXzXzXzXzXzXzXzXzXzXzXzXzXzXzXzXzX",
"zXzXzXzXzXzXzXzXzXzXzXzXzXzXzXzXzXzXzXzXzXzXq w ( ' [ =.1.$X%X%X%X%X%X,.; u 3.3.zXzXzXzXzXzXzXzXzXzXzXzXzXzXzXzXzXzXzXzXzXzXzXzX",
"zXzXzXzXzXzXzXzXzXzXzXzXzXzXzXzXzXzXzXzX  q 5.l.[.'.[.$X_.,.X.X.X.X.X.#.i 4.5.a *   zXzXzXzXzXzXzXzXzXzXzXzXzXzXzXzXzXzXzXzXzXzX",
"zXzXzXzXzXzXzXzXzXzXzXzXzXzXzXzXzXzXzXzX  q 7.c.+X XOX-X$X9 X . . X $ u 3.3.3.p %   zXzXzXzXzXzXzXzXzXzXzXzXzXzXzXzXzXzXzXzXzXzX",
"zXzXzXzXzXzXzXzXzXzXzXzXzXzXzXzXzXzXzXzX  q 7.s.V.~.).zXzXzXzXzXzX  o q t t u e zXzXzXzXzXzXzXzXzXzXzXzXzXzXzXzXzXzXzXzXzXzXzXzX",
"zXzXzXzXzXzXzXzXzXzXzXzXzXzXzXzXzXzXzXzX  q 7.s.6.# # zXzXzXzXzXzX    . . o . o zXzXzXzXzXzXzXzXzXzXzXzXzXzXzXzXzXzXzXzXzXzXzXzX",
"zXzXzXzXzXzXzXzXzXzXzXzXzXzXzXzXzXzXzXzX  * 5.7.3.u t zXzXzXzXzXzXzX          zXzXzXzXzXzXzXzXzXzXzXzXzXzXzXzXzXzXzXzXzXzXzXzXzX",
"zXzXzXzXzXzXzXzXzXzXzXzXzXzXzXzXzXzXzXzX  % i 5.3.3.u $   zXzXzXzXzXzXzXzXzXzXzXzXzXzXzXzXzXzXzXzXzXzXzXzXzXzXzXzXzXzXzXzXzXzXzX",
"zXzXzXzXzXzXzXzXzXzXzXzXzXzXzXzXzXzXzXzX  % u M M M t $ zXzXzXzXzXzXzXzXzXzXzXzXzXzXzXzXzXzXzXzXzXzXzXzXzXzXzXzXzXzXzXzXzXzXzXzX",
"zXzXzXzXzXzXzXzXzXzXzXzXzXzXzXzXzXzXzXzXzXzX% % % % $ zXzXzXzXzXzXzXzXzXzXzXzXzXzXzXzXzXzXzXzXzXzXzXzXzXzXzXzXzXzXzXzXzXzXzXzXzX",
"zXzXzXzXzXzXzXzXzXzXzXzXzXzXzXzXzXzXzXzXzXzX        zXzXzXzXzXzXzXzXzXzXzXzXzXzXzXzXzXzXzXzXzXzXzXzXzXzXzXzXzXzXzXzXzXzXzXzXzXzX"
};
