/* XPM */
static char *result[] = {
/* columns rows colors chars-per-pixel */
"64 64 243 2 ",
"   c #030202",
".  c #0A0202",
"X  c #09070B",
"o  c #160906",
"O  c #1C130B",
"+  c #1E1418",
"@  c #0B0B17",
"#  c #260B05",
"$  c #340E07",
"%  c #24150C",
"&  c #35160C",
"*  c #261A11",
"=  c #2B1D13",
"-  c #271619",
";  c #331818",
":  c #1F2616",
">  c #34251C",
",  c #3C251D",
"<  c #3C2B1D",
"1  c #342518",
"2  c #342718",
"3  c #0A193B",
"4  c #121427",
"5  c #381D26",
"6  c #2D1A29",
"7  c #2A272A",
"8  c #3C2421",
"9  c #392826",
"0  c #3C3022",
"q  c #382634",
"w  c #38383B",
"e  c #292C39",
"r  c #1D2138",
"t  c #471A10",
"y  c #442A1C",
"u  c #41241A",
"i  c #552417",
"p  c #49321F",
"a  c #672916",
"s  c #762E1C",
"d  c #79341C",
"f  c #412324",
"g  c #432D24",
"h  c #4B2A23",
"j  c #41242B",
"k  c #492929",
"l  c #5D2B24",
"z  c #562D2A",
"x  c #443324",
"c  c #493425",
"v  c #4B3826",
"b  c #45342A",
"n  c #4B352A",
"m  c #4D3B2A",
"M  c #463C29",
"N  c #523D2C",
"B  c #553529",
"V  c #4A3933",
"C  c #4D3135",
"Z  c #692B25",
"A  c #6A332B",
"S  c #6A3527",
"D  c #783826",
"F  c #762C24",
"G  c #56422E",
"H  c #59442F",
"J  c #57492F",
"K  c #544432",
"L  c #5A4530",
"P  c #554932",
"I  c #5D4A34",
"U  c #5A443B",
"Y  c #464134",
"T  c #624D36",
"R  c #654737",
"E  c #635236",
"W  c #665339",
"Q  c #69563C",
"!  c #6C5A3D",
"~  c #705D3F",
"^  c #784630",
"/  c #1A2543",
"(  c #112E52",
")  c #242C4B",
"_  c #292B49",
"`  c #292B52",
"'  c #2B3457",
"]  c #313A5A",
"[  c #363B57",
"{  c #383B49",
"}  c #1B3A74",
"|  c #2A3866",
" . c #293C77",
".. c #313F7D",
"X. c #423251",
"o. c #723E56",
"O. c #3F405B",
"+. c #2E4273",
"@. c #1C457B",
"#. c #444344",
"$. c #5A4A45",
"%. c #585346",
"&. c #575A59",
"*. c #4A4C59",
"=. c #624C41",
"-. c #6C5847",
";. c #715E41",
":. c #72594B",
">. c #685757",
",. c #715F55",
"<. c #756243",
"1. c #796645",
"2. c #776449",
"3. c #776357",
"4. c #454A66",
"5. c #4F566D",
"6. c #6B6B6D",
"7. c #767779",
"8. c #716B70",
"9. c #566077",
"0. c #89351E",
"q. c #853827",
"w. c #973A27",
"e. c #963A36",
"r. c #A03F2C",
"t. c #96472D",
"y. c #894934",
"u. c #934F35",
"i. c #A44B2C",
"p. c #AC4C2D",
"a. c #A34529",
"s. c #B44D2D",
"d. c #B6512F",
"f. c #BB532F",
"g. c #BC4734",
"h. c #AD5335",
"j. c #B95535",
"k. c #C75935",
"l. c #CC5730",
"z. c #D8653C",
"x. c #C9613E",
"c. c #F46E3D",
"v. c #E86538",
"b. c #903F47",
"n. c #8B524B",
"m. c #98614D",
"M. c #956D54",
"N. c #8C6B54",
"B. c #A7795A",
"V. c #BA6A56",
"C. c #8E726A",
"Z. c #AC7967",
"A. c #B95A41",
"S. c #D06B4D",
"D. c #E66C42",
"F. c #ED7245",
"G. c #E9724A",
"H. c #F27446",
"J. c #F27448",
"K. c #F26F49",
"L. c #EB7E60",
"P. c #958779",
"I. c #AF8367",
"U. c #B58462",
"Y. c #A48877",
"T. c #B89075",
"R. c #CD966F",
"E. c #C5877B",
"W. c #CE9974",
"Q. c #C59778",
"!. c #D29C77",
"~. c #C48F6C",
"^. c #EC896F",
"/. c #D3A17F",
"(. c #34478B",
"). c #294D92",
"_. c #3B51A7",
"`. c #3A51A8",
"'. c #4B538A",
"]. c #767A82",
"[. c #6A7090",
"{. c #425BBD",
"}. c #4759AE",
"|. c #4F63B6",
" X c #6776BA",
".X c #6F79A9",
"XX c #455CC5",
"oX c #4B62C5",
"OX c #5567C6",
"+X c #6A7EC0",
"@X c #7A8699",
"#X c #7D818D",
"$X c #7B84B5",
"%X c #7D8DC5",
"&X c #838488",
"*X c #858B9B",
"=X c #8D9496",
"-X c #979792",
";X c #B79694",
":X c #A69F9A",
">X c #989AA3",
",X c #8C92AA",
"<X c #95A1B8",
"1X c #A7A3A4",
"2X c #B5B2B3",
"3X c #B2A89F",
"4X c #CD9791",
"5X c #DDAC8A",
"6X c #CAA895",
"7X c #D4AE99",
"8X c #D5B29D",
"9X c #DCB399",
"0X c #C7A28B",
"qX c #E4B699",
"wX c #EFA491",
"eX c #DAB7A1",
"rX c #C9AEAA",
"tX c #E9BEA3",
"yX c #E5BFB6",
"uX c #F3CAAF",
"iX c #EAC7B5",
"pX c #F6CEB5",
"aX c #F9D1B8",
"sX c #FCD2B6",
"dX c #ECC3AA",
"fX c #DAC3BD",
"gX c #8697CE",
"hX c #AFB8D1",
"jX c #9EA7D0",
"kX c #B5C3D2",
"lX c #C8CDD6",
"zX c #CED2D7",
"xX c #E8DBD9",
"cX c #F4D8CD",
"vX c #E1E0DF",
"bX c #CED7E2",
"nX c #E0DDE0",
"mX c #E8E8EB",
"MX c #F6EEEA",
"NX c #EEF1F2",
"BX c #F8F6F7",
"VX c #F1F1F0",
"CX c None",
/* pixels */
"CXCXCXCXCXCXCXCXCXCXCXCXCXCXCXCXCXCXCXCXCXCXCXCXCXCXCXCXCXCXCXCX8 8 8 8 8 8 8 CXCXCXCXCXCXCXCXCXCXCXCXCXCXCXCXCXCXCXCXCXCXCXCXCX",
"CXCXCXCXCXCXCXCXCXCXCXCXCXCXCXCXCXCXCXCXCXCXCXCXCXCXCXCXCXCXCXCXg g g x g g g CXCXCXCXCXCXCXCXCXCXCXCXCXCXCXCXCXCXCXCXCXCXCXCXCX",
"CXCXCXCXCXCXCXCXCXCXCXCXCXCXCXCXCXCXCXCXCX8 8 8 8 CXCXCXCXCX8 m W Q Q Q Q Q I > . CXCXCXCXCXCXCXCXCXCXCXCXCXCXCXCXCXCXCXCXCXCXCX",
"CXCXCXCXCXCXCXCXCXCXCXCXCXCXCXCXCXCXCXCXCX8 8 8 8 CXCXCXCXCX8 m ;.2.1.1.1.1.! > . CXCXCXCXCXCXCXCXCXCXCXCXCXCXCXCXCXCXCXCXCXCXCX",
"CXCXCXCXCXCXCXCXCXCXCXCXCXCXCXCXCXCXCXCX8 8 c J I m CXCXCXN L W <.2.<.Q W I J 2 - ; CXCXCXCXCXCXCXCXCXCXCXCXCXCXCXCXCXCXCXCXCXCX",
"CXCXCXCXCXCXCXCXCXCXCXCXCXCXCXCXCXCXCXCX8 8 G ~ ;.N 8 8 8 K <.1.1.2.W U M + * > 8 8 8 CXCXCXCXCXCXCXCXCXCXCXCXCXCXCXCXCXCXCXCXCX",
"CXCXCXCXCXCXCXCXCXCXCXCXCXCXCXCXCXCXCXCX, 8 G Q ;.I m c f U <.1.! ! P b 0 > > 0 g g g g CXCXCXCXCXCXCXCXCXCXCXCXCXCXCXCXCXCXCXCX",
"CXCXCXCXCXCXCXCXCXCXCXCXCXCXCXCX    CXCX, 8 x G I ! <.U k R <.~ K b 8 * 0 V N K H G L m 8 ; o . CXCXCXCXCXCXCXCXCXCXCXCXCXCXCXCX",
"CXCXCXCXCXCXCXCXCXCXCXCXCXCXCXCXO * CXCXx g x G J ~ ~ T h R ~ ~ V j > * x I I I T L L m g > * % CXCXCXCXCXCXCXCXCXCXCXCXCXCXCXCX",
"CXCXCXCXCXCXCXCXCXCXCXCXCXCX. = c v J H H N v p c L T R N L E T L N N m T ;.;.;.;.I H G G N N c = . CXCXCXCXCXCXCXCXCXCXCXCXCXCX",
"CXCXCXCXCXCXCXCXCXCXCXCXCXCX. = G G H H H H N y x G H H R H L L L H H L ! 1.1.1.1.E P J L H H N 1 o CXCXCXCXCXCXCXCXCXCXCXCXCXCX",
"CXCXCXCXCXCXCXCXCXCXCXCXCXCXCX= < 0 p v N H I E E Q ! W H H L L L L W ~ <.1.1.1.1.~ ! E J P H J v x g 8 CXCXCXCXCXCXCXCXCXCXCXCX",
"CXCXCXCXCXCXCXCXCXCXCXCXCXCXCXCXo # 1 u v H E <.1.1.1.E L L L L L T ~ 1.1.1.1.1.1.1.1.Q J J U H H G c 8 8 CXCXCXCXCXCXCXCXCXCXCX",
"CXCXCXCXCXCXCXCXCXCXCXCXCXCXCXZ s d d D S N P ! ~ 1.1.~ W W Q W W Q <.1.1.1.1.1.1.~ ~ Q J J N N N N c 8 CXCXCXCXCXCXCXCXCXCXCXCX",
"CXCXCXCXCXCXCXCXCXCXCXCXCXCXq A a.s.s.d.t.h b K I ~ 1.1.<.1.1.1.1.1.1.1.1.1.1.1.1.Q I J J M x 0 0 8 CXCXCXCXCXCXCXCXCXCXCXCXCXCX",
"CXCXCXCXCXCXCXCXCXCXCXCXCXZ A n.E.E.V.h.t.Z S G P ! <.<.<.<.1.1.1.1.1.1.1.<.<.<.~ E J J J G x 0 g g 8 CXCXCXCXCXCXCXCXCXCXCXCXCX",
"CXCXCXCXCXCXCXCXCXCXCXk h q.s.E.xXxX;Xm.u.h.t.T L I T T T Q 1.1.1.1.1.2.;.T T T T I I H L H G G G N < .   CXCXCXCXCXCXCXCXCXCXCX",
"CXCXCXCXCXCXCXCXCXCXCXA A t.l.4XMXMX3XN.u.j.i.R L L L L L W <.1.1.2.2.:.-.L L L H H H H H G L L L L x O O CXCXCXCXCXCXCXCXCXCXCX",
"CXCXCXCXCXCXCXCXCXk A h.k.z.D.wXMXMX:XT u.d.i.S B K H L L T W Q W W W W R H L L H H H N x v L L L H N v < O   CXCXCXCXCXCXCXCXCX",
"CXCXCXCXCXCXCXCXCXj A x.J.J.F.wXMXMX:XV y.d.i.l k H L L H L H H I H L L H H L L H H H v , x G L L H H J c O . CXCXCXCXCXCXCXCXCX",
"CXCXCXCXCXCXCXCXCX5 Z x.J.J.J.^.yXzX3X*XZ.j.a.z k G H L L L L H H H H I N B V L I H H G c v v m G H L K v = * CXCXCXCXCXCXCXCXCX",
"CXCXCXCXCXCXCXCXCXX i k.G.J.J.G.S.V.2XhX;XA.a.l h H H H H L L L H H H H m f n N H H H H K N 0 0 G L L L N < , CXCXCXCXCXCXCXCXCX",
"CXCXCXCXCXCXCXCXCX. t k.D.K.c.c.z.S.4XrX4Xj.i.D S B N G L L L L H H H H N n c N G H H H L N x c m N N N m x x CXCXCXCXCXCXCXCXCX",
"CXCXCXCXCXCXCXCXCX  t r.l.z.c.c.D.K.L.^.S.j.d.g.i.A g N L L L L T H H I L J N x y N H I L G J N c u y g v K K CXCXCXCXCXCXCXCXCX",
"CXCXCXCXCXCXCXCXCX. t w.s.l.c.c.K.H.H.H.z.k.k.f.p.S g N L L L H H H K H L L G x g N H H H H H H h 5 , < b U P CXCXCXCXCXCXCXCXCX",
"CXCXCXCXCXCXCXCXCXCXCXa a a.l.v.K.K.H.H.F.D.z.f.p.S 8 m L L L L H H V b m L L N B n c B H H H G h f 8 CXCXCXCXCXCXCXCXCXCXCXCXCX",
"CXCXCXCXCXCXCXCXCXCXCXo $ 0.f.k.D.F.F.F.G.F.z.f.p.S y m H L L L H H n 9 n K L L N n u v H H L G g j CXCXCXCXCXCXCXCXCXCXCXCXCXCX",
"CXCXCXCXCXCXCXCXCXCXCXCXCXa 0.q.i.h.h.h.j.h.h.p.r.q.F l < v G L L H N m K L G B v g f m H H m C k CXCXCXCXCXCXCXCXCXCXCXCXCXCXCX",
"CXCXCXCXCXCXCXCXCXCXCXCXCXCX# # $ & h C z C A w.w.w.e.Z # 9 G L H H H H L L N g g y h N L N j j CXCXCXCXCXCXCXCXCXCXCXCXCXCXCXCX",
"CXCXCXCXCXCXCXCXCXCXCXCXCXCX  o + V C.Y.Y.Y.C.q.n.;X4XC.l h c v H H I H N c B D q.t.i.^ N V j 5 CXCXCXCXCXCXCXCXCXCXCXCXCXCXCXCX",
"CXCXCXCXCXCXCXCXCXCXCXCXCXCXCXCXq >.6XdXdXdX6X=.3.zXMX2Xn.Z & > N H H H v % a i.f.z.D.h.z f CXCXCXCXCXCXCXCXCXCXCXCXCXCXCXCXCXCX",
"CXCXCXCXCXCXCXCXCXCXCXCXCXCXCXCXw >.7XpXaXpXeX$.8.nXBXyXm.q.& * G H G G p i d p.f.z.S.p.h 8 CXCXCXCXCXCXCXCXCXCXCXCXCXCXCXCXCXCX",
"CXCXCXCXCXCXCXCXCXCXCXCXCXCXCXCXV 3.8XpXaXaX8X$.8.nXBXiX~.M.< * N G 0 1 d a.p.f.d.t.^ S u 1 CXCXCXCXCXCXCXCXCXCXCXCXCXCXCXCXCXCX",
"CXCXCXCXCXCXCXCXCXCXCXCXCXCXCXCX%.3.8XpXaXpX8X3.C.nXBXiX!.U.H p N G 2 O d p.d.d.p.D , , u t CXCXCXCXCXCXCXCXCXCXCXCXCXCXCXCXCXCX",
"CXCXCXCXCXCXCXCXCXCXCXCXCXCXCXCXU.T.tXpXaXaXdX8XrXcXcXdXR.~.U.M.H 2 % o p ^ y.y.^ B 9 , CXCXCXCXCXCXCXCXCXCXCXCXCXCXCXCXCXCXCXCX",
"CXCXCXCXCXCXCXCXCXCXCXCXCXCXCXCXR.!.dXpXpXpXaXpXaXpXuXqXR.R.R.U.R . . o 0 J J J K x > CXCXCXCXCXCXCXCXCXCXCXCXCXCXCXCXCXCXCXCXCX",
"CXCXCXCXCXCXCXCXCXCXCXCXCXCXCXCXCX!.0X0X9XqXdXpXpXtXqXQ.I.B.B.M.N - > 0 G P P P K c 8 CXCXCXCXCXCXCXCXCXCXCXCXCXCXCXCXCXCXCXCXCX",
"CXCXCXCXCXCXCXCXCXCXCXCXCXCXCXCXCXCX>.:.Z.!.5XuXiX5XQ.B.%.U C k j 9 M K J J P CXCXCXCXCXCXCXCXCXCXCXCXCXCXCXCXCXCXCXCXCXCXCXCXCX",
"CXCXCXCXCXCXCXCXCXCXCXCXCXCXCXCXCXCXCXT C.U.Q.7X7XQ.I.N.V w q q 5 5 b K K K P CXCXCXCXCXCXCXCXCXCXCXCXCXCXCXCXCXCXCXCXCXCXCXCXCX",
"CXCXCXCXCXCXCXCXCXCXCXCXCXCXCXCXCXCXCXCXA R =.:.:.=.U 0 - r ` _ + + 5 9 g CXCXCXCXCXCXCXCXCXCXCXCXCXCXCXCXCXCXCXCXCXCXCXCXCXCXCX",
"CXCXCXCXCXCXCXCXCXCXCXCXCXCXCXCXCXCXCXCXCXj f , 8 q 7 w { [ | | / 4 6 6 5 CXCXCXCXCXCXCXCXCXCXCXCXCXCXCXCXCXCXCXCXCXCXCXCXCXCXCX",
"CXCXCXCXCXCXCXCXCXCXCXCXCXCXCXCXCXCXCXCXCXCXCXCXCX+ 7 6.&X[.}._. .} / + + CXCXCXCXCXCXCXCXCXCXCXCXCXCXCXCXCXCXCXCXCXCXCXCXCXCXCX",
"CXCXCXCXCXCXCXCXCXCXCXCXCXCXCXCXCXCXCXCXCXCXCXCXCXY *.].>X,XXXXX).@.( @ @ CXCXCXCXCXCXCXCXCXCXCXCXCXCXCXCXCXCXCXCXCXCXCXCXCXCXCX",
"CXCXCXCXCXCXCXCXCXCXCXCXCXCXCXCXCXCXCXCXCXCXCXCX6.2XlX<X X+XXXXX`.`. ./ / ' ' ) CXCXCXCXCXCXCXCXCXCXCXCXCXCXCXCXCXCXCXCXCXCXCXCX",
"CXCXCXCXCXCXCXCXCXCXCXCXCXCXCXCXCXCXCXCXCXCXCX` ].bXVXhXOXXXXXXXXX{.(.` ' ' ] [ [ CXCXCXCXCXCXCXCXCXCXCXCXCXCXCXCXCXCXCXCXCXCXCX",
"CXCXCXCXCXCXCXCXCXCXCXCXCXCXCXCXCXCXCXCXCXCXCX` ].vXBXlXgX+X{.`.`.`.(.] 9.@X*X1X1X#XCXCXCXCXCXCXCXCXCXCXCXCXCXCXCXCXCXCXCXCXCXCX",
"CXCXCXCXCXCXCXCXCXCXCXCXCXCXCXCXCXCXCXCXCXCXCX` ].vXBXvXkX<X5.| | | | | @XhXkXNXmX>X' CXCXCXCXCXCXCXCXCXCXCXCXCXCXCXCXCXCXCXCXCX",
"CXCXCXCXCXCXCXCXCXCXCXCXCXCXCXCXCXCXCXCXCXCXCX_ 6.lXmXbXbX<X5.[ >.>.X.O.@XkXbXBXVX>X' CXCXCXCXCXCXCXCXCXCXCXCXCXCXCXCXCXCXCXCXCX",
"CXCXCXCXCXCXCXCXCXCXCXCXCXCXCXCXCXCXCXCXCXCXCX4 [ [.,XbXNXkX&.&.Z.T.C.[ @XkXbXBXNX>X] CXCXCXCXCXCXCXCXCXCXCXCXCXCXCXCXCXCXCXCXCX",
"CXCXCXCXCXCXCXCXCXCXCXCXCXCXCXCXCXCXCXCXCXCXCXX 3 } '.hXVXzX7.C.Q.Q.N.*.@XkXbXNXmX>X' CXCXCXCXCXCXCXCXCXCXCXCXCXCXCXCXCXCXCXCXCX",
"CXCXCXCXCXCXCXCXCXCXCXCXCXCXCXCXCXCXCXCXCXCXCX  3 } _.*X3X2X8X7X0XR.N.X.[.%XgXjXjX[.r CXCXCXCXCXCXCXCXCXCXCXCXCXCXCXCXCXCXCXCXCX",
"CXCXCXCXCXCXCXCXCXCXCXCXCXCXCXCXCXCXCXCXCXCXCX  3 +.(.4.%.Y.pXuX5XR.M.$.'.oXoXOX|.| @ CXCXCXCXCXCXCXCXCXCXCXCXCXCXCXCXCXCXCXCXCX",
"CXCXCXCXCXCXCXCXCXCXCXCXCXCXCXCXCXCXCXCXCXCXCX  _ [.[.5.K Y.pXsXtXqXB.V (.{.|..X.XO.@ CXCXCXCXCXCXCXCXCXCXCXCXCXCXCXCXCXCXCXCXCX",
"CXCXCXCXCXCXCXCXCXCXCXCXCXCXCXCXCXCXCXCXCXCXCXX Y &X-X6.0 Y.pXsXsXuXY.7 (.{. X,X=X&.@ CXCXCXCXCXCXCXCXCXCXCXCXCXCXCXCXCXCXCXCXCX",
"CXCXCXCXCXCXCXCXCXCXCXCXCXCXCXCXCXCXCXCXCXCXCX. #.].&X7.&.P.9XeX9X7XP.&.9._.|.#X#X&.X CXCXCXCXCXCXCXCXCXCXCXCXCXCXCXCXCXCXCXCXCX",
"CXCXCXCXCXCXCXCXCXCXCXCXCXCXCXCXCXCXCXCXCXCXCXCXCX4.5.].=X#X,.-.-.>.P.-X7._ _ w Y CXCXCXCXCXCXCXCXCXCXCXCXCXCXCXCXCXCXCXCXCXCXCX",
"CXCXCXCXCXCXCXCXCXCXCXCXCXCXCXCXCXCXCXCXCXCXCXCXCX` [ ].-X7.q 4 3 w C.=X7.7       CXCXCXCXCXCXCXCXCXCXCXCXCXCXCXCXCXCXCXCXCXCXCX",
"CXCXCXCXCXCXCXCXCXCXCXCXCXCXCXCXCXCXCXCXCXCXCXCXCXCXCX*.&.*._ ` ' +.4.&.%.CXCXCXCXCXCXCXCXCXCXCXCXCXCXCXCXCXCXCXCXCXCXCXCXCXCXCX",
"CXCXCXCXCXCXCXCXCXCXCXCXCXCXCXCXCXCXCXCXCXCXCXCXCXCXCX- ; q X.X.+. ._ @ @ CXCXCXCXCXCXCXCXCXCXCXCXCXCXCXCXCXCXCXCXCXCXCXCXCXCXCX",
"CXCXCXCXCXCXCXCXCXCXCXCXCXCXCXCXCXCXCXCXCXCXCXCXCXCX$ 0.0.e.e.b.>.o.j X X CXCXCXCXCXCXCXCXCXCXCXCXCXCXCXCXCXCXCXCXCXCXCXCXCXCXCX",
"CXCXCXCXCXCXCXCXCXCXCXCXCXCXCXCXCXCXCXCXCXCXCXCXCX. $ w.l.r.l.r.w.q.i o   CXCXCXCXCXCXCXCXCXCXCXCXCXCXCXCXCXCXCXCXCXCXCXCXCXCXCX",
"CXCXCXCXCXCXCXCXCXCXCXCXCXCXCXCXCXCXCXCXCXCXCXCXCXCX$ q.r.a.r.w.D s i o CXCXCXCXCXCXCXCXCXCXCXCXCXCXCXCXCXCXCXCXCXCXCXCXCXCXCXCX",
"CXCXCXCXCXCXCXCXCXCXCXCXCXCXCXCXCXCXCXCXCXCXCXCXCXCXCXy y y y y , 1 CXCXCXCXCXCXCXCXCXCXCXCXCXCXCXCXCXCXCXCXCXCXCXCXCXCXCXCXCXCX",
"CXCXCXCXCXCXCXCXCXCXCXCXCXCXCXCXCXCXCXCXCXCXCXCXCXCXCXCX: : : : : : CXCXCXCXCXCXCXCXCXCXCXCXCXCXCXCXCXCXCXCXCXCXCXCXCXCXCXCXCXCX"
};
