/* XPM */
static char *result[] = {
/* columns rows colors chars-per-pixel */
"64 64 243 2 ",
"   c #030202",
".  c #0A0202",
"X  c #09070B",
"o  c #160906",
"O  c #1C130B",
"+  c #1E1418",
"@  c #0B0B17",
"#  c #260B05",
"$  c #340E07",
"%  c #24150C",
"&  c #35160C",
"*  c #261A11",
"=  c #2B1D13",
"-  c #271619",
";  c #331818",
":  c #1F2616",
">  c #34251C",
",  c #3C251D",
"<  c #3C2B1D",
"1  c #342518",
"2  c #342718",
"3  c #0A193B",
"4  c #131529",
"5  c #381D26",
"6  c #2D1A29",
"7  c #2A272A",
"8  c #3C2422",
"9  c #392826",
"0  c #3C3022",
"q  c #382634",
"w  c #38383B",
"e  c #292C39",
"r  c #1D2138",
"t  c #471A10",
"y  c #442A1C",
"u  c #41241A",
"i  c #552417",
"p  c #49321F",
"a  c #672916",
"s  c #762E1C",
"d  c #79341C",
"f  c #412324",
"g  c #432D24",
"h  c #4B2A23",
"j  c #41242B",
"k  c #492929",
"l  c #5D2B24",
"z  c #562D2A",
"x  c #443324",
"c  c #493425",
"v  c #4B3826",
"b  c #45342A",
"n  c #4B352A",
"m  c #4D3B2A",
"M  c #463C29",
"N  c #523D2C",
"B  c #553529",
"V  c #4A3933",
"C  c #4D3135",
"Z  c #692B25",
"A  c #6A332B",
"S  c #6A3527",
"D  c #783826",
"F  c #762C24",
"G  c #56422E",
"H  c #59442F",
"J  c #57492F",
"K  c #544432",
"L  c #5A4530",
"P  c #554932",
"I  c #5D4A34",
"U  c #5A443B",
"Y  c #464134",
"T  c #624D36",
"R  c #654737",
"E  c #635236",
"W  c #665339",
"Q  c #69563C",
"!  c #6C5A3D",
"~  c #705D3F",
"^  c #784630",
"/  c #1A2543",
"(  c #112E52",
")  c #242C4B",
"_  c #292B49",
"`  c #292B52",
"'  c #2A3355",
"]  c #2A3458",
"[  c #313A5A",
"{  c #363B57",
"}  c #383B49",
"|  c #1B3A74",
" . c #2A3866",
".. c #293C77",
"X. c #313F7D",
"o. c #423251",
"O. c #723E56",
"+. c #3F405B",
"@. c #2E4273",
"#. c #1C457B",
"$. c #444344",
"%. c #5A4A45",
"&. c #585346",
"*. c #575A59",
"=. c #4A4C59",
"-. c #624C41",
";. c #6C5847",
":. c #715E41",
">. c #72594B",
",. c #685757",
"<. c #715F55",
"1. c #756243",
"2. c #796645",
"3. c #776449",
"4. c #776357",
"5. c #454A66",
"6. c #4F566D",
"7. c #6B6B6D",
"8. c #767779",
"9. c #716B70",
"0. c #566077",
"q. c #89351E",
"w. c #853827",
"e. c #973A27",
"r. c #963A36",
"t. c #A03F2C",
"y. c #96472D",
"u. c #894934",
"i. c #934F35",
"p. c #A44B2C",
"a. c #AC4C2D",
"s. c #A34529",
"d. c #B44D2D",
"f. c #B6512F",
"g. c #BB532F",
"h. c #BC4734",
"j. c #AD5335",
"k. c #B95535",
"l. c #C75935",
"z. c #CC5730",
"x. c #D8653C",
"c. c #C9613E",
"v. c #F46E3D",
"b. c #E86538",
"n. c #903F47",
"m. c #8B524B",
"M. c #98614D",
"N. c #956D54",
"B. c #8C6B54",
"V. c #A7795A",
"C. c #BA6A56",
"Z. c #8E726A",
"A. c #AC7967",
"S. c #B95A41",
"D. c #D06B4D",
"F. c #E66C42",
"G. c #ED7245",
"H. c #E9724A",
"J. c #F27446",
"K. c #F27448",
"L. c #F26F49",
"P. c #EB7E60",
"I. c #958779",
"U. c #B58462",
"Y. c #A48877",
"T. c #B58C70",
"R. c #CD966F",
"E. c #C5877B",
"W. c #CE9974",
"Q. c #C59778",
"!. c #D29C77",
"~. c #C48F6C",
"^. c #EC896F",
"/. c #D3A17F",
"(. c #34478B",
"). c #294D92",
"_. c #3B51A7",
"`. c #3A51A8",
"'. c #4B538A",
"]. c #767A82",
"[. c #6A7090",
"{. c #425BBD",
"}. c #4759AE",
"|. c #4F63B6",
" X c #6776BA",
".X c #6F79A9",
"XX c #455CC5",
"oX c #4B62C5",
"OX c #5567C6",
"+X c #6A7EC0",
"@X c #7A8699",
"#X c #7D818D",
"$X c #7B84B5",
"%X c #7D8DC5",
"&X c #838488",
"*X c #858B9B",
"=X c #8D9496",
"-X c #979792",
";X c #B79694",
":X c #A69F9A",
">X c #989AA3",
",X c #8C92AA",
"<X c #95A1B8",
"1X c #A7A3A4",
"2X c #B5B2B3",
"3X c #B2A89F",
"4X c #CD9791",
"5X c #DDAC8A",
"6X c #CAA895",
"7X c #D4AE99",
"8X c #D5B29D",
"9X c #DCB399",
"0X c #C7A28B",
"qX c #E4B699",
"wX c #EFA491",
"eX c #DAB7A1",
"rX c #C9AEAA",
"tX c #E9BEA3",
"yX c #E5BFB6",
"uX c #F3CAAF",
"iX c #EAC7B5",
"pX c #F6CEB5",
"aX c #F9D1B8",
"sX c #FCD2B6",
"dX c #ECC3AA",
"fX c #DAC3BD",
"gX c #8697CE",
"hX c #AFB8D1",
"jX c #9EA7D0",
"kX c #B5C3D2",
"lX c #C8CDD6",
"zX c #CED2D7",
"xX c #E8DBD9",
"cX c #F4D8CD",
"vX c #E1E0DF",
"bX c #CED7E2",
"nX c #E0DDE0",
"mX c #E8E8EB",
"MX c #F6EEEA",
"NX c #EEF1F2",
"BX c #F8F6F7",
"VX c #F1F1F0",
"CX c None",
/* pixels */
"CXCXCXCXCXCXCXCXCXCXCXCXCXCXCXCXCXCXCXCXCXCXCXCXCX8 8 8 8 8 5 8 CXCXCXCXCXCXCXCXCXCXCXCXCXCXCXCXCXCXCXCXCXCXCXCXCXCXCXCXCXCXCXCX",
"CXCXCXCXCXCXCXCXCXCXCXCXCXCXCXCXCXCXCXCXCXCXCXCXCXg g g b g g g CXCXCXCXCXCXCXCXCXCXCXCXCXCXCXCXCXCXCXCXCXCXCXCXCXCXCXCXCXCXCXCX",
"CXCXCXCXCXCXCXCXCXCXCXCXCXCXCXCXCXCXCXCXCXCXCX. 2 T Q Q Q Q Q E v 8 CXCXCXCXCX8 8 8 8 CXCXCXCXCXCXCXCXCXCXCXCXCXCXCXCXCXCXCXCXCX",
"CXCXCXCXCXCXCXCXCXCXCXCXCXCXCXCXCXCXCXCXCXCXCXo 2 Q 3.3.2.2.2.:.m 9 CXCXCXCXCXf 8 8 8 CXCXCXCXCXCXCXCXCXCXCXCXCXCXCXCXCXCXCXCXCX",
"CXCXCXCXCXCXCXCXCXCXCXCXCXCXCXCXCXCXCXCXCXCX; - 2 K I E ;.~ 2.1.W I N CXCXCXm I L b 8 CXCXCXCXCXCXCXCXCXCXCXCXCXCXCXCXCXCXCXCXCX",
"CXCXCXCXCXCXCXCXCXCXCXCXCXCXCXCXCXCXCXCXCX8 8 8 > * * M P E 1.3.1.1.L 8 8 8 N :.1.K , CXCXCXCXCXCXCXCXCXCXCXCXCXCXCXCXCXCXCXCXCX",
"CXCXCXCXCXCXCXCXCXCXCXCXCXCXCXCXCXCXCXCXg c g g g > > 0 V U Q :.3.1.L f c G I ;.Q m 8 CXCXCXCXCXCXCXCXCXCXCXCXCXCXCXCXCXCXCXCXCX",
"CXCXCXCXCXCXCXCXCXCXCXCXCXCXCXCX. o ; 8 n N H J G K V 0 * > b K :.3.U k L :.! I H c g y CXCX    CXCXCXCXCXCXCXCXCXCXCXCXCXCXCXCX",
"CXCXCXCXCXCXCXCXCXCXCXCXCXCXCXCX% * , g m H J I I I I c * ; j N ~ 1.L k T 2.! H G x y c CXCX% O CXCXCXCXCXCXCXCXCXCXCXCXCXCXCXCX",
"CXCXCXCXCXCXCXCXCXCXCXCXCXCX. = v m N N G H E ~ 1.:.:.I m N N J T T R N H T I p < v N G J G m v = . CXCXCXCXCXCXCXCXCXCXCXCXCXCX",
"CXCXCXCXCXCXCXCXCXCXCXCXCXCXo 1 N L J J H J E 1.3.2.2.Q I L H H L L L L H I G x y N J H J H J G 1 . CXCXCXCXCXCXCXCXCXCXCXCXCXCX",
"CXCXCXCXCXCXCXCXCXCXCXCX8 g x v G J H P E ! ~ 1.2.2.2.1.! W I H L L L L T ! Q E E I H N p x < < * CXCXCXCXCXCXCXCXCXCXCXCXCXCXCX",
"CXCXCXCXCXCXCXCXCXCXCX8 8 c G L L L P P Q 2.2.2.2.2.2.2.2.:.R H L L H L ! 2.2.2.1.E L m u 1 # o CXCXCXCXCXCXCXCXCXCXCXCXCXCXCXCX",
"CXCXCXCXCXCXCXCXCXCXCXCX8 c N m m m J P E ~ 1.2.2.2.2.2.2.:.W W W Q W W ~ 2.1.~ Q I N S w.d s s l CXCXCXCXCXCXCXCXCXCXCXCXCXCXCX",
"CXCXCXCXCXCXCXCXCXCXCXCXCXCX8 8 0 b G J J I W 1.2.2.2.2.2.2.2.2.2.2.2.2.2.2.~ I J b h w.a.f.d.a.F q CXCXCXCXCXCXCXCXCXCXCXCXCXCX",
"CXCXCXCXCXCXCXCXCXCXCXCXCX8 g c x x G J J J E 1.1.3.2.2.2.2.2.2.2.2.2.~ ~ 1.~ I N S A y.j.C.E.E.m.A A CXCXCXCXCXCXCXCXCXCXCXCXCX",
"CXCXCXCXCXCXCXCXCXCXCX  . < N N H N H J H H T T T T T ! 3.3.2.2.2.3.! T T T T L R y.a.m.M.;XxXxX4Xs.q.i j CXCXCXCXCXCXCXCXCXCXCX",
"CXCXCXCXCXCXCXCXCXCXCXO O x H H L L H G H H H H L L L ;.>.:.2.2.2.1.W L L L L L ^ p.k.j.B.3XMXMX4Xz.y.A A CXCXCXCXCXCXCXCXCXCXCX",
"CXCXCXCXCXCXCXCXCX  O < v N J J L H v c N L H H L L L T Q W W Q W W L L L L L n B p.f.i.U :XMXMXwXF.x.l.j.A z CXCXCXCXCXCXCXCXCX",
"CXCXCXCXCXCXCXCXCX. O c H J H H L H x , v H L H L L L L L L L L H H L L L L N k l p.k.y.V -XMXMXwXK.K.K.c.A k CXCXCXCXCXCXCXCXCX",
"CXCXCXCXCXCXCXCXCX* = v L L L N m v v c N H L H H N B N L L L L H L L L L L N k l p.k.A.=X1XyXyX^.K.K.K.l.l ; CXCXCXCXCXCXCXCXCX",
"CXCXCXCXCXCXCXCXCX, < N L L L N 0 0 N H H H J R N n j m L H L L L L L L L L N h l y.S.;XhX2XA.D.H.K.L.L.c.i @ CXCXCXCXCXCXCXCXCX",
"CXCXCXCXCXCXCXCXCXb x m N N N N x b N L J H H N m n n N L H H L L L L L H N B S D s.S.4XrX4XD.x.F.J.F.F.k.t . CXCXCXCXCXCXCXCXCX",
"CXCXCXCXCXCXCXCXCXK K b y g y c G G H L L J G y g N L L L L L L L L L H N n A p.d.h.k.D.^.P.H.G.J.v.b.z.t.t . CXCXCXCXCXCXCXCXCX",
"CXCXCXCXCXCXCXCXCXU K b 8 , , g G H L L H N N g x G J J K H H L L L L H N 9 S d.g.l.l.x.J.J.J.J.v.v.z.d.e.& . CXCXCXCXCXCXCXCXCX",
"CXCXCXCXCXCXCXCXCXCXCXCXCX8 f k G J L L N g v B H H L m b V L L L L L H m 8 S a.l.x.x.G.J.J.J.G.b.z.s.s a CXCXCXCXCXCXCXCXCXCXCX",
"CXCXCXCXCXCXCXCXCXCXCXCXCXCXf b H H L H n y c N R L L n 9 b H H L H H J n y F a.l.x.G.L.G.J.G.F.z.d.q.# o CXCXCXCXCXCXCXCXCXCXCX",
"CXCXCXCXCXCXCXCXCXCXCXCXCXCXCXk n C N H n y h c n N L N N N L L L H v y l s w.s.s.j.j.j.j.j.j.p.q.q.s CXCXCXCXCXCXCXCXCXCXCXCXCX",
"CXCXCXCXCXCXCXCXCXCXCXCXCXCXCXCXj j N L N h y , g N J J G H H H J G < # Z r.r.e.e.A n C z j & $ # # CXCXCXCXCXCXCXCXCXCXCXCXCXCX",
"CXCXCXCXCXCXCXCXCXCXCXCXCXCXCXCXq j n N u.p.y.u.D B v G H J H J v c h l Z.6X;Xm.w.Z.Y.Y.Y.Z.V - o   CXCXCXCXCXCXCXCXCXCXCXCXCXCX",
"CXCXCXCXCXCXCXCXCXCXCXCXCXCXCXCXCXCXf z j.b.x.k.p.a % p H H H N 1 & Z n.rXMXzX9.W 6XiXiXiX6X,.7 CXCXCXCXCXCXCXCXCXCXCXCXCXCXCXCX",
"CXCXCXCXCXCXCXCXCXCXCXCXCXCXCXCXCXCXu h p.D.x.k.d.d i B N N H N * & u.M.rXBXxX9.-.8XpXaXpX8X<.q CXCXCXCXCXCXCXCXCXCXCXCXCXCXCXCX",
"CXCXCXCXCXCXCXCXCXCXCXCXCXCXCXCXCXCXu u S D y.f.f.a.p.d 1 0 J N * < V.~.iXBXnX9.%.8XpXpXaXeX4.V CXCXCXCXCXCXCXCXCXCXCXCXCXCXCXCX",
"CXCXCXCXCXCXCXCXCXCXCXCXCXCXCXCXCXCXu u < < D a.f.f.a.d o 1 N N c H V.W.iXBXnXZ.4.eXpXaXpXeX4.%.CXCXCXCXCXCXCXCXCXCXCXCXCXCXCXCX",
"CXCXCXCXCXCXCXCXCXCXCXCXCXCXCXCXCXCXCXCX> , B ^ u.u.^ l o % > R N.U.~.W.tXcXxX8X7XdXaXaXpXtXT.U.CXCXCXCXCXCXCXCXCXCXCXCXCXCXCXCX",
"CXCXCXCXCXCXCXCXCXCXCXCXCXCXCXCXCXCXCXCXCX9 x P J J P 0 o . . R U.R.R.R.9XpXpXpXaXpXpXpXpXtX!.R.CXCXCXCXCXCXCXCXCXCXCXCXCXCXCXCX",
"CXCXCXCXCXCXCXCXCXCXCXCXCXCXCXCXCXCXCXCXCX9 0 K J P P Y 0 > - N N.V.V.U.0XqXtXpXpXtXtX7X6X0XW.CXCXCXCXCXCXCXCXCXCXCXCXCXCXCXCXCX",
"CXCXCXCXCXCXCXCXCXCXCXCXCXCXCXCXCXCXCXCXCXCXCXCXCXP J J P m 9 j C C Y ;.N.W.5XuXpX5XW.A.>.>.CXCXCXCXCXCXCXCXCXCXCXCXCXCXCXCXCXCX",
"CXCXCXCXCXCXCXCXCXCXCXCXCXCXCXCXCXCXCXCXCXCXCXCXCXP P Y m b ; 5 q q w Y B.A.Q.7X8XQ.U.N.%.CXCXCXCXCXCXCXCXCXCXCXCXCXCXCXCXCXCXCX",
"CXCXCXCXCXCXCXCXCXCXCXCXCXCXCXCXCXCXCXCXCXCXCXCXCXCXCX0 9 5 + 4 _ ` r + C N -.>.>.R R R CXCXCXCXCXCXCXCXCXCXCXCXCXCXCXCXCXCXCXCX",
"CXCXCXCXCXCXCXCXCXCXCXCXCXCXCXCXCXCXCXCXCXCXCXCXCXCXCX5 5 6 4 /  . .{ } w 7 9 8 f f f CXCXCXCXCXCXCXCXCXCXCXCXCXCXCXCXCXCXCXCXCX",
"CXCXCXCXCXCXCXCXCXCXCXCXCXCXCXCXCXCXCXCXCXCXCXCXCXCXCX- + / | #._.}.[.#X7.7 + CXCXCXCXCXCXCXCXCXCXCXCXCXCXCXCXCXCXCXCXCXCXCXCXCX",
"CXCXCXCXCXCXCXCXCXCXCXCXCXCXCXCXCXCXCXCXCXCXCXCXCXCXCX@ @ ( #.).{.OX,X,X#X$.$.CXCXCXCXCXCXCXCXCXCXCXCXCXCXCXCXCXCXCXCXCXCXCXCXCX",
"CXCXCXCXCXCXCXCXCXCXCXCXCXCXCXCXCXCXCXCXCXCXCXCX) ' ] ( / .._.`.XXoX+X XjX2X2X9.CXCXCXCXCXCXCXCXCXCXCXCXCXCXCXCXCXCXCXCXCXCXCXCX",
"CXCXCXCXCXCXCXCXCXCXCXCXCXCXCXCXCXCXCXCXCXCXCX{ ' [ [ ] ` (.XXXXXXXXXXoXhXBXbX8.` CXCXCXCXCXCXCXCXCXCXCXCXCXCXCXCXCXCXCXCXCXCXCX",
"CXCXCXCXCXCXCXCXCXCXCXCXCXCXCXCXCXCXCXCXCXCX].1X1X*X].0. .X.`.`.}.}.%X%XbXBXnX].` CXCXCXCXCXCXCXCXCXCXCXCXCXCXCXCXCXCXCXCXCXCXCX",
"CXCXCXCXCXCXCXCXCXCXCXCXCXCXCXCXCXCXCXCXCX{ >XmXmXlXhX@X[ ]  . . .6.<XkXbXBXmX]._ CXCXCXCXCXCXCXCXCXCXCXCXCXCXCXCXCXCXCXCXCXCXCX",
"CXCXCXCXCXCXCXCXCXCXCXCXCXCXCXCXCXCXCXCX' [ >XVXBXbXhX,X[ +.,.,.{ 5.<XbXbXmXlX7._ CXCXCXCXCXCXCXCXCXCXCXCXCXCXCXCXCXCXCXCXCXCXCX",
"CXCXCXCXCXCXCXCXCXCXCXCXCXCXCXCXCXCXCXCX] +.>XNXNXbXkX@X{ Z.T.U.,.*.kXNXbX,X[.{ 4 CXCXCXCXCXCXCXCXCXCXCXCXCXCXCXCXCXCXCXCXCXCXCX",
"CXCXCXCXCXCXCXCXCXCXCXCXCXCXCXCXCXCXCXCX' ] >XmXNXbXkX@X{ Z.Q.Q.Z.8.zXVXhX'.#.3 X CXCXCXCXCXCXCXCXCXCXCXCXCXCXCXCXCXCXCXCXCXCXCX",
"CXCXCXCXCXCXCXCXCXCXCXCXCXCXCXCXCXCXCXCX4 r [.jXjXgX%X[.%.B.R./.6XrX3X1X*X_.#.3   CXCXCXCXCXCXCXCXCXCXCXCXCXCXCXCXCXCXCXCXCXCXCX",
"CXCXCXCXCXCXCXCXCXCXCXCXCXCXCXCXCXCXCXCXX X ..}.oXoXoX'.L N.R.5XuXpX;XE 5.(.@.3   CXCXCXCXCXCXCXCXCXCXCXCXCXCXCXCXCXCXCXCXCXCXCX",
"CXCXCXCXCXCXCXCXCXCXCXCXCXCXCXCXCXCXCXCX  X 5..X$XoXXX(.C A.qXtXsXpXY.Y *.[.[.e   CXCXCXCXCXCXCXCXCXCXCXCXCXCXCXCXCXCXCXCXCXCXCX",
"CXCXCXCXCXCXCXCXCXCXCXCXCXCXCXCXCXCXCXCXCXX *.=X,X+X`.(.7 Y.uXsXsXpXY.9 7.-X&X$.X CXCXCXCXCXCXCXCXCXCXCXCXCXCXCXCXCXCXCXCXCXCXCX",
"CXCXCXCXCXCXCXCXCXCXCXCXCXCXCXCXCXCXCXCXCXX *.&X#X}.}.6.*.I.8XeXeX8XI.*.8.&X].o.X CXCXCXCXCXCXCXCXCXCXCXCXCXCXCXCXCXCXCXCXCXCXCX",
"CXCXCXCXCXCXCXCXCXCXCXCXCXCXCXCXCXCXCXCXCXCXCXw w ( } 8.-XI.<.&.;.<.&X=X].6.=.CXCXCXCXCXCXCXCXCXCXCXCXCXCXCXCXCXCXCXCXCXCXCXCXCX",
"CXCXCXCXCXCXCXCXCXCXCXCXCXCXCXCXCXCXCXCXCXCXCX      > 8.-X8.} 4 4 e 8.*X].{ ' CXCXCXCXCXCXCXCXCXCXCXCXCXCXCXCXCXCXCXCXCXCXCXCXCX",
"CXCXCXCXCXCXCXCXCXCXCXCXCXCXCXCXCXCXCXCXCXCXCXCXCXCXCX=.*.=. . ._ e =.*.=.CXCXCXCXCXCXCXCXCXCXCXCXCXCXCXCXCXCXCXCXCXCXCXCXCXCXCX",
"CXCXCXCXCXCXCXCXCXCXCXCXCXCXCXCXCXCXCXCXCXCXCXCXCXCXCX@ @ ) @.@.o.o.5 & & CXCXCXCXCXCXCXCXCXCXCXCXCXCXCXCXCXCXCXCXCXCXCXCXCXCXCX",
"CXCXCXCXCXCXCXCXCXCXCXCXCXCXCXCXCXCXCXCXCXCXCXCXCXCXCXX X C O.O.m.n.r.e.F $ CXCXCXCXCXCXCXCXCXCXCXCXCXCXCXCXCXCXCXCXCXCXCXCXCXCX",
"CXCXCXCXCXCXCXCXCXCXCXCXCXCXCXCXCXCXCXCXCXCXCXCXCXCXCX. o i w.e.t.l.l.h.e.$   CXCXCXCXCXCXCXCXCXCXCXCXCXCXCXCXCXCXCXCXCXCXCXCXCX",
"CXCXCXCXCXCXCXCXCXCXCXCXCXCXCXCXCXCXCXCXCXCXCXCXCXCXCXCXo i s d t.t.e.t.q.$ CXCXCXCXCXCXCXCXCXCXCXCXCXCXCXCXCXCXCXCXCXCXCXCXCXCX",
"CXCXCXCXCXCXCXCXCXCXCXCXCXCXCXCXCXCXCXCXCXCXCXCXCXCXCXCXCXCX2 < u i y y y CXCXCXCXCXCXCXCXCXCXCXCXCXCXCXCXCXCXCXCXCXCXCXCXCXCXCX",
"CXCXCXCXCXCXCXCXCXCXCXCXCXCXCXCXCXCXCXCXCXCXCXCXCXCXCXCXCXCX: : : + : : CXCXCXCXCXCXCXCXCXCXCXCXCXCXCXCXCXCXCXCXCXCXCXCXCXCXCXCX"
};
