/* XPM */
static char *result[] = {
/* columns rows colors chars-per-pixel */
"64 64 217 2 ",
"   c #030102",
".  c #0A0301",
"X  c #03030A",
"o  c #0A040A",
"O  c #0F0905",
"+  c #130A06",
"@  c #160E0A",
"#  c #1B0D0A",
"$  c #1B0705",
"%  c #17110C",
"&  c #1B120D",
"*  c #080713",
"=  c #1A0E13",
"-  c #1D1415",
";  c #2B1108",
":  c #3E1507",
">  c #251512",
",  c #2B1A15",
"<  c #2C1A19",
"1  c #271B14",
"2  c #341A16",
"3  c #2D221C",
"4  c #37201E",
"5  c #3B251B",
"6  c #372719",
"7  c #161D3B",
"8  c #070E24",
"9  c #241934",
"0  c #3B2422",
"q  c #352C24",
"w  c #3D2B25",
"e  c #392827",
"r  c #3C3125",
"t  c #3C332C",
"y  c #352937",
"u  c #2D2E3A",
"i  c #521E1B",
"p  c #4A281C",
"a  c #642915",
"s  c #442521",
"d  c #432E26",
"f  c #422F2B",
"g  c #4B2829",
"h  c #542A29",
"j  c #423225",
"k  c #4B3425",
"l  c #44332B",
"z  c #4B362B",
"x  c #45382C",
"c  c #4D392D",
"v  c #423827",
"b  c #55372C",
"n  c #472B39",
"m  c #463730",
"M  c #433931",
"N  c #4B3D33",
"B  c #573C32",
"V  c #7C3326",
"C  c #7E3431",
"Z  c #6F2F29",
"A  c #491E26",
"S  c #4D412F",
"D  c #55412F",
"F  c #5C4329",
"G  c #4E4234",
"H  c #4E443A",
"J  c #534333",
"K  c #5A4432",
"L  c #5B4B36",
"P  c #50463C",
"I  c #54493D",
"U  c #5D4D3B",
"Y  c #584638",
"T  c #614131",
"R  c #63463A",
"E  c #694E39",
"W  c #64533D",
"Q  c #6A573D",
"!  c #72523B",
"~  c #63492A",
"^  c #1D2B55",
"/  c #172246",
"(  c #242748",
")  c #252D55",
"_  c #392857",
"`  c #27315D",
"'  c #383959",
"]  c #373049",
"[  c #1F2F6F",
"{  c #1F327D",
"}  c #2D396C",
"|  c #283467",
" . c #2A3B72",
".. c #2D366B",
"X. c #412D59",
"o. c #423751",
"O. c #7C3844",
"+. c #7C3F5D",
"@. c #463963",
"#. c #364777",
"$. c #38426C",
"%. c #5D5040",
"&. c #514F58",
"*. c #58575B",
"=. c #4E4553",
"-. c #655541",
";. c #6D5D45",
":. c #675844",
">. c #765441",
",. c #705F46",
"<. c #7A5541",
"1. c #6D524C",
"2. c #716047",
"3. c #736349",
"4. c #75624F",
"5. c #424666",
"6. c #484965",
"7. c #57566A",
"8. c #585276",
"9. c #50476F",
"0. c #625F69",
"q. c #754F61",
"w. c #696678",
"e. c #7C7B7F",
"r. c #7B6569",
"t. c #953A1E",
"y. c #893A1A",
"u. c #883926",
"i. c #973829",
"p. c #8F3832",
"a. c #953231",
"s. c #9E3D31",
"d. c #8B2D2D",
"f. c #AC3F2E",
"g. c #9A442C",
"h. c #984428",
"j. c #825F3F",
"k. c #8D442C",
"l. c #A5422A",
"z. c #A94726",
"x. c #B54C2B",
"c. c #B95129",
"v. c #BB4936",
"b. c #C04A29",
"n. c #833C49",
"m. c #84584C",
"M. c #85634A",
"N. c #876653",
"B. c #897264",
"V. c #967666",
"C. c #987576",
"Z. c #A27C7D",
"A. c #BC8966",
"S. c #C38E69",
"D. c #C6916D",
"F. c #CE9770",
"G. c #223585",
"H. c #364988",
"J. c #3B5388",
"K. c #364D92",
"L. c #3A4E93",
"P. c #3A5294",
"I. c #3954B9",
"U. c #48558D",
"Y. c #54628D",
"T. c #777989",
"R. c #767A98",
"E. c #606391",
"W. c #4759AB",
"Q. c #5B6BBE",
"!. c #576CBE",
"~. c #577CBB",
"^. c #4F67AC",
"/. c #6A73B4",
"(. c #3A59D7",
"). c #6874CA",
"_. c #556DC8",
"`. c #817A82",
"'. c #7D8298",
"]. c #7D86AA",
"[. c #7B82B3",
"{. c #5C83C2",
"}. c #6894D3",
"|. c #6089C6",
" X c #858895",
".X c #928F9A",
"XX c #95939D",
"oX c #969792",
"OX c #888B8E",
"+X c #BC9A88",
"@X c #8E96A6",
"#X c #9797A9",
"$X c #999DB7",
"%X c #888EB2",
"&X c #98A2B5",
"*X c #AAABAB",
"=X c #A8A7AA",
"-X c #AEB1B8",
";X c #AEB0B5",
":X c #D1AE9A",
">X c #E8C2AC",
",X c #B9BCC6",
"<X c #9EAFD2",
"1X c #BCC9DD",
"2X c #BAC3E2",
"3X c #C3C8D5",
"4X c #D0D0D0",
"5X c #E2E3DF",
"6X c #CFD1E4",
"7X c #E0DFEF",
"8X c #DDE3E9",
"9X c #E3E3E4",
"0X c #E0E2EB",
"qX c #FBFAFB",
"wX c #FBFCF5",
"eX c #EFF1F2",
"rX c None",
/* pixels */
"rXrXrXrXrXrXrXrXrXrXrXrXrXrXrXrXrXrX0 0 0 0 0 0 0 0 0 rXrXrXrXrXrXrXrXrX0 0 0 0 0 0 5 0 0 rXrXrXrXrXrXrXrXrXrXrXrXrXrXrXrXrXrXrX",
"rXrXrXrXrXrXrXrXrXrXrXrXrXrXrXrXrXrX4 4 d j d j d d d rXrXrXrXrXrXrXrXrXd d d d j l d 4 4 rXrXrXrXrXrXrXrXrXrXrXrXrXrXrXrXrXrXrX",
"rXrXrXrXrXrXrXrXrXrXrXrXrXrXrXrXrXrX& , J W -.W -.-.W z 0 0 0 rXrXrX0 z W -.-.Q W W J , > rXrXrXrXrXrXrXrXrXrXrXrXrXrXrXrXrXrXrX",
"rXrXrXrXrXrXrXrXrXrXrXrXrXrXrXrXrXrX  & L ,.3.3.3.3.,.c d 0 0 5 rXrXd c ;.3.3.3.3.2.L &   rXrXrXrXrXrXrXrXrXrXrXrXrXrXrXrXrXrXrX",
"rXrXrXrXrXrXrXrXrXrXrXrXrXrXrXrXrXrXrXrXS S L W ;.3.,.W U J c k e N R -.,.3.:.W L G v rXrXrXrXrXrXrXrXrXrXrXrXrXrXrXrXrXrXrXrXrX",
"rXrXrXrXrXrXrXrXrXrXrXrXrXrXrXrXrXrXrXrXO % r L W ,.3.3.,.W K v s B ;.,.3.,.W L r % @ rXrXrXrXrXrXrXrXrXrXrXrXrXrXrXrXrXrXrXrXrX",
"rXrXrXrXrXrXrXrXrXrXrXrXrXrXrXrXrXrXrXrX1 1 6 v c W W ,.3.Q W F 0 N -.-.W W S r 6 > < rXrXrXrXrXrXrXrXrXrXrXrXrXrXrXrXrXrXrXrXrX",
"rXrXrXrXrXrXrXrXrXrXrXrXrXrXrXrXrXrX0 0 4 4 < % 1 w x ;.3.2.2.L e z %.P j w 1 % < 0 4 0 0 rXrXrXrXrXrXrXrXrXrXrXrXrXrXrXrXrXrXrX",
"rXrXrXrXrXrXrXrXrXrXrXrXrXrXrXrXrXrXd j d d j r v S J :.;.Q Q L k z Y P G N x j j d d k j rXrXrXrXrXrXrXrXrXrXrXrXrXrXrXrXrXrXrX",
"rXrXrXrXrXrXrXrXrXrXrXrXrXrX0 0 0 s c D D K W ;.;.2.;.L L L L L J J J L ;.,.;.;.W D D B B 0 0 0 0 rXrXrXrXrXrXrXrXrXrXrXrXrXrXrX",
"rXrXrXrXrXrXrXrXrXrXrXrXrXrX0 0 w d D K T R Q 3.3.3.2.W L L L L L L L W ,.3.3.3.Q L K K B j w 0 0 rXrXrXrXrXrXrXrXrXrXrXrXrXrXrX",
"rXrXrXrXrXrXrXrXrXrXrXrX. > 4 d N J J K Q ;.2.3.3.3.2.2.;.;.2.3.;.,.;.,.3.3.3.3.3.;.Q K K N N f 0 > . rXrXrXrXrXrXrXrXrXrXrXrXrX",
"rXrXrXrXrXrXrXrXrXrXrX% & , w j G J J J W 2.2.3.3.3.3.3.3.3.3.3.3.3.3.3.3.3.,.2.3.;.W J J J G j 0 , & % rXrXrXrXrXrXrXrXrXrXrXrX",
"rXrXrXrXrXrXrXrXrXrXO q x x N N G G r 6 S G I %.:.3.3.3.3.3.3.3.3.3.3.3.3.3.-.U I D x 6 r J J N N x v q O rXrXrXrXrXrXrXrXrXrXrX",
"rXrXrXrXrXrXrXrXrX  + r G H G G H G 3 % 3 6 t P %.2.3.3.3.3.3.3.3.3.3.3.3.;.%.G x q 3 @ 3 N P G G G J t +   rXrXrXrXrXrXrXrXrXrX",
"rXrXrXrXrXrXrXrXrXrXrXl B z r r x x t t t M G P I W :.3.3.3.3.3.3.,.:.-.-.-.%.=.G M l t t x l r r z B l rXrXrXrXrXrXrXrXrXrXrXrX",
"rXrXrXrXrXrXrXrXrXrXrXb h s % > 0 w G H H H P P P P %.:.3.3.3.3.3.;.I P P P P P P H P H N w 0 > % s b b rXrXrXrXrXrXrXrXrXrXrXrX",
"rXrXrXrXrXrXrXrXrXrXrXs s s q q l m G P P P P P P P %.%.:.:.:.Q :.%.I P P P P P P P P P H m t q q 0 s s rXrXrXrXrXrXrXrXrXrXrXrX",
"rXrXrXrXrXrXrXrXrXrXrX+ @ q N H H G P P P P P P P P H %.%.P P P %.P P P P P P P P P G P H H H H H q $ O rXrXrXrXrXrXrXrXrXrXrXrX",
"rXrXrXrXrXrXrXrXrXrXrX> - q H H H =.P P P P P P P P H P H =.P P P P P P P P P P P P G =.H %.P P H e # > rXrXrXrXrXrXrXrXrXrXrXrX",
"rXrXrXrXrXrXrXrXrXe 0 0 0 l H P P P P P P P P P P P P P P P P P P P P P P P P P P P P P P P P P H t 0 0 0 0 rXrXrXrXrXrXrXrXrXrX",
"rXrXrXrXrXrXrXrXrX2 2 w w x H P P P P P P P P P P P P P P P P P P P P P P P P P P P P P P P P P H m w 0 0 2 rXrXrXrXrXrXrXrXrXrX",
"rXrXrXrXrXrXrXrXrX# - t G H P P P P P P P P P P P P P P P P P P P P P P P P P P P P P P P P P P P H N t - # rXrXrXrXrXrXrXrXrXrX",
"rXrXrXrXrXrXrXrXrX@ - t H H P P P P P P P P P P P P P P P P P P P P P P P P P P P P P P P P P P P P H t - @ rXrXrXrXrXrXrXrXrXrX",
"rXrXrXrXrXrXrX  % r M N P P P P P P P P P P P P P P P P P P P P P P P P P P P P P P P P P P P P P P H G M r %   rXrXrXrXrXrXrXrX",
"rXrXrXrXrXrXrX  % M G =.H H P H P P P P P P P P P P P P P P P P P P P P P P P P P P P P P P P P P H H H H M %   rXrXrXrXrXrXrXrX",
"rXrXrXrXrXrXrXrXrXrXG G x x x N H P P P P P P H P P P P P P P P P P P P P P P P P P P P P H H M M x M G H rXrXrXrXrXrXrXrXrXrXrX",
"rXrXrXrXrXrXrXrXrXrXrX6 p 5 5 j P I P P P P P P P P P P P P P P P P P P P P P P P P P P P %.H j 5 5 5 5 rXrXrXrXrXrXrXrXrXrXrXrX",
"rXrXrXrXrXrXrXrXrXrXrXrX6 5 4 B N.N.-.P P P P P P P P P P P P P P P P P P P P P P P P P Q N.N.B 5 5 5 rXrXrXrXrXrXrXrXrXrXrXrXrX",
"rXrXrXrXrXrXrXrXrXrXrXrXrXrX0 >.A.A.M.P P P P P P P P P P P P P P P P P P P P P H H P P M.S.A.>.w rXrXrXrXrXrXrXrXrXrXrXrXrXrXrX",
"rXrXrXrXrXrXrXrXrXrXrXrXrXrXe <.D.D.M.H H N =.P P P P P P P P P P P P P P P P P =.J P N <.D.S.<.e rXrXrXrXrXrXrXrXrXrXrXrXrXrXrX",
"rXrXrXrXrXrXrXrXrXrXrXrXrXrXe <.S.D.<.z N %.G H P P P P P P P P P P P P P P P P N %.N m m.D.S.<.e rXrXrXrXrXrXrXrXrXrXrXrXrXrXrX",
"rXrXrXrXrXrXrXrXrXrXrXrXrXrXw <.A.A.! d B E R R Y P G J H N H J P H H H H H Y R R R B s <.A.A.! e rXrXrXrXrXrXrXrXrXrXrXrXrXrXrX",
"rXrXrXrXrXrXrXrXrXrXrXrXrXrXrXrXj.j.z : u.g.g.a.d.h l k d f t l t t l j f h C p.g.z.u.2 k j.M.rXrXrXrXrXrXrXrXrXrXrXrXrXrXrXrXrX",
"rXrXrXrXrXrXrXrXrXrXrXrXrXrXrXrX~ F 6 ; y.z.f.a.d.h h p p h i h g g h h h h d.a.l.z.y.; 6 F ~ rXrXrXrXrXrXrXrXrXrXrXrXrXrXrXrXrX",
"rXrXrXrXrXrXrXrXrXrXrXrXrXrXrXrXz k 1 # a V u.a.a.g.t.h.h.l.t.l.k.g.s.s.s.s.a.a.u.V a $ 1 k k rXrXrXrXrXrXrXrXrXrXrXrXrXrXrXrXrX",
"rXrXrXrXrXrXrXrXrXrXrXrXrXrXrXrX0 0 = . 2 s Z a.s.z.x.c.b.b.b.b.c.v.v.v.x.z.s.a.Z s 2 8 - 0 e rXrXrXrXrXrXrXrXrXrXrXrXrXrXrXrXrX",
"rXrXrXrXrXrXrXrXrXrXrXrXrXrXrXrXrX0 = . > < i a V k.k.z.z.z.z.z.z.l.f.l.h.k.V Z i 4 ( ..` 9 < rXrXrXrXrXrXrXrXrXrXrXrXrXrXrXrXrX",
"rXrXrXrXrXrXrXrXrXrXrXrXrXrXrXrXrXrXrXrX* X @ % 5 Z T i.t.d.t.t.t.i.i.u.C b 2 $ o * ` H.H.7 $ rXrXrXrXrXrXrXrXrXrXrXrXrXrXrXrXrX",
"rXrXrXrXrXrXrXrXrXrXrXrXrXrXrXrXrXrXrXrX^ ^ #.Y.U.9.9.q.+.O.V C d.m.Z.C.W k > * / ^ ..U.U.<.j.B rXrXrXrXrXrXrXrXrXrXrXrXrXrXrXrX",
"rXrXrXrXrXrXrXrXrXrXrXrXrXrXrXrXrXrX  8  .K.~.}.|.U.P.U.U.@.n n n T.-X;X*.@ . *  .K.#.$.r.A.A.E . rXrXrXrXrXrXrXrXrXrXrXrXrXrXrX",
"rXrXrXrXrXrXrXrXrXrXrXrXrXrXrXrXrXrX( ) P.^.~.}.{.P.K.P.L. .' _ '  X,X-X*.= o 8  .H.8.q.V.D.A.E   rXrXrXrXrXrXrXrXrXrXrXrXrXrXrX",
"rXrXrXrXrXrXrXrXrXrXrXrXrXrXrXrXT o.9.J.{.}.{.^.P.) ^ H.L.L.K.K.H.%X,X-X0.y rXrX7 ( N.A.D.F.S.E . rXrXrXrXrXrXrXrXrXrXrXrXrXrXrX",
"rXrXrXrXrXrXrXrXrXrXrXrXrXrXrXrXN.r.Y.L.{.}.~.K.G.7 / #.K.K.K.K.L.%X,X-X0.y rXrXrX& M.A.S.S.A.E   rXrXrXrXrXrXrXrXrXrXrXrXrXrXrX",
"rXrXrXrXrXrXrXrXrXrXrXrXrXrXT V.:X:Xe.^ #.Y.#.$.| ( ) | } } } $.}  X1X*X0.y rXrXrXrXT ! ! ! ! rXrXrXrXrXrXrXrXrXrXrXrXrXrXrXrXrX",
"rXrXrXrXrXrXrXrXrXrXrXrXrXrXT V.>X>XB.- ) $.$.$.5.@.5.5.6.6.$.6.7. X,X;X0.y rXrXrXrXrX  . . . rXrXrXrXrXrXrXrXrXrXrXrXrXrXrXrXrX",
"rXrXrXrXrXrXrXrXrXrXrXrXrXrXT V.>X>XB.u '.&X&X&X$X<X&X&X&X#X&X,X3X,X;X#XE.#.) X rXrXrXrXrXrXrXrXrXrXrXrXrXrXrXrXrXrXrXrXrXrXrXrX",
"rXrXrXrXrXrXrXrXrXrXrXrXrXrXF V.>X>Xr.] $X1X1X1X3X3X3X3X3X1X3X0XqX5X=X.XY.P.)   rXrXrXrXrXrXrXrXrXrXrXrXrXrXrXrXrXrXrXrXrXrXrXrX",
"rXrXrXrXrXrXrXrXrXrXrXrXrXrXrXV.+X+Xq.' &X1X6X8X8X8X7X8X0X8X9XeXqX5XOXT.R.R.5.o rXrXrXrXrXrXrXrXrXrXrXrXrXrXrXrXrXrXrXrXrXrXrXrX",
"rXrXrXrXrXrXrXrXrXrXrXrXrXrXrXrX-.1.o.5.@X1X8XwXwXqXqXqXqXqXqXqXwX4X0.0.XXXX*.* rXrXrXrXrXrXrXrXrXrXrXrXrXrXrXrXrXrXrXrXrXrXrXrX",
"rXrXrXrXrXrXrXrXrXrXrXrXrXrXrXrX~ B ] $.].<X1X5X9X0X8X0X9X9X9X0X6X,X7.7.XX#XE.G.rXrXrXrXrXrXrXrXrXrXrXrXrXrXrXrXrXrXrXrXrXrXrXrX",
"rXrXrXrXrXrXrXrXrXrXrXrXrXrXrXrXrXrX) | W._.%X*X*X*X*X*X*X*X*X$X).^...7.XX#X).(.rXrXrXrXrXrXrXrXrXrXrXrXrXrXrXrXrXrXrXrXrXrXrXrX",
"rXrXrXrXrXrXrXrXrXrXrXrXrXrXrXrXrXrX` ' W.Q./.@X#X#X%XXX@X@X.X/.).W._ 7.XX$X).(.rXrXrXrXrXrXrXrXrXrXrXrXrXrXrXrXrXrXrXrXrXrXrXrX",
"rXrXrXrXrXrXrXrXrXrXrXrXrXrXrXrXrXrX) ' T.#X%X).Q.Q.Q.Q.!.Q.Q.%XXXT.y &.XX#X).(.rXrXrXrXrXrXrXrXrXrXrXrXrXrXrXrXrXrXrXrXrXrXrXrX",
"rXrXrXrXrXrXrXrXrXrXrXrXrXrXrXrXrXrX` ' A.'.R.I.I.I.I.I.I.I.I./..XT.y &..X#X).(.rXrXrXrXrXrXrXrXrXrXrXrXrXrXrXrXrXrXrXrXrXrXrXrX",
"rXrXrXrXrXrXrXrXrXrXrXrXrXrXrXrXrXrXrXrX*.*.6...[ [ [ [ [ [ [ 5.*.&._ 7..X#XY. .rXrXrXrXrXrXrXrXrXrXrXrXrXrXrXrXrXrXrXrXrXrXrXrX",
"rXrXrXrXrXrXrXrXrXrXrXrXrXrXrXrXrXrXrXrX* o o o o X X X X X * o o 9 _ 8.XX#X*.* rXrXrXrXrXrXrXrXrXrXrXrXrXrXrXrXrXrXrXrXrXrXrXrX",
"rXrXrXrXrXrXrXrXrXrXrXrXrXrXrXrXrXrXrXrXrXrXrXrXrXrXrXrXrXrXrXX X 7 _ @.w.w.o.. rXrXrXrXrXrXrXrXrXrXrXrXrXrXrXrXrXrXrXrXrXrXrXrX",
"rXrXrXrXrXrXrXrXrXrXrXrXrXrXrXrXrXrXrXrXrXrXrXrXrXrXrXrXrXrXrX    9 X.X.X.X.9 . rXrXrXrXrXrXrXrXrXrXrXrXrXrXrXrXrXrXrXrXrXrXrXrX",
"rXrXrXrXrXrXrXrXrXrXrXrXrXrXrXrXrXrXrXrXrXrXrXrXrXrXrXrXrXrXrXrX. A O.n.n.O.s   rXrXrXrXrXrXrXrXrXrXrXrXrXrXrXrXrXrXrXrXrXrXrXrX",
"rXrXrXrXrXrXrXrXrXrXrXrXrXrXrXrXrXrXrXrXrXrXrXrXrXrXrXrXrXrXrXrXO a z.x.x.z.a . rXrXrXrXrXrXrXrXrXrXrXrXrXrXrXrXrXrXrXrXrXrXrXrX",
"rXrXrXrXrXrXrXrXrXrXrXrXrXrXrXrXrXrXrXrXrXrXrXrXrXrXrXrXrXrXrXrX. a t.t.i.t.a   rXrXrXrXrXrXrXrXrXrXrXrXrXrXrXrXrXrXrXrXrXrXrXrX",
"rXrXrXrXrXrXrXrXrXrXrXrXrXrXrXrXrXrXrXrXrXrXrXrXrXrXrXrXrXrXrXrXrXrX: : : : rXrXrXrXrXrXrXrXrXrXrXrXrXrXrXrXrXrXrXrXrXrXrXrXrXrX",
"rXrXrXrXrXrXrXrXrXrXrXrXrXrXrXrXrXrXrXrXrXrXrXrXrXrXrXrXrXrXrXrXrXrX        rXrXrXrXrXrXrXrXrXrXrXrXrXrXrXrXrXrXrXrXrXrXrXrXrXrX"
};
