/* XPM */
static char *result[] = {
/* columns rows colors chars-per-pixel */
"64 64 222 2 ",
"   c #030102",
".  c #0A0302",
"X  c #0A040B",
"o  c #090608",
"O  c #130A06",
"+  c #160D0A",
"@  c #1B0A08",
"#  c #17110C",
"$  c #1B130E",
"%  c #030512",
"&  c #0A0615",
"*  c #060916",
"=  c #1C0F12",
"-  c #130D15",
";  c #1F1411",
":  c #281109",
">  c #3E1507",
",  c #251513",
"<  c #261B14",
"1  c #2B1A15",
"2  c #2A1B1A",
"3  c #331B15",
"4  c #2D221C",
"5  c #37201E",
"6  c #3B251B",
"7  c #372719",
"8  c #070E23",
"9  c #170E26",
"0  c #12172E",
"q  c #221734",
"w  c #3B2422",
"e  c #352C24",
"r  c #3D2B25",
"t  c #392927",
"y  c #3C3125",
"u  c #3C332C",
"i  c #332938",
"p  c #292A39",
"a  c #521E1B",
"s  c #4A281C",
"d  c #642914",
"f  c #442521",
"g  c #432E26",
"h  c #422F2B",
"j  c #4B2829",
"k  c #552928",
"l  c #423225",
"z  c #4B3425",
"x  c #44332B",
"c  c #4B362B",
"v  c #45382C",
"b  c #4D392E",
"n  c #423827",
"m  c #56372C",
"M  c #472B39",
"N  c #463730",
"B  c #433931",
"V  c #4B3D33",
"C  c #4C3A38",
"Z  c #573931",
"A  c #7C3326",
"S  c #7E3431",
"D  c #6E2C27",
"F  c #491E26",
"G  c #4D412F",
"H  c #55412F",
"J  c #5C4329",
"K  c #4E4234",
"L  c #4E443A",
"P  c #534333",
"I  c #5A4432",
"U  c #5B4B36",
"Y  c #50463C",
"T  c #54493D",
"R  c #5D4D3B",
"E  c #584638",
"W  c #614131",
"Q  c #63463A",
"!  c #6A4C39",
"~  c #64533D",
"^  c #6C533D",
"/  c #6A5B3E",
"(  c #6B4E33",
")  c #2B1E44",
"_  c #162246",
"`  c #1E2D57",
"'  c #242749",
"]  c #292D55",
"[  c #272C53",
"{  c #382954",
"}  c #27315D",
"|  c #393858",
" . c #343049",
".. c #1F2F6F",
"X. c #192563",
"o. c #2B366A",
"O. c #323967",
"+. c #293B73",
"@. c #212F6F",
"#. c #442E4F",
"$. c #7C3844",
"%. c #723E5C",
"&. c #463963",
"*. c #374677",
"=. c #3C4364",
"-. c #5D5040",
";. c #56575A",
":. c #4E4553",
">. c #655541",
",. c #6D5D45",
"<. c #675844",
"1. c #765441",
"2. c #705F46",
"3. c #7A5641",
"4. c #785E5B",
"5. c #716047",
"6. c #736349",
"7. c #6F6240",
"8. c #424666",
"9. c #474B65",
"0. c #575769",
"q. c #514C70",
"w. c #6E5966",
"e. c #766F73",
"r. c #953A1E",
"t. c #893A1A",
"y. c #883926",
"u. c #973829",
"i. c #993731",
"p. c #8D3330",
"a. c #AC3F2E",
"s. c #994429",
"d. c #825F3F",
"f. c #8D442C",
"g. c #A5422A",
"h. c #A84726",
"j. c #B54C2B",
"k. c #B95129",
"l. c #BB4936",
"z. c #C04A29",
"x. c #833C49",
"c. c #815B47",
"v. c #8D5756",
"b. c #A65B51",
"n. c #85644B",
"m. c #876653",
"M. c #957666",
"N. c #98777D",
"B. c #A27C7D",
"V. c #BC8965",
"C. c #A58A7A",
"Z. c #C38E69",
"A. c #C6916D",
"S. c #CE9875",
"D. c #223585",
"F. c #384A8A",
"G. c #364D91",
"H. c #3A4E93",
"J. c #3A5393",
"K. c #3B558F",
"L. c #3954B9",
"P. c #4A588C",
"I. c #4C6291",
"U. c #777989",
"Y. c #616897",
"T. c #767A98",
"R. c #4759AB",
"E. c #4B69AB",
"W. c #5B6BBE",
"Q. c #576CBE",
"!. c #577CBB",
"~. c #5B65AE",
"^. c #6970B6",
"/. c #6A5F86",
"(. c #3755CC",
"). c #6A76C9",
"_. c #556DC8",
"`. c #88798D",
"'. c #7D8298",
"]. c #7D86AA",
"[. c #7B82B3",
"{. c #5C83C2",
"}. c #6894D4",
"|. c #6387C3",
" X c #858895",
".X c #988E9C",
"XX c #95949B",
"oX c #95878A",
"OX c #BD9C89",
"+X c #B38880",
"@X c #8E96A6",
"#X c #9696A8",
"$X c #999DB7",
"%X c #888EB2",
"&X c #98A2B5",
"*X c #AAABAB",
"=X c #A8A7AA",
"-X c #AEB1B8",
";X c #AEB1B7",
":X c #D3AC94",
">X c #E3B79E",
",X c #C29888",
"<X c #EAC2AA",
"1X c #F5CDB4",
"2X c #EEC7B0",
"3X c #B9BCC6",
"4X c #AFB3C1",
"5X c #9EAFD2",
"6X c #BCC9DD",
"7X c #BAC3E2",
"8X c #C3C8D5",
"9X c #D0D0D0",
"0X c #E2E3DF",
"qX c #CFD1E4",
"wX c #E0DFEF",
"eX c #DDE3E9",
"rX c #E3E3E4",
"tX c #E0E2EB",
"yX c #FBFAFB",
"uX c #FBFCF5",
"iX c #EFF1F2",
"pX c None",
/* pixels */
"pXpXpXpXpXpXpXpXpXpXpXpXpXpXpXpXpXpXw w w w w w w w w pXpXpXpXpXpXpXpXpXw w w w w w w w w pXpXpXpXpXpXpXpXpXpXpXpXpXpXpXpXpXpXpX",
"pXpXpXpXpXpXpXpXpXpXpXpXpXpXpXpXpXpX5 6 r g g g g g g pXpXpXpXpXpXpXpXpXg g g g g l f w 5 pXpXpXpXpXpXpXpXpXpXpXpXpXpXpXpXpXpXpX",
"pXpXpXpXpXpXpXpXpXpXpXpXpXpXpXpXpXpX, < P ~ <.<.^ <.~ c w 5 w pXpXpXw c ~ <.<./ <.~ G 4 $ pXpXpXpXpXpXpXpXpXpXpXpXpXpXpXpXpXpXpX",
"pXpXpXpXpXpXpXpXpXpXpXpXpXpXpXpXpXpX  $ U 2.5.5.5.6.2.b r f r 6 pXpXg b 2.6.2.2.5.7.U ;   pXpXpXpXpXpXpXpXpXpXpXpXpXpXpXpXpXpXpX",
"pXpXpXpXpXpXpXpXpXpXpXpXpXpXpXpXpXpXpXpXn G U ~ <.6.2.~ ~ Z c n t V Q >.2.6.<./ U H n pXpXpXpXpXpXpXpXpXpXpXpXpXpXpXpXpXpXpXpXpX",
"pXpXpXpXpXpXpXpXpXpXpXpXpXpXpXpXpXpXpXpX+ # y T ~ 5.6.5.,.~ U z w Z 2.2.2.2.~ P y + + pXpXpXpXpXpXpXpXpXpXpXpXpXpXpXpXpXpXpXpXpX",
"pXpXpXpXpXpXpXpXpXpXpXpXpXpXpXpXpXpXpXpX1 < 7 n G R ~ 2.5./ ~ H f V >.>.~ R G n 5 < 1 pXpXpXpXpXpXpXpXpXpXpXpXpXpXpXpXpXpXpXpXpX",
"pXpXpXpXpXpXpXpXpXpXpXpXpXpXpXpXpXpXw w w 6 1 + < r V ,.6.6.7.U t c -.E x r < + 1 w w w w pXpXpXpXpXpXpXpXpXpXpXpXpXpXpXpXpXpXpX",
"pXpXpXpXpXpXpXpXpXpXpXpXpXpXpXpXpXpXg g z g l l v V Y / 7./ / U x c E E Y V x n l l g g l pXpXpXpXpXpXpXpXpXpXpXpXpXpXpXpXpXpXpX",
"pXpXpXpXpXpXpXpXpXpXpXpXpXpXw w w g b H H H ~ ,.,.7.,.R T U U P H P P E <.5.5.,.~ Z H H b f w w w pXpXpXpXpXpXpXpXpXpXpXpXpXpXpX",
"pXpXpXpXpXpXpXpXpXpXpXpXpXpXw w r l H I U Q / 6.6.6.5.R U U R R U U R ~ 5.6.6.5./ Q I I m l r w w pXpXpXpXpXpXpXpXpXpXpXpXpXpXpX",
"pXpXpXpXpXpXpXpXpXpXpXpX. , 5 g b P P I ^ ,.2.5.6.6.6.,.,.7.6.6.5.,.,.,.6.6.6.6.2.2./ I P K V g w , . pXpXpXpXpXpXpXpXpXpXpXpXpX",
"pXpXpXpXpXpXpXpXpXpXpX# $ 2 r x K Y P H ~ ,.5.5.6.6.6.6.6.6.6.6.6.6.6.6.6.6.5.5.5.,.>.P P P K x w < $ $ pXpXpXpXpXpXpXpXpXpXpXpX",
"pXpXpXpXpXpXpXpXpXpXO e n v b V K K y 6 v P T -.<.5.6.6.6.6.6.6.6.6.6.6.6.5.>.-.T H v 7 y P K V V v n e O pXpXpXpXpXpXpXpXpXpXpX",
"pXpXpXpXpXpXpXpXpX  O y K L K K K K 4 + 5 7 v L -.,.6.6.6.6.6.6.6.6.6.5.6.2.-.L v e 4 + 4 V P L P P P u O   pXpXpXpXpXpXpXpXpXpX",
"pXpXpXpXpXpXpXpXpXpXpXx Z b y y v N u u B B L Y T >.<.6.6.6.6.6.6.5.<.>.<.>.-.L K N x u u v x y y b b x pXpXpXpXpXpXpXpXpXpXpXpX",
"pXpXpXpXpXpXpXpXpXpXpXm k f # ; w r K L L L Y Y Y T -.,.6.6.6.6.6.,.T T Y Y Y Y Y Y L Y C r w , # f m k pXpXpXpXpXpXpXpXpXpXpXpX",
"pXpXpXpXpXpXpXpXpXpXpXf f t e e x N K L Y Y Y Y Y Y T -.<.<.-.-.<.-.T Y Y Y Y Y Y Y Y Y L N u e e w f f pXpXpXpXpXpXpXpXpXpXpXpX",
"pXpXpXpXpXpXpXpXpXpXpXO @ e K L L L L L Y Y Y Y Y Y Y T -.Y -.-.-.Y Y Y Y Y Y Y Y Y Y Y Y L L L L e + O pXpXpXpXpXpXpXpXpXpXpXpX",
"pXpXpXpXpXpXpXpXpXpXpX, $ t L L -.L :.K Y Y Y Y Y Y Y Y Y Y L L Y Y Y Y Y Y Y Y Y Y Y Y Y Y Y Y L t @ , pXpXpXpXpXpXpXpXpXpXpXpX",
"pXpXpXpXpXpXpXpXpXw w w 5 x L Y Y Y Y Y Y Y Y Y Y Y Y Y Y Y Y Y Y Y Y Y Y Y Y Y Y Y Y Y Y L Y Y L u w w w 5 pXpXpXpXpXpXpXpXpXpX",
"pXpXpXpXpXpXpXpXpXw 3 r r v L Y Y Y Y Y Y Y Y Y Y Y Y Y Y Y Y Y L Y Y Y Y Y Y Y Y Y Y Y Y Y Y Y L N r t w 3 pXpXpXpXpXpXpXpXpXpX",
"pXpXpXpXpXpXpXpXpX@ , u K L Y Y Y Y Y Y Y Y Y Y Y Y Y Y Y Y Y Y Y Y Y Y Y Y Y Y Y Y Y Y Y Y Y Y Y L V u , @ pXpXpXpXpXpXpXpXpXpX",
"pXpXpXpXpXpXpXpXpX# $ u L Y Y Y Y Y Y Y Y Y Y Y Y Y Y Y Y Y Y Y Y Y Y Y Y Y Y Y Y Y Y Y Y Y Y Y Y Y L u = # pXpXpXpXpXpXpXpXpXpX",
"pXpXpXpXpXpXpX  # u B V Y Y Y Y Y Y Y Y Y Y Y Y Y Y Y Y Y Y Y Y Y Y Y Y Y -.L L Y Y Y Y Y Y Y Y Y Y Y K u u #   pXpXpXpXpXpXpXpX",
"pXpXpXpXpXpXpX  # B L L L Y L Y Y Y Y Y Y Y Y Y Y Y Y Y Y Y Y Y Y Y Y Y Y L K :.Y Y Y Y Y Y Y L Y Y L L Y B =   pXpXpXpXpXpXpXpX",
"pXpXpXpXpXpXpXpXpXpXL V b v v V L L Y Y Y Y Y Y Y Y Y Y Y Y Y Y Y Y Y Y Y Y L L Y Y Y Y Y Y L V v v v K Y pXpXpXpXpXpXpXpXpXpXpX",
"pXpXpXpXpXpXpXpXpXpXpX7 6 6 6 x L -.Y Y Y Y Y Y Y Y Y Y Y Y Y Y Y Y Y Y Y Y Y L Y Y Y Y Y T Y l 6 6 6 6 pXpXpXpXpXpXpXpXpXpXpXpX",
"pXpXpXpXpXpXpXpXpXpXpXpX6 6 6 Z m.m.>.-.C -.Y Y Y Y Y Y Y Y Y Y Y Y Y Y Y Y Y Y Y Y Y Y <.n.m.Z 7 6 6 pXpXpXpXpXpXpXpXpXpXpXpXpX",
"pXpXpXpXpXpXpXpXpXpXpXpXpXpXw 1.V.V.n.Y :.C Y Y Y Y Y Y Y Y Y Y Y Y Y Y Y Y Y Y Y Y Y Y n.Z.Z.1.t pXpXpXpXpXpXpXpXpXpXpXpXpXpXpX",
"pXpXpXpXpXpXpXpXpXpXpXpXpXpXt 1.Z.A.n.Y K Y Y Y Y Y Y Y Y Y Y Y Y Y Y Y Y Y Y Y Y Y L L c.A.Z.1.t pXpXpXpXpXpXpXpXpXpXpXpXpXpXpX",
"pXpXpXpXpXpXpXpXpXpXpXpXpXpXt 1.Z.Z.3.N B L Y Y Y Y Y Y Y Y Y Y Y Y Y Y Y Y Y Y Y Y C j c.A.Z.1.t pXpXpXpXpXpXpXpXpXpXpXpXpXpXpX",
"pXpXpXpXpXpXpXpXpXpXpXpXpXpXt 3.V.V.1.f Z >.! Z E L P K K L L V L L L L L :.I Q Q ! Z f 1.V.V.^ g pXpXpXpXpXpXpXpXpXpXpXpXpXpXpX",
"pXpXpXpXpXpXpXpXpXpXpXpXpXpXpXpXd.d.c > y.g.s.p.S k x l g h h h u u x N h k S p.s.h.y.3 z c.n.pXpXpXpXpXpXpXpXpXpXpXpXpXpXpXpXpX",
"pXpXpXpXpXpXpXpXpXpXpXpXpXpXpXpX( J 7 : t.h.g.u.p.k k s s k a k g j k k k k p.i.h.h.t.: 7 J J pXpXpXpXpXpXpXpXpXpXpXpXpXpXpXpXpX",
"pXpXpXpXpXpXpXpXpXpXpXpXpXpXpXpXz z < @ d A p.i.i.u.s.r.h.s.g.r.s.s.s.i.u.u.u.i.y.A d @ < z z pXpXpXpXpXpXpXpXpXpXpXpXpXpXpXpXpX",
"pXpXpXpXpXpXpXpXpXpXpXpXpXpXpXpX5 w = . 1 f D p.i.j.j.k.z.z.z.z.j.l.l.l.j.g.i.i.D f 3 . - w f pXpXpXpXpXpXpXpXpXpXpXpXpXpXpXpXpX",
"pXpXpXpXpXpXpXpXpXpXpXpXpXpXpXpX< , O   : 1 a D A f.f.h.h.a.h.h.h.a.a.g.s.f.A D a < , . = w pXpXpXpXpXpXpXpXpXpXpXpXpXpXpXpXpXpX",
"pXpXpXpXpXpXpXpXpXpXpXpXpXpXpXpX+ O o   X X O @ s m W u.r.r.r.r.r.r.u.u.( Z w = - X X pXpXpXpXpXpXpXpXpXpXpXpXpXpXpXpXpXpXpXpXpX",
"pXpXpXpXpXpXpXpXpXpXpXpXpXpXpXZ 3.1.C p _ } _ % : z m %.%.x.D p.A v.B.N.w.9.P.P.*.` ` pXpXpXpXpXpXpXpXpXpXpXpXpXpXpXpXpXpXpXpXpX",
"pXpXpXpXpXpXpXpXpXpXpXpXpXpX. ! V.V.4.:.F.F.+.8 . + ' *.P.&.M M M U.3X-XY.E.{.}.!.G.*.*   pXpXpXpXpXpXpXpXpXpXpXpXpXpXpXpXpXpXpX",
"pXpXpXpXpXpXpXpXpXpXpXpXpXpX. ^ Z.A.M.w.q.F.@.8 . - ' F.H.O.O.{ | `.3X4XY.K.{.}.!.E.J.` ' pXpXpXpXpXpXpXpXpXpXpXpXpXpXpXpXpXpXpX",
"pXpXpXpXpXpXpXpXpXpXpXpXpXpX. ( Z.S.Z.V.m._ 0 pXpXi { F.H.H.G.G.F.%X3X-X0.` K.E.{.}.{.G.P.#.W pXpXpXpXpXpXpXpXpXpXpXpXpXpXpXpXpX",
"pXpXpXpXpXpXpXpXpXpXpXpXpXpX  ! V.Z.Z.V.c.; 0 pXpXi { F.G.G.G.G.G.%X3X-X9.0 *.J.{.}.{.Y./.m.m.pXpXpXpXpXpXpXpXpXpXpXpXpXpXpXpXpX",
"pXpXpXpXpXpXpXpXpXpXpXpXpXpXpXpX( ^ ^ ^ #.' ' ] } ] ] O.O.+.O.+.O.'.-X;X;.- _ ` K.E.`.+X,X>X:XM.W pXpXpXpXpXpXpXpXpXpXpXpXpXpXpX",
"pXpXpXpXpXpXpXpXpXpXpXpXpXpXpXpX. . . 8 | 9.8.9.8.8.8.8.8.=.9.0.0. X6X;X;.8 % 8 +.J.`.S.:X1X2XM.W pXpXpXpXpXpXpXpXpXpXpXpXpXpXpX",
"pXpXpXpXpXpXpXpXpXpXpXpXpXpXpXpXpXpX  p T.$X&X&X$X$X$X$X&X&X&X-X8X8X*X#XI.+._ % _ o.oX>X<X1X<XM.W pXpXpXpXpXpXpXpXpXpXpXpXpXpXpX",
"pXpXpXpXpXpXpXpXpXpXpXpXpXpXpXpXpXpX%  .$X7X6X6XqX8X8X8X8X8X8XtXyXrX=X XY.F.`     4 C.2X1X1X<XM.W pXpXpXpXpXpXpXpXpXpXpXpXpXpXpX",
"pXpXpXpXpXpXpXpXpXpXpXpXpXpXpXpXpXpX_ | &X6XqXeXeXwXwXeXeXeXrXiXuX0XoXU.T.T.:.    < M.OXOXOX,XM.pXpXpXpXpXpXpXpXpXpXpXpXpXpXpXpX",
"pXpXpXpXpXpXpXpXpXpXpXpXpXpXpXpXpXpX[ 8.@X6XeXuXuXyXyXyXyXyXyXyXuX9X0.0..XXX0.& pXpXpXy Z ! ^ pXpXpXpXpXpXpXpXpXpXpXpXpXpXpXpXpX",
"pXpXpXpXpXpXpXpXpXpXpXpXpXpXpXpXpXpX[ =.].5X6X0XrXtXeXeXrXrXrXeXeX4Xq.0.XX#XY.D.pXpXpX  5 m W pXpXpXpXpXpXpXpXpXpXpXpXpXpXpXpXpX",
"pXpXpXpXpXpXpXpXpXpXpXpXpXpXpXpXpXpX[ O.E._.%X=X*X=X*X=X*X=X=X$X).~.O.0.#X#X_.(.pXpXpXpXpXpXpXpXpXpXpXpXpXpXpXpXpXpXpXpXpXpXpXpX",
"pXpXpXpXpXpXpXpXpXpXpXpXpXpXpXpXpXpX] } R.W.^.@X#X#X%X#X@X@X@X[.).R.{ ;.oX.X^.(.pXpXpXpXpXpXpXpXpXpXpXpXpXpXpXpXpXpXpXpXpXpXpXpX",
"pXpXpXpXpXpXpXpXpXpXpXpXpXpXpXpXpXpX] =.'.@X%X).W.W.W.W.Q.W.).^.@XU. .k b.b.%.X.pXpXpXpXpXpXpXpXpXpXpXpXpXpXpXpXpXpXpXpXpXpXpXpX",
"pXpXpXpXpXpXpXpXpXpXpXpXpXpXpXpXpXpX] | M.XX`.L.L.L.L.L.L.L.L.T..Xe.i k g.h.d . pXpXpXpXpXpXpXpXpXpXpXpXpXpXpXpXpXpXpXpXpXpXpXpX",
"pXpXpXpXpXpXpXpXpXpXpXpXpXpXpXpXpXpXpXpX;.;.9.@.@.@.@.......@.8.;.:. .{ k d pXpXpXpXpXpXpXpXpXpXpXpXpXpXpXpXpXpXpXpXpXpXpXpXpXpX",
"pXpXpXpXpXpXpXpXpXpXpXpXpXpXpXpXpXpXpXpX& X X X & & & 8 & % % % & q { { 9   pXpXpXpXpXpXpXpXpXpXpXpXpXpXpXpXpXpXpXpXpXpXpXpXpXpX",
"pXpXpXpXpXpXpXpXpXpXpXpXpXpXpXpXpXpXpXpXpXpX.   9 ) ) ) ) 9     pXpXpXpXpXpXpXpXpXpXpXpXpXpXpXpXpXpXpXpXpXpXpXpXpXpXpXpXpXpXpXpX",
"pXpXpXpXpXpXpXpXpXpXpXpXpXpXpXpXpXpXpXpXpXpXpX  q { #.{ { q     pXpXpXpXpXpXpXpXpXpXpXpXpXpXpXpXpXpXpXpXpXpXpXpXpXpXpXpXpXpXpXpX",
"pXpXpXpXpXpXpXpXpXpXpXpXpXpXpXpXpXpXpXpXpXpXpX  F x.x.x.x.j .   pXpXpXpXpXpXpXpXpXpXpXpXpXpXpXpXpXpXpXpXpXpXpXpXpXpXpXpXpXpXpXpX",
"pXpXpXpXpXpXpXpXpXpXpXpXpXpXpXpXpXpXpXpXpXpXpX  d g.g.j.h.d O pXpXpXpXpXpXpXpXpXpXpXpXpXpXpXpXpXpXpXpXpXpXpXpXpXpXpXpXpXpXpXpXpX",
"pXpXpXpXpXpXpXpXpXpXpXpXpXpXpXpXpXpXpXpXpXpXpX. d r.r.r.r.d O pXpXpXpXpXpXpXpXpXpXpXpXpXpXpXpXpXpXpXpXpXpXpXpXpXpXpXpXpXpXpXpXpX",
"pXpXpXpXpXpXpXpXpXpXpXpXpXpXpXpXpXpXpXpXpXpXpXpXpX> a > > pXpXpXpXpXpXpXpXpXpXpXpXpXpXpXpXpXpXpXpXpXpXpXpXpXpXpXpXpXpXpXpXpXpXpX",
"pXpXpXpXpXpXpXpXpXpXpXpXpXpXpXpXpXpXpXpXpXpXpXpXpX        pXpXpXpXpXpXpXpXpXpXpXpXpXpXpXpXpXpXpXpXpXpXpXpXpXpXpXpXpXpXpXpXpXpXpX"
};
