/* XPM */
static char *result[] = {
/* columns rows colors chars-per-pixel */
"64 64 233 2 ",
"   c #020201",
".  c #090201",
"X  c #0B0A07",
"o  c #140907",
"O  c #16120D",
"+  c #1B120E",
"@  c #080915",
"#  c #1C1415",
"$  c #241513",
"%  c #281B17",
"&  c #3A1C15",
"*  c #36150A",
"=  c #2D221B",
"-  c #27201A",
";  c #36211D",
":  c #38271C",
">  c #171328",
",  c #1E1B35",
"<  c #0F1A37",
"1  c #241C30",
"2  c #292628",
"3  c #3B2421",
"4  c #342B24",
"5  c #3D2B25",
"6  c #372A25",
"7  c #3C322B",
"8  c #3C3125",
"9  c #372838",
"0  c #343239",
"q  c #41150B",
"w  c #541D12",
"e  c #462D1C",
"r  c #46311F",
"t  c #682618",
"y  c #73311D",
"u  c #442D26",
"i  c #442A24",
"p  c #443226",
"a  c #43342C",
"s  c #4B342C",
"d  c #45392C",
"f  c #4C3A2D",
"g  c #463425",
"h  c #563A2C",
"j  c #463730",
"k  c #443A31",
"l  c #4B3D34",
"z  c #473D3F",
"x  c #553C31",
"c  c #51222A",
"v  c #753625",
"b  c #633429",
"n  c #4B1E26",
"m  c #55412F",
"M  c #594425",
"N  c #4D4235",
"B  c #4E443A",
"V  c #454239",
"C  c #534333",
"Z  c #5B4B36",
"A  c #51463C",
"S  c #5C4C3B",
"D  c #594737",
"F  c #4D412F",
"G  c #654A2B",
"H  c #624232",
"J  c #644D3B",
"K  c #6A4C37",
"L  c #764738",
"P  c #64533D",
"I  c #69593F",
"U  c #75543A",
"Y  c #774327",
"T  c #241F41",
"R  c #1A2D51",
"E  c #362D41",
"W  c #362C54",
"Q  c #393757",
"!  c #2D304F",
"~  c #343A72",
"^  c #32376C",
"/  c #513A43",
"(  c #45364D",
")  c #7E3845",
"_  c #33426E",
"`  c #45464A",
"'  c #5D5040",
"]  c #484859",
"[  c #56575C",
"{  c #564E58",
"}  c #645542",
"|  c #6D5D45",
" . c #69574C",
".. c #705F46",
"X. c #785642",
"o. c #715C52",
"O. c #6F4B48",
"+. c #716047",
"@. c #736249",
"#. c #68605C",
"$. c #70624E",
"%. c #5B5C7A",
"&. c #4E5167",
"*. c #605C60",
"=. c #676875",
"-. c #6D6A6A",
";. c #5E6068",
":. c #92391D",
">. c #8A3C27",
",. c #9A3E24",
"<. c #9A3E27",
"1. c #A03D2A",
"2. c #8B4935",
"3. c #864835",
"4. c #98512C",
"5. c #AB452B",
"6. c #BD4D2A",
"7. c #B74A28",
"8. c #AD4732",
"9. c #B34E2E",
"0. c #BA6A38",
"q. c #C14D28",
"w. c #C4532B",
"e. c #C55936",
"r. c #D56D37",
"t. c #DF7B3E",
"y. c #CF6634",
"u. c #E07C3E",
"i. c #843B48",
"p. c #835D46",
"a. c #AF5A51",
"s. c #876349",
"d. c #836656",
"f. c #946D56",
"g. c #997255",
"h. c #8D6D55",
"j. c #BF695B",
"k. c #A5785A",
"l. c #BD734C",
"z. c #8F7769",
"x. c #947A68",
"c. c #89756C",
"v. c #DD7D47",
"b. c #CC6E54",
"n. c #E07D41",
"m. c #C27264",
"M. c #B2825E",
"N. c #9B8275",
"B. c #B78766",
"V. c #A68B7B",
"C. c #B6927D",
"Z. c #AC856C",
"A. c #DE8356",
"S. c #C38E69",
"D. c #C08C67",
"F. c #C9936D",
"G. c #C98277",
"H. c #CC9771",
"J. c #D09873",
"K. c #D5A27F",
"L. c #2C498E",
"P. c #2F4785",
"I. c #34498C",
"U. c #2C5286",
"Y. c #3C5789",
"T. c #364E97",
"R. c #385595",
"E. c #2E4A91",
"W. c #314FAE",
"Q. c #3B67A6",
"!. c #3E73B8",
"~. c #3E6199",
"^. c #495A93",
"/. c #787A89",
"(. c #616C96",
"). c #687197",
"_. c #6F7592",
"`. c #4A71B1",
"'. c #6472AD",
"]. c #4D5FA7",
"[. c #3955C9",
"{. c #395AD6",
"}. c #5469D0",
"|. c #566ED9",
" X c #7A85AB",
".X c #888A93",
"XX c #8E919A",
"oX c #91949D",
"OX c #99999B",
"+X c #90898C",
"@X c #B89A87",
"#X c #AD9B92",
"$X c #858BA6",
"%X c #9295A2",
"&X c #979AA3",
"*X c #868DB4",
"=X c #B7A7AC",
"-X c #A5ABB7",
";X c #B7B6BB",
":X c #A8A5A6",
">X c #D4988B",
",X c #C59F8E",
"<X c #DBAA8D",
"1X c #DBA68F",
"2X c #C6A697",
"3X c #D1AF9A",
"4X c #D8B39E",
"5X c #E2B294",
"6X c #DEBAA5",
"7X c #CDABAB",
"8X c #E5BBA4",
"9X c #EAC3AC",
"0X c #E7C1AC",
"qX c #F4CCB3",
"wX c #F8D0B8",
"eX c #E8C8B3",
"rX c #DDC6B5",
"tX c #99A4CB",
"yX c #B7BCCA",
"uX c #A7ACC7",
"iX c #B6C2CF",
"pX c #C9CAD6",
"aX c #D8D7D8",
"sX c #D1CBC9",
"dX c #F3D6C5",
"fX c #EAD2C8",
"gX c #F8E2D7",
"hX c #EAE7E9",
"jX c #FCFAFC",
"kX c #F7F4F5",
"lX c #F7EFEA",
"zX c #DDDEE7",
"xX c None",
/* pixels */
"xXxXxXxXxXxXxXxXxXxXxXxXxXxXxXxXxXxXxXxXxXxXxXxXxX3 3 xXxXxXxXxXxXxXxXxX3 3 3 3 3 3 3 3 3 xXxXxXxXxXxXxXxXxXxXxXxXxXxXxXxXxXxXxX",
"xXxXxXxXxXxXxXxXxXxXxXxXxXxXxXxXxXxXxXxXxXxXxXxXxXu u xXxXxXxXxXxXxXxXxXu u u u p d 5 ; ; xXxXxXxXxXxXxXxXxXxXxXxXxXxXxXxXxXxXxX",
"xXxXxXxXxXxXxXxXxXxXxXxXxXxXxXxXxXxXxXxXxXxXxX3 l P P f 3 xXxXxX3 3 3 s P } } } P P m - $ xXxXxXxXxXxXxXxXxXxXxXxXxXxXxXxXxXxXxX",
"xXxXxXxXxXxXxXxXxXxXxXxXxXxXxXxXxXxXxXxXxXxXxX3 f | | f i xXxX3 3 5 i f ..@.@.@.+.+.Z +   xXxXxXxXxXxXxXxXxXxXxXxXxXxXxXxXxXxXxX",
"xXxXxXxXxXxXxXxXxXxXxXxXxXxXxXxXxXxXxXxXxXxXxX3 s J J S S l i p f m S P ..@.| P Z C d xXxXxXxXxXxXxXxXxXxXxXxXxXxXxXxXxXxXxXxXxX",
"xXxXxXxXxXxXxXxXxXxXxXxXxXxXxXxXxXxXxXxXxXxXxX3 u l D | ..C 3 s m P @.@.@.+.P C 8 O o xXxXxXxXxXxXxXxXxXxXxXxXxXxXxXxXxXxXxXxXxX",
"xXxXxXxXxXxXxXxXxXxXxXxXxXxXxXxXxXxXxXxXxXxX7 a a f N } } x 3 C P I @.+.P S F g 5 $ % xXxXxXxXxXxXxXxXxXxXxXxXxXxXxXxXxXxXxXxXxX",
"xXxXxXxXxXxXxXxXxXxXxXxXxXxXxXxXxXxX3 3 3 3 a V k 8 p A S j 3 Z +.+.@.| f 5 % O % & 3 3 3 xXxXxXxXxXxXxXxXxXxXxXxXxXxXxXxXxXxXxX",
"xXxXxXxXxXxXxXxXxXxXxXxXxXxXxXxXxXxXu p p u l S D F N D A f p Z I I I I A F d 8 g p p u p xXxXxXxXxXxXxXxXxXxXxXxXxXxXxXxXxXxXxX",
"xXxXxXxXxXxXxXxXxXxXxXxXxXxX3 3 3 i f m m m J ..+.| | Z C C C C Z Z Z Z | +.| | P m m m f i 3 3 3 xXxXxXxXxXxXxXxXxXxXxXxXxXxXxX",
"xXxXxXxXxXxXxXxXxXxXxXxXxXxX3 3 5 a h m H J I @.@.@.+.P Z Z S Z Z Z Z P +.@.@.@.I H Z m h p 5 3 3 xXxXxXxXxXxXxXxXxXxXxXxXxXxXxX",
"xXxXxXxXxXxXxXxXxX        $ 3 u l C C Z } ....@.@.@.@.+.| | ....+.| | +.@.@.@.@.+...P Z m l l i 3 $ . xXxXxXxXxXxXxXxXxXxXxXxXxX",
"xXxXxXxXxXxXxXxXxX    X O % 5 a B A C C P | ..@.@.@.@.@.@.@.@.@.@.@.@.@.@.@.@.@.+.+.P C C D N a 3 % O O xXxXxXxXxXxXxXxXxXxXxXxX",
"xXxXxXxXxXxXxXxXxX  X 4 k k l l B B 8 : f C D ' } @.@.@.@.@.@.@.@.@.@.@.@.@.' ' D C a : 8 N C l l f d 4 X xXxXxXxXxXxXxXxXxXxXxX",
"xXxXxXxXxXxXxXxXxX  X 7 A ` B B A N 2 O % i k A ' $.@.@.@.@.@.o.@.@.@.@.+.+.S A d 5 % O = N N N N N C 8 o   xXxXxXxXxXxXxXxXxXxX",
"xXxXxXxXxXxXxXxXxXxXxXxXxX7 7 7 a a 7 7 7 l V A S ' } } } } } ' I P } ' ' ' S A V k d 7 7 s d 8 8 f x p xXxXxXxXxXxXxXxXxXxXxXxX",
"xXxXxXxXxXxXxXxXxXxXxXxXxXxXX # ; 5 l B B A A A A A A A D A ' ' A D D ` A A A A B A B B l u ; # + i h c xXxXxXxXxXxXxXxXxXxXxXxX",
"xXxXxXxXxXxXxXxXxXxXxXxXxX- 4 5 a j B B ` D N l f C Z 3.2.2.2.2.2.2.2.3.H A l l B A A A B a a 5 4 3 i e xXxXxXxXxXxXxXxXxXxXxXxX",
"xXxXxXxXxXxXxXxXxXxXxXxX  4 l B A B A A A A l 5 r M Y 5.6.6.6.9.q.6.6.8.L l u i l B A A B B D B l 4 o o xXxXxXxXxXxXxXxXxXxXxXxX",
"xXxXxXxXxXxXxXxXxXxXxX+ + 8 B A A B A A l l h v y Y 3.7.e.G.>X>X>XG.e.6.2.L v v h N B D ` B ` B B 3 + $ xXxXxXxXxXxXxXxXxXxXxXxX",
"xXxXxXxXxXxXxXxXxXxXxX; 3 a B A A A A A j c >.5.7.7.6.6.b.fXlXlXlXfXb.q.7.7.7.5.>.i a A A A A A B a 3 3 3 ; xXxXxXxXxXxXxXxXxXxX",
"xXxXxXxXxXxXxXxXxXxXxX5 5 a A A B A A l x b ,.6.q.q.e.j.m.fXhXhXlXsXm.j.e.6.q.6.<.b h l B A B A B j i 6 ; ; xXxXxXxXxXxXxXxXxXxX",
"xXxXxXxXxXxXxXxXxX  X 7 l B ` D A l j s :.5.7.6.q.q.j.=XyX:X#X+XN.OXyX=Xb.6.q.q.7.5.<.s j B A A B B l 7 # + xXxXxXxXxXxXxXxXxXxX",
"xXxXxXxXxXxXxXxXxXO # 7 B B B A ` B i e ,.q.q.q.q.w.m.;XiXXXc.#.{  XyX;Xm.q.q.q.q.6.,.c 7 B B A A A B 7 # O xXxXxXxXxXxXxXxXxXxX",
"xXxXxXxXxXxXxX  O 8 7 V A A A A D l 6 & ,.q.q.q.w.r.v.J.2X=X-X-X-X:X,XJ.v.r.w.q.q.q.:.q 8 N A B A A B N k 4 +   xXxXxXxXxXxXxXxX",
"xXxXxXxXxXxXxX  O V A A A A A A S A 3 * :.6.q.w.y.t.t.v.A.7XiXiXpX7XA.u.v.v.e.w.6.6.:.* = D S A B B B B B k + . xXxXxXxXxXxXxXxX",
"xXxXxXxXxXxXxXxXxXxXA V j j j J g.g.J i y :.9.y.r.t.t.t.A.>X7X3X7X>XA.u.u.t.r.r.9.:.y g P g.g.P k k d V B xXxXxXxXxXxXxXxXxXxXxX",
"xXxXxXxXxXxXxXxXxXxXxX5 3 3 3 U D.S.s.h r & 4.u.v.t.t.t.t.u.A.n.A.t.t.t.t.t.u.t.4.& e x s.S.D.U e : 8 5 xXxXxXxXxXxXxXxXxXxXxXxX",
"xXxXxXxXxXxXxXxXxXxXxXxX3 3 3 X.S.S.s.h U s.C.8X<Xb.0.0.0.0.0.0.0.y.0.0.0.l.1X8XC.s.U x p.S.S.U : 3 5 xXxXxXxXxXxXxXxXxXxXxXxXxX",
"xXxXxXxXxXxXxXxXxXxXxXxXxXxX3 X.S.S.U s k.H.rXlXfX#.e G G G M G P I G G e o.sXlXrXS.k.h p.F.S.X.6 xXxXxXxXxXxXxXxXxXxXxXxXxXxXxX",
"xXxXxXxXxXxXxXxXxXxXxXxXxXxX3 U M.M.K h Z.<XwXjXaX#.7 -.N.N.g.N.N.N.N.@.d *.aXkXfX<XZ.x L B.M.X.6 xXxXxXxXxXxXxXxXxXxXxXxXxXxXxX",
"xXxXxXxXxXxXxXxXxXxXxXxXxXxXxXxXU U e d ,X9XgXjXaX;.| 3X9X9X9X9X0X0X9X3X .*.aXjXgXqX,Xa r U U xXxXxXxXxXxXxXxXxXxXxXxXxXxXxXxXxX",
"xXxXxXxXxXxXxXxXxXxXxXxXxXxXxXxXM M : j @XeXgXkXaXc.x.8XwXwXwXwXqXwXwX0Xz.c.aXkXgX0X@Xj : M G xXxXxXxXxXxXxXxXxXxXxXxXxXxXxXxXxX",
"xXxXxXxXxXxXxXxXxXxXxXxXxXxXxXxXN F 5 5 o.z.2XfXdX6X8XqXwXwXwXwXwXwXwXqX6X6XwXdX2Xz.o.7 8 N A xXxXxXxXxXxXxXxXxXxXxXxXxXxXxXxXxX",
"xXxXxXxXxXxXxXxXxXxXxXxXxXxXxXxXV V 7 3 6 j @X8XqXqXwXwXwXwXwXwXqXqXwXwXwXqXqXeXV.j 3 5 7 V V xXxXxXxXxXxXxXxXxXxXxXxXxXxXxXxXxX",
"xXxXxXxXxXxXxXxXxXxXxXxXxXxXxXxX7 8 % $ $ 2 o.N.@X<X5XqXwX5X<X<X5X8XqXqX5X<XC.N.o.% % xX7 a 7 xXxXxXxXxXxXxXxXxXxXxXxXxXxXxXxXxX",
"xXxXxXxXxXxXxXxXxXxXxXxXxXxXxXxXp p = $ # @ # 2 X.S.<X9XqX1XH.H.J.4XqX8XK.B.@.2 > X   xXxX5 5 xXxXxXxXxXxXxXxXxXxXxXxXxXxXxXxXxX",
"xXxXxXxXxXxXxXxXxXxXxXxXxXxXxXK g.g.g.f.} E ^ U.%.f.g.C.@XZ.k.k.k.k.@X@XM.h.%.U.R @   xXxXxXxXxXxXxXxXxXxXxXxXxXxXxXxXxXxXxXxXxX",
"xXxXxXxXxXxXxXxXxXxXxXxXxXxX. K D.F.F.S.f.] ~.!.Q.0 = 4 7 x H J H x 7 6 = ! Q.`.U.@   xXxXxXxXxXxXxXxXxXxXxXxXxXxXxXxXxXxXxXxXxX",
"xXxXxXxXxXxXxXxXxXxXxXxXxXxX. K S.J.J.F.h.Q U.Q.R.R 0 =./.*./ / / ( ! R 1 R Q.!.Y.5 i xXxXxXxXxXxXxXxXxXxXxXxXxXxXxXxXxXxXxXxXxX",
"xXxXxXxXxXxXxXxXxXxXxXxXxXxX  K D.J.H.F.s.- ^ T.P.< { -XyX/.Q ! Q ~ T.I.W Q Q.`.^.m b H b xXxXxXxXxXxXxXxXxXxXxXxXxXxXxXxXxXxXxX",
"xXxXxXxXxXxXxXxXxXxXxXxXxXxX  K M.D.B.B.s.$ ^ T.P., &.tXuX X_._..X_.^.I.Q Q ~.`./.x.x.x.z.xXxXxXxXxXxXxXxXxXxXxXxXxXxXxXxXxXxXxX",
"xXxXxXxXxXxXxXxXxXxXxXxXxXxXxXxXh h M h h xXxXxXxX9 ^ }.|.uXiXaXhXpX(.I.^ ] _ %.#X9X9X9X3Xd.H xXxXxXxXxXxXxXxXxXxXxXxXxXxXxXxXxX",
"xXxXxXxXxXxXxXxXxXxXxXxXxXxXxXxX        xXxXxXxXxXc ^ [.|.tXiXzXjXzX*X'.&.` Q { 2XqXwXqX8Xd.m xXxXxXxXxXxXxXxXxXxXxXxXxXxXxXxXxX",
"xXxXxXxXxXxXxXxXxXxXxXxXxXxXxXxXxXxXxXxXxXxXxXxXxX9 ~ [.{.'. XpXjXkXzXpX=.( 1 / 2XqXwXwX6Xd.H xXxXxXxXxXxXxXxXxXxXxXxXxXxXxXxXxX",
"xXxXxXxXxXxXxXxXxXxXxXxXxXxXxXxXxXxXxXxXxXxXxXxXxXE ~ [.{.W.^.yXkXkXjXhX+X{ z l @XqXqXeX3Xd.H xXxXxXxXxXxXxXxXxXxXxXxXxXxXxXxXxX",
"xXxXxXxXxXxXxXxXxXxXxXxXxXxXxXxXxXxXxXxXxXxXxX9 W ~ L.{.{.W.R. XuXpXkXkXaXsX%X/.N.V.V.V.N.xXxXxXxXxXxXxXxXxXxXxXxXxXxXxXxXxXxXxX",
"xXxXxXxXxXxXxXxXxXxXxXxXxXxXxXxXxXxXxXxXxXxXxX9 Q I.T.{.{.W.L.I.^.tXkXjXkXlXyX&X=.2 # % $ xXxXxXxXxXxXxXxXxXxXxXxXxXxXxXxXxXxXxX",
"xXxXxXxXxXxXxXxXxXxXxXxXxXxXxXxXxXxXxXxXxXxXxX1 ] ).).].W.W.L.L.E. XiXpXaXaXaXsX:X2     xXxXxXxXxXxXxXxXxXxXxXxXxXxXxXxXxXxXxXxX",
"xXxXxXxXxXxXxXxXxXxXxXxXxXxXxXxXxXxXxXxXxXxXxX@ [ XX$X].E.L.L.L.I.R.^.).%X-XhXjXxXxXxXxXxXxXxXxXxXxXxXxXxXxXxXxXxXxXxXxXxXxXxXxX",
"xXxXxXxXxXxXxXxXxXxXxXxXxXxXxXxXxXxXxXxXxXxXxXX [ oXoX_.(.(.(.(.(.(.(.). X+X;XaXxXxXxXxXxXxXxXxXxXxXxXxXxXxXxXxXxXxXxXxXxXxXxXxX",
"xXxXxXxXxXxXxXxXxXxXxXxXxXxXxXxXxXxXxXxXxXxXxXX [ oX&X&X%X%XoXoX%X%XoX.X` 0 { { xXxXxXxXxXxXxXxXxXxXxXxXxXxXxXxXxXxXxXxXxXxXxXxX",
"xXxXxXxXxXxXxXxXxXxXxXxXxXxXxXxXxXxXxXxXxXxXxXX ;.oX&X&X&XXX.X.X.XXXOXN.O.w *   xXxXxXxXxXxXxXxXxXxXxXxXxXxXxXxXxXxXxXxXxXxXxXxX",
"xXxXxXxXxXxXxXxXxXxXxXxXxXxXxXxXxXxXxXxXxXxXxXxXxX%X&X&XOX=.` Q ` X.a.a.8.1.w . xXxXxXxXxXxXxXxXxXxXxXxXxXxXxXxXxXxXxXxXxXxXxXxX",
"xXxXxXxXxXxXxXxXxXxXxXxXxXxXxXxXxXxXxXxXxXxXxXxXxXoXoX&XoX;.# @ o t 1.8.8.1.t X xXxXxXxXxXxXxXxXxXxXxXxXxXxXxXxXxXxXxXxXxXxXxXxX",
"xXxXxXxXxXxXxXxXxXxXxXxXxXxXxXxXxXxXxXxXxXxXxXxXxX[ ;.oX%X=.! T xXw t t t t xXxXxXxXxXxXxXxXxXxXxXxXxXxXxXxXxXxXxXxXxXxXxXxXxXxX",
"xXxXxXxXxXxXxXxXxXxXxXxXxXxXxXxXxXxXxXxXxXxXxXxXxX@ ( .XXX%.W W xXxX. . . . xXxXxXxXxXxXxXxXxXxXxXxXxXxXxXxXxXxXxXxXxXxXxXxXxXxX",
"xXxXxXxXxXxXxXxXxXxXxXxXxXxXxXxXxXxXxXxXxXxXxX  > T Q =.=.] T , xXxXxXxXxXxXxXxXxXxXxXxXxXxXxXxXxXxXxXxXxXxXxXxXxXxXxXxXxXxXxXxX",
"xXxXxXxXxXxXxXxXxXxXxXxXxXxXxXxXxXxXxXxXxXxXxX  1 W W Q W , .   xXxXxXxXxXxXxXxXxXxXxXxXxXxXxXxXxXxXxXxXxXxXxXxXxXxXxXxXxXxXxXxX",
"xXxXxXxXxXxXxXxXxXxXxXxXxXxXxXxXxXxXxXxXxXxXxX  n ) i.i.i.c .   xXxXxXxXxXxXxXxXxXxXxXxXxXxXxXxXxXxXxXxXxXxXxXxXxXxXxXxXxXxXxXxX",
"xXxXxXxXxXxXxXxXxXxXxXxXxXxXxXxXxXxXxXxXxXxXxX. t 8.8.8.8.y . xXxXxXxXxXxXxXxXxXxXxXxXxXxXxXxXxXxXxXxXxXxXxXxXxXxXxXxXxXxXxXxXxX",
"xXxXxXxXxXxXxXxXxXxXxXxXxXxXxXxXxXxXxXxXxXxXxX. t ,.1.1.<.t o xXxXxXxXxXxXxXxXxXxXxXxXxXxXxXxXxXxXxXxXxXxXxXxXxXxXxXxXxXxXxXxXxX",
"xXxXxXxXxXxXxXxXxXxXxXxXxXxXxXxXxXxXxXxXxXxXxXxXxXq q q q xXxXxXxXxXxXxXxXxXxXxXxXxXxXxXxXxXxXxXxXxXxXxXxXxXxXxXxXxXxXxXxXxXxXxX",
"xXxXxXxXxXxXxXxXxXxXxXxXxXxXxXxXxXxXxXxXxXxXxXxXxX        xXxXxXxXxXxXxXxXxXxXxXxXxXxXxXxXxXxXxXxXxXxXxXxXxXxXxXxXxXxXxXxXxXxXxX"
};
