/* XPM */
static char *result[] = {
/* columns rows colors chars-per-pixel */
"64 64 233 2 ",
"   c #020302",
".  c #0B0402",
"X  c #0B040B",
"o  c #070805",
"O  c #190A0B",
"+  c #18130D",
"@  c #0A0B18",
"#  c #1D1815",
"$  c #230C04",
"%  c #3B150B",
"&  c #321A0F",
"*  c #241512",
"=  c #271A16",
"-  c #331B18",
";  c #28110A",
":  c #2C231B",
">  c #25211B",
",  c #33241E",
"<  c #3B231E",
"1  c #392A1C",
"2  c #0A0B27",
"3  c #0A1537",
"4  c #131834",
"5  c #241728",
"6  c #3B2421",
"7  c #362D25",
"8  c #3C2B24",
"9  c #3A2A25",
"0  c #3D322B",
"q  c #3C3226",
"w  c #2F2A32",
"e  c #502919",
"r  c #702D1A",
"t  c #4C1E21",
"y  c #422B25",
"u  c #462C27",
"i  c #43342C",
"p  c #4A352A",
"a  c #4D3B2D",
"s  c #463628",
"d  c #533D2D",
"f  c #5A3A2B",
"g  c #463630",
"h  c #433A32",
"j  c #4B3D34",
"k  c #41343F",
"l  c #543C33",
"z  c #532E29",
"x  c #723325",
"c  c #662D2A",
"v  c #5A4227",
"b  c #4C4135",
"n  c #4E443A",
"m  c #46453B",
"M  c #544434",
"N  c #5A4432",
"B  c #50463C",
"V  c #5A433B",
"C  c #5B4C3D",
"Z  c #584A38",
"A  c #4B402E",
"S  c #674A2B",
"D  c #61473B",
"F  c #634C3B",
"G  c #674A36",
"H  c #63533D",
"J  c #68583D",
"K  c #76563C",
"L  c #7C4324",
"P  c #131C46",
"I  c #101C4E",
"U  c #172759",
"Y  c #18254C",
"T  c #3E3E41",
"R  c #3C3657",
"E  c #31294C",
"W  c #1D2E72",
"Q  c #293876",
"!  c #23356D",
"~  c #251E51",
"^  c #442E56",
"/  c #443451",
"(  c #433C6D",
")  c #39416F",
"_  c #545359",
"`  c #4C4B50",
"'  c #665640",
"]  c #6C5C45",
"[  c #675647",
"{  c #705F47",
"}  c #785A42",
"|  c #685E56",
" . c #725C52",
".. c #716146",
"X. c #736249",
"o. c #79685C",
"O. c #6F6241",
"+. c #4A4765",
"@. c #59586B",
"#. c #4B4579",
"$. c #535578",
"%. c #625E6E",
"&. c #736D6F",
"*. c #83331B",
"=. c #873925",
"-. c #963C26",
";. c #873B3F",
":. c #984527",
">. c #8A4F36",
",. c #AC482C",
"<. c #BA4B27",
"1. c #BE4C29",
"2. c #B34826",
"3. c #A44B30",
"4. c #B64B32",
"5. c #BC6B38",
"6. c #C14D29",
"7. c #C4532B",
"8. c #C15538",
"9. c #D36A35",
"0. c #DC773D",
"q. c #C96432",
"w. c #E07C3E",
"e. c #8C3D44",
"r. c #8D5146",
"t. c #966E52",
"y. c #8A735E",
"u. c #936A52",
"i. c #A67A5A",
"p. c #BE755B",
"a. c #8C7565",
"s. c #97796C",
"d. c #957870",
"f. c #A77C67",
"g. c #BF6C61",
"h. c #C55F41",
"j. c #DF7D43",
"k. c #D97B46",
"l. c #C67954",
"z. c #E07D40",
"x. c #B0815C",
"c. c #978578",
"v. c #B68664",
"b. c #B98664",
"n. c #B88A69",
"m. c #A58877",
"M. c #B9877D",
"N. c #C58967",
"B. c #D88A6A",
"V. c #C9936D",
"C. c #CB9976",
"Z. c #D29C76",
"A. c #CF8A70",
"S. c #D6A17D",
"D. c #21368A",
"F. c #2D3A8B",
"G. c #2A4689",
"H. c #37498C",
"J. c #2D4999",
"K. c #374D94",
"L. c #2B46A9",
"P. c #3A54BA",
"I. c #324BB1",
"U. c #455997",
"Y. c #737999",
"T. c #797E9C",
"R. c #787882",
"E. c #6E79AD",
"W. c #5B699C",
"Q. c #3453C4",
"!. c #3C55C4",
"~. c #3959D7",
"^. c #344FC1",
"/. c #4F65D0",
"(. c #5A6ECD",
"). c #7C83AD",
"_. c #7B8ED9",
"`. c #87868C",
"'. c #888999",
"]. c #94939B",
"[. c #939392",
"{. c #949091",
"}. c #B09790",
"|. c #BDA496",
" X c #8285AD",
".X c #9C9BA4",
"XX c #9999AA",
"oX c #8D92B4",
"OX c #878FB8",
"+X c #9CA4B5",
"@X c #A9ADB7",
"#X c #ACB0B4",
"$X c #C29F89",
"%X c #D49988",
"&X c #C89E9B",
"*X c #C7A38C",
"=X c #CBA69B",
"-X c #D8A69B",
";X c #D9B299",
":X c #DFAF84",
">X c #E7B89C",
",X c #E2AF92",
"<X c #DBB8AA",
"1X c #D1ACA8",
"2X c #E4BEA7",
"3X c #E0B9B3",
"4X c #E5C2AC",
"5X c #ECC4AA",
"6X c #F3C8AE",
"7X c #E9C8B4",
"8X c #F6CEB6",
"9X c #F9D0B8",
"0X c #F8D4BA",
"qX c #ECD1B9",
"wX c #E1C2A7",
"eX c #8C99D2",
"rX c #B8BDC7",
"tX c #ABB5C8",
"yX c #A6AEE1",
"uX c #93A3C4",
"iX c #BBC4D0",
"pX c #C8C9CC",
"aX c #D0D2D8",
"sX c #F5D7C9",
"dX c #E9D7D0",
"fX c #F2E9DF",
"gX c #D3D6E9",
"hX c #EBEAE9",
"jX c #F4EDEB",
"kX c #F3F2EC",
"lX c #F8F6F6",
"zX c #EEF1EF",
"xX c None",
/* pixels */
"xXxXxXxXxXxXxXxXxXxXxXxXxXxXxXxXxXxXxXxXxXxXxXxXxX6 6 xXxXxXxXxXxXxXxXxXxX6 6 6 6 < 6 6 6 xXxXxXxXxXxXxXxXxXxXxXxXxXxXxXxXxXxXxX",
"xXxXxXxXxXxXxXxXxXxXxXxXxXxXxXxXxXxXxXxXxXxXxXxXxXy y y xXxXxXxXxXxXxXxXu u y y i 8 y 6 , < xXxXxXxXxXxXxXxXxXxXxXxXxXxXxXxXxXxX",
"xXxXxXxXxXxXxXxXxXxXxXxXxXxXxXxXxXxXxXxXxXxXxX6 u F H M 8 xXxXxX6 6 6 6 M H J H H ' H s * * xXxXxXxXxXxXxXxXxXxXxXxXxXxXxXxXxXxX",
"xXxXxXxXxXxXxXxXxXxXxXxXxXxXxXxXxXxXxXxXxXxXxX6 u H { C y 8 xXxX6 6 6 y Z X.X.X.....O.A o o xXxXxXxXxXxXxXxXxXxXxXxXxXxXxXxXxXxX",
"xXxXxXxXxXxXxXxXxXxXxXxXxXxXxXxXxXxXxXxXxXxXxX6 u Z ' C Z M u 8 p a M Z ' X.{ ' J Z Z s o xXxXxXxXxXxXxXxXxXxXxXxXxXxXxXxXxXxXxX",
"xXxXxXxXxXxXxXxXxXxXxXxXxXxXxXxXxXxXxXxXxXxXxX6 8 j M H { H u y d N ] ..X.X.{ C M 1 + xXxXxXxXxXxXxXxXxXxXxXxXxXxXxXxXxXxXxXxXxX",
"xXxXxXxXxXxXxXxXxXxXxXxXxXxXxXxXxXxXxXxXxXxXxX0 0 g A H ] V u u N H ] X...' H A h : ; = xXxXxXxXxXxXxXxXxXxXxXxXxXxXxXxXxXxXxXxX",
"xXxXxXxXxXxXxXxXxXxXxXxXxXxXxXxXxXxX6 6 6 6 8 j j q u b ' j 8 p J O.....H a 8 = = - - 6 6 6 xXxXxXxXxXxXxXxXxXxXxXxXxXxXxXxXxXxX",
"xXxXxXxXxXxXxXxXxXxXxXxXxXxXxXxXxXxXy y 8 y i n B A s b V l y p J O.O.O.H i i : : 1 y y y y xXxXxXxXxXxXxXxXxXxXxXxXxXxXxXxXxXxX",
"xXxXxXxXxXxXxXxXxXxXxXxXxXxX6 6 6 6 p d d d N J ] ' ' C Z M A M Z S H C H ' J H H M d d d p 6 < 6 6 xXxXxXxXxXxXxXxXxXxXxXxXxXxX",
"xXxXxXxXxXxXxXxXxXxXxXxXxXxX6 6 6 y d N N N F { X.X...J Z M M Z M M Z Z J X.X.X.O.G N N N a 8 6 6 6 xXxXxXxXxXxXxXxXxXxXxXxXxXxX",
"xXxXxXxXxXxXxXxXxXxX      * 6 6 i g d N N J ] X.X.X.X.] ' J J J ' J J J ] X.X.X.X.] J D M d a i 6 < = . xXxXxXxXxXxXxXxXxXxXxXxX",
"xXxXxXxXxXxXxXxXxX    o o * 6 8 j n B N H ] X.X.X.X.X.X.X.X.X.X.X.X.X.X.X.X.X.X.X.X...H N M M b y < * . xXxXxXxXxXxXxXxXxXxXxXxX",
"xXxXxXxXxXxXxXxXxX    # : 7 i g n n j s M H J ] ] X.X.X.X.X.X.X.X.X.X.X.X.X.O.] [ H H M p a M b i i 7 , : xXxXxXxXxXxXxXxXxXxXxX",
"xXxXxXxXxXxXxXxXxX  o 7 j n n n n n q + : y g B C ] X.X.X.X.X.X.X.X.X.X.X...[ Z B s q : + 7 M n b b b b 7 .   xXxXxXxXxXxXxXxXxX",
"xXxXxXxXxXxXxXxXxX  o 7 n n m j b j q > , 8 g m B [ ....{ { ..J O.{ { { ] ] ' ` n i 8 : > q b a j a M b y .   xXxXxXxXxXxXxXxXxX",
"xXxXxXxXxXxXxXxXxXxXxXxXxXxX= > 9 0 g j j b b B B C C ' B ` ' ` C Z ` ' C C C Z n n b b j g y 8 > : u f p xXxXxXxXxXxXxXxXxXxXxX",
"xXxXxXxXxXxXxXxXxXxXxXxXxXxX+ # , y j B n ` B b n n n Z D G D V D D G D V B B / n n n B n j y , * * y z xXxXxXxXxXxXxXxXxXxXxXxX",
"xXxXxXxXxXxXxXxXxXxXxXxX  > i i h j n B B B n i i A v >.3.3.3.3.3.3.3.3.>.l l g h n B B n n j h h 0 < - xXxXxXxXxXxXxXxXxXxXxXxX",
"xXxXxXxXxXxXxXxXxXxXxXxXo : n B B B B B B B j u e f f :.1.7.8.h.h.8.4.1.3.D l u u j n n M ` B B n n : . xXxXxXxXxXxXxXxXxXxXxXxX",
"xXxXxXxXxXxXxXxXxXxXxXxX* 9 n B B B B B n g f =.-.-.:.,.4.A.<X3X3X<Xg.8.,.:.>.=.=.f j l B B B B B n 9 * - xXxXxXxXxXxXxXxXxXxXxX",
"xXxXxXxXxXxXxXxXxXxXxXxX6 i n B B B B B j y x 2.<.<.<.1.8.-XjXlXlXjX-X8.6.6.6.1.,.x 8 j M ` B B n n 0 6 6 6 9 xXxXxXxXxXxXxXxXxX",
"xXxXxXxXxXxXxXxXxXxXxX9 0 g n B B B ` g f x =.<.6.6.4.g.g.1XdXdXgXdX1XA.g.4.6.6.<.=.x f j n B B n n h i 9 - - xXxXxXxXxXxXxXxXxX",
"xXxXxXxXxXxXxXxXxX  o 9 n j B B B n g u =.2.<.6.6.6.h.|.iXtX`.c.&.&.@XtX|.8.6.6.1.<.4.=.u h n n B B n n 9 O O xXxXxXxXxXxXxXxXxX",
"xXxXxXxXxXxXxXxXxX# # 0 n B B B B n i 6 *.1.7.6.6.7.q.|.rX#Xc.&.%.&.+XrX*X8.7.6.6.6.<.*.y s n B B B B B q = # xXxXxXxXxXxXxXxXxX",
"xXxXxXxXxXxXxX  + 0 A m B B B n B n 9 & *.1.6.6.7.9.k.B.%X&X@XtXtX#X&X%XB.0.9.7.6.6.<.*.& 1 n m B B B B n h q +   xXxXxXxXxXxXxX",
"xXxXxXxXxXxXxX  + 0 m n B B B B ` C 0 ; r <.1.1.7.9.0.w.j.%XrXiXpXpX&Xj.w.w.0.7.7.6.<.r $ s C C B B n n n n h +   xXxXxXxXxXxXxX",
"xXxXxXxXxXxXxXxXxXxXxXb g i i D t.i.} s c *.:.q.9.0.w.w.w.B.-X=X=X-XB.z.w.w.0.9.q.:.*.r s O.i.t.Z h i h j xXxXxXxXxXxXxXxXxXxXxX",
"xXxXxXxXxXxXxXxXxXxXxXxX8 6 6 D b.N.t.N s & L k.j.z.w.w.0.w.B.w.B.z.w.B.0.0.w.j.0.x & s N t.V.v.G 1 1 1 xXxXxXxXxXxXxXxXxXxXxXxX",
"xXxXxXxXxXxXxXxXxXxXxXxX6 6 6 G b.V.t.f H r.x.,X>XN.5.5.5.5.5.9.q.5.5.9.5.5.N.,X;Xs.r.J N t.V.b.G < 8 1 xXxXxXxXxXxXxXxXxXxXxXxX",
"xXxXxXxXxXxXxXxXxXxXxXxXxXxX6 G b.V.t.p u.n.;XfXjX{.e f S S S S S S S S v e {.hXfX;Xn.u.z t.V.v.D 6 xXxXxXxXxXxXxXxXxXxXxXxXxXxX",
"xXxXxXxXxXxXxXxXxXxXxXxXxXxX6 G x.b.>.s t.S.4XkXjX{.: [ y.y.y.y.a.a.y.y.[ : {.hXjX4X%Xt.u u.n.p.G 8 xXxXxXxXxXxXxXxXxXxXxXxXxXxX",
"xXxXxXxXxXxXxXxXxXxXxXxXxXxXxXxX>.K f , m.5XsXlXkX[.0 m.2X2X2X2X4X4X4XwXm.0 [.zXlXsX2Xm., f >.X.xXxXxXxXxXxXxXxXxXxXxXxXxXxXxXxX",
"xXxXxXxXxXxXxXxXxXxXxXxXxXxXxXxXv v 1 : m.2XsXkXkX.X[ *X8X9X8X9X8X8X8X8X*X[ ].jXjXsX5Xm.: 1 N S xXxXxXxXxXxXxXxXxXxXxXxXxXxXxXxX",
"xXxXxXxXxXxXxXxXxXxXxXxXxXxXxXxXA A 0 ,  .s.|.sXsX4X=X4X8X8X9X9X9X9X9X8X4X=X4XsXsX|.c. .1 0 M M xXxXxXxXxXxXxXxXxXxXxXxXxXxXxXxX",
"xXxXxXxXxXxXxXxXxXxXxXxXxXxXxXxXm m g 8 8 g a.2X9XqX8X8X9X9X9X9X8X8X9X9X8X8X8X9X2Xa.i 8 8 i m m xXxXxXxXxXxXxXxXxXxXxXxXxXxXxXxX",
"xXxXxXxXxXxXxXxXxXxXxXxXxXxXxXxXA A q 7 6 :  .}.*X;X>X5X9X6X>X>X>X>X6X8X6X>X;X*X}.[ > , 8 0 h h xXxXxXxXxXxXxXxXxXxXxXxXxXxXxXxX",
"xXxXxXxXxXxXxXxXxXxXxXxXxXxXxXxXq 1 xXxXxXX # 0 ' v.Z.2X9X2XS.Z.Z.S.2X8X>XS.v.F 0 # o xXxXxX8 8 xXxXxXxXxXxXxXxXxXxXxXxXxXxXxXxX",
"xXxXxXxXxXxXxXxXxXxXxXxXxXxXxXxX8 1 xXxXP Y U W #.s.v.$X;X*Xn.b.b.N.*X;X$Xv.s.#.W U Y P xXxX6 8 xXxXxXxXxXxXxXxXxXxXxXxXxXxXxXxX",
"xXxXxXxXxXxXxXxXxXxXxXxXxXxXxXxXxXxX. @ U F.J.^.^.#.d D [ [ } K K } [ [ F l #.^.Q.L.) U @ o xXxXxXxXxXxXxXxXxXxXxXxXxXxXxXxXxXxX",
"xXxXxXxXxXxXxXxXxXxXxXxXxXxXxXxXxXxXd l +.G.L.Q.Q.D.U R +.` M M B B w 4 I U D.^.^.L.G.+.v v xXxXxXxXxXxXxXxXxXxXxXxXxXxXxXxXxXxX",
"xXxXxXxXxXxXxXxXxXxXxXxXxXxX9 u f G i.n.d.R ! W D.L.!.).@X].+.R R R Q F.L.I.L.D.W W ( a.b.i.G v 0 7 xXxXxXxXxXxXxXxXxXxXxXxXxXxX",
"xXxXxXxXxXxXxXxXxXxXxXxXxXxXV l D J v.*Xm.` Y 2 U I.~.eXiX+X$.) +.#.H.K.I.~.I.I 2 ~ ^ f.V.x.O.J Z B xXxXxXxXxXxXxXxXxXxXxXxXxXxX",
"xXxXxXxXxXxXxXxXxXxXxXxX0 a.$X$Xn.p.V.C.f./ 4 @ I G.L.E.eXeXoX+XiXrXOXP.I.L.D.I 2 5 k t.l.x.x.n.*X*Xa.q xXxXxXxXxXxXxXxXxXxXxXxX",
"xXxXxXxXxXxXxXxXxXxXxXxX8 s.6X2X:XS.Z.C.i.y . xXxX2 P L.~._.iXiXkXkXyX/.I.I 3 xXxXO % -.4.l.Z.S.6X6Xc.1 xXxXxXxXxXxXxXxXxXxXxXxX",
"xXxXxXxXxXxXxXxXxXxXxXxX9 f.6X8X>X>XC.x.u.1 xXxXxXo 3 L.~._.uXiXkXlXgXyX).w o xXxXxX% =.-.p.:XwX8X7Xc.: xXxXxXxXxXxXxXxXxXxXxXxX",
"xXxXxXxXxXxXxXxXxXxXxXxX# d.sXsXsX8XM.A y xXxXxXxXo 3 L.~.~.U.oXhXlXlXzXtX0 o xXxXxXxX% u m.0XsX0XqXa.+ xXxXxXxXxXxXxXxXxXxXxXxX",
"xXxXxXxXxXxXxXxXxXxXxXxXO d.3X7X5X2Xm.: xXxXxXxXxX3 I L.~.Q.J.).aXhXlXlXpX`.&.xXxXxXxXxX5 {.wX7XwX;Xc.+ xXxXxXxXxXxXxXxXxXxXxXxX",
"xXxXxXxXxXxXxXxXxXxXxXxXxXxX&.y.o.o.{ xXxXxXxX  3 ! Q I.~.Q.J.U.).oXgXlXlXhXpX_ X xXxXxXxX| o.o.o.o.xXxXxXxXxXxXxXxXxXxXxXxXxXxX",
"xXxXxXxXxXxXxXxXxXxXxXxXxXxXo   o o xXxXxXxXxX  4 ) K.P.~.!.J.G.G.W.aXzXlXlXaX| X xXxXxXxXxX  X o X xXxXxXxXxXxXxXxXxXxXxXxXxXxX",
"xXxXxXxXxXxXxXxXxXxXxXxXxXxXxXxXxXxXxXxXxXxXxX  w &.).W.I.J.G.G.G.U.oX@X#XpX#X`   xXxXxXxXxXxXxXxXxXxXxXxXxXxXxXxXxXxXxXxXxXxXxX",
"xXxXxXxXxXxXxXxXxXxXxXxXxXxXxXxXxXxXxXxXxXxXxX# T `.[.).K.K.K.J.K.K.H.U.)..X`.` # xXxXxXxXxXxXxXxXxXxXxXxXxXxXxXxXxXxXxXxXxXxXxX",
"xXxXxXxXxXxXxXxXxXxXxXxXxXxXxXxXxXxXxXxXxXxX_ %.).[..X].Y.Y.Y.Y.Y.Y.Y.Y. X.X{.&.&._ xXxXxXxXxXxXxXxXxXxXxXxXxXxXxXxXxXxXxXxXxXxX",
"xXxXxXxXxXxXxXxXxXxXxXxXxXxXxXxXxXxXxXxXxXE @.]..X[..X.X.X.X.X.X.X.X.X.X.X.X.X.X X@.E xXxXxXxXxXxXxXxXxXxXxXxXxXxXxXxXxXxXxXxXxX",
"xXxXxXxXxXxXxXxXxXxXxXxXxXxXxXxXxXxXxXxXxX~ +. XoX.X.X.X.X].'.`.`.`.]..X.X.XXXoX X@.E xXxXxXxXxXxXxXxXxXxXxXxXxXxXxXxXxXxXxXxXxX",
"xXxXxXxXxXxXxXxXxXxXxXxXxXxXxXxXxXxXxXxXxX2 Q /.(.oX.X.X.X`.` m m B )..X.X.XoX(./.Q @ xXxXxXxXxXxXxXxXxXxXxXxXxXxXxXxXxXxXxXxXxX",
"xXxXxXxXxXxXxXxXxXxXxXxXxXxXxXxXxXxXxXxXxX  W ^./. X].].].R.w     w R.].].]. X/.^.W   xXxXxXxXxXxXxXxXxXxXxXxXxXxXxXxXxXxXxXxXxX",
"xXxXxXxXxXxXxXxXxXxXxXxXxXxXxXxXxXxXxXxXxX  P F.#.U.%.%._ _ xXxXxXxX_ _ %.%.$.H.F.P   xXxXxXxXxXxXxXxXxXxXxXxXxXxXxXxXxXxXxXxXxX",
"xXxXxXxXxXxXxXxXxXxXxXxXxXxXxXxXxXxXxXxXxX  5 E ^ ^ ^ w @ X xXxXxXxX@ @ w ^ ^ ^ E 5   xXxXxXxXxXxXxXxXxXxXxXxXxXxXxXxXxXxXxXxXxX",
"xXxXxXxXxXxXxXxXxXxXxXxXxXxXxXxXxXxXxXxXxX  t e.e.e.e.c O o xXxXxXxX  O c e.e.e.e.t   xXxXxXxXxXxXxXxXxXxXxXxXxXxXxXxXxXxXxXxXxX",
"xXxXxXxXxXxXxXxXxXxXxXxXxXxXxXxXxXxXxXxXxX. r ,.4.6.4.=.$   xXxXxXxXo $ =.4.4.4.,.r   xXxXxXxXxXxXxXxXxXxXxXxXxXxXxXxXxXxXxXxXxX",
"xXxXxXxXxXxXxXxXxXxXxXxXxXxXxXxXxXxXxXxXxX. e -.-.-.-.r $ xXxXxXxXxXxX$ r -.-.-.-.e . xXxXxXxXxXxXxXxXxXxXxXxXxXxXxXxXxXxXxXxXxX",
"xXxXxXxXxXxXxXxXxXxXxXxXxXxXxXxXxXxXxXxXxXxXxX% % % % % xXxXxXxXxXxXxXxX% - % % % xXxXxXxXxXxXxXxXxXxXxXxXxXxXxXxXxXxXxXxXxXxXxX",
"xXxXxXxXxXxXxXxXxXxXxXxXxXxXxXxXxXxXxXxXxXxXxX        xXxXxXxXxXxXxXxXxXxX  X X   xXxXxXxXxXxXxXxXxXxXxXxXxXxXxXxXxXxXxXxXxXxXxX"
};
