/* XPM */
static char *result[] = {
/* columns rows colors chars-per-pixel */
"64 64 219 2 ",
"   c #030101",
".  c #0B0504",
"X  c #080708",
"o  c #180908",
"O  c #1A130D",
"+  c #060614",
"@  c #1E1612",
"#  c #16161B",
"$  c #1C0E11",
"%  c #270B09",
"&  c #20100D",
"*  c #391306",
"=  c #361205",
"-  c #231513",
";  c #241B14",
":  c #2B1A17",
">  c #331D1A",
",  c #2D231A",
"<  c #3A241C",
"1  c #35261C",
"2  c #161927",
"3  c #161D39",
"4  c #0E0E26",
"5  c #291930",
"6  c #1C2739",
"7  c #3B2422",
"8  c #372C24",
"9  c #3C2C25",
"0  c #372529",
"q  c #3C332B",
"w  c #272839",
"e  c #352C3A",
"r  c #23222A",
"t  c #5A220E",
"y  c #46291C",
"u  c #5D2612",
"i  c #43301A",
"p  c #612C1A",
"a  c #7A3218",
"s  c #722E15",
"d  c #452624",
"f  c #422C25",
"g  c #472929",
"h  c #542925",
"j  c #44352C",
"k  c #4A352A",
"l  c #46392B",
"z  c #4C3B2D",
"x  c #463426",
"c  c #523C2C",
"v  c #553A2B",
"b  c #463430",
"n  c #443931",
"m  c #4A3D33",
"M  c #4F3231",
"N  c #513A34",
"B  c #5E2B33",
"V  c #672A28",
"C  c #6D312B",
"Z  c #481B17",
"A  c #4D4235",
"S  c #4E443A",
"D  c #534434",
"F  c #594432",
"G  c #50463C",
"H  c #5C453A",
"J  c #54493D",
"K  c #5C4D3B",
"L  c #594A35",
"P  c #4D402E",
"I  c #654B2B",
"U  c #624232",
"Y  c #664A3A",
"T  c #664B39",
"R  c #63533D",
"E  c #68583D",
"W  c #1C2B51",
"Q  c #172F4F",
"!  c #252B49",
"~  c #383547",
"^  c #282D55",
"/  c #282D55",
"(  c #293858",
")  c #373856",
"_  c #362B4D",
"`  c #1E2E6D",
"'  c #2C3469",
"]  c #2C3466",
"[  c #383562",
"{  c #212E6D",
"}  c #121947",
"|  c #462D58",
" . c #55334E",
".. c #6B3143",
"X. c #2A477A",
"o. c #3F4874",
"O. c #3E4157",
"+. c #46454C",
"@. c #5F5241",
"#. c #4B4B58",
"$. c #4F515B",
"%. c #555357",
"&. c #5A4A46",
"*. c #665640",
"=. c #6C5C45",
"-. c #675843",
";. c #725944",
":. c #725057",
">. c #6F6241",
",. c #716047",
"<. c #736249",
"1. c #766255",
"2. c #5A5868",
"3. c #4F4F6F",
"4. c #645D76",
"5. c #676978",
"6. c #737178",
"7. c #8A381B",
"8. c #923D1E",
"9. c #9A3A1F",
"0. c #8B3D22",
"q. c #89342C",
"w. c #873928",
"e. c #993827",
"r. c #883833",
"t. c #993431",
"y. c #912F2D",
"u. c #99472A",
"i. c #944730",
"p. c #AA4828",
"a. c #B24B29",
"s. c #B84A28",
"d. c #B7502A",
"f. c #B74634",
"g. c #8D3C47",
"h. c #8C3C58",
"j. c #87624B",
"k. c #926A4B",
"l. c #946D53",
"z. c #8D6B52",
"x. c #A4795D",
"c. c #9B7B6A",
"v. c #B98764",
"b. c #B68562",
"n. c #A28270",
"m. c #A98167",
"M. c #C38F6A",
"N. c #CB956E",
"B. c #CA9775",
"V. c #2C3A8B",
"C. c #4B3D88",
"Z. c #36469A",
"A. c #385B8E",
"S. c #3C47A4",
"D. c #3B4DB0",
"F. c #3B4FBB",
"G. c #3953B7",
"H. c #3953B8",
"J. c #3868A7",
"K. c #455089",
"L. c #614797",
"P. c #5D658C",
"I. c #636781",
"U. c #777685",
"Y. c #6C7697",
"T. c #404DB0",
"R. c #5352B2",
"E. c #5366BB",
"W. c #4C78B2",
"Q. c #6371BA",
"!. c #6879B4",
"~. c #6856B4",
"^. c #4358CE",
"/. c #4558C9",
"(. c #5667C1",
"). c #4C62CA",
"_. c #6F7AC3",
"`. c #7D869C",
"'. c #5F89C0",
"]. c #6E97D4",
"[. c #878899",
"{. c #94939B",
"}. c #919695",
"|. c #8E8F91",
" X c #A78D92",
".X c #8A8BA7",
"XX c #8A92A9",
"oX c #9E9CA4",
"OX c #9A99A5",
"+X c #9290B2",
"@X c #A59DAA",
"#X c #A5A6A6",
"$X c #A7A9B2",
"%X c #B0B2B8",
"&X c #9FA5A5",
"*X c #C19E8A",
"=X c #DAA786",
"-X c #DAB69F",
";X c #ECC5AD",
":X c #F2C9AF",
">X c #9198CF",
",X c #8996CD",
"<X c #ADB6C7",
"1X c #B6B8C9",
"2X c #ACB4D4",
"3X c #9DA2C7",
"4X c #BDC1CD",
"5X c #B7C1D6",
"6X c #BDC6E4",
"7X c #C7CBDB",
"8X c #D7D8DA",
"9X c #C1C3C2",
"0X c #C8CCE2",
"qX c #C7D2E1",
"wX c #DEDEE2",
"eX c #EAEBF2",
"rX c #F9F9F8",
"tX c #E8E9E9",
"yX c None",
/* pixels */
"yXyXyXyXyXyXyXyXyXyXyXyXyXyXyXyXyXyXyX7 7 7 7 7 7 7 7 yXyXyXyXyXyXyXyXyXyX7 7 7 7 7 7 7 < yXyXyXyXyXyXyXyXyXyXyXyXyXyXyXyXyXyXyX",
"yXyXyXyXyXyXyXyXyXyXyXyXyXyXyXyXyXyX< 7 7 f f f f f f f yXyXyXyXyXyXyXyXf f f f f 9 f 7 < 7 yXyXyXyXyXyXyXyXyXyXyXyXyXyXyXyXyXyX",
"yXyXyXyXyXyXyXyXyXyXyXyXyXyXyXyXyXyX- ; l K E *.R E R F d 7 7 < yXyXyX7 F R E R R R R l - & yXyXyXyXyXyXyXyXyXyXyXyXyXyXyXyXyXyX",
"yXyXyXyXyXyXyXyXyXyXyXyXyXyXyXyXyXyX  . P >.,.,.,.<.,.H f 7 7 < yXyX7 f H <.<.<.,.,.>.P . X yXyXyXyXyXyXyXyXyXyXyXyXyXyXyXyXyXyX",
"yXyXyXyXyXyXyXyXyXyXyXyXyXyXyXyXyXyXyX. l L K E =.=.<.E H F c x f f D H *.<.,.*.E K L l . yXyXyXyXyXyXyXyXyXyXyXyXyXyXyXyXyXyXyX",
"yXyXyXyXyXyXyXyXyXyXyXyXyXyXyXyXyXyXyXyXyXO 1 D R =.<.<.,.-.L P f f R ,.<.<.=.R D 1 O yXyXyXyXyXyXyXyXyXyXyXyXyXyXyXyXyXyXyXyXyX",
"yXyXyXyXyXyXyXyXyXyXyXyXyXyXyXyXyXyXyXyX; & , l A R *.=.,.=.R L j f T =.=.-.R P l , & : yXyXyXyXyXyXyXyXyXyXyXyXyXyXyXyXyXyXyXyX",
"yXyXyXyXyXyXyXyXyXyXyXyXyXyXyXyXyXyX7 7 < < > ; ; 9 z R <.<.>.E k f N &.D l 9 ; ; > > 7 7 7 yXyXyXyXyXyXyXyXyXyXyXyXyXyXyXyXyXyX",
"yXyXyXyXyXyXyXyXyXyXyXyXyXyXyXyXyXyXf f f 7 8 , , j l K ,.>.>.E l f N &.A j j , , 8 f d f f yXyXyXyXyXyXyXyXyXyXyXyXyXyXyXyXyXyX",
"yXyXyXyXyXyXyXyXyXyXyXyXyXyX7 7 < 7 k v c v F K R *.-.R K K L L P c F D K -.E R R F c c c k 7 < 7 7 yXyXyXyXyXyXyXyXyXyXyXyXyXyX",
"yXyXyXyXyXyXyXyXyXyXyXyXyXyX7 < 7 f z F L F T ,.<.<.,.-.L L L L L F D L @.<.<.<.=.T F F F z 9 < 7 7 yXyXyXyXyXyXyXyXyXyXyXyXyXyX",
"yXyXyXyXyXyXyXyXyXyXyXyX. - 7 7 j z P F T E =.,.<.<.,.>.-.E -.>.*.-.E -.,.<.<.<.<.=.E K F N z j 7 < ; . yXyXyXyXyXyXyXyXyXyXyXyX",
"yXyXyXyXyXyXyXyXyXyXyXyX. - 1 9 A D D F R ,.<.<.<.<.<.<.<.<.<.<.,.,.<.<.<.<.<.<.<.<.,.R F D D A 9 7 @ . yXyXyXyXyXyXyXyXyXyXyXyX",
"yXyXyXyXyXyXyXyXyXyXyX, 1 8 j j A A z l D R E -.=.,.<.<.<.<.<.<.<.<.<.<.<.<.,.=.-.E R F x z A A z f 8 1 , yXyXyXyXyXyXyXyXyXyXyX",
"yXyXyXyXyXyXyXyXyX  . 9 m D A D A A 8 O , 8 j G &.=.<.<.<.<.<.<.<.<.<.<.<.<.=.J G l 9 , @ 8 A A A A A A 8 .   yXyXyXyXyXyXyXyXyX",
"yXyXyXyXyXyXyXyXyX  . 9 D m m m A A 8 , 1 9 j S J -.,.<.<.<.<.<.<.<.<.,.,.,.-.&.S j 9 , , 8 A A m m D m f .   yXyXyXyXyXyXyXyXyX",
"yXyXyXyXyXyXyXyXyXyXyXk v h , : 8 f n m m m D S G J K >.<.<.<.<.<.<.-.J J J &.G S S S m m n f 8 , , g v k yXyXyXyXyXyXyXyXyXyXyX",
"yXyXyXyXyXyXyXyXyXyXyXyXh d - @ 0 9 m G +.G G G G G J @.,.<.<.<.<.,.@.J J G G G &.S S G S m 9 0 @ - d h yXyXyXyXyXyXyXyXyXyXyXyX",
"yXyXyXyXyXyXyXyXyXyXyXyX> 8 q n m m S G G G G G G G G &.@.R K @.@.@.J G G G G G S S G G G S m m n j 8 > yXyXyXyXyXyXyXyXyXyXyXyX",
"yXyXyXyXyXyXyXyXyXyXyXyX. , S S S G G G G G G G G G G G +.G G G G G G G G G G G S S G G G G G G S A , . yXyXyXyXyXyXyXyXyXyXyXyX",
"yXyXyXyXyXyXyXyXyXyXyX: - 8 S G G S S G G G G G G G G G G G G G G G G G G G G G G G G G G G G G S S 8 - > yXyXyXyXyXyXyXyXyXyXyX",
"yXyXyXyXyXyXyXyXyX7 7 7 7 j S S G S &.G G G G G G G G G G G G G G G G G G G G G G G G G G G G G S S f 7 7 7 7 yXyXyXyXyXyXyXyXyX",
"yXyXyXyXyXyXyXyXyX> > 7 f n S G G G G G G G G G G G G G G G G G G G G G G G G G G G G G G G G G G S n q 7 > > yXyXyXyXyXyXyXyXyX",
"yXyXyXyXyXyXyXyXyXo $ q m S G G G G G G G G G G G G G G G G G G G G G G G G G G G G G G S G G G G G S S 8 $ o yXyXyXyXyXyXyXyXyX",
"yXyXyXyXyXyXyXyXyX@ ; q S G G G G G G G G G G G G G G G G G G G G G G G G G G G G G G S G G G G G G G S q ; @ yXyXyXyXyXyXyXyXyX",
"yXyXyXyXyXyXyX  O q n m G G G G G G G G G G G G G G G G G G G G G G G G G G G G G G G G G G G G G G G G A n q O   yXyXyXyXyXyXyX",
"yXyXyXyXyXyXyX  O n S S G G S S G G G G G G G G G G G G G G G G G G G G G G G G G G G G G G G G G S S G S S n O   yXyXyXyXyXyXyX",
"yXyXyXyXyXyXyXyXyXyXyXm j l j m S G G G G G G G G G G G G G G G G G G G G G G G G G G G G G G S n j j j m yXyXyXyXyXyXyXyXyXyXyX",
"yXyXyXyXyXyXyXyXyXyXyXyX< < < i A G G G G G G G G G G G G G G G G G G G G G G G G G G G G G J G f < < i yXyXyXyXyXyXyXyXyXyXyXyX",
"yXyXyXyXyXyXyXyXyXyXyXyX< < < M j.z.=.G G G G G G G G G G G G G G G G G G G G G G G G G &.;.l.;.z < < < yXyXyXyXyXyXyXyXyXyXyXyX",
"yXyXyXyXyXyXyXyXyXyXyXyXyXyX9 Y b.v.l.J G G G G G G G G G G G G G G G G G G G G G G G G G l.M.b.Y 7 yXyXyXyXyXyXyXyXyXyXyXyXyXyX",
"yXyXyXyXyXyXyXyXyXyXyXyXyXyX7 Y b.N.l.&.G G G G G G G G G G G G G G G G G G G G G G G S G l.N.v.Y 7 yXyXyXyXyXyXyXyXyXyXyXyXyXyX",
"yXyXyXyXyXyXyXyXyXyXyXyXyXyXd Y b.N.k.M m S G G G G G G G S G S G G S G G G G G G G G M M l.N.v.Y 7 yXyXyXyXyXyXyXyXyXyXyXyXyXyX",
"yXyXyXyXyXyXyXyXyXyXyXyXyXyX0 T b.M.k.g M H Y H H D G G S S S S S G S S S G G H H Y H M g k.M.b.Y 7 yXyXyXyXyXyXyXyXyXyXyXyXyXyX",
"yXyXyXyXyXyXyXyXyXyXyXyXyXyXyXyXk.k.I < V u.i.r.r.B b g j j b b q b b b b b B r.r.i.i.s > U k.k.yXyXyXyXyXyXyXyXyXyXyXyXyXyXyXyX",
"yXyXyXyXyXyXyXyXyXyXyXyXyXyXyXyXI I i & s p.p.t.y.V g y y y d f 0 f f f g g V y.e.p.p.s % y I I yXyXyXyXyXyXyXyXyXyXyXyXyXyXyXyX",
"yXyXyXyXyXyXyXyXyXyXyXyXyXyXyXyXv v 1 o u 7.e.t.t.r.w.w.0.0.y.e.w.w.q.q.q.w.q.t.t.e.7.p o 1 c v yXyXyXyXyXyXyXyXyXyXyXyXyXyXyXyX",
"yXyXyXyXyXyXyXyXyXyXyXyXyXyXyXyX7 7 ;   : y V y.t.p.p.d.s.s.s.s.d.d.f.f.f.p.p.t.y.V y : . ; 7 7 yXyXyXyXyXyXyXyXyXyXyXyXyXyXyXyX",
"yXyXyXyXyXyXyXyXyXyXyXyXyXyXyXyX7 7 -   $ > h q.q.u.u.p.s.s.s.s.d.a.f.f.p.p.e.r.C h > $   - 0 7 yXyXyXyXyXyXyXyXyXyXyXyXyXyXyXyX",
"yXyXyXyXyXyXyXyXyXyXyXyXyXyXyXyXyXyX.   X o - d g h p w.9.9.y.y.9.e.9.e.w.V h g g - o .   . yXyXyXyXyXyXyXyXyXyXyXyXyXyXyXyXyXyX",
"yXyXyXyXyXyXyXyXyXyXyXyXyXyXyXyXyXyX( ( ( Q Q r 5 7 d ..h.g.y.y.w.y.g.h.:.:.&.0 w Q Q Q ( ( yXyXyXyXyXyXyXyXyXyXyXyXyXyXyXyXyXyX",
"yXyXyXyXyXyXyXyXyXyXyXyXyXyXv v : ! P.'.'.J.A.! $ $ 5 C.R.L...B B  .L.~.+X$X{. .! A.J.'.'.Y.6 , v U yXyXyXyXyXyXyXyXyXyXyXyXyXyX",
"yXyXyXyXyXyXyXyXyXyXyXyXyXyX;.Y x ~ '.].].W.J.Q + 4 } Z./.S.[ | | _ T.).>X4X$X+.Q J.J.].].'.~ x T ;.yXyXyXyXyXyXyXyXyXyXyXyXyXyX",
"yXyXyXyXyXyXyXyXyXyXyXyXU c.*X*Xm.x. X@X[.A.X.Q W V.Z.F.^./.S.S.Z.T./.).>X4X$X$.! X.A..X#X Xx.m.*X*Xc.U yXyXyXyXyXyXyXyXyXyXyXyX",
"yXyXyXyXyXyXyXyXyXyXyXyXU n.;X:X=XN.N.N.x.0 3 / { D.^.^.^.^.^.^./.^.^.).>X5X$X$.w 2 q x.B.B.N.=X;X;Xc.U yXyXyXyXyXyXyXyXyXyXyXyX",
"yXyXyXyXyXyXyXyXyXyXyXyXU n.;X:X=XN.M.x.j.w 3 ! ] Z.D.D.D.D.D.D.D.R._.,X3X%XoX$.w 2 1 k.m.v.N.=X:X;Xn.U yXyXyXyXyXyXyXyXyXyXyXyX",
"yXyXyXyXyXyXyXyXyXyXyXyXU n.;X:X=XN.l.k e / / / / ] ] { ' ' ' ' ' 3.3X4X%X@X|.#.e yXyXx i k.N.=X:X;Xn.U yXyXyXyXyXyXyXyXyXyXyXyX",
"yXyXyXyXyXyXyXyXyXyXyXyXU c.-X-XB.v.;.@ O.4.P.I.I.I.I.I.I.5.5.5.U.[.$X%X$XXX6.+.w yXyXyX& j.v.B.-X-Xc.Y yXyXyXyXyXyXyXyXyXyXyXyX",
"yXyXyXyXyXyXyXyXyXyXyXyXyXyX1.1.R U f 2 U.2X2X<X<X2X2X<X<X<X<X4XwXwX9X&XXXP.K.6 # yXyXyXyXv U *.1.1.yXyXyXyXyXyXyXyXyXyXyXyXyXyX",
"yXyXyXyXyXyXyXyXyXyXyXyXyXyX  .     + r `.2X6X6XqXqX0X0X7XqX7X8XrXrX9X}.Y.K.X.3   yXyXyXyXyX    .   yXyXyXyXyXyXyXyXyXyXyXyXyXyX",
"yXyXyXyXyXyXyXyXyXyXyXyXyXyXyXyXyXyX6 ^ `.5XqXtXeXeXeXeXeXeXeXeXrXeX%X5.3.3.[ 2   yXyXyXyXyXyXyXyXyXyXyXyXyXyXyXyXyXyXyXyXyXyXyX",
"yXyXyXyXyXyXyXyXyXyXyXyXyXyXyXyXyXyX/ ) `.5XqXrXrXrXrXrXrXrXrXrXrXtX&X[ O.O.) r # yXyXyXyXyXyXyXyXyXyXyXyXyXyXyXyXyXyXyXyXyXyXyX",
"yXyXyXyXyXyXyXyXyXyXyXyXyXyXyXyXyXyX^ ] Y.,X2X8X8X8X8X8X8X8XwX8X8X7X`.) 2.U.U.6.6.+.yXyXyXyXyXyXyXyXyXyXyXyXyXyXyXyXyXyXyXyXyXyX",
"yXyXyXyXyXyXyXyXyXyXyXyXyXyXyXyXyXyX^ / A./._.OX#X@X$X#X#X#X#XOX_.(.K.) 6.oXoXoX|.%.X yXyXyXyXyXyXyXyXyXyXyXyXyXyXyXyXyXyXyXyXyX",
"yXyXyXyXyXyXyXyXyXyXyXyXyXyXyXyXyXyX/ / K.Q.!..X+X+X.X.XXXXXXXXX!.Q.K.! U.oX@X@X{.%.  yXyXyXyXyXyXyXyXyXyXyXyXyXyXyXyXyXyXyXyXyX",
"yXyXyXyXyXyXyXyXyXyXyXyXyXyXyXyXyXyX/ ( 5.{..XQ.E.(.(.(.E.(.E.!..X.X2.5 6.oXoX@X{.%.X yXyXyXyXyXyXyXyXyXyXyXyXyXyXyXyXyXyXyXyXyX",
"yXyXyXyXyXyXyXyXyXyXyXyXyXyXyXyXyXyX^ ) 5.|.[.E.G.G.G.F.G.G.G.E.[.|.2.5 5.{.{.{.[.#.. yXyXyXyXyXyXyXyXyXyXyXyXyXyXyXyXyXyXyXyXyX",
"yXyXyXyXyXyXyXyXyXyXyXyXyXyXyXyXyXyXyXyX%.%.$.] { ` ` ` ` ` ` ' $.%._ _ 3.4.4.4.2.e   yXyXyXyXyXyXyXyXyXyXyXyXyXyXyXyXyXyXyXyXyX",
"yXyXyXyXyXyXyXyXyXyXyXyXyXyXyXyXyXyXyXyXyX+ $ % % = % %   + + + + 4 _ | |  .| | | 2   yXyXyXyXyXyXyXyXyXyXyXyXyXyXyXyXyXyXyXyXyX",
"yXyXyXyXyXyXyXyXyXyXyXyXyXyXyXyXyXyXyXyXyX  Z 7.7.7.7.u .     yXyX4 5 5 ..g.g.g.g.Z   yXyXyXyXyXyXyXyXyXyXyXyXyXyXyXyXyXyXyXyXyX",
"yXyXyXyXyXyXyXyXyXyXyXyXyXyXyXyXyXyXyXyXyX  t p.a.a.p.7.o   yXyXyXyXX o a p.a.a.p.t   yXyXyXyXyXyXyXyXyXyXyXyXyXyXyXyXyXyXyXyXyX",
"yXyXyXyXyXyXyXyXyXyXyXyXyXyXyXyXyXyXyXyXyX  t 7.0.8.7.s % yXyXyXyXyXyX% s e.e.0.7.t   yXyXyXyXyXyXyXyXyXyXyXyXyXyXyXyXyXyXyXyXyX",
"yXyXyXyXyXyXyXyXyXyXyXyXyXyXyXyXyXyXyXyXyXyXyX* * = * = yXyXyXyXyXyXyXyX= = * * * yXyXyXyXyXyXyXyXyXyXyXyXyXyXyXyXyXyXyXyXyXyXyX",
"yXyXyXyXyXyXyXyXyXyXyXyXyXyXyXyXyXyXyXyXyXyXyX        yXyXyXyXyXyXyXyXyXyX        yXyXyXyXyXyXyXyXyXyXyXyXyXyXyXyXyXyXyXyXyXyXyX"
};
