/* XPM */
static char *result[] = {
/* columns rows colors chars-per-pixel */
"64 64 238 2 ",
"   c #010101",
".  c #0B0202",
"X  c #0A0709",
"o  c #110302",
"O  c #1B0E09",
"+  c #160B06",
"@  c #1B120B",
"#  c #090A15",
"$  c #1A161D",
"%  c #1A0C13",
"&  c #280B06",
"*  c #310D06",
"=  c #350E08",
"-  c #25160D",
";  c #3C1209",
":  c #331209",
">  c #2A1D13",
",  c #271A18",
"<  c #371D18",
"1  c #3C251C",
"2  c #36291B",
"3  c #3C2B1D",
"4  c #332319",
"5  c #2F2316",
"6  c #12152D",
"7  c #2E1A25",
"8  c #28222A",
"9  c #3C2421",
"0  c #3C2B23",
"q  c #3A2628",
"w  c #3D3223",
"e  c #37302E",
"r  c #392735",
"t  c #342F3C",
"y  c #1D2332",
"u  c #47180D",
"i  c #441913",
"p  c #581E13",
"a  c #412B1E",
"s  c #47261A",
"d  c #5B2318",
"f  c #5B311E",
"g  c #662617",
"h  c #792D1D",
"j  c #712A19",
"k  c #7A301A",
"l  c #421F24",
"z  c #422524",
"x  c #432C23",
"c  c #462C2B",
"v  c #492828",
"b  c #532B2A",
"n  c #443225",
"m  c #4A3326",
"M  c #4A3926",
"N  c #45342A",
"B  c #4C352A",
"V  c #4D3B2B",
"C  c #433A2A",
"Z  c #523D2C",
"A  c #58372A",
"S  c #463836",
"D  c #553F34",
"F  c #772D23",
"G  c #673528",
"H  c #783829",
"J  c #612D22",
"K  c #56422E",
"L  c #58432F",
"P  c #56492F",
"I  c #544432",
"U  c #5A4530",
"Y  c #554832",
"T  c #5C4A33",
"R  c #53443C",
"E  c #4C4234",
"W  c #624D36",
"Q  c #634B36",
"!  c #794A31",
"~  c #645239",
"^  c #6A573C",
"/  c #6C5A3D",
"(  c #625136",
")  c #75593E",
"_  c #6F422D",
"`  c #111C43",
"'  c #16255A",
"]  c #1F274C",
"[  c #262A47",
"{  c #232E54",
"}  c #293256",
"|  c #2C365C",
" . c #323359",
".. c #393149",
"X. c #1A2C6B",
"o. c #2C396A",
"O. c #2B3B7A",
"+. c #293B77",
"@. c #333967",
"#. c #533C41",
"$. c #3B4265",
"%. c #354177",
"&. c #58585C",
"*. c #5A565A",
"=. c #514944",
"-. c #6B5644",
";. c #715E40",
":. c #775948",
">. c #6F514B",
",. c #756343",
"<. c #796646",
"1. c #766348",
"2. c #71635B",
"3. c #454C64",
"4. c #44486E",
"5. c #4F5971",
"6. c #535A77",
"7. c #50526A",
"8. c #67666A",
"9. c #656879",
"0. c #747072",
"q. c #88331E",
"w. c #8C3523",
"e. c #863925",
"r. c #933725",
"t. c #8C3A33",
"y. c #A03B29",
"u. c #A33E3C",
"i. c #994328",
"p. c #9A4A33",
"a. c #8F4934",
"s. c #A9492B",
"d. c #B34E2D",
"f. c #BE4F2E",
"g. c #AF502F",
"h. c #B2502F",
"j. c #BA512F",
"k. c #AD5232",
"l. c #B65535",
"z. c #B44A35",
"x. c #C75B37",
"c. c #D45B35",
"v. c #D8643C",
"b. c #CE633F",
"n. c #ED6A3B",
"m. c #875946",
"M. c #8F4E47",
"N. c #B85B45",
"B. c #BE4945",
"V. c #9B7459",
"C. c #8D674E",
"Z. c #A5795A",
"A. c #A76C5A",
"S. c #8B7567",
"D. c #947D70",
"F. c #8A716D",
"G. c #BB6E62",
"H. c #A97F71",
"J. c #8D4274",
"K. c #D36949",
"L. c #E86D43",
"P. c #ED7245",
"I. c #F27446",
"U. c #F2744A",
"Y. c #ED764D",
"T. c #C67C6B",
"R. c #9D8274",
"E. c #B58665",
"W. c #A6877A",
"Q. c #B48E76",
"!. c #C9936D",
"~. c #C89775",
"^. c #D29C76",
"/. c #C9886F",
"(. c #D6A27E",
"). c #E78975",
"_. c #1F3485",
"`. c #213686",
"'. c #343E92",
"]. c #253D99",
"[. c #2B4486",
"{. c #314895",
"}. c #2C46A5",
"|. c #304DB5",
" X c #3951BF",
".X c #3852B0",
"XX c #4E5992",
"oX c #757B8D",
"OX c #4559AE",
"+X c #6471AF",
"@X c #6D5CA8",
"#X c #3654CA",
"$X c #3452C5",
"%X c #3858D4",
"&X c #435CD5",
"*X c #4B64C2",
"=X c #576BC4",
"-X c #4F6ADB",
";X c #6A78CC",
":X c #895D96",
">X c #7D86AF",
",X c #878A95",
"<X c #94949C",
"1X c #87858A",
"2X c #BA9787",
"3X c #B28D87",
"4X c #9096AF",
"5X c #9EA0B0",
"6X c #A1AEBF",
"7X c #ACAAB3",
"8X c #D7A98B",
"9X c #D1A990",
"0X c #E4B598",
"qX c #CFB2AF",
"wX c #E5BEA6",
"eX c #EEB7A9",
"rX c #EBC4AD",
"tX c #E9C0A7",
"yX c #ECC8B4",
"uX c #F4CCB4",
"iX c #F6C1B4",
"pX c #F8D0B8",
"aX c #F2C8AF",
"sX c #98A7D1",
"dX c #ABB8C8",
"fX c #B2BBDD",
"gX c #C1BFC4",
"hX c #BDCAD9",
"jX c #BDC0C6",
"kX c #C7C4C7",
"lX c #D5C7C6",
"zX c #DCDAD8",
"xX c #CACCD3",
"cX c #EBD7CF",
"vX c #C0C7E3",
"bX c #E5E9EF",
"nX c #FAF6F7",
"mX c None",
/* pixels */
"mXmXmXmXmXmXmXmXmXmXmXmXmXmXmXmXmXmXmXmXmXmXmXmXmXmXmXmXmXmXmX9 9 9 9 9 9 mXmXmXmXmXmXmXmXmXmXmXmXmXmXmXmXmXmXmXmXmXmXmXmXmXmXmX",
"mXmXmXmXmXmXmXmXmXmXmXmXmXmXmXmXmXmXmXmXmXmXmXmXmXmXmXmXmXmXmXn n c n n c x mXmXmXmXmXmXmXmXmXmXmXmXmXmXmXmXmXmXmXmXmXmXmXmXmXmX",
"mXmXmXmXmXmXmXmXmXmXmXmXmXmXmXmXmXmXmXmX9 9 9 9 mXmXmXmXmX9 B ^ / / ^ ^ / U @ mXmXmXmXmXmXmXmXmXmXmXmXmXmXmXmXmXmXmXmXmXmXmXmXmX",
"mXmXmXmXmXmXmXmXmXmXmXmXmXmXmXmXmXmXmXmX9 9 0 x mXmXmXmXmXq D ;.<.<.<.1.,.U @ o mXmXmXmXmXmXmXmXmXmXmXmXmXmXmXmXmXmXmXmXmXmXmXmX",
"mXmXmXmXmXmXmXmXmXmXmXmXmXmXmXmXmXmXmXmX1 x P ( I 9 9 9 D W ^ ,.<.-.~ T P n > > 1 mXmXmXmXmXmXmXmXmXmXmXmXmXmXmXmXmXmXmXmXmXmXmX",
"mXmXmXmXmXmXmXmXmXmXmXmXmXmXmXmXmXmXmXmX9 n / ,.U z 9 q I ,.<.<.,.( I 0 @ , 1 q 9 9 mXmXmXmXmXmXmXmXmXmXmXmXmXmXmXmXmXmXmXmXmXmX",
"mXmXmXmXmXmXmXmXmXmXmXmXmXmXmXmXmXmXmXmX9 x T ^ ~ T Z z U <.;.^ ( V N 0 0 x B B B c 0 mXmXmXmXmXmXmXmXmXmXmXmXmXmXmXmXmXmXmXmXmX",
"mXmXmXmXmXmXmXmXmXmXmXmXmXmXmXmX  . mXmXa x K P / ,.Q v D <.;.D q , @ C I I U L U Z x 9 & o mXmXmXmXmXmXmXmXmXmXmXmXmXmXmXmXmXmX",
"mXmXmXmXmXmXmXmXmXmXmXmXmXmXmX> 5 2 mXmXM m M K ~ / ~ b U ;.^ Z N 2 2 I ~ ~ W W U K M x 2 4 > mXmXmXmXmXmXmXmXmXmXmXmXmXmXmXmXmX",
"mXmXmXmXmXmXmXmXmXmXmXmXmX. . 3 K K L L L Z n 3 Z Q U D U T T U I K U ^ <.<.1./ P U P K K Z 2 . mXmXmXmXmXmXmXmXmXmXmXmXmXmXmXmX",
"mXmXmXmXmXmXmXmXmXmXmXmXmXmXo 3 Z Z Z P L L M M L W T U U U U U L Q Q ;.<.<.<./ ( T L L L K n - > mXmXmXmXmXmXmXmXmXmXmXmXmXmXmX",
"mXmXmXmXmXmXmXmXmXmXmXmXmXmXmX- > 4 3 a K U / / ;.,.^ U U U L T T / ;.<.<.<.<.<.,.;.T P P K K Z B 9 9 mXmXmXmXmXmXmXmXmXmXmXmXmX",
"mXmXmXmXmXmXmXmXmXmXmXmXmXmXmXmXu u s m Z T / 1.<.<./ W T Q T T W ,.<.<.<.<.<.<.,.;.T P P P L L B 9 9 mXmXmXmXmXmXmXmXmXmXmXmXmX",
"mXmXmXmXmXmXmXmXmXmXmXmXmXmXc H i.i.s.i.G B T ( / <.,.;./ ,./ ) / <.<.<.<.<.<.,.^ ( U P V n N n x mXmXmXmXmXmXmXmXmXmXmXmXmXmXmX",
"mXmXmXmXmXmXmXmXmXmXmXmXmXb b M.N.N.l.k.G b V I ^ <.<.<.<.<.<.<.<.<.<.<.<.<.<./ P T P L n 0 0 9 9 mXmXmXmXmXmXmXmXmXmXmXmXmXmXmX",
"mXmXmXmXmXmXmXmXmXmXmXmXb w.p.3XyXqXA.p.p.e._ P ( ^ ^ ^ ) <.<.<.<.<.<.;.;.^ ^ ~ T P P L K V V B 0 + mXmXmXmXmXmXmXmXmXmXmXmXmXmX",
"mXmXmXmXmXmXmXmXmXmXmXb b s.x.wXnXzXR.m.k.g.! T U U U U ^ ,.<.<.<.1.:.^ T U U U U U L L U U L L n + . mXmXmXmXmXmXmXmXmXmXmXmXmX",
"mXmXmXmXmXmXmXmXmXmXmXp.s.x.K.eXnXzX0.a.h.h.! Z L U U U W / / / / / -.~ L U U U U K Z Z L U U L M 3 2 mXmXmXmXmXmXmXmXmXmXmXmXmX",
"mXmXmXmXmXmXmXmXmXv H b.P.P.Y.iXnXzX8.G g.d.H v Z U U U U T U Q T U U U U U U U U K a a Z L L L L P M + . mXmXmXmXmXmXmXmXmXmXmX",
"mXmXmXmXmXmXmXmXmXl G K.U.P.Y.eXcXlX1XS.N.d.F v Z U U U U U U U U U U L Z L U U L K m n M K P L U U M - @ mXmXmXmXmXmXmXmXmXmXmX",
"mXmXmXmXmXmXmXmXmX% d b.n.).n.).T.2X7X7XG.s.H a A U L U U U U U U U U B v V L U L L L K n w K L U U M 2 2 mXmXmXmXmXmXmXmXmXmXmX",
"mXmXmXmXmXmXmXmXmX. d x.n.I.n.n.c.2XqX7XG.g.e.J A L L U U U U U U U U B v B Z L P L L K n 0 V K K K V n x mXmXmXmXmXmXmXmXmXmXmX",
"mXmXmXmXmXmXmXmXmX. u d.c.n.n.n.L.Y.).).K.j.s.s.H m M U U U U U U U U U P M a M L L L L L Z m x x x V D I mXmXmXmXmXmXmXmXmXmXmX",
"mXmXmXmXmXmXmXmXmX. u i.f.n.n.n.U.U.U.L.x.j.j.h.e.z M U U U U U U U K U T M a m K L T L L L m l 1 3 N I I mXmXmXmXmXmXmXmXmXmXmX",
"mXmXmXmXmXmXmXmXmXmXmXj q.d.c.n.U.U.U.P.L.v.x.h.e.0 M L L U U U I B N I U K Z Z m B L U U L b q 9 mXmXmXmXmXmXmXmXmXmXmXmXmXmXmX",
"mXmXmXmXmXmXmXmXmXmXmX+ = i.f.c.P.U.U.P.Y.L.x.h.e.3 B K U L U U I N q V U U U A a x Z U U L B z mXmXmXmXmXmXmXmXmXmXmXmXmXmXmXmX",
"mXmXmXmXmXmXmXmXmXmXmXmX* k r.i.k.l.z.l.l.l.s.s.r.F J a M K U L L Z B D L Z B m z m K L Z S c mXmXmXmXmXmXmXmXmXmXmXmXmXmXmXmXmX",
"mXmXmXmXmXmXmXmXmXmXmXmXmX& & & : 9 b b b A w.r.y.t.F & 2 K U P L U U U L B 9 z s m K K c l mXmXmXmXmXmXmXmXmXmXmXmXmXmXmXmXmXmX",
"mXmXmXmXmXmXmXmXmXmXmXmXmXmX. % $ >.R.W.W.R.m.e.3XqX:XH f f M K K P P K M G H i.p.p.U Z v q mXmXmXmXmXmXmXmXmXmXmXmXmXmXmXmXmXmX",
"mXmXmXmXmXmXmXmXmXmXmXmXmXmXmXmXr D.tXaXaXtX0.=.gXbXgXM.H : > K U K P 3 : e.g.x.n.K.H 3 mXmXmXmXmXmXmXmXmXmXmXmXmXmXmXmXmXmXmXmX",
"mXmXmXmXmXmXmXmXmXmXmXmXmXmXmXmXt R.aXpXpXrXS.=.kXnXlXA.a.5 > K K K K f g i.h.x.v.x.G 9 mXmXmXmXmXmXmXmXmXmXmXmXmXmXmXmXmXmXmXmX",
"mXmXmXmXmXmXmXmXmXmXmXmXmXmXmXmXR R.yXpXpXrXS.=.kXnXcX~.V.a > K K 2 ; e.s.h.j.s.H G s a mXmXmXmXmXmXmXmXmXmXmXmXmXmXmXmXmXmXmXmX",
"mXmXmXmXmXmXmXmXmXmXmXmXmXmXmXmX;.W.aXpXpXyXW.2.lXnXcX(.E._ Z K M > : e.h.h.g.i.x 1 1 s mXmXmXmXmXmXmXmXmXmXmXmXmXmXmXmXmXmXmXmX",
"mXmXmXmXmXmXmXmXmXmXmXmXmXmXmXmXE.9XuXpXpXuXtXwXuXcXtX^.!.E.Z.L > + O A ! ! ! T 0 9 mXmXmXmXmXmXmXmXmXmXmXmXmXmXmXmXmXmXmXmXmXmX",
"mXmXmXmXmXmXmXmXmXmXmXmXmXmXmXmX^.8XrXyXuXuXpXpXuXuX0X^.!.!.G.L + + @ C Y Y P K 0 9 mXmXmXmXmXmXmXmXmXmXmXmXmXmXmXmXmXmXmXmXmXmX",
"mXmXmXmXmXmXmXmXmXmXmXmXmXmXmXmXmXQ.Q.2X8X0XaXpXtX8XQ.V.C.C.:.b 4 w C Y Y Y mXmXmXmXmXmXmXmXmXmXmXmXmXmXmXmXmXmXmXmXmXmXmXmXmXmX",
"mXmXmXmXmXmXmXmXmXmXmXmXmXmXmXmXmXmX-.:.E.^.tXuX0X!.Z.=.D c r l z E I Y Y Y mXmXmXmXmXmXmXmXmXmXmXmXmXmXmXmXmXmXmXmXmXmXmXmXmXmX",
"mXmXmXmXmXmXmXmXmXmXmXmXmXmXmXmXmXmXmX:.V.V.Q.2XE.Z.m.E e r r r r w w w w 2 X mXmXmXmXmXmXmXmXmXmXmXmXmXmXmXmXmXmXmXmXmXmXmXmXmX",
"mXmXmXmXmXmXmXmXmXmXmXmXmXmXmXmXmXmXmXmX> > 9 0 A Q M @ $ r r t r $ . X X X .   mXmXmXmXmXmXmXmXmXmXmXmXmXmXmXmXmXmXmXmXmXmXmXmX",
"mXmXmXmXmXmXmXmXmXmXmXmXmXmXmXmXmXmXmXmX      + m L 3 X y | @.@. .y y ] } [ 2 4 mXmXmXmXmXmXmXmXmXmXmXmXmXmXmXmXmXmXmXmXmXmXmXmX",
"mXmXmXmXmXmXmXmXmXmXmXmXmXmXmXmXmXmXmXmXmXmXmXmXmXmXO X ' `.[.[.[. .t O.{.7.D A O   mXmXmXmXmXmXmXmXmXmXmXmXmXmXmXmXmXmXmXmXmXmX",
"mXmXmXmXmXmXmXmXmXmXmXmXmXmXmXmXmXmXmXmXmXmXmXmXmXmXX.X.`.}.}.[.O. .#.%.[.4.#.b %   mXmXmXmXmXmXmXmXmXmXmXmXmXmXmXmXmXmXmXmXmXmX",
"mXmXmXmXmXmXmXmXmXmXmXmXmXmXmXmXmXmXmXmXmXmXmXmXmX6 ].#X#X%X XX.` [ { | o.| ..[ #   mXmXmXmXmXmXmXmXmXmXmXmXmXmXmXmXmXmXmXmXmXmX",
"mXmXmXmXmXmXmXmXmXmXmXmXmXmXmXmXmXmXmXmXmXmXmXmX6 ` ].%X%X%X|.' y 3.6.9.0.5.| ] #   mXmXmXmXmXmXmXmXmXmXmXmXmXmXmXmXmXmXmXmXmXmX",
"mXmXmXmXmXmXmXmXmXmXmXmXmXmXmXmXmXmXmXmX      # X.O.|.%X$X_.X.{ 3.4XdXkXzX7X$.} mXmXmXmXmXmXmXmXmXmXmXmXmXmXmXmXmXmXmXmXmXmXmXmX",
"mXmXmXmXmXmXmXmXmXmXmXmXmXmXmXmXmXmXmXmXS C w r $.XXOX%X|.X.` { 5.6XhXbXnXdX3.} mXmXmXmXmXmXmXmXmXmXmXmXmXmXmXmXmXmXmXmXmXmXmXmX",
"mXmXmXmXmXmXmXmXmXmXmXmXmXmXmXmXmXmX  2.2X9XQ.Z.H.W.:X'.].}.'.o.5.6XhXbXnXkX3.} mXmXmXmXmXmXmXmXmXmXmXmXmXmXmXmXmXmXmXmXmXmXmXmX",
"mXmXmXmXmXmXmXmXmXmXmXmXmXmXmXmXmXmX  2.wXaX8X^.^.~.V.7 _.%X$XO.5.6XhXbXnXjX3.} mXmXmXmXmXmXmXmXmXmXmXmXmXmXmXmXmXmXmXmXmXmXmXmX",
"mXmXmXmXmXmXmXmXmXmXmXmXmXmXmXmXmXmX  :.9X0X0X0X~.V.:., `.%X#XO.$.>XsXhXhX4X$.} mXmXmXmXmXmXmXmXmXmXmXmXmXmXmXmXmXmXmXmXmXmXmXmX",
"mXmXmXmXmXmXmXmXmXmXmXmXmXmXmXmXmXmX  Q !.(.tXuX3XS r $ `.#X#XO.%..X*X=X=XOX| } mXmXmXmXmXmXmXmXmXmXmXmXmXmXmXmXmXmXmXmXmXmXmXmX",
"mXmXmXmXmXmXmXmXmXmXmXmXmXmXmXmXmXmX  Q V.E.2X9XR.t 7.0.+X&X&XO.%..X*X=X>XXX} [ mXmXmXmXmXmXmXmXmXmXmXmXmXmXmXmXmXmXmXmXmXmXmXmX",
"mXmXmXmXmXmXmXmXmXmXmXmXmXmXmXmXmXmXmXmXa M R R e t >XjXsX-X$XO.$.OX*X>X<X9.8 # mXmXmXmXmXmXmXmXmXmXmXmXmXmXmXmXmXmXmXmXmXmXmXmX",
"mXmXmXmXmXmXmXmXmXmXmXmXmXmXmXmXmXmXmXmX. o = i q t ,XdXsX;X=XXX5.OXOX>X:X9.$   mXmXmXmXmXmXmXmXmXmXmXmXmXmXmXmXmXmXmXmXmXmXmXmX",
"mXmXmXmXmXmXmXmXmXmXmXmXmXmXmXmXmXmXmXmXmXmXh q.d 8 0.5X5X4X4X<X>X6.$.3.4.#.#   mXmXmXmXmXmXmXmXmXmXmXmXmXmXmXmXmXmXmXmXmXmXmXmX",
"mXmXmXmXmXmXmXmXmXmXmXmXmXmXmXmXmXmXmXmXmXmXw.w.g < 8.<X<X<X<X<X,X9.$.$.o...i u mXmXmXmXmXmXmXmXmXmXmXmXmXmXmXmXmXmXmXmXmXmXmXmX",
"mXmXmXmXmXmXmXmXmXmXmXmXmXmXmXmXmXmXmXmX  ; h w.w.h >.*.&.&.&.&.8.0.>X+XOX@Xu.w.;   mXmXmXmXmXmXmXmXmXmXmXmXmXmXmXmXmXmXmXmXmXmX",
"mXmXmXmXmXmXmXmXmXmXmXmXmXmXmXmXmXmXmXmX  * h w.w.w.g &   X   X C >X5X;X&X:XB.y.;   mXmXmXmXmXmXmXmXmXmXmXmXmXmXmXmXmXmXmXmXmXmX",
"mXmXmXmXmXmXmXmXmXmXmXmXmXmXmXmXmXmXmXmXmXmXp g p d u .   mXmXmXmXmXmXXX{.J.x.y.;   mXmXmXmXmXmXmXmXmXmXmXmXmXmXmXmXmXmXmXmXmXmX",
"mXmXmXmXmXmXmXmXmXmXmXmXmXmXmXmXmXmXmXmXmXmXo . o o .     mXmXmXmXmXmX$ 7 r.u.y.;   mXmXmXmXmXmXmXmXmXmXmXmXmXmXmXmXmXmXmXmXmXmX",
"mXmXmXmXmXmXmXmXmXmXmXmXmXmXmXmXmXmXmXmXmXmXmX          mXmXmXmXmXmXmXd p r.y.y.=   mXmXmXmXmXmXmXmXmXmXmXmXmXmXmXmXmXmXmXmXmXmX",
"mXmXmXmXmXmXmXmXmXmXmXmXmXmXmXmXmXmXmXmXmXmXmXmXmXmXmXmXmXmXmXmXmX  & j w.w.r.h &   mXmXmXmXmXmXmXmXmXmXmXmXmXmXmXmXmXmXmXmXmXmX",
"mXmXmXmXmXmXmXmXmXmXmXmXmXmXmXmXmXmXmXmXmXmXmXmXmXmXmXmXmXmXmXmXmX  O g q.j h g &   mXmXmXmXmXmXmXmXmXmXmXmXmXmXmXmXmXmXmXmXmXmX",
"mXmXmXmXmXmXmXmXmXmXmXmXmXmXmXmXmXmXmXmXmXmXmXmXmXmXmXmXmXmXmXmXmXmXmX* * * = * mXmXmXmXmXmXmXmXmXmXmXmXmXmXmXmXmXmXmXmXmXmXmXmX",
"mXmXmXmXmXmXmXmXmXmXmXmXmXmXmXmXmXmXmXmXmXmXmXmXmXmXmXmXmXmXmXmXmXmXmXmX        mXmXmXmXmXmXmXmXmXmXmXmXmXmXmXmXmXmXmXmXmXmXmXmX"
};
