/* XPM */
static char *result[] = {
/* columns rows colors chars-per-pixel */
"64 64 233 2 ",
"   c #010100",
".  c #0A0202",
"X  c #090609",
"o  c #110403",
"O  c #180A05",
"+  c #1D130B",
"@  c #17161A",
"#  c #100B16",
"$  c #2C0C06",
"%  c #250A05",
"&  c #330D06",
"*  c #24150D",
"=  c #371309",
"-  c #2A1D13",
";  c #261B18",
":  c #351D18",
">  c #3B241D",
",  c #3C2B1D",
"<  c #342619",
"1  c #2D2115",
"2  c #050C20",
"3  c #13182D",
"4  c #221B22",
"5  c #301A33",
"6  c #1B223E",
"7  c #282628",
"8  c #3C2421",
"9  c #3C2C24",
"0  c #392627",
"q  c #3C3224",
"w  c #392736",
"e  c #353439",
"r  c #282B38",
"t  c #46170D",
"y  c #571C12",
"u  c #441D10",
"i  c #45261C",
"p  c #57261B",
"a  c #5A311F",
"s  c #632416",
"d  c #742A1A",
"f  c #7C331C",
"g  c #422425",
"h  c #432C23",
"j  c #47292A",
"k  c #522B28",
"l  c #443225",
"z  c #4A3425",
"x  c #4C352A",
"c  c #4E3B2B",
"v  c #483727",
"b  c #523D2C",
"n  c #543529",
"m  c #463A36",
"M  c #533D32",
"N  c #752D25",
"B  c #683528",
"V  c #793928",
"C  c #66312E",
"Z  c #421F24",
"A  c #56422E",
"S  c #58432F",
"D  c #56492F",
"F  c #544432",
"G  c #5A4530",
"H  c #5C4A32",
"J  c #544733",
"K  c #504532",
"L  c #614D35",
"P  c #634F39",
"I  c #6A4A36",
"U  c #784A31",
"Y  c #645239",
"T  c #6A563C",
"R  c #6D5A3E",
"E  c #625136",
"W  c #745B3F",
"Q  c #71422E",
"!  c #1E2658",
"~  c #252945",
"^  c #37374B",
"/  c #293256",
"(  c #273155",
")  c #393659",
"_  c #2B2E4F",
"`  c #1F366D",
"'  c #1C2F74",
"]  c #2E396D",
"[  c #4B3B46",
"{  c #403F57",
"}  c #3D4366",
"|  c #394473",
" . c #3B4059",
".. c #474346",
"X. c #584742",
"o. c #524F54",
"O. c #6C5843",
"+. c #715E40",
"@. c #7B5A45",
"#. c #725C51",
"$. c #756343",
"%. c #796646",
"&. c #776348",
"*. c #49506B",
"=. c #635E67",
"-. c #5D6477",
";. c #696669",
":. c #656878",
">. c #756F73",
",. c #87311E",
"<. c #873825",
"1. c #953926",
"2. c #973934",
"3. c #A23C2A",
"4. c #9A4429",
"5. c #874A37",
"6. c #9C4B32",
"7. c #914831",
"8. c #A94A2B",
"9. c #B24E2D",
"0. c #B4452E",
"q. c #AF502F",
"w. c #B4502F",
"e. c #BB512F",
"r. c #AE5334",
"t. c #B65535",
"y. c #B94531",
"u. c #C75B37",
"i. c #D35C38",
"p. c #D7643B",
"a. c #CE633F",
"s. c #E3683C",
"d. c #F36D3C",
"f. c #8C3841",
"g. c #885A47",
"h. c #96584C",
"j. c #BD5C44",
"k. c #B1494B",
"l. c #89644B",
"z. c #967055",
"x. c #A77A5A",
"c. c #AB725B",
"v. c #91786A",
"b. c #977F73",
"n. c #84706C",
"m. c #B07663",
"M. c #D46A48",
"N. c #E76D43",
"B. c #ED7245",
"V. c #F27446",
"C. c #F2754A",
"Z. c #EE744C",
"A. c #C46D58",
"S. c #9D8273",
"D. c #B88764",
"F. c #A78977",
"G. c #B58E77",
"H. c #C9936D",
"J. c #C99876",
"K. c #D19C76",
"L. c #CD886F",
"P. c #DF9579",
"I. c #2C3B8E",
"U. c #2E4586",
"Y. c #2D4993",
"T. c #374997",
"R. c #3C5593",
"E. c #364C8B",
"W. c #3D619F",
"Q. c #2E4CA2",
"!. c #364EB1",
"~. c #4B5C96",
"^. c #42528A",
"/. c #566599",
"(. c #6F728A",
"). c #4754B3",
"_. c #7551B0",
"`. c #5372B1",
"'. c #64469D",
"]. c #3654C8",
"[. c #465CD7",
"{. c #737DC5",
"}. c #8D5A9C",
"|. c #7D8BAC",
" X c #7E8997",
".X c #6D8EC7",
"XX c #848389",
"oX c #898A94",
"OX c #95949C",
"+X c #919097",
"@X c #8F9198",
"#X c #A78286",
"$X c #B69485",
"%X c #B39085",
"&X c #9C9BA5",
"*X c #9799A6",
"=X c #8696B7",
"-X c #8E96B4",
";X c #A4A5AB",
":X c #B0B0B5",
">X c #A198B2",
",X c #C8A28B",
"<X c #DAAB8D",
"1X c #D7AE95",
"2X c #E3B597",
"3X c #F1AF9F",
"4X c #DDB8A7",
"5X c #C8ADAE",
"6X c #E8BFA6",
"7X c #EABBB1",
"8X c #EAC4AD",
"9X c #EBC7B4",
"0X c #F3CBB3",
"qX c #F6C0B3",
"wX c #F8D0B8",
"eX c #F1C7AD",
"rX c #97A9C6",
"tX c #ABB6CA",
"yX c #B2B5C8",
"uX c #B3BCD5",
"iX c #C4BFC0",
"pX c #B6C4D3",
"aX c #CAC3C6",
"sX c #D6C7C5",
"dX c #D8D9DA",
"fX c #CDD0D3",
"gX c #E8DAD5",
"hX c #F2D6CB",
"jX c #DBDEE6",
"kX c #C7CFE4",
"lX c #F9F7F7",
"zX c #E9EBED",
"xX c None",
/* pixels */
"xXxXxXxXxXxXxXxXxXxXxXxXxXxXxXxXxXxXxXxXxXxXxXxXxXxXxXxXxXxXxX8 8 8 8 8 8 xXxXxXxXxXxXxXxXxXxXxXxXxXxXxXxXxXxXxXxXxXxXxXxXxXxXxX",
"xXxXxXxXxXxXxXxXxXxXxXxXxXxXxXxXxXxXxXxXxXxXxXxXxXxXxXxXxXxXxXl l l l l l h xXxXxXxXxXxXxXxXxXxXxXxXxXxXxXxXxXxXxXxXxXxXxXxXxXxX",
"xXxXxXxXxXxXxXxXxXxXxXxXxXxXxXxXxXxXxXxX8 8 8 8 xXxXxXxXxX8 x T O.R R T R J * xXxXxXxXxXxXxXxXxXxXxXxXxXxXxXxXxXxXxXxXxXxXxXxXxX",
"xXxXxXxXxXxXxXxXxXxXxXxXxXxXxXxXxXxXxXxX8 8 9 h xXxXxXxXxXg b +.&.&.%.$.$.H * o xXxXxXxXxXxXxXxXxXxXxXxXxXxXxXxXxXxXxXxXxXxXxXxX",
"xXxXxXxXxXxXxXxXxXxXxXxXxXxXxXxXxXxXxXxX> h D E F 8 8 8 M P T $.%.O.T H D l - : : xXxXxXxXxXxXxXxXxXxXxXxXxXxXxXxXxXxXxXxXxXxXxX",
"xXxXxXxXxXxXxXxXxXxXxXxXxXxXxXxXxXxXxXxX> l T $.H h 8 8 F +.%.&.&.H K 9 + ; 8 0 8 8 xXxXxXxXxXxXxXxXxXxXxXxXxXxXxXxXxXxXxXxXxXxX",
"xXxXxXxXxXxXxXxXxXxXxXxXxXxXxXxXxXxXxXxX> l E T P H b g M $.%.T Y K l 9 9 l l x x x h xXxXxXxXxXxXxXxXxXxXxXxXxXxXxXxXxXxXxXxXxX",
"xXxXxXxXxXxXxXxXxXxXxXxXxXxXxXxX  X xXxXi i b D R $.P j M %.+.M 0 ; + q F F G S G M h : * o xXxXxXxXxXxXxXxXxXxXxXxXxXxXxXxXxXxX",
"xXxXxXxXxXxXxXxXxXxXxXxXxXxXxX- 1 < xXxXz z v b Y +.P k M +.R b j > < F E E Y L S A z h , < - xXxXxXxXxXxXxXxXxXxXxXxXxXxXxXxXxX",
"xXxXxXxXxXxXxXxXxXxXxXxXxX. . , c A D G S A l , b L G S G H H G G F D T %.%.%.R H D A D A b , o . xXxXxXxXxXxXxXxXxXxXxXxXxXxXxX",
"xXxXxXxXxXxXxXxXxXxXxXxXxXxXo , A A b A S S c v A L G S G G G G G H L W %.%.%.+.E H S D D S h - - xXxXxXxXxXxXxXxXxXxXxXxXxXxXxX",
"xXxXxXxXxXxXxXxXxXxXxXxXxXxXxX* - 1 i l A G T +.W $.T L G G G G H R $.$.%.%.%.%.$.+.H D S S A b x 8 8 xXxXxXxXxXxXxXxXxXxXxXxXxX",
"xXxXxXxXxXxXxXxXxXxXxXxXxXxXxXxX= u p z b H O.$.%.%.R H H H H H L +.%.%.%.%.%.%.$.$.H D D D A F c 8 8 xXxXxXxXxXxXxXxXxXxXxXxXxX",
"xXxXxXxXxXxXxXxXxXxXxXxXxXxXj V 4.4.4.4.B x H P +.%.$.+.W W +.+.W &.%.%.%.%.%.$.Y E H S c z v z h xXxXxXxXxXxXxXxXxXxXxXxXxXxXxX",
"xXxXxXxXxXxXxXxXxXxXxXxXxXj k g.j.j.t.r.B k c K T %.%.%.%.%.%.%.%.%.%.%.%.%.&.+.E D G S v 9 9 8 0 xXxXxXxXxXxXxXxXxXxXxXxXxXxXxX",
"xXxXxXxXxXxXxXxXxXxXxXxXk 1.2.%X9X5Xc.6.6.<.Q D E T T T W %.%.%.%.%.%.+.O.R R E D D G D c c c z l O xXxXxXxXxXxXxXxXxXxXxXxXxXxX",
"xXxXxXxXxXxXxXxXxXxXxXk k 8.u.4XlXgXS.l.r.q.U G S G G L P $.%.%.&.&.#.T H G H G G S S D G G S S z O   xXxXxXxXxXxXxXxXxXxXxXxXxX",
"xXxXxXxXxXxXxXxXxXxXxX6.8.u.M.7XlXdXv.U r.q.5.M M G G G L R W R W R R P S G S G G S b c S G S S c , , xXxXxXxXxXxXxXxXxXxXxXxXxX",
"xXxXxXxXxXxXxXxXxXk C a.B.B.Z.qXlXgX;.B q.w.V g b G S G S L G L H G G G G G G G G A i , b S S S D A v +   xXxXxXxXxXxXxXxXxXxXxX",
"xXxXxXxXxXxXxXxXxXZ C p.Z.V.C.3XgXsXXXn.j.0.V g b S H G S G S G G G G G b A G G S A z l c A D S A D A - + xXxXxXxXxXxXxXxXxXxXxX",
"xXxXxXxXxXxXxXxXxX# s a.V.V.B.Z.A.,XyX:Xm.0.V g c S G G G G G G G G S x j x S S S S S A v 9 c S S S b , < xXxXxXxXxXxXxXxXxXxXxX",
"xXxXxXxXxXxXxXxXxX. p u.B.B.B.s.M.m.5XyXm.0.<.a B b S G G G G G G G G b h z A A G G S S v 9 c A A A b 9 h xXxXxXxXxXxXxXxXxXxXxX",
"xXxXxXxXxXxXxXxXxX. t 0.i.s.d.d.Z.Z.P.Z.M.w.9.8.Q z A S G G G G G G G A A c h z S G S S b A z h i h z M K xXxXxXxXxXxXxXxXxXxXxX",
"xXxXxXxXxXxXxXxXxX. t 3.u.p.d.d.Z.Z.B.s.u.u.e.w.<.i z S G G S G G S F G D A , z S S G G G G z Z , , v F J xXxXxXxXxXxXxXxXxXxXxX",
"xXxXxXxXxXxXxXxXxXxXxXd ,.9.i.s.Z.C.C.V.N.p.u.9.<.9 z S G G G G S c x K G F b n z x S S G S x g g xXxXxXxXxXxXxXxXxXxXxXxXxXxXxX",
"xXxXxXxXxXxXxXxXxXxXxXO & 1.u.i.Z.Z.B.V.Z.Z.u.e.<.h z A S S G G F l 0 b G G L b i h A S G S x g g xXxXxXxXxXxXxXxXxXxXxXxXxXxXxX",
"xXxXxXxXxXxXxXxXxXxXxXxX& f ,.8.r.r.t.t.t.t.9.3.<.N B i z S S S G c x M S b x j g h b G b m j xXxXxXxXxXxXxXxXxXxXxXxXxXxXxXxXxX",
"xXxXxXxXxXxXxXxXxXxXxXxXxX% % $ & 8 k k n k <.1.2.2.N $ < D S S G G G F S c g i i z S D j j xXxXxXxXxXxXxXxXxXxXxXxXxXxXxXxXxXxX",
"xXxXxXxXxXxXxXxXxXxXxXxXxXxX  @ 4 O.S.F.F.S.g.V #X5X}.Q a z z D S S D D z B V 7.6.6.H b j 0 xXxXxXxXxXxXxXxXxXxXxXxXxXxXxXxXxXxX",
"xXxXxXxXxXxXxXxXxXxXxXxXxXxXxXxXw v.7XeX9X6Xv.K iXzXaXh.f = 1 b S A D i * ,.8.u.N.M.V i xXxXxXxXxXxXxXxXxXxXxXxXxXxXxXxXxXxXxXxX",
"xXxXxXxXxXxXxXxXxXxXxXxXxXxXxXxX[ b.9XwXwX8Xv...sXlXsXc.5.1 - c S b b a s 1.w.u.p.u.V 8 xXxXxXxXxXxXxXxXxXxXxXxXxXxXxXxXxXxXxXxX",
"xXxXxXxXxXxXxXxXxXxXxXxXxXxXxXxXm b.9XwXwX9Xv...aXlXhXJ.x.l - A D , 1 <.8.9.e.8.V B i i xXxXxXxXxXxXxXxXxXxXxXxXxXxXxXxXxXxXxXxX",
"xXxXxXxXxXxXxXxXxXxXxXxXxXxXxXxXO.F.9XwXwXeXF.;.aXlXhXK.D.I b M a 1 $ <.q.q.q.4.k > , i xXxXxXxXxXxXxXxXxXxXxXxXxXxXxXxXxXxXxXxX",
"xXxXxXxXxXxXxXxXxXxXxXxXxXxXxXxXD.,X0XwXwXwX8X4X0XhX8XK.H.H.c.M - + O b U U U E 9 < xXxXxXxXxXxXxXxXxXxXxXxXxXxXxXxXxXxXxXxXxXxX",
"xXxXxXxXxXxXxXxXxXxXxXxXxXxXxXxXK.<X9X0X0X0X0XwXwX0X6XJ.H.H.D.L X O + q J D D A 9 0 xXxXxXxXxXxXxXxXxXxXxXxXxXxXxXxXxXxXxXxXxXxX",
"xXxXxXxXxXxXxXxXxXxXxXxXxXxXxXxXxXH.G.G.<X2XeX0X6X<XJ.z.l.l.@.k < q v K D D xXxXxXxXxXxXxXxXxXxXxXxXxXxXxXxXxXxXxXxXxXxXxXxXxXxX",
"xXxXxXxXxXxXxXxXxXxXxXxXxXxXxXxXxXxXX.&.H.K.6X0X2XH.x.O.m j j Z 8 K D K K D xXxXxXxXxXxXxXxXxXxXxXxXxXxXxXxXxXxXxXxXxXxXxXxXxXxX",
"xXxXxXxXxXxXxXxXxXxXxXxXxXxXxXxXxXxXxX@.z.z.G.$XF.c.l.e j w w w 0 q q q q q xXxXxXxXxXxXxXxXxXxXxXxXxXxXxXxXxXxXxXxXxXxXxXxXxXxX",
"xXxXxXxXxXxXxXxXxXxXxXxXxXxXxXxXxXxXxXxX- 1 9 9 b I c + 4 ~ w e w 4 X X X X xXxXxXxXxXxXxXxXxXxXxXxXxXxXxXxXxXxXxXxXxXxXxXxXxXxX",
"xXxXxXxXxXxXxXxXxXxXxXxXxXxXxXxXxXxXxXxX  - I @.I b o.(.-.*.] T.I.! X @ 6 6 xXxXxXxXxXxXxXxXxXxXxXxXxXxXxXxXxXxXxXxXxXxXxXxXxXxX",
"xXxXxXxXxXxXxXxXxXxXxXxXxXxXxXxXxXxXxXxX  l x.H.l.<  XrX=X~.Q.].].' 2 6 ( ( ( _ xXxXxXxXxXxXxXxXxXxXxXxXxXxXxXxXxXxXxXxXxXxXxXxX",
"xXxXxXxXxXxXxXxXxXxXxXxXxXxXxXxXxXxXxXxX  z z.D.+.7 -.rX|.~.R.].].I.' ! ( -. X XxXxXxXxXxXxXxXxXxXxXxXxXxXxXxXxXxXxXxXxXxXxXxXxX",
"xXxXxXxXxXxXxXxXxXxXxXxXxXxXxXxXxXxXxXxXxXxXn A q # | /./.| | R.Q.].].I.r &XzXfX:./ xXxXxXxXxXxXxXxXxXxXxXxXxXxXxXxXxXxXxXxXxXxX",
"xXxXxXxXxXxXxXxXxXxXxXxXxXxXxXxXxXxXxXxXxXxX# @ ^ o.| Q.R. .} | I.].].I.r :XlXdX:./ xXxXxXxXxXxXxXxXxXxXxXxXxXxXxXxXxXxXxXxXxXxX",
"xXxXxXxXxXxXxXxXxXxXxXxXxXxXxXxXxXxXxXxXxXxX~ ^  XrX=X`.W. .) U.Y.Q.Q.` r :XlXjX:./ xXxXxXxXxXxXxXxXxXxXxXxXxXxXxXxXxXxXxXxXxXxX",
"xXxXxXxXxXxXxXxXxXxXxXxXxXxXxXxXxXxXxXxXxXxX_ ) =XpXrX.X`.} / U.I.Y.Y.) m ;XzXfX-./ xXxXxXxXxXxXxXxXxXxXxXxXxXxXxXxXxXxXxXxXxXxX",
"xXxXxXxXxXxXxXxXxXxXxXxXxXxXxXxXxXxXxXxXxXxX3 ~ (.|.uXkXpX`.R.| ` !.!.}.D.%X;X@X*.( xXxXxXxXxXxXxXxXxXxXxXxXxXxXxXxXxXxXxXxXxXxX",
"xXxXxXxXxXxXxXxXxXxXxXxXxXxXxXxXxXxXxXxXxXxX  2 ` R.tXlXjX|.`.} ) ].[.>XH.x.K r ( ( xXxXxXxXxXxXxXxXxXxXxXxXxXxXxXxXxXxXxXxXxXxX",
"xXxXxXxXxXxXxXxXxXxXxXxXxXxXxXxXxXxXxXxXxXxX  2 ` E.yXlXlXkXtX:.{ I.).#XJ.J.G.b.^ ~ xXxXxXxXxXxXxXxXxXxXxXxXxXxXxXxXxXxXxXxXxXxX",
"xXxXxXxXxXxXxXxXxXxXxXxXxXxXxXxXxXxXxXxXxXxX  2 ` R.yXlXlXlXjXXX{ { [ x.K.2X0X1XX.X xXxXxXxXxXxXxXxXxXxXxXxXxXxXxXxXxXxXxXxXxXxX",
"xXxXxXxXxXxXxXxXxXxXxXxXxXxXxXxXxXxXxXxXxXxX  2 ` E.-XjXjXzXjX@X:.[ [ G.<X2XeX,XJ   xXxXxXxXxXxXxXxXxXxXxXxXxXxXxXxXxXxXxXxXxXxX",
"xXxXxXxXxXxXxXxXxXxXxXxXxXxXxXxXxXxXxXxXxXxX  2 ` Y.~./.=XpXpX;XOX=...,X0X2XK.D.x   xXxXxXxXxXxXxXxXxXxXxXxXxXxXxXxXxXxXxXxXxXxX",
"xXxXxXxXxXxXxXxXxXxXxXxXxXxXxXxXxXxXxXxXxXxX  2 ` | ^./.|.tXyX;X&X=.[ %X4X<XL.m.z   xXxXxXxXxXxXxXxXxXxXxXxXxXxXxXxXxXxXxXxXxXxX",
"xXxXxXxXxXxXxXxXxXxXxXxXxXxXxXxXxXxXxXxXxXxXxXxX_ ) :.+X*X>X;X;XOX=.4 M #.h.j.j.xXxXxXxXxXxXxXxXxXxXxXxXxXxXxXxXxXxXxXxXxXxXxXxX",
"xXxXxXxXxXxXxXxXxXxXxXxXxXxXxXxXxXxXxXxXxXxXxXxX[ o.>.&X&X&X&XOX@Xo.o = y ,.3.0.xXxXxXxXxXxXxXxXxXxXxXxXxXxXxXxXxXxXxXxXxXxXxXxX",
"xXxXxXxXxXxXxXxXxXxXxXxXxXxXxXxXxXxXxXxXxXxXxX5 >.oX*X&X&X&XOX;.o.w % ,.3.1.d s $   xXxXxXxXxXxXxXxXxXxXxXxXxXxXxXxXxXxXxXxXxXxX",
"xXxXxXxXxXxXxXxXxXxXxXxXxXxXxXxXxXxXxXxXxXxX5 ! (.*X*X;X&X&X+X..X   $ 1.y.1.$       xXxXxXxXxXxXxXxXxXxXxXxXxXxXxXxXxXxXxXxXxXxX",
"xXxXxXxXxXxXxXxXxXxXxXxXxXxXxXxXxXxX  y y.k.'.!.{.{.=X*X@X>.;.^ xXxXxXN ,.s O   xXxXxXxXxXxXxXxXxXxXxXxXxXxXxXxXxXxXxXxXxXxXxXxX",
"xXxXxXxXxXxXxXxXxXxXxXxXxXxXxXxXxXxX  y 0.k._.[.].[.{.>XXXe @ xXxXxXxXO O o     xXxXxXxXxXxXxXxXxXxXxXxXxXxXxXxXxXxXxXxXxXxXxXxX",
"xXxXxXxXxXxXxXxXxXxXxXxXxXxXxXxXxXxX  t 2.k.}.}._._.(.>.>.e xXxXxXxXxXxX      xXxXxXxXxXxXxXxXxXxXxXxXxXxXxXxXxXxXxXxXxXxXxXxXxX",
"xXxXxXxXxXxXxXxXxXxXxXxXxXxXxXxXxXxX  t ,.1.k.k.f.f.C 5 7 xXxXxXxXxXxXxXxXxXxXxXxXxXxXxXxXxXxXxXxXxXxXxXxXxXxXxXxXxXxXxXxXxXxXxX",
"xXxXxXxXxXxXxXxXxXxXxXxXxXxXxXxXxXxX  t ,.1.3.3.1.N s $ xXxXxXxXxXxXxXxXxXxXxXxXxXxXxXxXxXxXxXxXxXxXxXxXxXxXxXxXxXxXxXxXxXxXxXxX",
"xXxXxXxXxXxXxXxXxXxXxXxXxXxXxXxXxXxXxXxXxXxXt t = & & xXxXxXxXxXxXxXxXxXxXxXxXxXxXxXxXxXxXxXxXxXxXxXxXxXxXxXxXxXxXxXxXxXxXxXxXxX",
"xXxXxXxXxXxXxXxXxXxXxXxXxXxXxXxXxXxXxXxXxXxX        xXxXxXxXxXxXxXxXxXxXxXxXxXxXxXxXxXxXxXxXxXxXxXxXxXxXxXxXxXxXxXxXxXxXxXxXxXxX"
};
