/* XPM */
static char *result[] = {
/* columns rows colors chars-per-pixel */
"64 64 233 2 ",
"   c #010100",
".  c #0A0202",
"X  c #090609",
"o  c #110403",
"O  c #180A05",
"+  c #1D130B",
"@  c #17161A",
"#  c #100B16",
"$  c #2C0C06",
"%  c #250A05",
"&  c #330D06",
"*  c #24150D",
"=  c #371309",
"-  c #2A1D13",
";  c #261B18",
":  c #351D18",
">  c #3B241D",
",  c #3C2B1D",
"<  c #342619",
"1  c #2D2115",
"2  c #050C20",
"3  c #13182D",
"4  c #221B22",
"5  c #301A33",
"6  c #1B223E",
"7  c #282628",
"8  c #3C2421",
"9  c #3C2C24",
"0  c #392627",
"q  c #3C3224",
"w  c #392736",
"e  c #353439",
"r  c #282B38",
"t  c #46170D",
"y  c #571C12",
"u  c #441D10",
"i  c #45261C",
"p  c #57261B",
"a  c #5A311F",
"s  c #632416",
"d  c #742A1A",
"f  c #7C331C",
"g  c #422425",
"h  c #432C23",
"j  c #47292A",
"k  c #522B28",
"l  c #443225",
"z  c #4A3425",
"x  c #4C352A",
"c  c #4E3B2B",
"v  c #483727",
"b  c #523D2C",
"n  c #543529",
"m  c #463A36",
"M  c #533D32",
"N  c #752D25",
"B  c #683528",
"V  c #793928",
"C  c #66312E",
"Z  c #421F24",
"A  c #56422E",
"S  c #58432F",
"D  c #56492F",
"F  c #544432",
"G  c #5A4530",
"H  c #5C4A32",
"J  c #544733",
"K  c #504532",
"L  c #614D35",
"P  c #634F39",
"I  c #6A4A36",
"U  c #784A31",
"Y  c #645239",
"T  c #6A563C",
"R  c #6D5A3E",
"E  c #625136",
"W  c #745B3F",
"Q  c #71422E",
"!  c #1E2658",
"~  c #252945",
"^  c #37374B",
"/  c #293256",
"(  c #273155",
")  c #393659",
"_  c #2B2E4F",
"`  c #1F366D",
"'  c #1C2F74",
"]  c #2E396D",
"[  c #4B3B46",
"{  c #403F57",
"}  c #3D4366",
"|  c #394473",
" . c #3B4059",
".. c #474346",
"X. c #584742",
"o. c #524F54",
"O. c #6C5843",
"+. c #715E40",
"@. c #7B5A45",
"#. c #725C51",
"$. c #756343",
"%. c #796646",
"&. c #776348",
"*. c #49506B",
"=. c #635E67",
"-. c #5D6477",
";. c #696669",
":. c #656878",
">. c #756F73",
",. c #87311E",
"<. c #873825",
"1. c #953926",
"2. c #973934",
"3. c #A23C2A",
"4. c #9A4429",
"5. c #874A37",
"6. c #9C4B32",
"7. c #914831",
"8. c #A94A2B",
"9. c #B24E2D",
"0. c #B4452E",
"q. c #AF502F",
"w. c #B4502F",
"e. c #BB512F",
"r. c #AE5334",
"t. c #B65535",
"y. c #B94531",
"u. c #C75B37",
"i. c #D35C38",
"p. c #D7643B",
"a. c #CE633F",
"s. c #E3683C",
"d. c #F36D3C",
"f. c #8C3841",
"g. c #885A47",
"h. c #96584C",
"j. c #BD5C44",
"k. c #B1494B",
"l. c #89644B",
"z. c #967055",
"x. c #A77A5A",
"c. c #AB725B",
"v. c #91786A",
"b. c #977F73",
"n. c #84706C",
"m. c #B07663",
"M. c #D46A48",
"N. c #E76D43",
"B. c #ED7245",
"V. c #F27446",
"C. c #F2754A",
"Z. c #EE744C",
"A. c #C46D58",
"S. c #9D8273",
"D. c #B88764",
"F. c #A78977",
"G. c #B58E77",
"H. c #C9936D",
"J. c #C99876",
"K. c #D19C76",
"L. c #CD886F",
"P. c #DF9579",
"I. c #2C3B8E",
"U. c #2E4586",
"Y. c #2D4993",
"T. c #374997",
"R. c #3C5593",
"E. c #364C8B",
"W. c #3D619F",
"Q. c #2E4CA2",
"!. c #364EB1",
"~. c #4B5C96",
"^. c #42528A",
"/. c #566599",
"(. c #6F728A",
"). c #4754B3",
"_. c #7551B0",
"`. c #5372B1",
"'. c #64469D",
"]. c #3654C8",
"[. c #465CD7",
"{. c #737DC5",
"}. c #8D5A9C",
"|. c #7D8BAC",
" X c #7E8997",
".X c #6D8EC7",
"XX c #848389",
"oX c #898A94",
"OX c #95949C",
"+X c #919097",
"@X c #8F9198",
"#X c #A78286",
"$X c #B69485",
"%X c #B39085",
"&X c #9C9BA5",
"*X c #9799A6",
"=X c #8696B7",
"-X c #8E96B4",
";X c #A4A5AB",
":X c #B0B0B5",
">X c #A198B2",
",X c #C8A28B",
"<X c #DAAB8D",
"1X c #D7AE95",
"2X c #E3B597",
"3X c #F1AF9F",
"4X c #DDB8A7",
"5X c #C8ADAE",
"6X c #E8BFA6",
"7X c #EABBB1",
"8X c #EAC4AD",
"9X c #EBC7B4",
"0X c #F3CBB3",
"qX c #F6C0B3",
"wX c #F8D0B8",
"eX c #F1C7AD",
"rX c #97A9C6",
"tX c #ABB6CA",
"yX c #B2B5C8",
"uX c #B3BCD5",
"iX c #C4BFC0",
"pX c #B6C4D3",
"aX c #CAC3C6",
"sX c #D6C7C5",
"dX c #D8D9DA",
"fX c #CDD0D3",
"gX c #E8DAD5",
"hX c #F2D6CB",
"jX c #DBDEE6",
"kX c #C7CFE4",
"lX c #F9F7F7",
"zX c #E9EBED",
"xX c None",
/* pixels */
"xXxXxXxXxXxXxXxXxXxXxXxXxXxXxXxXxXxXxXxXxXxXxXxXxX8 8 8 8 8 8 xXxXxXxXxXxXxXxXxXxXxXxXxXxXxXxXxXxXxXxXxXxXxXxXxXxXxXxXxXxXxXxXxX",
"xXxXxXxXxXxXxXxXxXxXxXxXxXxXxXxXxXxXxXxXxXxXxXxXh l j l l l l xXxXxXxXxXxXxXxXxXxXxXxXxXxXxXxXxXxXxXxXxXxXxXxXxXxXxXxXxXxXxXxXxX",
"xXxXxXxXxXxXxXxXxXxXxXxXxXxXxXxXxXxXxXxXxXxXxX+ D T O.R R R Y c 8 xXxXxXxXxX8 8 8 8 xXxXxXxXxXxXxXxXxXxXxXxXxXxXxXxXxXxXxXxXxXxX",
"xXxXxXxXxXxXxXxXxXxXxXxXxXxXxXxXxXxXxXxXxXxXo * H $.%.%.%.&.$.c 0 xXxXxXxXxXh h 8 8 xXxXxXxXxXxXxXxXxXxXxXxXxXxXxXxXxXxXxXxXxXxX",
"xXxXxXxXxXxXxXxXxXxXxXxXxXxXxXxXxXxXxXxXxX8 : - v D H Y +.&.$.Y P b 8 8 8 F P H h 8 xXxXxXxXxXxXxXxXxXxXxXxXxXxXxXxXxXxXxXxXxXxX",
"xXxXxXxXxXxXxXxXxXxXxXxXxXxXxXxXxXxXxXxX8 8 0 8 ; + 9 F E &.%.%.$.M 8 8 h H $.O.l 8 xXxXxXxXxXxXxXxXxXxXxXxXxXxXxXxXxXxXxXxXxXxX",
"xXxXxXxXxXxXxXxXxXxXxXxXxXxXxXxXxXxXxXh z z z z q 9 9 l c Y O.&.$.M g M H E T H h 8 xXxXxXxXxXxXxXxXxXxXxXxXxXxXxXxXxXxXxXxXxXxX",
"xXxXxXxXxXxXxXxXxXxXxXxXxXxXxXxX. * 8 h b F S S F F q + ; 0 M $.$.M j P $.R D A h i xXxX  X xXxXxXxXxXxXxXxXxXxXxXxXxXxXxXxXxXxX",
"xXxXxXxXxXxXxXxXxXxXxXxXxXxXxX- 1 , h x A H E E Y Y F < , j M R +.M n I W E A v z z xXxX, 1 - xXxXxXxXxXxXxXxXxXxXxXxXxXxXxXxXxX",
"xXxXxXxXxXxXxXxXxXxXxXxXxX. o , A A A A S D R $.$.$.T A A A G G L G M H D A , q A S S S A b , . . xXxXxXxXxXxXxXxXxXxXxXxXxXxXxX",
"xXxXxXxXxXxXxXxXxXxXxXxXxX- - l F G H D H E +.%.%.%.+.L H G G G S G G L H A v c S S A A b b 9 X xXxXxXxXxXxXxXxXxXxXxXxXxXxXxXxX",
"xXxXxXxXxXxXxXxXxXxXxX8 8 z c A G D D H +.$.%.%.%.%.$.$.R H A G G G G T $.$.R R G A l , < - * xXxXxXxXxXxXxXxXxXxXxXxXxXxXxXxXxX",
"xXxXxXxXxXxXxXxXxXxXxX8 8 c A A A S D H +.%.%.%.%.%.%.%.+.L H L L L H W %.%.$.O.H A z p u = xXxXxXxXxXxXxXxXxXxXxXxXxXxXxXxXxXxX",
"xXxXxXxXxXxXxXxXxXxXxXxXxXl z z v c D D E Y $.%.%.%.%.%.%.$.+.+.W W W $.%.+.E J n B 4.4.4.4.,.w xXxXxXxXxXxXxXxXxXxXxXxXxXxXxXxX",
"xXxXxXxXxXxXxXxXxXxXxXxXxX> 8 0 9 z S S D E +.%.%.%.%.%.%.%.%.%.%.%.%.%.%.R J c k B 8.r.u.j.g.k j xXxXxXxXxXxXxXxXxXxXxXxXxXxXxX",
"xXxXxXxXxXxXxXxXxXxXxXxXO l x c c A S D D D Y T T R @.%.%.%.%.%.$.R T T Y E J Q 7.4.6.c.5X9X%X3.<.k xXxXxXxXxXxXxXxXxXxXxXxXxXxX",
"xXxXxXxXxXxXxXxXxXxXxX. + l S S G S D S S G G G G G T @.&.%.%.%.$.Y G G G G G 5.w.t.g.S.gXlX4Xu.4.k j xXxXxXxXxXxXxXxXxXxXxXxXxX",
"xXxXxXxXxXxXxXxXxXxXxX< , c G G G S c A S S G G G G P O.R O.R W R L G G G F b V w.r.U v.dXlX7XM.u.r.6.xXxXxXxXxXxXxXxXxXxXxXxXxX",
"xXxXxXxXxXxXxXxXxX  + v A S S S G b , i A G G G G G G H H H G H H G G G G b j V w.q.B ;.dXlX0XC.B.N.a.V j xXxXxXxXxXxXxXxXxXxXxX",
"xXxXxXxXxXxXxXxXxX+ - c D S G S A c l z S G G G F b F G G G G G G G G G H n g V 8.j.n.XXsXgX3XC.V.V.M.C Z xXxXxXxXxXxXxXxXxXxXxX",
"xXxXxXxXxXxXxXxXxX< 9 b S S S b q l A S S G G S x h n G G G G G G G G G G n g V q.m.:X:X$XA.Z.C.V.V.i.p % xXxXxXxXxXxXxXxXxXxXxX",
"xXxXxXxXxXxXxXxXxX9 h b A A A x q v A G S G S A z h x G G G G G G G G G G n B <.q.m.5X5XL.i.M.C.V.N.i.y X xXxXxXxXxXxXxXxXxXxXxX",
"xXxXxXxXxXxXxXxXxXF M v l h h z A A S G S S z l c A A G G G G G G G G x j U 8.q.t.j.P.Z.L.d.d.d.s.i.3.t . xXxXxXxXxXxXxXxXxXxXxX",
"xXxXxXxXxXxXxXxXxXJ J l > i Z x S S S S S A l , A D G S S G G G G G G x 0 <.y.y.u.M.Z.Z.V.d.d.d.s.u.3.t . xXxXxXxXxXxXxXxXxXxXxX",
"xXxXxXxXxXxXxXxXxXxXxXxXxX8 g x S S G S c z b b b S b x c S S G G G A x 8 V w.u.p.N.B.C.C.V.s.i.9.,.d xXxXxXxXxXxXxXxXxXxXxXxXxX",
"xXxXxXxXxXxXxXxXxXxXxXxXxXg g x A S S A h i b S L S c 0 l A S G G F A z i 7.e.u.B.B.B.B.B.B.i.u.1.= O xXxXxXxXxXxXxXxXxXxXxXxXxX",
"xXxXxXxXxXxXxXxXxXxXxXxXxXxXxXx x n S A h g z x b G F x A A G G A z h B d 1.8.8.k.t.t.t.r.q.4.<.f & xXxXxXxXxXxXxXxXxXxXxXxXxXxX",
"xXxXxXxXxXxXxXxXxXxXxXxXxXxXxXxXw x A A z i i , c G G G G G G D A < $ N 2.1.1.,.C x x k > = $ % % xXxXxXxXxXxXxXxXxXxXxXxXxXxXxX",
"xXxXxXxXxXxXxXxXxXxXxXxXxXxXxXxXZ j b B 6.6.7.f B z A A D S A v v p Q }.5X%X<.g.b.F.F.S.O.; @   xXxXxXxXxXxXxXxXxXxXxXxXxXxXxXxX",
"xXxXxXxXxXxXxXxXxXxXxXxXxXxXxXxXxXxX0 V M.N.u.9.f * , A S S A 1 = f h.aXzX5X[ v.6X0X0X7Xv.w xXxXxXxXxXxXxXxXxXxXxXxXxXxXxXxXxXxX",
"xXxXxXxXxXxXxXxXxXxXxXxXxXxXxXxXxXxX8 V u.p.u.w.4.s a A A S A - 1 5.c.sXlXaX..v.8XwXwX8Xb.m xXxXxXxXxXxXxXxXxXxXxXxXxXxXxXxXxXxX",
"xXxXxXxXxXxXxXxXxXxXxXxXxXxXxXxXxXxXi i B U 8.w.9.8.<.: , A c * h D.J.gXlXaX..v.9XwXwX9Xb.[ xXxXxXxXxXxXxXxXxXxXxXxXxXxXxXxXxXxX",
"xXxXxXxXxXxXxXxXxXxXxXxXxXxXxXxXxXxXi > , a 6.r.q.8.7.$ 1 b b b I D.K.gXlXaX;.F.eXwXwXeXF.O.xXxXxXxXxXxXxXxXxXxXxXxXxXxXxXxXxXxX",
"xXxXxXxXxXxXxXxXxXxXxXxXxXxXxXxXxXxXxXxX< i H U U U a O O - G c.D.H.K.8XhXwX2X8X0XwXwX0X,XD.xXxXxXxXxXxXxXxXxXxXxXxXxXxXxXxXxXxX",
"xXxXxXxXxXxXxXxXxXxXxXxXxXxXxXxXxXxXxXxX0 9 K D D D l + # X L D.H.H.K.2X0X0XwXwX0X0X0XeX<XH.xXxXxXxXxXxXxXxXxXxXxXxXxXxXxXxXxXxX",
"xXxXxXxXxXxXxXxXxXxXxXxXxXxXxXxXxXxXxXxXxXxXxXxXK D K v q > j g.l.l.z.J.<X8XwXeX2X<X$X%XJ.xXxXxXxXxXxXxXxXxXxXxXxXxXxXxXxXxXxXxX",
"xXxXxXxXxXxXxXxXxXxXxXxXxXxXxXxXxXxXxXxXxXxXxXxXD D K K c g g Z w K J D.K.1X0X8XK.H.@.X.xXxXxXxXxXxXxXxXxXxXxXxXxXxXxXxXxXxXxXxX",
"xXxXxXxXxXxXxXxXxXxXxXxXxXxXxXxXxXxXxXxXxXxXxXxXq q q q g w w w w q e l.x.D.G.F.z.z.O.xXxXxXxXxXxXxXxXxXxXxXxXxXxXxXxXxXxXxXxXxX",
"xXxXxXxXxXxXxXxXxXxXxXxXxXxXxXxXxXxXxXxXxXxXxXxXX X X X ; w w w w 7 @ n I b v 9 - - xXxXxXxXxXxXxXxXxXxXxXxXxXxXxXxXxXxXxXxXxXxX",
"xXxXxXxXxXxXxXxXxXxXxXxXxXxXxXxXxXxXxXxXxXxXxXxX6 3 @ X ! I.E.| } -.(.o.n I @.Y -   xXxXxXxXxXxXxXxXxXxXxXxXxXxXxXxXxXxXxXxXxXxX",
"xXxXxXxXxXxXxXxXxXxXxXxXxXxXxXxXxXxXxXxXxXxX/ / ( ( 6 2 ' ].].Q.~.=XrX X0 l.H.D.,   xXxXxXxXxXxXxXxXxXxXxXxXxXxXxXxXxXxXxXxXxXxX",
"xXxXxXxXxXxXxXxXxXxXxXxXxXxXxXxXxXxXxXxXxXxX XoX-.( ! ` I.].].T.~.=X=X(.; W D.z.l   xXxXxXxXxXxXxXxXxXxXxXxXxXxXxXxXxXxXxXxXxXxX",
"xXxXxXxXxXxXxXxXxXxXxXxXxXxXxXxXxXxXxXxX/ :.fXjX&Xr I.].!.Q.Y.| | ~./.| 2 < b b xXxXxXxXxXxXxXxXxXxXxXxXxXxXxXxXxXxXxXxXxXxXxXxX",
"xXxXxXxXxXxXxXxXxXxXxXxXxXxXxXxXxXxXxXxX/ :.dXlX:X6 I.].].Y.Y.} *.R.W.*.o.^ @ 2 xXxXxXxXxXxXxXxXxXxXxXxXxXxXxXxXxXxXxXxXxXxXxXxX",
"xXxXxXxXxXxXxXxXxXxXxXxXxXxXxXxXxXxXxXxX/ :.dXlX:X7 ` Q.Q.Y.U.^ ^ W.`..XrX X^ ~ xXxXxXxXxXxXxXxXxXxXxXxXxXxXxXxXxXxXxXxXxXxXxXxX",
"xXxXxXxXxXxXxXxXxXxXxXxXxXxXxXxXxXxXxXxX/ -.dXzX;Xv } Y.Y.Y.| / } `..XrXpX*X ._ xXxXxXxXxXxXxXxXxXxXxXxXxXxXxXxXxXxXxXxXxXxXxXxX",
"xXxXxXxXxXxXxXxXxXxXxXxXxXxXxXxXxXxXxXxX/ } @X;X%XS.}.).Q.| | W.`.pXkXtX|.(.~ 3 xXxXxXxXxXxXxXxXxXxXxXxXxXxXxXxXxXxXxXxXxXxXxXxX",
"xXxXxXxXxXxXxXxXxXxXxXxXxXxXxXxXxXxXxXxX/ / e K x.J.>X[.!.]  .`.|.jXlXuXR.` 2   xXxXxXxXxXxXxXxXxXxXxXxXxXxXxXxXxXxXxXxXxXxXxXxX",
"xXxXxXxXxXxXxXxXxXxXxXxXxXxXxXxXxXxXxXxX6 [ b.%XJ.K.#X).T.) :.tXkXlXlXyXR.` 2   xXxXxXxXxXxXxXxXxXxXxXxXxXxXxXxXxXxXxXxXxXxXxXxX",
"xXxXxXxXxXxXxXxXxXxXxXxXxXxXxXxXxXxXxXxXX X.1X0X1XK.m.[ ) { }.zXlXlXlXyXE.` 2   xXxXxXxXxXxXxXxXxXxXxXxXxXxXxXxXxXxXxXxXxXxXxXxX",
"xXxXxXxXxXxXxXxXxXxXxXxXxXxXxXxXxXxXxXxX  J ,X6X2X<XG.m ..:.+XjXzXjXdX-XE.` 2   xXxXxXxXxXxXxXxXxXxXxXxXxXxXxXxXxXxXxXxXxXxXxXxX",
"xXxXxXxXxXxXxXxXxXxXxXxXxXxXxXxXxXxXxXxX  x D.,X6X0X,X[ ;.+X;XpXpX=X/.~.Y.` 2   xXxXxXxXxXxXxXxXxXxXxXxXxXxXxXxXxXxXxXxXxXxXxXxX",
"xXxXxXxXxXxXxXxXxXxXxXxXxXxXxXxXxXxXxXxX  n m.L.<X6X%X[ =.OX;XyXtX|./.R.I./ 2   xXxXxXxXxXxXxXxXxXxXxXxXxXxXxXxXxXxXxXxXxXxXxXxX",
"xXxXxXxXxXxXxXxXxXxXxXxXxXxXxXxXxXxXxXxXxXxXu.j.h.#.X.4 =.OX&X;X;X*X+X:.) _ xXxXxXxXxXxXxXxXxXxXxXxXxXxXxXxXxXxXxXxXxXxXxXxXxXxX",
"xXxXxXxXxXxXxXxXxXxXxXxXxXxXxXxXxXxXxXxXxXxX0.0.,.t & X o.+XOX&X&X&X&X>.o.[ xXxXxXxXxXxXxXxXxXxXxXxXxXxXxXxXxXxXxXxXxXxXxXxXxXxX",
"xXxXxXxXxXxXxXxXxXxXxXxXxXxXxXxXxXxXxXxX  $ y d 1.3.,.% e o.;.OX&X&X&X*XoX>.r xXxXxXxXxXxXxXxXxXxXxXxXxXxXxXxXxXxXxXxXxXxXxXxXxX",
"xXxXxXxXxXxXxXxXxXxXxXxXxXxXxXxXxXxXxXxX    . & 1.y.1.&   X ..oX&X&X>X&X*X(.6 5 xXxXxXxXxXxXxXxXxXxXxXxXxXxXxXxXxXxXxXxXxXxXxXxX",
"xXxXxXxXxXxXxXxXxXxXxXxXxXxXxXxXxXxXxXxXxXxX  O s N d xXxXxX..;.>.+X*X-X{.{.!.'.k.y.s X xXxXxXxXxXxXxXxXxXxXxXxXxXxXxXxXxXxXxXxX",
"xXxXxXxXxXxXxXxXxXxXxXxXxXxXxXxXxXxXxXxXxXxX    o O O xXxXxXxX@ e XX&X{.[.[.]._.k.3.y   xXxXxXxXxXxXxXxXxXxXxXxXxXxXxXxXxXxXxXxX",
"xXxXxXxXxXxXxXxXxXxXxXxXxXxXxXxXxXxXxXxXxXxXxX      xXxXxXxXxXxXe >.(.(._._.}.}.k.1.y   xXxXxXxXxXxXxXxXxXxXxXxXxXxXxXxXxXxXxXxX",
"xXxXxXxXxXxXxXxXxXxXxXxXxXxXxXxXxXxXxXxXxXxXxXxXxXxXxXxXxXxXxXxXxX7 0 C f.f.k.k.1.,.t   xXxXxXxXxXxXxXxXxXxXxXxXxXxXxXxXxXxXxXxX",
"xXxXxXxXxXxXxXxXxXxXxXxXxXxXxXxXxXxXxXxXxXxXxXxXxXxXxXxXxXxXxXxXxXxX% s N 2.3.3.1.<.=   xXxXxXxXxXxXxXxXxXxXxXxXxXxXxXxXxXxXxXxX",
"xXxXxXxXxXxXxXxXxXxXxXxXxXxXxXxXxXxXxXxXxXxXxXxXxXxXxXxXxXxXxXxXxXxXxX$ & = t y xXxXxXxXxXxXxXxXxXxXxXxXxXxXxXxXxXxXxXxXxXxXxXxX",
"xXxXxXxXxXxXxXxXxXxXxXxXxXxXxXxXxXxXxXxXxXxXxXxXxXxXxXxXxXxXxXxXxXxXxXxX      . xXxXxXxXxXxXxXxXxXxXxXxXxXxXxXxXxXxXxXxXxXxXxXxX"
};
